<?xml version="1.0" encoding="UTF-8" standalone="no"?>
<!-- Created with Inkscape (http://www.inkscape.org/) -->

<svg
   version="1.1"
   id="svg25"
   xml:space="preserve"
   width="645.33331"
   height="230.66667"
   viewBox="0 0 645.33331 230.66667"
   sodipodi:docname="圖片 1.svg"
   inkscape:version="1.1 (c4e8f9e, 2021-05-24)"
   xmlns:inkscape="http://www.inkscape.org/namespaces/inkscape"
   xmlns:sodipodi="http://sodipodi.sourceforge.net/DTD/sodipodi-0.dtd"
   xmlns="http://www.w3.org/2000/svg"
   xmlns:svg="http://www.w3.org/2000/svg"><defs
     id="defs29"><clipPath
       clipPathUnits="userSpaceOnUse"
       id="clipPath41"><path
         d="M 0,0.2 H 483.9273 V 173 H 0 Z"
         id="path39" /></clipPath></defs><sodipodi:namedview
     id="namedview27"
     pagecolor="#505050"
     bordercolor="#eeeeee"
     borderopacity="1"
     inkscape:pageshadow="0"
     inkscape:pageopacity="0"
     inkscape:pagecheckerboard="0"
     showgrid="false"
     inkscape:zoom="1.7339877"
     inkscape:cx="214.5344"
     inkscape:cy="115.34107"
     inkscape:window-width="1332"
     inkscape:window-height="958"
     inkscape:window-x="0"
     inkscape:window-y="25"
     inkscape:window-maximized="0"
     inkscape:current-layer="g31" /><g
     id="g31"
     inkscape:groupmode="layer"
     inkscape:label="圖片 1"
     transform="matrix(1.3333333,0,0,-1.3333333,0,230.66667)"><g
       id="g33" /><g
       id="g35"><g
         id="g37"
         clip-path="url(#clipPath41)"><path
           d="M 0,173 H 483.9273 V 0.2 L 0,0.2 Z"
           style="fill:#ffffff;fill-opacity:1;fill-rule:nonzero;stroke:none"
           id="path43" /></g></g><g
       id="g45"><path
         d="m 146.1818,125.6728 h 84.6546 V 40.14544 h -84.6546 z"
         style="fill:#dae3f3;fill-opacity:1;fill-rule:nonzero;stroke:none"
         id="path47" /><path
         d="M 38.61818,125.6728 H 146.6182 V 40.14544 H 38.61818 Z"
         style="fill:#f8cbad;fill-opacity:1;fill-rule:nonzero;stroke:none"
         id="path49" /><path
         d="m 265.0727,40.56819 -263.872715,-8e-5 v -1.5 l 263.872715,8e-5 z m -3e-4,-0.75 -4,-5 10,5 -10,5 z"
         style="fill:#000000;fill-opacity:1;fill-rule:nonzero;stroke:none"
         id="path51" /><g
         id="g53"
         transform="matrix(0.2181818,0,0,0.2181818,35.15777,-155.8)"><text
           transform="matrix(1,0,0,-1,0,792)"
           style="font-variant:normal;font-weight:normal;font-size:83px;font-family:'Minion Pro';-inkscape-font-specification:MinionPro-Regular;writing-mode:lr-tb;fill:#000000;fill-opacity:1;fill-rule:nonzero;stroke:none"
           id="text57"><tspan
             x="0"
             y="0"
             id="tspan55">0</tspan></text></g><g
         id="g59"
         transform="matrix(0.2181818,0,0,0.2181818,226.6751,-155.8)"><text
           transform="matrix(1,0,0,-1,0,792)"
           style="font-variant:normal;font-weight:normal;font-size:83px;font-family:'Minion Pro';-inkscape-font-specification:MinionPro-Regular;writing-mode:lr-tb;fill:#000000;fill-opacity:1;fill-rule:nonzero;stroke:none"
           id="text63"><tspan
             x="0"
             y="0"
             id="tspan61">1</tspan></text></g><g
         id="g65"
         transform="matrix(7.874016e-5,0,0,-7.874016e-5,146.6182,141.3818)"><path
           d="M 0,0 1,1332689"
           style="fill:none;stroke:#ff9300;stroke-width:15875;stroke-linecap:butt;stroke-linejoin:miter;stroke-miterlimit:8;stroke-dasharray:63500, 47625;stroke-dashoffset:0;stroke-opacity:1"
           id="path67" /></g><g
         id="g69"
         transform="matrix(0.2181818,0,0,0.2181818,143.1574,-155.8)"><text
           transform="matrix(1,0,0,-1,0,792)"
           style="font-style:italic;font-variant:normal;font-size:83px;font-family:'Minion Pro';-inkscape-font-specification:MinionPro-It;writing-mode:lr-tb;fill:#ff9300;fill-opacity:1;fill-rule:nonzero;stroke:none"
           id="text73"><tspan
             x="0"
             y="0"
             id="tspan71">p</tspan></text></g><g
         id="g75"
         transform="matrix(0.2181818,0,0,0.2181818,56.60462,-21.61817)"><text
           transform="matrix(1,0,0,-1,0,792)"
           style="font-variant:normal;font-weight:normal;font-size:83px;font-family:'Minion Pro';-inkscape-font-specification:MinionPro-Regular;writing-mode:lr-tb;fill:#000000;fill-opacity:1;fill-rule:nonzero;stroke:none"
           id="text79"><tspan
             x="0 43.541794 88.826591 111.20338 135.82118 177.61998 207.96477 275.57657 294.46738 338.00916 360.38596 390.73074 415.92953 434.82034 453.71115 476.08795 521.37274 540.26355 568.9483 608.5061 627.39691 666.95471"
             y="0"
             sodipodi:role="line"
             id="tspan77">uniform dist. in (0,1)</tspan></text></g><path
         d="m 304.5818,92.50906 h 23.56362 v 23.78189 H 304.5818 Z"
         style="fill:#f8cbad;fill-opacity:1;fill-rule:nonzero;stroke:none"
         id="path81" /><path
         d="m 304.5818,75.27276 h 23.5636 v -23.5637 h -23.5636 z"
         style="fill:#dae3f3;fill-opacity:1;fill-rule:nonzero;stroke:none"
         id="path83" /><g
         id="g85"
         transform="matrix(0.2181818,0,0,0.2181818,335.2843,-73.10908)"><text
           transform="matrix(1,0,0,-1,0,792)"
           style="font-variant:normal;font-size:64px;font-family:'GenYoMin TW TTF';-inkscape-font-specification:GenYoMinTW-Regular-TTF;writing-mode:lr-tb;fill:#000000;fill-opacity:1;fill-rule:nonzero;stroke:none"
           id="text89"><tspan
             x="0 64.166397 128.33279 192.49921 256.66559 320.832"
             y="0"
             sodipodi:role="line"
             id="tspan87">抽到數字小於</tspan></text></g><g
         id="g91"
         transform="matrix(0.2181818,0,0,0.2181818,422.9093,-73.10908)"><text
           transform="matrix(1,0,0,-1,0,792)"
           style="font-style:italic;font-variant:normal;font-size:64px;font-family:'Minion Pro';-inkscape-font-specification:MinionPro-It;writing-mode:lr-tb;fill:#000000;fill-opacity:1;fill-rule:nonzero;stroke:none"
           id="text95"><tspan
             x="0"
             y="0"
             id="tspan93">p</tspan></text></g><g
         id="g97"
         transform="matrix(0.2181818,0,0,0.2181818,433.2843,-73.10908)"><text
           transform="matrix(1,0,0,-1,0,792)"
           style="font-variant:normal;font-size:64px;font-family:'GenYoMin TW TTF';-inkscape-font-specification:GenYoMinTW-Regular-TTF;writing-mode:lr-tb;fill:#000000;fill-opacity:1;fill-rule:nonzero;stroke:none"
           id="text101"><tspan
             x="0 64.166397 128.33279"
             y="0"
             sodipodi:role="line"
             id="tspan99">的機率</tspan></text></g><g
         id="g103"
         transform="matrix(0.2181818,0,0,0.2181818,335.2842,-113.4727)"><text
           transform="matrix(1,0,0,-1,0,792)"
           style="font-variant:normal;font-size:64px;font-family:'GenYoMin TW TTF';-inkscape-font-specification:GenYoMinTW-Regular-TTF;writing-mode:lr-tb;fill:#000000;fill-opacity:1;fill-rule:nonzero;stroke:none"
           id="text107"><tspan
             x="0 64.166397 128.33279 192.49921 256.66559 320.832"
             y="0"
             sodipodi:role="line"
             id="tspan105">抽到數字大於</tspan></text></g><g
         id="g109"
         transform="matrix(0.2181818,0,0,0.2181818,422.9092,-113.4727)"><text
           transform="matrix(1,0,0,-1,0,792)"
           style="font-style:italic;font-variant:normal;font-size:64px;font-family:'Minion Pro';-inkscape-font-specification:MinionPro-It;writing-mode:lr-tb;fill:#000000;fill-opacity:1;fill-rule:nonzero;stroke:none"
           id="text113"><tspan
             x="0"
             y="0"
             id="tspan111">p</tspan></text></g><g
         id="g115"
         transform="matrix(0.2181818,0,0,0.2181818,433.2842,-113.4727)"><text
           transform="matrix(1,0,0,-1,0,792)"
           style="font-variant:normal;font-size:64px;font-family:'GenYoMin TW TTF';-inkscape-font-specification:GenYoMinTW-Regular-TTF;writing-mode:lr-tb;fill:#000000;fill-opacity:1;fill-rule:nonzero;stroke:none"
           id="text119"><tspan
             x="0 64.166397 128.33279"
             y="0"
             sodipodi:role="line"
             id="tspan117">的機率</tspan></text></g></g></g></svg>
