<?xml version="1.0" encoding="UTF-8" standalone="no"?>
<svg
   version="1.0"
   width="171mm"
   height="62mm"
   id="svg106"
   xmlns="http://www.w3.org/2000/svg"
   xmlns:svg="http://www.w3.org/2000/svg">
  <defs
     id="defs6">
    <clipPath
       clipPathUnits="userSpaceOnUse"
       id="clipEmfPath1">
      <path
         d="  M 0,230.39829   L 645.19522,230.39829   L 645.19522,0   L 0,0   z"
         id="path2" />
    </clipPath>
    <pattern
       id="EMFhbasepattern"
       patternUnits="userSpaceOnUse"
       width="6"
       height="6"
       x="0"
       y="0" />
  </defs>
  <path
     style="fill:#ffffff;fill-rule:nonzero;fill-opacity:1;stroke:none;"
     clip-path="url(#clipEmfPath1)"
     d="  M 0,0   L 645.19522,0   L 645.19522,230.39829   L 0,230.39829   z "
     id="path8" />
  <path
     style="fill:#dae3f3;fill-rule:nonzero;fill-opacity:1;stroke:none;"
     d="  M 194.87856,63.119532   L 307.75772,63.119532   L 307.75772,177.11869   L 194.87856,177.11869   z "
     id="path10" />
  <path
     style="fill:#f8cbad;fill-rule:nonzero;fill-opacity:1;stroke:none;"
     d="  M 51.519618,63.119532   L 195.51855,63.119532   L 195.51855,177.11869   L 51.519618,177.11869   z "
     id="path12" />
  <path
     style="fill:#000000;fill-rule:nonzero;fill-opacity:1;stroke:none;"
     d="  M 353.43738,176.55869   L 1.5999881,176.55869   L 1.5999881,178.55868   L 353.43738,178.55868   z  M 353.43738,177.59868   L 348.07742,184.23864   L 361.43732,177.59868   L 348.07742,170.87873   z "
     id="path14" />
  <path
     style="fill:#000000;fill-rule:nonzero;fill-opacity:1;stroke:none;"
     d="  M 52.63961,192.63857   C 49.039637,192.63857 47.759646,196.95854 47.759646,200.47851   C 47.759646,204.31849 49.039637,208.31846 52.63961,208.31846   C 56.319583,208.31846 57.599573,203.99849 57.599573,200.47851   C 57.599573,196.71854 56.319583,192.63857 52.63961,192.63857   z  M 52.63961,193.43857   C 54.799594,193.43857 55.439589,197.03854 55.439589,200.47851   C 55.439589,203.83849 54.879593,207.43846 52.63961,207.43846   C 50.559625,207.43846 49.839631,203.83849 49.839631,200.47851   C 49.839631,197.11854 50.479626,193.43857 52.63961,193.43857   z "
     id="path16" />
  <path
     style="fill:#000000;fill-rule:nonzero;fill-opacity:1;stroke:none;"
     d="  M 311.51769,207.99846   L 311.51769,207.35846   C 309.27771,207.19847 309.19771,206.95847 309.19771,205.27848   L 309.19771,192.63857   C 307.83772,193.19857 306.39773,193.67857 304.87774,193.91856   L 304.87774,194.47856   L 305.99773,194.55856   C 307.11773,194.55856 307.19772,194.71856 307.19772,195.91855   L 307.19772,205.27848   C 307.19772,206.95847 307.03773,207.19847 304.87774,207.35846   L 304.87774,207.99846   z "
     id="path18" />
  <path
     style="fill:none;stroke:#ff9300;stroke-width:1.6799875px;stroke-linecap:butt;stroke-linejoin:miter;stroke-miterlimit:8;stroke-dasharray:6.6399508,5.0399628;stroke-dashoffset:0;stroke-opacity:1;"
     d="  M 195.51855,42.159688   L 195.51855,182.07865  "
     id="path20" />
  <path
     style="fill:#ff9300;fill-rule:nonzero;fill-opacity:1;stroke:none;"
     d="  M 196.63854,195.59855   L 196.39855,195.43855   C 195.83855,195.75855 195.11855,196.31855 194.63856,196.87854   L 194.39856,197.91853   C 193.59857,198.23853 192.71857,198.71853 192.07858,199.19852   L 192.23858,199.75852   C 192.79857,199.43852 193.43857,199.11853 194.15856,198.87853   C 193.27857,203.0385 192.39857,207.27846 191.51858,211.51843   C 191.11858,213.03842 190.87859,213.19842 189.3586,213.51842   L 189.2786,214.15841   L 194.79856,213.83842   L 194.87856,213.19842   L 194.31856,213.19842   C 193.11857,213.03842 193.03857,212.79842 193.27857,211.43843   L 193.99856,208.07846   C 194.39856,208.23846 195.03856,208.31846 195.35855,208.31846   C 196.95854,207.91846 198.63853,206.87847 199.91852,205.51848   C 201.27851,203.91849 201.9185,202.0785 201.9185,200.47851   C 201.9185,198.31853 200.95851,197.11854 198.47853,197.11854   C 197.83853,197.11854 196.87854,197.27854 196.23855,197.43854   z  M 195.99855,198.39853   C 196.47854,198.23853 196.95854,198.15853 197.35854,198.15853   C 198.79853,198.15853 199.91852,198.71853 199.91852,200.87851   C 199.91852,203.99849 197.59854,207.19847 195.83855,207.19847   C 195.27855,207.19847 194.63856,206.79847 194.31856,206.39847   z "
     id="path22" />
  <path
     style="fill:#000000;fill-rule:nonzero;fill-opacity:1;stroke:none;"
     d="  M 87.999348,27.919793   L 87.279353,27.839794   C 86.39936,27.839794 86.159362,27.679795 86.159362,26.399804   L 86.159362,18.399864   C 84.879371,18.639862 83.67938,18.719861 82.39939,18.799861   L 82.39939,19.359857   C 84.159377,19.599855 84.319375,19.679854 84.319375,21.039844   L 84.319375,26.719802   C 83.439382,27.519796 82.559388,27.839794 81.679395,27.839794   C 80.559403,27.839794 79.519411,27.279798 79.519411,25.119814   L 79.519411,21.919838   C 79.519411,20.23985 79.519411,19.119858 79.59941,18.399864   C 78.479419,18.559863 77.279428,18.719861 76.159436,18.799861   L 76.159436,19.359857   C 77.519426,19.599855 77.679425,19.759854 77.679425,21.039844   L 77.679425,25.759809   C 77.679425,28.39979 79.039415,29.359783 80.639403,29.359783   C 81.279398,29.359783 81.759394,29.199784 82.479389,28.799787   C 83.199384,28.39979 83.75938,27.919793 84.319375,27.519796   L 84.319375,29.199784   L 84.399375,29.359783   C 85.599366,29.039785 86.879356,28.719787 87.999348,28.479789   z "
     id="path24" />
  <path
     style="fill:#000000;fill-rule:nonzero;fill-opacity:1;stroke:none;"
     d="  M 100.79925,29.119784   L 100.79925,28.479789   C 99.359264,28.31979 99.279265,28.239791 99.279265,26.559803   L 99.279265,21.919838   C 99.279265,19.599855 97.999274,18.239865 96.159288,18.239865   C 95.439293,18.239865 94.799298,18.559863 94.159303,18.95986   C 93.519307,19.359857 92.959311,19.759854 92.479315,20.079851   L 92.479315,18.159865   C 91.439323,18.639862 90.319331,18.95986 89.11934,19.199858   L 89.11934,19.759854   C 90.47933,19.999852 90.639329,19.999852 90.639329,21.59984   L 90.639329,26.559803   C 90.639329,28.159791 90.47933,28.31979 88.799342,28.479789   L 88.799342,29.119784   L 94.079303,29.119784   L 94.079303,28.479789   C 92.639314,28.31979 92.479315,28.239791 92.479315,26.559803   L 92.479315,20.879845   C 93.19931,20.23985 94.159303,19.679854 95.119295,19.679854   C 96.719284,19.679854 97.359279,20.799846 97.359279,22.399834   L 97.359279,26.479804   C 97.359279,28.159791 97.19928,28.31979 95.759291,28.479789   L 95.759291,29.119784   z "
     id="path26" />
  <path
     style="fill:#000000;fill-rule:nonzero;fill-opacity:1;stroke:none;"
     d="  M 104.55923,16.15988   C 105.27922,16.15988 105.83922,15.599884 105.83922,14.87989   C 105.83922,14.159895 105.27922,13.679899 104.55923,13.679899   C 103.91923,13.679899 103.35923,14.159895 103.35923,14.87989   C 103.35923,15.599884 103.91923,16.15988 104.55923,16.15988   z  M 107.3592,29.119784   L 107.3592,28.479789   C 105.83922,28.31979 105.67922,28.159791 105.67922,26.559803   L 105.67922,18.239865   C 104.63922,18.639862 103.51923,18.95986 102.23924,19.119858   L 102.23924,19.759854   C 103.67923,19.999852 103.75923,20.079851 103.75923,21.519841   L 103.75923,26.559803   C 103.75923,28.159791 103.59923,28.31979 102.07924,28.479789   L 102.07924,29.119784   z "
     id="path28" />
  <path
     style="fill:#000000;fill-rule:nonzero;fill-opacity:1;stroke:none;"
     d="  M 109.11919,18.559863   L 108.4792,19.199858   L 108.5592,19.519855   L 110.23918,19.519855   L 110.23918,26.639803   C 110.23918,28.159791 110.07918,28.31979 108.5592,28.479789   L 108.5592,29.119784   L 114.23915,29.119784   L 114.23915,28.479789   C 112.31917,28.31979 112.15917,28.239791 112.15917,26.399804   L 112.15917,19.519855   L 114.79915,19.519855   C 115.03915,19.359857 115.19915,18.719861 115.03915,18.559863   L 112.15917,18.559863   L 112.15917,17.59987   C 112.15917,15.519885 112.39917,14.399893 112.71917,13.919897   C 112.95916,13.4399 113.35916,13.199902 113.99916,13.199902   C 114.79915,13.199902 115.43914,13.599899 115.91914,14.079896   C 116.15914,14.319894 116.39914,14.319894 116.63914,14.159895   C 116.87913,13.919897 116.95913,13.759898 117.03913,13.599899   C 117.19913,13.279902 117.19913,12.959904 116.95913,12.719906   C 116.55914,12.239909 115.83914,11.919912 115.03915,11.919912   C 114.07915,11.999911 113.19916,12.479908 112.39917,13.199902   C 111.11918,14.319894 110.71918,15.519885 110.55918,15.999881   C 110.31918,16.559877 110.23918,17.279872 110.23918,17.999867   L 110.23918,18.559863   z "
     id="path30" />
  <path
     style="fill:#000000;fill-rule:nonzero;fill-opacity:1;stroke:none;"
     d="  M 121.1991,18.239865   C 118.95912,18.239865 115.83914,20.079851 115.83914,24.079822   C 115.83914,26.719802 117.83913,29.359783 121.1991,29.359783   C 123.51909,29.359783 126.39906,27.519796 126.39906,23.599825   C 126.39906,20.639847 124.15908,18.239865 121.1991,18.239865   z  M 120.9591,19.039859   C 123.03909,19.039859 124.15908,21.359842 124.15908,24.159821   C 124.15908,27.439797 122.95909,28.559788 121.4391,28.559788   C 119.43912,28.559788 118.15912,26.319805 118.15912,23.279828   C 118.15912,20.559848 119.43912,19.039859 120.9591,19.039859   z "
     id="path32" />
  <path
     style="fill:#000000;fill-rule:nonzero;fill-opacity:1;stroke:none;"
     d="  M 131.51903,20.799846   L 131.51903,18.159865   C 130.31903,18.719861 129.27904,18.95986 128.07905,19.199858   L 128.07905,19.679854   C 129.51904,19.919852 129.59904,19.999852 129.59904,21.59984   L 129.59904,26.559803   C 129.59904,28.159791 129.43904,28.31979 127.91905,28.479789   L 127.91905,29.119784   L 133.51901,29.119784   L 133.51901,28.479789   C 131.59903,28.31979 131.51903,28.159791 131.51903,26.559803   L 131.51903,22.159836   C 132.07902,20.799846 132.79902,20.079851 133.43901,20.079851   C 133.83901,20.079851 134.15901,20.23985 134.479,20.559848   C 134.639,20.719847 134.799,20.799846 135.119,20.639847   C 135.599,20.399849 135.91899,19.919852 135.91899,19.439856   C 135.91899,18.87986 135.279,18.239865 134.479,18.239865   C 133.35901,18.239865 132.31902,19.599855 131.59903,20.799846   z "
     id="path34" />
  <path
     style="fill:#000000;fill-rule:nonzero;fill-opacity:1;stroke:none;"
     d="  M 155.19885,29.119784   L 155.19885,28.479789   C 153.83886,28.31979 153.59886,28.239791 153.59886,26.639803   L 153.59886,21.919838   C 153.59886,19.599855 152.39887,18.239865 150.55888,18.239865   C 149.83889,18.239865 149.27889,18.559863 148.7189,18.87986   C 148.1589,19.199858 147.43891,19.679854 146.71891,20.23985   C 146.23892,18.95986 145.19892,18.239865 144.07893,18.239865   C 143.27894,18.239865 142.71894,18.479863 142.07895,18.87986   C 141.35895,19.359857 140.79896,19.759854 140.31896,20.159851   L 140.31896,18.159865   C 139.27897,18.639862 137.99898,18.95986 136.95899,19.199858   L 136.95899,19.759854   C 138.39897,19.919852 138.39897,20.079851 138.39897,21.59984   L 138.39897,26.639803   C 138.39897,28.159791 138.23898,28.31979 136.63899,28.479789   L 136.63899,29.119784   L 141.67895,29.119784   L 141.67895,28.479789   C 140.55896,28.31979 140.31896,28.159791 140.31896,26.639803   L 140.31896,20.959845   C 141.03896,20.319849 141.99895,19.679854 142.95894,19.679854   C 144.47893,19.679854 145.03893,20.639847 145.03893,22.479833   L 145.03893,26.639803   C 145.03893,28.159791 144.87893,28.31979 143.35894,28.479789   L 143.35894,29.119784   L 148.5589,29.119784   L 148.5589,28.479789   C 147.19891,28.31979 146.95891,28.159791 146.95891,26.639803   L 146.95891,21.919838   C 146.95891,21.519841 146.95891,21.199843 146.87891,20.959845   C 147.8389,20.159851 148.7189,19.679854 149.59889,19.679854   C 151.11888,19.679854 151.75888,20.799846 151.75888,22.479833   L 151.75888,26.479804   C 151.75888,28.239791 151.43888,28.31979 150.07889,28.479789   L 150.07889,29.119784   z "
     id="path36" />
  <path
     style="fill:#000000;fill-rule:nonzero;fill-opacity:1;stroke:none;"
     d="  M 173.59871,27.839794   L 172.87872,27.759794   C 171.91873,27.679795 171.75873,27.599796 171.75873,26.319805   L 171.75873,11.919912   C 170.87873,12.239909 169.27875,12.559907 167.99876,12.719906   L 167.99876,13.359901   C 169.75874,13.4399 169.83874,13.5199 169.83874,15.119888   L 169.83874,18.479863   C 169.35875,18.319864 168.63875,18.239865 168.31875,18.239865   C 164.95878,18.239865 162.0788,20.879845 162.0788,24.23982   C 162.0788,27.599796 164.55878,29.359783 166.55877,29.359783   C 166.79876,29.359783 167.43876,29.199784 168.39875,28.719787   L 169.83874,27.839794   L 169.83874,29.359783   C 171.27873,28.879786 173.11872,28.559788 173.59871,28.479789   z  M 169.83874,27.0398   C 169.27875,27.439797 168.39875,27.839794 167.51876,27.839794   C 165.99877,27.839794 164.23878,26.479804 164.23878,23.599825   C 164.23878,20.079851 166.23877,19.119858 167.35876,19.119858   C 168.31875,19.119858 169.27875,19.519855 169.83874,20.399849   z "
     id="path38" />
  <path
     style="fill:#000000;fill-rule:nonzero;fill-opacity:1;stroke:none;"
     d="  M 177.03869,16.15988   C 177.75868,16.15988 178.31868,15.599884 178.31868,14.87989   C 178.31868,14.159895 177.75868,13.679899 177.11869,13.679899   C 176.39869,13.679899 175.8387,14.159895 175.8387,14.87989   C 175.8387,15.599884 176.39869,16.15988 177.03869,16.15988   z  M 179.91867,29.119784   L 179.91867,28.479789   C 178.31868,28.31979 178.15868,28.159791 178.15868,26.559803   L 178.15868,18.239865   C 177.11869,18.639862 175.9987,18.95986 174.71871,19.119858   L 174.71871,19.759854   C 176.1587,19.999852 176.23869,20.079851 176.23869,21.519841   L 176.23869,26.559803   C 176.23869,28.159791 176.0787,28.31979 174.55871,28.479789   L 174.55871,29.119784   z "
     id="path40" />
  <path
     style="fill:#000000;fill-rule:nonzero;fill-opacity:1;stroke:none;"
     d="  M 187.99861,21.279842   C 187.99861,20.639847 187.67861,19.199858 187.51861,18.639862   C 187.03861,18.479863 186.31862,18.239865 185.35863,18.239865   C 183.11864,18.239865 181.67865,19.679854 181.67865,21.359842   C 181.67865,23.199828 183.27864,23.999822 184.71863,24.719817   C 185.91862,25.279813 186.63862,25.839809 186.63862,26.879801   C 186.63862,27.919793 185.75862,28.559788 184.87863,28.559788   C 183.43864,28.559788 182.39865,27.199799 181.91865,25.59981   L 181.27866,25.67981   C 181.27866,26.559803 181.51866,28.239791 181.67865,28.559788   C 182.15865,28.959785 183.19864,29.359783 184.47863,29.359783   C 186.39862,29.359783 188.4786,28.239791 188.4786,26.079807   C 188.4786,24.399819 187.19861,23.519826 185.43863,22.799831   C 184.31863,22.319835 183.35864,21.759839 183.35864,20.639847   C 183.35864,19.759854 183.99864,18.95986 184.95863,18.95986   C 186.07862,18.95986 186.95862,19.999852 187.43861,21.359842   z "
     id="path42" />
  <path
     style="fill:#000000;fill-rule:nonzero;fill-opacity:1;stroke:none;"
     d="  M 196.31855,28.239791   L 196.07855,27.599796   C 195.75855,27.759794 195.19855,27.999793 194.63856,27.999793   C 193.99856,27.999793 193.19857,27.679795 193.19857,25.67981   L 193.19857,19.519855   L 195.83855,19.519855   C 196.07855,19.279857 196.15855,18.799861 195.91855,18.559863   L 193.19857,18.559863   L 193.19857,15.199887   L 192.87857,15.199887   L 191.27858,16.799876   L 191.27858,18.559863   L 190.23859,18.559863   L 189.5186,19.199858   L 189.67859,19.519855   L 191.27858,19.519855   L 191.27858,26.479804   C 191.27858,28.39979 192.15858,29.359783 193.67857,29.359783   C 193.91856,29.359783 194.31856,29.279783 194.71856,29.039785   z "
     id="path44" />
  <path
     style="fill:#000000;fill-rule:nonzero;fill-opacity:1;stroke:none;"
     d="  M 199.19852,29.359783   C 199.99852,29.359783 200.55851,28.799787 200.55851,27.999793   C 200.55851,27.199799 199.99852,26.639803 199.19852,26.639803   C 198.47853,26.639803 197.83853,27.199799 197.83853,27.999793   C 197.83853,28.799787 198.47853,29.359783 199.19852,29.359783   z "
     id="path46" />
  <path
     style="fill:#000000;fill-rule:nonzero;fill-opacity:1;stroke:none;"
     d="  M 210.71844,16.15988   C 211.43843,16.15988 211.91843,15.599884 211.91843,14.87989   C 211.91843,14.159895 211.43843,13.679899 210.71844,13.679899   C 210.07844,13.679899 209.51845,14.159895 209.51845,14.87989   C 209.51845,15.599884 210.07844,16.15988 210.71844,16.15988   z  M 213.51842,29.119784   L 213.51842,28.479789   C 211.99843,28.31979 211.83843,28.159791 211.83843,26.559803   L 211.83843,18.239865   C 210.79844,18.639862 209.59845,18.95986 208.39846,19.119858   L 208.39846,19.759854   C 209.83845,19.999852 209.91845,20.079851 209.91845,21.519841   L 209.91845,26.559803   C 209.91845,28.159791 209.75845,28.31979 208.23846,28.479789   L 208.23846,29.119784   z "
     id="path48" />
  <path
     style="fill:#000000;fill-rule:nonzero;fill-opacity:1;stroke:none;"
     d="  M 226.55832,29.119784   L 226.55832,28.479789   C 225.19833,28.31979 225.03833,28.239791 225.03833,26.559803   L 225.03833,21.919838   C 225.03833,19.599855 223.83834,18.239865 221.99836,18.239865   C 221.27836,18.239865 220.63837,18.559863 219.91837,18.95986   C 219.35838,19.359857 218.79838,19.759854 218.31838,20.079851   L 218.31838,18.159865   C 217.27839,18.639862 216.1584,18.95986 214.95841,19.199858   L 214.95841,19.759854   C 216.3184,19.999852 216.3984,19.999852 216.3984,21.59984   L 216.3984,26.559803   C 216.3984,28.159791 216.3184,28.31979 214.63841,28.479789   L 214.63841,29.119784   L 219.91837,29.119784   L 219.91837,28.479789   C 218.47838,28.31979 218.31838,28.239791 218.31838,26.559803   L 218.31838,20.879845   C 219.03838,20.23985 219.99837,19.679854 220.95836,19.679854   C 222.55835,19.679854 223.19835,20.799846 223.19835,22.399834   L 223.19835,26.479804   C 223.19835,28.159791 223.03835,28.31979 221.59836,28.479789   L 221.59836,29.119784   z "
     id="path50" />
  <path
     style="fill:#000000;fill-rule:nonzero;fill-opacity:1;stroke:none;"
     d="  M 239.91822,32.639758   C 237.51824,30.639773 236.07825,26.719802 236.07825,22.559833   C 236.07825,18.399864 237.43824,14.559892 239.91822,12.559907   L 239.43823,11.999911   C 235.91825,14.399893 234.31826,18.239865 234.31826,22.559833   C 234.31826,26.879801 235.91825,30.799772 239.43823,33.199754   z "
     id="path52" />
  <path
     style="fill:#000000;fill-rule:nonzero;fill-opacity:1;stroke:none;"
     d="  M 246.79817,13.759898   C 243.1182,13.759898 241.83821,18.079866 241.83821,21.59984   C 241.83821,25.359812 243.1182,29.359783 246.79817,29.359783   C 250.39815,29.359783 251.67814,25.119814 251.67814,21.519841   C 251.67814,17.839868 250.39815,13.759898 246.79817,13.759898   z  M 246.71817,14.559892   C 248.95816,14.559892 249.51815,18.159865 249.51815,21.519841   C 249.51815,24.959815 248.95816,28.559788 246.79817,28.559788   C 244.63819,28.559788 243.99819,24.879816 243.99819,21.519841   C 243.99819,18.159865 244.55819,14.559892 246.71817,14.559892   z "
     id="path54" />
  <path
     style="fill:#000000;fill-rule:nonzero;fill-opacity:1;stroke:none;"
     d="  M 254.79811,25.999807   C 254.15812,25.999807 253.59812,26.399804 253.59812,26.9598   C 253.59812,27.359797 253.75812,27.519796 253.91812,27.599796   C 254.71811,27.759794 255.43811,28.31979 255.43811,29.199784   C 255.43811,30.079777 254.71811,30.719772 253.51812,31.199769   L 253.83812,31.919764   C 255.27811,31.519767 256.9581,30.479774 256.9581,28.559788   C 256.9581,26.879801 255.59811,25.999807 254.79811,25.999807   z "
     id="path56" />
  <path
     style="fill:#000000;fill-rule:nonzero;fill-opacity:1;stroke:none;"
     d="  M 267.27802,29.119784   L 267.27802,28.39979   C 265.03804,28.239791 264.87804,28.079792 264.87804,26.319805   L 264.87804,13.759898   C 263.59805,14.319894 262.15806,14.719891 260.63807,15.039889   L 260.63807,15.599884   L 261.75806,15.599884   C 262.87805,15.679884 262.95805,15.759883 262.95805,17.039874   L 262.95805,26.319805   C 262.95805,28.079792 262.79805,28.239791 260.63807,28.39979   L 260.63807,29.119784   z "
     id="path58" />
  <path
     style="fill:#000000;fill-rule:nonzero;fill-opacity:1;stroke:none;"
     d="  M 270.558,12.559907   C 272.95798,14.479893 274.39797,18.399864 274.39797,22.559833   C 274.39797,26.719802 273.03798,30.559774 270.558,32.639758   L 271.03799,33.199754   C 274.63797,30.719772 276.15795,26.879801 276.15795,22.559833   C 276.15795,18.239865 274.63797,14.399893 271.03799,11.999911   z "
     id="path60" />
  <path
     style="fill:#f8cbad;fill-rule:nonzero;fill-opacity:1;stroke:none;"
     d="  M 406.07699,107.3592   L 437.51676,107.3592   L 437.51676,75.59944   L 406.07699,75.59944   z "
     id="path62" />
  <path
     style="fill:#dae3f3;fill-rule:nonzero;fill-opacity:1;stroke:none;"
     d="  M 406.07699,130.31903   L 437.51676,130.31903   L 437.51676,161.7588   L 406.07699,161.7588   z "
     id="path64" />
  <path
     style="fill:#000000;fill-rule:nonzero;fill-opacity:1;stroke:none;"
     d="  M 459.91659,97.19928   L 462.95657,97.19928   L 462.95657,92.079318   L 459.91659,92.079318   z  M 455.75662,92.079318   L 455.75662,97.19928   L 458.7166,97.19928   L 458.7166,92.079318   z  M 458.7166,86.799357   L 455.75662,86.799357   L 455.75662,91.519322   L 458.7166,91.519322   z  M 462.95657,86.799357   L 459.91659,86.799357   L 459.91659,91.519322   L 462.95657,91.519322   z  M 463.43657,85.519367   L 464.87656,86.639358   C 464.79656,86.879356 464.55656,86.959356 464.07656,87.039355   L 464.07656,98.639269   C 464.07656,98.719269 463.99656,98.799268 463.75656,98.879268   C 463.51657,99.039266 463.27657,99.119266 463.11657,99.119266   L 462.95657,99.119266   L 462.95657,97.839275   L 455.75662,97.839275   L 455.75662,98.719269   C 455.75662,98.799268 455.67662,98.879268 455.51663,98.959267   C 455.27663,99.119266 455.11663,99.119266 454.87663,99.119266   L 454.63663,99.119266   L 454.63663,86.559359   C 454.55663,86.719358 454.39663,86.719358 454.15664,86.719358   L 451.83665,86.719358   L 451.83665,90.719328   C 452.07665,90.639329 452.95664,90.39933 454.47663,89.999333   L 454.55663,90.239332   C 454.39663,90.319331 453.99664,90.559329 453.35664,90.799327   C 452.71665,91.119325 452.23665,91.359323 451.83665,91.519322   L 451.83665,97.439278   C 451.83665,97.999274 451.75665,98.399271 451.51666,98.719269   C 451.27666,98.959267 450.79666,99.119266 450.07667,99.199265   C 449.99667,98.799268 449.91667,98.479271 449.67667,98.319272   C 449.43667,98.159273 449.03667,97.999274 448.31668,97.919275   L 448.31668,97.599277   C 449.43667,97.679276 450.07667,97.679276 450.31666,97.679276   C 450.55666,97.679276 450.71666,97.599277 450.71666,97.359279   L 450.71666,92.079318   C 450.55666,92.159317 450.23666,92.319316 449.83667,92.479315   C 449.35667,92.639314 449.03667,92.799313 448.79668,92.959311   C 448.71668,93.11931 448.63668,93.279309 448.39668,93.359308   L 447.67668,91.83932   C 447.99668,91.75932 448.95667,91.519322 450.71666,91.039326   L 450.71666,86.719358   L 447.91668,86.719358   L 447.83668,86.159362   L 450.71666,86.159362   L 450.71666,82.159391   L 452.47665,82.39939   C 452.47665,82.639388 452.23665,82.879386 451.83665,82.879386   L 451.83665,86.159362   L 452.47665,86.159362   L 453.27664,85.199369   C 453.83664,85.599366 454.31663,85.999363 454.63663,86.39936   L 454.63663,85.679365   L 455.91662,86.239361   L 458.7166,86.239361   L 458.7166,82.39939   L 460.47659,82.559388   C 460.47659,82.879386 460.31659,83.039385 459.91659,83.039385   L 459.91659,86.239361   L 462.71657,86.239361   z "
     id="path66" />
  <path
     style="fill:#000000;fill-rule:nonzero;fill-opacity:1;stroke:none;"
     d="  M 472.0765,92.879312   L 472.0765,96.319287   C 472.6365,96.239287 473.43649,96.079288 474.55648,95.919289   C 475.67648,95.679291 476.47647,95.519292 476.95647,95.439293   L 477.03647,95.759291   C 473.83649,96.799283 470.71651,97.679276 467.67654,98.479271   C 467.59654,98.719269 467.43654,98.879268 467.19654,98.959267   L 466.47654,97.279279   C 467.27654,97.19928 468.71653,96.959282 470.87651,96.559285   L 470.87651,92.879312   L 467.11654,92.879312   L 466.95654,92.319316   L 470.87651,92.319316   L 470.87651,89.679336   L 472.7965,89.919334   C 472.7165,90.159332 472.4765,90.319331 472.0765,90.39933   L 472.0765,92.319316   L 473.99649,92.319316   L 474.79648,91.199324   C 475.51648,91.75932 475.99647,92.159317 476.39647,92.559314   C 476.39647,92.799313 476.23647,92.879312 475.91647,92.879312   z  M 474.55648,83.839379   L 475.43648,82.719387   C 476.07647,83.199384 476.63647,83.67938 477.03647,84.079377   C 476.95647,84.239376 476.79647,84.399375 476.55647,84.399375   L 471.67651,84.399375   C 470.95651,85.999363 470.31652,87.199354 469.75652,88.159347   C 470.15652,88.159347 470.95651,88.079348 471.9965,87.999348   C 473.0365,87.919349 473.83649,87.919349 474.47649,87.839349   C 473.91649,87.119355 473.35649,86.479359 472.7165,85.919364   L 472.8765,85.759365   C 474.55648,86.479359 475.67648,87.359353 476.07647,88.319346   C 476.39647,88.959341 476.39647,89.359338 476.07647,89.679336   C 475.91647,89.919334 475.59648,89.919334 475.27648,89.599336   C 475.19648,89.279339 475.03648,88.799342 474.71648,88.239346   C 472.6365,88.639343 470.31652,89.11934 467.75654,89.519337   C 467.59654,89.759335 467.43654,89.919334 467.19654,89.919334   L 466.63654,88.319346   C 467.27654,88.319346 468.07653,88.239346 469.11653,88.239346   C 469.51652,86.879356 469.83652,85.599366 470.07652,84.399375   L 466.71654,84.399375   L 466.55654,83.839379   z  M 479.19645,84.479374   L 479.19645,94.959297   C 479.19645,95.039296 479.03645,95.119295 478.87645,95.279294   C 478.63645,95.359294 478.47646,95.439293 478.23646,95.439293   L 477.99646,95.439293   L 477.99646,83.75938   L 479.83645,83.919378   C 479.75645,84.239376 479.59645,84.399375 479.19645,84.479374   z  M 481.43643,82.479389   L 483.35642,82.719387   C 483.27642,82.959385 483.11642,83.119384 482.63642,83.199384   L 482.63642,97.439278   C 482.63642,97.999274 482.55643,98.399271 482.31643,98.719269   C 482.07643,98.959267 481.51643,99.119266 480.79644,99.199265   C 480.71644,98.799268 480.55644,98.479271 480.39644,98.319272   C 480.07644,98.079273 479.59645,97.919275 478.87645,97.839275   L 478.87645,97.599277   C 480.07644,97.679276 480.79644,97.679276 481.03644,97.679276   C 481.35643,97.679276 481.43643,97.599277 481.43643,97.279279   z "
     id="path68" />
  <path
     style="fill:#000000;fill-rule:nonzero;fill-opacity:1;stroke:none;"
     d="  M 489.19638,94.159303   C 489.11638,94.319301 488.95638,94.4793 488.79638,94.799298   C 488.63638,95.119295 488.47638,95.359294 488.39638,95.519292   C 489.27638,95.599292 489.99637,95.83929 490.71637,95.999289   C 491.27636,95.359294 491.75636,94.639299 491.99636,93.839305   C 490.47637,93.999304 489.51637,94.079303 489.19638,94.159303   z  M 487.27639,89.919334   L 487.27639,91.439323   L 489.43637,91.439323   L 489.43637,89.919334   z  M 492.79635,89.919334   L 490.55637,89.919334   L 490.55637,91.439323   L 492.79635,91.439323   z  M 487.59639,87.599351   L 489.43637,87.599351   L 489.43637,86.319361   L 487.59639,86.319361   z  M 487.59639,84.479374   L 487.59639,85.759365   L 489.43637,85.759365   L 489.43637,84.479374   z  M 492.55635,84.479374   L 490.55637,84.479374   L 490.55637,85.759365   L 492.55635,85.759365   z  M 492.55635,87.599351   L 492.55635,86.319361   L 490.55637,86.319361   L 490.55637,87.599351   z  M 492.87635,93.759305   L 493.75634,93.999304   C 493.75634,94.239302 493.51634,94.319301 493.11635,94.319301   C 492.79635,95.039296 492.31635,95.759291 491.67636,96.399286   C 492.71635,96.879282 493.27635,97.359279 493.43634,97.919275   C 493.51634,98.319272 493.43634,98.55927 493.11635,98.639269   C 492.95635,98.719269 492.79635,98.719269 492.63635,98.639269   C 492.23635,98.159273 491.59636,97.679276 490.79636,97.19928   C 489.35638,98.239272 487.59639,98.959267 485.5964,99.199265   L 485.4364,98.879268   C 487.27639,98.479271 488.79638,97.759276 489.99637,96.719284   C 489.35638,96.399286 488.71638,96.079288 488.23638,95.919289   C 487.91639,96.319287 487.75639,96.639284 487.67639,96.799283   C 487.27639,96.879282 486.95639,96.879282 486.5564,96.639284   C 486.79639,96.239287 487.27639,95.519292 487.99639,94.239302   L 485.9964,94.4793   C 485.9164,94.639299 485.7564,94.799298 485.5164,94.799298   L 485.11641,93.439308   C 485.9164,93.439308 487.03639,93.359308 488.39638,93.359308   C 488.79638,92.639314 488.95638,92.239317 489.03638,91.999319   L 487.27639,91.999319   L 487.27639,92.319316   C 487.27639,92.399316 487.19639,92.399316 487.19639,92.479315   C 487.11639,92.559314 486.95639,92.559314 486.79639,92.639314   C 486.71639,92.719313 486.5564,92.719313 486.3964,92.719313   L 486.1564,92.719313   L 486.1564,88.799342   L 487.51639,89.359338   L 489.43637,89.359338   L 489.43637,88.159347   L 487.59639,88.159347   L 487.59639,88.399345   C 487.59639,88.399345 487.51639,88.479345 487.43639,88.479345   C 487.35639,88.559344 487.27639,88.639343 487.11639,88.639343   C 486.95639,88.719343 486.79639,88.719343 486.6364,88.719343   L 486.4764,88.719343   L 486.4764,86.319361   L 485.27641,86.319361   L 485.11641,85.759365   L 486.4764,85.759365   L 486.4764,83.359383   L 487.83639,83.919378   L 489.43637,83.919378   L 489.43637,82.159391   L 491.27636,82.31939   C 491.19636,82.639388 490.95636,82.799387 490.55637,82.879386   L 490.55637,83.919378   L 492.39635,83.919378   L 492.95635,83.279383   L 494.31634,84.319375   C 494.23634,84.479374 493.99634,84.559374 493.59634,84.639373   L 493.59634,85.759365   L 493.91634,85.759365   L 494.63634,84.879371   C 495.11633,85.279368 495.51633,85.679365 495.83633,85.999363   C 495.83633,86.239361 495.67633,86.319361 495.35633,86.319361   L 493.59634,86.319361   L 493.59634,88.239346   C 493.59634,88.239346 493.51634,88.319346 493.27635,88.479345   C 493.03635,88.559344 492.87635,88.639343 492.71635,88.639343   L 492.55635,88.639343   L 492.55635,88.159347   L 490.55637,88.159347   L 490.55637,89.359338   L 492.71635,89.359338   L 493.27635,88.719343   L 494.55634,89.679336   C 494.39634,89.839335 494.23634,89.999333 493.91634,89.999333   L 493.91634,92.159317   C 493.91634,92.239317 493.75634,92.319316 493.59634,92.399316   C 493.35635,92.479315 493.11635,92.559314 492.95635,92.559314   L 492.79635,92.559314   L 492.79635,91.999319   L 490.07637,91.999319   L 490.79636,92.159317   C 490.71637,92.399316 490.39637,92.559314 489.99637,92.559314   C 489.91637,92.799313 489.75637,93.039311 489.67637,93.279309   C 491.59636,93.279309 493.43634,93.19931 495.27633,93.11931   L 495.27633,93.439308   C 495.03633,93.439308 494.63634,93.519307 494.15634,93.599307   C 493.59634,93.679306 493.19635,93.679306 492.87635,93.759305   z  M 499.7563,86.799357   L 496.95632,86.799357   C 496.95632,86.799357 496.95632,86.959356 496.87632,87.039355   C 496.79632,87.199354 496.79632,87.279353 496.71632,87.439352   C 496.71632,87.519352 496.63632,87.599351 496.63632,87.679351   C 496.95632,89.839335 497.51631,91.679321 498.23631,93.19931   C 499.0363,91.359323 499.5963,89.199339 499.7563,86.799357   z  M 501.91628,86.799357   L 501.11629,86.799357   C 500.79629,89.919334 499.9963,92.479315 498.8763,94.399301   C 499.8363,95.999289 501.03629,97.279279 502.47628,98.159273   L 502.47628,98.319272   C 501.91628,98.399271 501.51629,98.639269 501.35629,99.199265   C 500.0763,98.239272 499.0363,96.879282 498.23631,95.359294   C 497.19632,96.879282 495.67633,98.159273 493.83634,99.199265   L 493.59634,98.959267   C 495.43633,97.679276 496.79632,96.079288 497.75631,94.239302   C 497.11632,92.639314 496.55632,90.719328 496.23632,88.399345   C 495.75633,89.359338 495.27633,90.239332 494.71634,90.799327   L 494.47634,90.639329   C 495.59633,88.399345 496.39632,85.519367 496.79632,82.159391   L 498.79631,82.639388   C 498.71631,82.879386 498.47631,83.039385 498.07631,83.039385   C 497.83631,84.079377 497.59631,85.119369 497.19632,86.239361   L 499.9963,86.239361   L 500.79629,85.119369   C 501.51629,85.599366 501.99628,86.079362 502.39628,86.479359   C 502.31628,86.639358 502.15628,86.799357 501.91628,86.799357   z "
     id="path70" />
  <path
     style="fill:#000000;fill-rule:nonzero;fill-opacity:1;stroke:none;"
     d="  M 518.63616,85.359368   L 506.39625,85.359368   C 506.39625,86.39936 506.15625,87.199354 505.51626,87.679351   C 505.27626,87.919349 505.03626,87.999348 504.79626,87.999348   C 504.47626,88.079348 504.31626,87.919349 504.15627,87.75935   C 504.07627,87.519352 504.07627,87.359353 504.15627,87.199354   C 504.23626,86.959356 504.39626,86.799357 504.55626,86.719358   C 504.95626,86.39936 505.27626,85.999363 505.51626,85.439367   C 505.75625,84.879371 505.91625,84.319375 505.91625,83.67938   L 506.15625,83.67938   C 506.31625,84.079377 506.39625,84.479374 506.39625,84.799372   L 511.67621,84.799372   L 511.67621,82.079392   L 513.67619,82.31939   C 513.5962,82.559388 513.3562,82.719387 512.9562,82.799387   L 512.9562,84.799372   L 518.63616,84.799372   L 519.43615,83.999378   L 520.87614,85.439367   C 520.79614,85.519367 520.55614,85.599366 520.15615,85.599366   C 519.51615,86.239361 518.71616,86.799357 517.83616,87.279353   L 517.67617,87.199354   C 518.07616,86.39936 518.39616,85.839364 518.63616,85.359368   z  M 518.23616,92.239317   L 519.19615,91.039326   C 519.83615,91.599321 520.39615,91.999319 520.87614,92.399316   C 520.79614,92.639314 520.63614,92.719313 520.31615,92.719313   L 512.9562,92.719313   L 512.9562,97.439278   C 512.9562,97.999274 512.7962,98.399271 512.5562,98.639269   C 512.31621,98.959267 511.67621,99.119266 510.87622,99.199265   C 510.79622,98.799268 510.55622,98.479271 510.31622,98.399271   C 509.99622,98.159273 509.35623,97.999274 508.47623,97.839275   L 508.47623,97.599277   C 510.07622,97.679276 510.95622,97.759276 511.27621,97.759276   C 511.59621,97.759276 511.67621,97.599277 511.67621,97.359279   L 511.67621,92.719313   L 504.07627,92.719313   L 503.91627,92.239317   L 511.67621,92.239317   L 511.67621,89.919334   L 512.8762,90.079333   C 513.67619,89.519337 514.47619,88.879342 515.11618,88.079348   L 507.43624,88.079348   L 507.27624,87.519352   L 515.35618,87.519352   L 516.23618,86.719358   L 517.67617,87.999348   C 517.59617,88.159347 517.35617,88.239346 516.95617,88.239346   C 515.83618,89.03934 514.63619,89.679336 513.4362,90.159332   L 513.5962,90.159332   C 513.5962,90.39933 513.3562,90.559329 512.9562,90.639329   L 512.9562,92.239317   z "
     id="path72" />
  <path
     style="fill:#000000;fill-rule:nonzero;fill-opacity:1;stroke:none;"
     d="  M 534.15604,87.039355   C 536.55603,88.559344 538.07601,90.159332 538.87601,91.919319   C 539.356,92.879312 539.436,93.679306 539.11601,94.239302   C 538.95601,94.639299 538.63601,94.719298 538.23601,94.4793   C 538.15601,94.399301 538.07601,94.399301 537.99601,94.319301   C 537.91602,93.279309 537.43602,92.079318 536.63602,90.719328   C 535.75603,89.439337 534.87604,88.239346 533.91605,87.199354   z  M 526.3961,86.959356   L 528.39609,87.679351   C 528.31609,87.839349 528.07609,87.919349 527.67609,87.919349   C 527.1161,89.199339 526.4761,90.47933 525.59611,91.75932   C 524.71611,93.039311 523.75612,94.079303 522.55613,94.879297   L 522.39613,94.719298   C 523.35612,93.679306 524.15612,92.479315 524.79611,91.119325   C 525.51611,89.679336 526.0761,88.239346 526.3961,86.959356   z  M 530.39607,82.39939   L 532.39606,82.639388   C 532.39606,82.879386 532.15606,83.039385 531.75606,83.119384   L 531.75606,97.19928   C 531.75606,97.759276 531.59606,98.239272 531.27606,98.55927   C 531.03607,98.879268 530.39607,99.119266 529.43608,99.199265   C 529.35608,98.719269 529.19608,98.399271 528.87608,98.239272   C 528.47609,97.919275 527.83609,97.759276 526.8761,97.599277   L 526.8761,97.359279   C 528.55608,97.439278 529.59608,97.519278 529.91607,97.519278   C 530.15607,97.519278 530.23607,97.519278 530.31607,97.439278   C 530.39607,97.359279 530.39607,97.279279 530.39607,97.039281   z "
     id="path74" />
  <path
     style="fill:#000000;fill-rule:nonzero;fill-opacity:1;stroke:none;"
     d="  M 550.95592,98.959267   L 549.91593,97.599277   C 551.19592,97.119281 553.9959,95.919289 558.07587,93.999304   L 558.23586,94.239302   C 555.67588,95.83929 553.3559,97.279279 551.19592,98.479271   C 551.19592,98.719269 551.11592,98.879268 550.95592,98.959267   z  M 551.19592,89.11934   L 551.35592,88.959341   C 553.1159,89.519337 554.23589,90.239332 554.71589,91.199324   C 554.95589,91.75932 554.95589,92.159317 554.71589,92.479315   C 554.47589,92.719313 554.23589,92.719313 553.8359,92.479315   C 553.6759,91.919319 553.3559,91.359323 552.79591,90.719328   C 552.31591,90.079333 551.75591,89.519337 551.19592,89.11934   z  M 552.55591,82.079392   L 554.55589,82.559388   C 554.47589,82.719387 554.31589,82.879386 553.9159,82.879386   C 554.31589,83.999378 555.03589,85.119369 555.83588,86.079362   C 556.71588,87.119355 557.59587,87.919349 558.55586,88.559344   L 558.55586,88.799342   C 557.99587,88.879342 557.67587,89.199339 557.51587,89.759335   C 556.63588,89.03934 555.83588,87.999348 555.19589,86.879356   C 554.47589,85.679365 553.9159,84.399375 553.5959,83.119384   C 553.1959,84.319375 552.55591,85.439367 551.75591,86.559359   C 550.87592,87.679351 549.91593,88.559344 548.87593,89.359338   L 549.19593,89.599336   C 549.03593,89.759335 548.79593,89.839335 548.39594,89.919334   C 548.31594,94.799298 547.91594,97.599277 547.19595,98.399271   C 546.71595,98.799268 546.07595,99.039266 545.35596,99.039266   C 545.35596,98.639269 545.19596,98.399271 545.03596,98.159273   C 544.79596,97.999274 544.39597,97.839275 543.59597,97.759276   L 543.59597,97.439278   C 544.79596,97.519278 545.43596,97.599277 545.67596,97.599277   C 545.91596,97.599277 546.15595,97.519278 546.31595,97.359279   C 546.79595,96.879282 547.11595,94.399301 547.27595,89.759335   L 544.87596,89.759335   C 544.71597,91.75932 544.39597,93.519307 543.83597,95.039296   C 543.27598,96.639284 542.39598,97.999274 541.19599,99.199265   L 540.95599,98.879268   C 541.27599,98.319272 541.67599,97.839275 541.91599,97.19928   C 542.23598,96.639284 542.47598,96.079288 542.63598,95.599292   C 542.87598,95.119295 543.03598,94.4793 543.19598,93.759305   C 543.27598,93.039311 543.35598,92.399316 543.43597,91.999319   C 543.51597,91.519322 543.59597,90.879327 543.59597,89.999333   C 543.67597,89.199339 543.67597,88.559344 543.67597,88.239346   C 543.67597,87.839349 543.67597,87.199354 543.67597,86.319361   L 541.27599,86.319361   L 541.19599,85.759365   L 544.63597,85.759365   L 544.63597,82.239391   L 546.47595,82.479389   C 546.47595,82.719387 546.23595,82.879386 545.83596,82.959385   L 545.83596,85.759365   L 547.35595,85.759365   L 548.23594,84.639373   C 548.87593,85.199369 549.35593,85.599366 549.75593,85.999363   C 549.75593,86.239361 549.59593,86.319361 549.27593,86.319361   L 544.95596,86.319361   C 544.95596,86.959356 544.95596,87.919349 544.87596,89.199339   L 547.11595,89.199339   L 547.75594,88.479345   L 548.55594,89.11934   C 549.43593,88.239346 550.31592,87.119355 551.03592,85.759365   C 551.83591,84.399375 552.31591,83.199384 552.55591,82.079392   z "
     id="path76" />
  <path
     style="fill:#000000;fill-rule:nonzero;fill-opacity:1;stroke:none;"
     d="  M 568.31579,88.159347   L 568.15579,88.079348   C 567.67579,88.319346 567.1158,88.719343 566.7958,89.199339   L 566.5558,89.999333   C 565.99581,90.239332 565.27581,90.559329 564.79582,90.959326   L 564.95582,91.359323   C 565.35581,91.199324 565.83581,90.879327 566.3958,90.719328   C 565.75581,93.919304 565.03581,97.19928 564.31582,100.47926   C 564.07582,101.59925 563.83582,101.75925 562.71583,101.99924   L 562.63583,102.47924   L 566.9558,102.23924   L 566.9558,101.75925   L 566.5558,101.75925   C 565.59581,101.59925 565.51581,101.43925 565.75581,100.39926   L 566.23581,97.759276   C 566.6358,97.919275 567.0358,97.999274 567.3558,97.999274   C 568.55579,97.679276 569.91578,96.879282 570.79577,95.83929   C 571.91576,94.5593 572.39576,93.19931 572.39576,91.919319   C 572.39576,90.319331 571.67577,89.359338 569.75578,89.359338   C 569.19578,89.359338 568.47579,89.439337 567.99579,89.599336   z  M 567.83579,90.319331   C 568.15579,90.239332 568.55579,90.159332 568.87579,90.159332   C 569.99578,90.159332 570.87577,90.559329 570.87577,92.239317   C 570.87577,94.639299 569.03578,97.119281 567.67579,97.119281   C 567.2758,97.119281 566.7958,96.799283 566.5558,96.479285   z "
     id="path78" />
  <path
     style="fill:#000000;fill-rule:nonzero;fill-opacity:1;stroke:none;"
     d="  M 580.5557,96.079288   L 584.39567,96.079288   L 584.39567,91.199324   L 580.5557,91.199324   z  M 584.39567,85.999363   L 580.5557,85.999363   L 580.5557,90.639329   L 584.39567,90.639329   z  M 584.95567,84.639373   L 586.39566,85.839364   C 586.31566,85.999363 585.99566,86.159362 585.59566,86.239361   L 585.59566,97.599277   C 585.59566,97.679276 585.43566,97.839275 585.19567,97.919275   C 585.03567,97.999274 584.79567,98.079273 584.63567,98.079273   L 584.39567,98.079273   L 584.39567,96.639284   L 580.5557,96.639284   L 580.5557,98.239272   C 580.5557,98.239272 580.4757,98.319272 580.2357,98.479271   C 579.9957,98.55927 579.8357,98.639269 579.59571,98.639269   L 579.35571,98.639269   L 579.35571,84.799372   L 580.6357,85.439367   L 581.27569,85.439367   C 581.51569,84.319375 581.75569,83.199384 581.91569,82.159391   L 583.91567,82.639388   C 583.83568,82.879386 583.59568,83.039385 583.19568,83.039385   C 582.79568,83.75938 582.39569,84.559374 581.83569,85.439367   L 584.23567,85.439367   z  M 593.9956,84.639373   L 595.43559,85.839364   C 595.35559,85.999363 595.03559,86.079362 594.71559,86.159362   C 594.6356,89.759335 594.4756,92.559314 594.3156,94.5593   C 594.0756,96.479285 593.7556,97.759276 593.3556,98.239272   C 592.87561,98.879268 592.15561,99.199265 591.19562,99.199265   C 591.19562,98.719269 591.11562,98.399271 590.87562,98.239272   C 590.55563,97.999274 589.99563,97.839275 589.03564,97.679276   L 589.03564,97.279279   C 590.39563,97.439278 591.27562,97.519278 591.67562,97.519278   C 591.99561,97.519278 592.23561,97.439278 592.39561,97.279279   C 592.95561,96.639284 593.3556,92.879312 593.4356,85.999363   L 588.95564,85.999363   C 588.07564,87.599351 587.19565,88.879342 586.23566,89.919334   L 585.91566,89.759335   C 587.27565,87.75935 588.23564,85.279368 588.95564,82.159391   L 590.79562,82.719387   C 590.71562,82.959385 590.47563,83.119384 590.15563,83.119384   C 589.99563,83.599381 589.67563,84.399375 589.19564,85.439367   L 593.27561,85.439367   z  M 587.67565,89.439337   L 587.83565,89.279339   C 589.51563,89.999333 590.47563,90.879327 590.95562,91.919319   C 591.19562,92.559314 591.11562,92.959311 590.87562,93.279309   C 590.63562,93.599307 590.31563,93.519307 589.91563,93.279309   C 589.83563,92.639314 589.51563,91.999319 589.11564,91.279324   C 588.63564,90.559329 588.15564,89.919334 587.67565,89.439337   z "
     id="path80" />
  <path
     style="fill:#000000;fill-rule:nonzero;fill-opacity:1;stroke:none;"
     d="  M 612.31546,84.319375   L 613.83545,84.959371   C 613.75545,85.199369 613.51546,85.279368 613.11546,85.279368   C 612.39546,86.479359 611.59547,87.679351 610.79548,88.719343   C 612.07547,88.639343 612.79546,88.559344 612.79546,88.559344   C 612.63546,88.079348 612.31546,87.599351 611.99547,87.199354   L 612.23546,87.119355   C 613.43546,87.75935 614.07545,88.399345 614.15545,89.199339   C 614.31545,89.679336 614.15545,89.999333 613.91545,90.159332   C 613.67545,90.319331 613.43546,90.239332 613.19546,89.999333   C 613.19546,89.759335 613.11546,89.359338 612.95546,88.959341   C 612.79546,89.03934 612.39546,89.11934 611.75547,89.359338   C 611.11547,89.519337 610.55548,89.679336 610.15548,89.839335   C 610.07548,89.999333 609.91548,90.079333 609.67548,90.159332   L 609.19549,88.879342   C 609.75548,88.799342 610.07548,88.799342 610.15548,88.799342   C 610.87547,87.519352 611.59547,85.999363 612.31546,84.319375   z  M 610.15548,90.159332   L 610.39548,89.999333   C 611.35547,90.079333 611.99547,90.39933 612.15547,90.879327   C 612.23546,91.199324 612.23546,91.359323 611.99547,91.519322   C 611.75547,91.679321 611.51547,91.679321 611.27547,91.519322   C 611.11547,90.959326 610.71548,90.559329 610.15548,90.159332   z  M 608.95549,84.959371   L 609.19549,84.799372   C 609.43549,84.879371 609.67548,85.03937 609.91548,85.119369   C 610.39548,84.079377 610.71548,83.039385 610.95547,82.239391   L 612.55546,82.879386   C 612.47546,83.119384 612.31546,83.199384 611.91547,83.199384   C 611.19547,84.159377 610.71548,84.879371 610.31548,85.359368   C 610.95547,85.759365 611.19547,86.239361 611.11547,86.719358   C 611.03547,87.039355 610.87547,87.119355 610.63548,87.199354   C 610.47548,87.199354 610.31548,87.119355 610.15548,87.039355   C 609.99548,86.319361 609.59548,85.599366 608.95549,84.959371   z  M 604.79552,82.239391   L 606.39551,82.879386   C 606.31551,83.119384 606.07551,83.199384 605.75551,83.199384   C 605.03552,84.319375 604.55552,85.03937 604.31552,85.359368   C 604.95552,85.759365 605.19552,86.239361 605.11552,86.639358   C 605.03552,86.959356 604.87552,87.119355 604.63552,87.119355   C 604.47552,87.119355 604.31552,87.119355 604.15552,87.039355   C 604.07553,86.639358 603.91553,86.319361 603.67553,85.919364   C 603.35553,85.519367 603.11553,85.199369 602.79553,84.879371   L 602.95553,84.799372   C 603.19553,84.799372 603.51553,84.959371 603.91553,85.119369   C 604.23552,83.999378 604.55552,83.039385 604.79552,82.239391   z  M 600.79555,87.039355   L 600.79555,88.639343   C 602.07554,89.279339 602.79553,89.999333 602.95553,90.799327   C 603.11553,91.279324 603.03553,91.599321 602.71554,91.83932   C 602.47554,91.919319 602.31554,91.83932 601.99554,91.679321   C 601.91554,90.879327 601.51554,89.999333 600.79555,89.11934   L 600.79555,98.719269   C 600.79555,98.799268 600.71555,98.879268 600.47555,99.039266   C 600.31555,99.119266 600.07555,99.199265 599.91556,99.199265   L 599.67556,99.199265   L 599.67556,90.559329   C 599.03556,92.239317 598.15557,93.679306 597.11558,94.959297   L 596.79558,94.719298   C 597.99557,92.799313 598.79556,90.239332 599.35556,87.039355   L 597.35558,87.039355   L 597.19558,86.479359   L 599.67556,86.479359   L 599.67556,82.159391   L 601.51554,82.39939   C 601.43554,82.639388 601.19555,82.799387 600.79555,82.879386   L 600.79555,86.479359   L 601.27555,86.479359   L 602.07554,85.439367   C 602.63554,85.919364 603.11553,86.39936 603.35553,86.799357   C 603.35553,86.959356 603.19553,87.039355 602.95553,87.039355   z  M 614.15545,95.039296   L 613.91545,97.839275   C 614.31545,98.319272 614.47545,98.719269 614.31545,98.959267   C 614.23545,99.119266 613.99545,99.199265 613.75545,99.199265   C 613.43546,99.199265 613.19546,99.119266 612.95546,98.959267   C 612.63546,98.799268 612.39546,98.639269 612.07547,98.399271   C 611.35547,97.919275 610.79548,97.279279 610.23548,96.559285   C 608.79549,97.679276 607.1155,98.55927 605.19552,99.039266   L 605.03552,98.719269   C 606.79551,97.999274 608.39549,97.039281 609.67548,95.679291   C 609.11549,94.799298 608.71549,93.679306 608.39549,92.399316   L 605.59551,92.399316   C 605.59551,92.799313 605.51551,93.279309 605.43552,93.759305   C 606.63551,94.079303 607.4355,94.5593 607.6755,95.199295   C 607.8355,95.599292 607.7555,95.919289 607.5155,96.159288   C 607.2755,96.319287 606.9555,96.319287 606.63551,96.079288   C 606.47551,95.519292 606.07551,94.959297 605.35552,94.239302   C 604.95552,96.319287 603.83553,97.999274 601.99554,99.199265   L 601.75554,98.879268   C 602.31554,98.399271 602.71554,97.919275 603.03553,97.359279   C 603.43553,96.799283 603.67553,96.239287 603.83553,95.679291   C 603.99553,95.039296 604.15552,94.5593 604.23552,94.079303   C 604.31552,93.599307 604.31552,93.039311 604.39552,92.399316   L 603.03553,92.399316   L 602.87553,91.919319   L 608.31549,91.919319   C 607.9155,90.159332 607.6755,87.999348 607.5955,85.359368   C 607.4355,85.439367 607.1955,85.519367 606.9555,85.519367   C 606.15551,87.039355 605.35552,88.319346 604.63552,89.359338   C 604.79552,89.279339 605.19552,89.279339 605.59551,89.279339   C 606.07551,89.199339 606.31551,89.199339 606.47551,89.199339   C 606.31551,88.719343 606.07551,88.319346 605.83551,87.919349   L 605.99551,87.839349   C 607.1155,88.399345 607.7555,89.03934 607.8355,89.759335   C 607.9155,90.239332 607.8355,90.47933 607.5955,90.639329   C 607.3555,90.719328 607.1155,90.719328 606.8755,90.47933   C 606.8755,90.239332 606.79551,89.919334 606.63551,89.519337   C 606.47551,89.599336 606.23551,89.679336 605.91551,89.759335   C 605.59551,89.839335 605.27552,89.999333 604.95552,90.079333   C 604.55552,90.239332 604.23552,90.319331 603.91553,90.39933   C 603.83553,90.639329 603.67553,90.719328 603.43553,90.799327   L 602.79553,89.439337   C 602.87553,89.439337 603.35553,89.439337 604.07553,89.359338   C 604.71552,88.079348 605.35552,86.479359 606.07551,84.559374   L 607.5155,85.119369   C 607.5155,83.919378 607.5155,82.879386 607.5155,82.239391   L 609.35549,82.479389   C 609.35549,82.799387 609.11549,82.959385 608.71549,83.039385   C 608.63549,86.799357 608.87549,89.759335 609.43549,91.919319   L 612.07547,91.919319   L 612.87546,90.879327   C 613.51546,91.359323 613.99545,91.75932 614.39545,92.159317   C 614.31545,92.319316 614.15545,92.399316 613.91545,92.399316   L 609.59548,92.399316   C 609.75548,93.19931 610.07548,93.999304 610.47548,94.799298   C 610.87547,94.239302 611.35547,93.519307 611.75547,92.719313   L 613.35546,93.519307   C 613.27546,93.679306 613.03546,93.759305 612.63546,93.679306   C 612.23546,94.4793 611.67547,95.119295 611.03547,95.759291   C 611.51547,96.319287 611.99547,96.879282 612.63546,97.279279   C 612.79546,97.359279 612.87546,97.439278 612.95546,97.439278   C 613.03546,97.439278 613.11546,97.279279 613.19546,97.119281   C 613.51546,96.479285 613.75545,95.759291 613.91545,95.039296   z "
     id="path82" />
  <path
     style="fill:#000000;fill-rule:nonzero;fill-opacity:1;stroke:none;"
     d="  M 616.47543,85.03937   L 616.31543,84.559374   L 623.67538,84.559374   L 623.67538,82.159391   L 625.51537,82.31939   C 625.51537,82.639388 625.27537,82.719387 624.95537,82.799387   L 624.95537,84.559374   L 629.75534,84.559374   L 630.71533,83.359383   C 631.35532,83.919378 631.99532,84.399375 632.39532,84.799372   C 632.39532,84.959371 632.23532,85.03937 631.91532,85.03937   L 623.83538,85.03937   L 625.11537,85.679365   C 625.03537,85.919364 624.79537,86.079362 624.47537,85.999363   C 623.75538,86.639358 623.27538,87.199354 622.79539,87.519352   C 623.35538,87.919349 623.59538,88.399345 623.43538,88.879342   C 623.35538,89.199339 623.19538,89.359338 622.87539,89.359338   C 622.71539,89.279339 622.55539,89.279339 622.47539,89.199339   C 622.31539,88.799342 622.15539,88.319346 621.75539,87.919349   C 621.4354,87.439352 621.1154,87.039355 620.7154,86.719358   L 620.8754,86.559359   C 621.5154,86.719358 621.99539,86.879356 622.39539,87.119355   C 622.87539,86.159362 623.27538,85.439367 623.43538,85.03937   z  M 625.67537,86.559359   L 627.27535,87.359353   C 627.19535,87.599351 626.95536,87.679351 626.55536,87.599351   C 625.43537,88.959341 624.15538,90.159332 622.79539,91.199324   C 623.19538,91.199324 623.83538,91.119325 624.71537,91.119325   C 625.51537,91.039326 626.15536,91.039326 626.55536,91.039326   C 626.31536,90.47933 625.91536,89.999333 625.43537,89.439337   L 625.67537,89.359338   C 627.03536,89.919334 627.91535,90.559329 628.23535,91.439323   C 628.39535,91.919319 628.31535,92.319316 628.07535,92.559314   C 627.75535,92.799313 627.43535,92.799313 627.11535,92.479315   C 627.11535,92.239317 626.95536,91.83932 626.79536,91.439323   C 625.99536,91.599321 624.23538,91.919319 621.67539,92.399316   C 621.5954,92.639314 621.4354,92.719313 621.1954,92.799313   L 620.3954,91.279324   C 621.5154,91.279324 622.15539,91.199324 622.23539,91.199324   C 623.59538,89.679336 624.79537,88.079348 625.67537,86.559359   z  M 627.51535,89.279339   L 627.67535,89.11934   C 629.75534,89.519337 631.19532,90.239332 631.91532,91.199324   C 632.23532,91.679321 632.31532,92.079318 632.07532,92.399316   C 631.99532,92.639314 631.67532,92.639314 631.35532,92.479315   C 631.03533,91.999319 630.47533,91.439323 629.75534,90.799327   C 628.95534,90.159332 628.23535,89.679336 627.51535,89.279339   z  M 630.23533,85.439367   L 631.83532,86.559359   C 631.67532,86.719358 631.43532,86.799357 631.11533,86.719358   C 630.15533,87.439352 629.19534,88.079348 628.15535,88.639343   L 627.91535,88.399345   C 628.63534,87.679351 629.43534,86.639358 630.23533,85.439367   z  M 617.03543,85.999363   L 617.19543,85.839364   C 618.71542,86.319361 619.59541,87.039355 619.91541,87.839349   C 620.15541,88.319346 620.07541,88.719343 619.83541,88.959341   C 619.59541,89.11934 619.27541,89.11934 618.95542,88.879342   C 618.87542,88.399345 618.63542,87.919349 618.23542,87.359353   C 617.83542,86.799357 617.43543,86.319361 617.03543,85.999363   z  M 621.5154,89.03934   L 621.5954,89.279339   C 619.67541,90.719328 618.31542,91.83932 617.35543,92.479315   C 617.35543,92.719313 617.27543,92.879312 617.11543,93.039311   L 616.07544,91.679321   C 616.95543,91.359323 618.79542,90.47933 621.5154,89.03934   z  M 630.15533,94.239302   L 631.11533,93.039311   C 631.83532,93.599307 632.39532,94.079303 632.87531,94.4793   C 632.79531,94.639299 632.63531,94.799298 632.39532,94.799298   L 624.95537,94.799298   L 624.95537,98.719269   C 624.95537,98.799268 624.79537,98.879268 624.63537,99.039266   C 624.39537,99.119266 624.15538,99.199265 623.91538,99.199265   L 623.67538,99.199265   L 623.67538,94.799298   L 615.99544,94.799298   L 615.83544,94.239302   L 623.67538,94.239302   L 623.67538,92.399316   L 625.51537,92.559314   C 625.51537,92.799313 625.27537,92.959311 624.95537,93.039311   L 624.95537,94.239302   z "
     id="path84" />
  <path
     style="fill:#000000;fill-rule:nonzero;fill-opacity:1;stroke:none;"
     d="  M 459.91659,151.03888   L 462.95657,151.03888   L 462.95657,145.91892   L 459.91659,145.91892   z  M 455.75662,145.91892   L 455.75662,151.03888   L 458.7166,151.03888   L 458.7166,145.91892   z  M 458.7166,140.63896   L 455.75662,140.63896   L 455.75662,145.35892   L 458.7166,145.35892   z  M 462.95657,140.63896   L 459.91659,140.63896   L 459.91659,145.35892   L 462.95657,145.35892   z  M 463.43657,139.35897   L 464.87656,140.47896   C 464.79656,140.63896 464.55656,140.79896 464.07656,140.87896   L 464.07656,152.47887   C 464.07656,152.55887 463.99656,152.63887 463.75656,152.71887   C 463.51657,152.87887 463.27657,152.87887 463.11657,152.87887   L 462.95657,152.87887   L 462.95657,151.59888   L 455.75662,151.59888   L 455.75662,152.47887   C 455.75662,152.63887 455.67662,152.71887 455.51663,152.79887   C 455.27663,152.87887 455.11663,152.95887 454.87663,152.95887   L 454.63663,152.95887   L 454.63663,140.39896   C 454.55663,140.47896 454.39663,140.55896 454.15664,140.55896   L 451.83665,140.55896   L 451.83665,144.55893   C 452.07665,144.47893 452.95664,144.23893 454.47663,143.75894   L 454.55663,144.07893   C 454.39663,144.15893 453.99664,144.39893 453.35664,144.63893   C 452.71665,144.95893 452.23665,145.19892 451.83665,145.35892   L 451.83665,151.27888   C 451.83665,151.83888 451.75665,152.23887 451.51666,152.47887   C 451.27666,152.79887 450.79666,152.95887 450.07667,153.03887   C 449.99667,152.55887 449.91667,152.31887 449.67667,152.15887   C 449.43667,151.91887 449.03667,151.75888 448.31668,151.67888   L 448.31668,151.35888   C 449.43667,151.51888 450.07667,151.51888 450.31666,151.51888   C 450.55666,151.51888 450.71666,151.35888 450.71666,151.11888   L 450.71666,145.91892   C 450.55666,145.99892 450.23666,146.07892 449.83667,146.31892   C 449.35667,146.47891 449.03667,146.63891 448.79668,146.71891   C 448.71668,146.95891 448.63668,147.11891 448.39668,147.19891   L 447.67668,145.59892   C 447.99668,145.59892 448.95667,145.35892 450.71666,144.87893   L 450.71666,140.55896   L 447.91668,140.55896   L 447.83668,139.99896   L 450.71666,139.99896   L 450.71666,135.99899   L 452.47665,136.15899   C 452.47665,136.47899 452.23665,136.63899 451.83665,136.71899   L 451.83665,139.99896   L 452.47665,139.99896   L 453.27664,138.95897   C 453.83664,139.43897 454.31663,139.83896 454.63663,140.23896   L 454.63663,139.51897   L 455.91662,140.07896   L 458.7166,140.07896   L 458.7166,136.15899   L 460.47659,136.39899   C 460.47659,136.63899 460.31659,136.79899 459.91659,136.87899   L 459.91659,140.07896   L 462.71657,140.07896   z "
     id="path86" />
  <path
     style="fill:#000000;fill-rule:nonzero;fill-opacity:1;stroke:none;"
     d="  M 472.0765,146.71891   L 472.0765,150.15889   C 472.6365,150.07889 473.43649,149.91889 474.55648,149.67889   C 475.67648,149.51889 476.47647,149.35889 476.95647,149.27889   L 477.03647,149.59889   C 473.83649,150.55888 470.71651,151.51888 467.67654,152.31887   C 467.59654,152.55887 467.43654,152.71887 467.19654,152.79887   L 466.47654,151.11888   C 467.27654,151.03888 468.71653,150.79888 470.87651,150.39889   L 470.87651,146.71891   L 467.11654,146.71891   L 466.95654,146.15892   L 470.87651,146.15892   L 470.87651,143.51894   L 472.7965,143.67894   C 472.7165,143.99893 472.4765,144.15893 472.0765,144.23893   L 472.0765,146.15892   L 473.99649,146.15892   L 474.79648,145.03893   C 475.51648,145.59892 475.99647,145.99892 476.39647,146.39892   C 476.39647,146.55891 476.23647,146.71891 475.91647,146.71891   z  M 474.55648,137.59898   L 475.43648,136.55899   C 476.07647,137.03898 476.63647,137.51898 477.03647,137.83898   C 476.95647,138.07898 476.79647,138.15898 476.55647,138.15898   L 471.67651,138.15898   C 470.95651,139.75896 470.31652,141.03896 469.75652,141.99895   C 470.15652,141.99895 470.95651,141.91895 471.9965,141.83895   C 473.0365,141.75895 473.83649,141.67895 474.47649,141.67895   C 473.91649,140.95896 473.35649,140.31896 472.7165,139.75896   L 472.8765,139.59897   C 474.55648,140.31896 475.67648,141.11895 476.07647,142.15895   C 476.39647,142.71894 476.39647,143.19894 476.07647,143.51894   C 475.91647,143.75894 475.59648,143.75894 475.27648,143.43894   C 475.19648,143.03894 475.03648,142.55894 474.71648,142.07895   C 472.6365,142.47894 470.31652,142.87894 467.75654,143.35894   C 467.59654,143.59894 467.43654,143.67894 467.19654,143.75894   L 466.63654,142.15895   C 467.27654,142.15895 468.07653,142.07895 469.11653,141.99895   C 469.51652,140.71896 469.83652,139.43897 470.07652,138.15898   L 466.71654,138.15898   L 466.55654,137.59898   z  M 479.19645,138.23898   L 479.19645,148.7989   C 479.19645,148.8789 479.03645,148.9589 478.87645,149.0389   C 478.63645,149.19889 478.47646,149.19889 478.23646,149.19889   L 477.99646,149.19889   L 477.99646,137.59898   L 479.83645,137.75898   C 479.75645,138.07898 479.59645,138.23898 479.19645,138.23898   z  M 481.43643,136.31899   L 483.35642,136.47899   C 483.27642,136.79899 483.11642,136.95899 482.63642,136.95899   L 482.63642,151.27888   C 482.63642,151.83888 482.55643,152.23887 482.31643,152.47887   C 482.07643,152.79887 481.51643,152.95887 480.79644,153.03887   C 480.71644,152.55887 480.55644,152.31887 480.39644,152.15887   C 480.07644,151.91887 479.59645,151.75888 478.87645,151.67888   L 478.87645,151.35888   C 480.07644,151.43888 480.79644,151.51888 481.03644,151.51888   C 481.35643,151.51888 481.43643,151.35888 481.43643,151.11888   z "
     id="path88" />
  <path
     style="fill:#000000;fill-rule:nonzero;fill-opacity:1;stroke:none;"
     d="  M 489.19638,147.9189   C 489.11638,148.0789 488.95638,148.3189 488.79638,148.6389   C 488.63638,148.9589 488.47638,149.19889 488.39638,149.35889   C 489.27638,149.43889 489.99637,149.59889 490.71637,149.83889   C 491.27636,149.1189 491.75636,148.3989 491.99636,147.67891   C 490.47637,147.8389 489.51637,147.9189 489.19638,147.9189   z  M 487.27639,143.67894   L 487.27639,145.27892   L 489.43637,145.27892   L 489.43637,143.67894   z  M 492.79635,143.67894   L 490.55637,143.67894   L 490.55637,145.27892   L 492.79635,145.27892   z  M 487.59639,141.35895   L 489.43637,141.35895   L 489.43637,140.07896   L 487.59639,140.07896   z  M 487.59639,138.31898   L 487.59639,139.59897   L 489.43637,139.59897   L 489.43637,138.31898   z  M 492.55635,138.31898   L 490.55637,138.31898   L 490.55637,139.59897   L 492.55635,139.59897   z  M 492.55635,141.35895   L 492.55635,140.07896   L 490.55637,140.07896   L 490.55637,141.35895   z  M 492.87635,147.59891   L 493.75634,147.8389   C 493.75634,148.0789 493.51634,148.1589 493.11635,148.1589   C 492.79635,148.8789 492.31635,149.51889 491.67636,150.15889   C 492.71635,150.63888 493.27635,151.19888 493.43634,151.75888   C 493.51634,152.07887 493.43634,152.31887 493.11635,152.47887   C 492.95635,152.47887 492.79635,152.47887 492.63635,152.39887   C 492.23635,151.99887 491.59636,151.51888 490.79636,150.95888   C 489.35638,152.07887 487.59639,152.71887 485.5964,152.95887   L 485.4364,152.63887   C 487.27639,152.23887 488.79638,151.59888 489.99637,150.55888   C 489.35638,150.15889 488.71638,149.91889 488.23638,149.67889   C 487.91639,150.15889 487.75639,150.47889 487.67639,150.63888   C 487.27639,150.71888 486.95639,150.63888 486.5564,150.47889   C 486.79639,150.07889 487.27639,149.27889 487.99639,148.0789   L 485.9964,148.2389   C 485.9164,148.4789 485.7564,148.5589 485.5164,148.6389   L 485.11641,147.19891   C 485.9164,147.19891 487.03639,147.19891 488.39638,147.19891   C 488.79638,146.47891 488.95638,145.99892 489.03638,145.83892   L 487.27639,145.83892   L 487.27639,146.15892   C 487.27639,146.15892 487.19639,146.23892 487.19639,146.31892   C 487.11639,146.31892 486.95639,146.39892 486.79639,146.47891   C 486.71639,146.55891 486.5564,146.55891 486.3964,146.55891   L 486.1564,146.55891   L 486.1564,142.55894   L 487.51639,143.19894   L 489.43637,143.19894   L 489.43637,141.91895   L 487.59639,141.91895   L 487.59639,142.15895   C 487.59639,142.23895 487.51639,142.23895 487.43639,142.31895   C 487.35639,142.39895 487.27639,142.39895 487.11639,142.47894   C 486.95639,142.55894 486.79639,142.55894 486.6364,142.55894   L 486.4764,142.55894   L 486.4764,140.07896   L 485.27641,140.07896   L 485.11641,139.59897   L 486.4764,139.59897   L 486.4764,137.11898   L 487.83639,137.75898   L 489.43637,137.75898   L 489.43637,135.99899   L 491.27636,136.15899   C 491.19636,136.47899 490.95636,136.63899 490.55637,136.71899   L 490.55637,137.75898   L 492.39635,137.75898   L 492.95635,137.11898   L 494.31634,138.15898   C 494.23634,138.23898 493.99634,138.39897 493.59634,138.39897   L 493.59634,139.59897   L 493.91634,139.59897   L 494.63634,138.71897   C 495.11633,139.11897 495.51633,139.51897 495.83633,139.83896   C 495.83633,139.99896 495.67633,140.07896 495.35633,140.07896   L 493.59634,140.07896   L 493.59634,141.99895   C 493.59634,142.07895 493.51634,142.15895 493.27635,142.23895   C 493.03635,142.39895 492.87635,142.39895 492.71635,142.39895   L 492.55635,142.39895   L 492.55635,141.91895   L 490.55637,141.91895   L 490.55637,143.19894   L 492.71635,143.19894   L 493.27635,142.55894   L 494.55634,143.51894   C 494.39634,143.67894 494.23634,143.75894 493.91634,143.83893   L 493.91634,145.99892   C 493.91634,146.07892 493.75634,146.15892 493.59634,146.23892   C 493.35635,146.31892 493.11635,146.31892 492.95635,146.31892   L 492.79635,146.31892   L 492.79635,145.83892   L 490.07637,145.83892   L 490.79636,145.99892   C 490.71637,146.23892 490.39637,146.39892 489.99637,146.39892   C 489.91637,146.63891 489.75637,146.87891 489.67637,147.11891   C 491.59636,147.03891 493.43634,146.95891 495.27633,146.87891   L 495.27633,147.27891   C 495.03633,147.27891 494.63634,147.35891 494.15634,147.35891   C 493.59634,147.43891 493.19635,147.51891 492.87635,147.59891   z  M 499.7563,140.55896   L 496.95632,140.55896   C 496.95632,140.63896 496.95632,140.71896 496.87632,140.87896   C 496.79632,141.03896 496.79632,141.11895 496.71632,141.19895   C 496.71632,141.35895 496.63632,141.43895 496.63632,141.51895   C 496.95632,143.59894 497.51631,145.43892 498.23631,147.03891   C 499.0363,145.19892 499.5963,143.03894 499.7563,140.55896   z  M 501.91628,140.55896   L 501.11629,140.55896   C 500.79629,143.75894 499.9963,146.23892 498.8763,148.1589   C 499.8363,149.83889 501.03629,151.03888 502.47628,151.99887   L 502.47628,152.15887   C 501.91628,152.23887 501.51629,152.47887 501.35629,152.95887   C 500.0763,151.99887 499.0363,150.71888 498.23631,149.1189   C 497.19632,150.63888 495.67633,151.91887 493.83634,152.95887   L 493.59634,152.79887   C 495.43633,151.43888 496.79632,149.91889 497.75631,148.0789   C 497.11632,146.47891 496.55632,144.55893 496.23632,142.15895   C 495.75633,143.19894 495.27633,143.99893 494.71634,144.63893   L 494.47634,144.47893   C 495.59633,142.15895 496.39632,139.35897 496.79632,135.99899   L 498.79631,136.39899   C 498.71631,136.71899 498.47631,136.87899 498.07631,136.87899   C 497.83631,137.91898 497.59631,138.95897 497.19632,139.99896   L 499.9963,139.99896   L 500.79629,138.95897   C 501.51629,139.43897 501.99628,139.91896 502.39628,140.23896   C 502.31628,140.47896 502.15628,140.55896 501.91628,140.55896   z "
     id="path90" />
  <path
     style="fill:#000000;fill-rule:nonzero;fill-opacity:1;stroke:none;"
     d="  M 518.63616,139.19897   L 506.39625,139.19897   C 506.39625,140.23896 506.15625,141.03896 505.51626,141.51895   C 505.27626,141.75895 505.03626,141.83895 504.79626,141.83895   C 504.47626,141.83895 504.31626,141.75895 504.15627,141.51895   C 504.07627,141.35895 504.07627,141.19895 504.15627,140.95896   C 504.23626,140.79896 504.39626,140.63896 504.55626,140.47896   C 504.95626,140.23896 505.27626,139.83896 505.51626,139.27897   C 505.75625,138.71897 505.91625,138.07898 505.91625,137.51898   L 506.15625,137.51898   C 506.31625,137.91898 506.39625,138.31898 506.39625,138.63897   L 511.67621,138.63897   L 511.67621,135.91899   L 513.67619,136.07899   C 513.5962,136.39899 513.3562,136.55899 512.9562,136.63899   L 512.9562,138.63897   L 518.63616,138.63897   L 519.43615,137.83898   L 520.87614,139.19897   C 520.79614,139.35897 520.55614,139.35897 520.15615,139.43897   C 519.51615,140.07896 518.71616,140.63896 517.83616,141.11895   L 517.67617,140.95896   C 518.07616,140.23896 518.39616,139.67897 518.63616,139.19897   z  M 518.23616,145.99892   L 519.19615,144.79893   C 519.83615,145.35892 520.39615,145.83892 520.87614,146.23892   C 520.79614,146.47891 520.63614,146.55891 520.31615,146.55891   L 512.9562,146.55891   L 512.9562,151.27888   C 512.9562,151.75888 512.7962,152.23887 512.5562,152.47887   C 512.31621,152.79887 511.67621,152.95887 510.87622,153.03887   C 510.79622,152.55887 510.55622,152.31887 510.31622,152.15887   C 509.99622,151.91887 509.35623,151.75888 508.47623,151.67888   L 508.47623,151.35888   C 510.07622,151.51888 510.95622,151.59888 511.27621,151.59888   C 511.59621,151.59888 511.67621,151.43888 511.67621,151.11888   L 511.67621,146.55891   L 504.07627,146.55891   L 503.91627,145.99892   L 511.67621,145.99892   L 511.67621,143.75894   L 512.8762,143.91893   C 513.67619,143.35894 514.47619,142.63894 515.11618,141.91895   L 507.43624,141.91895   L 507.27624,141.35895   L 515.35618,141.35895   L 516.23618,140.55896   L 517.67617,141.83895   C 517.59617,141.91895 517.35617,141.99895 516.95617,142.07895   C 515.83618,142.79894 514.63619,143.43894 513.4362,143.91893   L 513.5962,143.99893   C 513.5962,144.23893 513.3562,144.39893 512.9562,144.47893   L 512.9562,145.99892   z "
     id="path92" />
  <path
     style="fill:#000000;fill-rule:nonzero;fill-opacity:1;stroke:none;"
     d="  M 539.03601,141.99895   L 531.59606,141.99895   C 532.47606,146.39892 535.19604,149.67889 539.836,151.75888   L 539.756,151.99887   C 539.03601,152.07887 538.63601,152.39887 538.47601,153.03887   C 537.27602,152.31887 536.15603,151.59888 535.27603,150.63888   C 534.39604,149.75889 533.67605,148.7989 533.11605,147.8389   C 532.63605,146.79891 532.23606,145.83892 531.91606,144.95893   C 531.67606,143.99893 531.43606,143.03894 531.27606,141.99895   C 531.19607,142.95894 531.03607,143.83893 530.79607,144.55893   C 530.55607,145.35892 530.23607,146.15892 529.83608,146.95891   C 529.43608,147.75891 528.87608,148.4789 528.31609,149.19889   C 527.67609,149.83889 526.8761,150.55888 525.9161,151.19888   C 525.03611,151.83888 523.91612,152.47887 522.63613,153.03887   L 522.47613,152.63887   C 523.51612,152.07887 524.47611,151.51888 525.27611,150.79888   C 526.0761,150.15889 526.7961,149.51889 527.27609,148.8789   C 527.83609,148.2389 528.31609,147.51891 528.63608,146.71891   C 529.03608,145.91892 529.35608,145.19892 529.51608,144.39893   C 529.75608,143.67894 529.83608,142.87894 529.99607,141.99895   L 522.79613,141.99895   L 522.63613,141.43895   L 529.99607,141.43895   C 530.15607,140.31896 530.15607,138.47897 530.15607,135.99899   L 532.15606,136.15899   C 532.07606,136.47899 531.91606,136.71899 531.51606,136.71899   C 531.51606,138.87897 531.43606,140.39896 531.35606,141.43895   L 536.71602,141.43895   L 537.75602,140.15896   C 538.47601,140.71896 539.11601,141.27895 539.516,141.67895   C 539.516,141.91895 539.356,141.99895 539.03601,141.99895   z "
     id="path94" />
  <path
     style="fill:#000000;fill-rule:nonzero;fill-opacity:1;stroke:none;"
     d="  M 550.95592,152.79887   L 549.91593,151.43888   C 551.19592,150.95888 553.9959,149.75889 558.07587,147.75891   L 558.23586,148.0789   C 555.67588,149.67889 553.3559,151.11888 551.19592,152.31887   C 551.19592,152.55887 551.11592,152.71887 550.95592,152.79887   z  M 551.19592,142.95894   L 551.35592,142.79894   C 553.1159,143.35894 554.23589,144.07893 554.71589,145.03893   C 554.95589,145.59892 554.95589,145.99892 554.71589,146.23892   C 554.47589,146.47891 554.23589,146.55891 553.8359,146.31892   C 553.6759,145.75892 553.3559,145.19892 552.79591,144.55893   C 552.31591,143.91893 551.75591,143.35894 551.19592,142.95894   z  M 552.55591,135.91899   L 554.55589,136.39899   C 554.47589,136.55899 554.31589,136.71899 553.9159,136.71899   C 554.31589,137.83898 555.03589,138.87897 555.83588,139.91896   C 556.71588,140.87896 557.59587,141.75895 558.55586,142.31895   L 558.55586,142.55894   C 557.99587,142.71894 557.67587,143.03894 557.51587,143.59894   C 556.63588,142.79894 555.83588,141.83895 555.19589,140.63896   C 554.47589,139.51897 553.9159,138.23898 553.5959,136.95899   C 553.1959,138.07898 552.55591,139.27897 551.75591,140.39896   C 550.87592,141.43895 549.91593,142.39895 548.87593,143.19894   L 549.19593,143.43894   C 549.03593,143.59894 548.79593,143.67894 548.39594,143.75894   C 548.31594,148.6389 547.91594,151.43888 547.19595,152.15887   C 546.71595,152.63887 546.07595,152.87887 545.35596,152.87887   C 545.35596,152.47887 545.19596,152.15887 545.03596,151.99887   C 544.79596,151.83888 544.39597,151.67888 543.59597,151.51888   L 543.59597,151.19888   C 544.79596,151.35888 545.43596,151.35888 545.67596,151.35888   C 545.91596,151.35888 546.15595,151.27888 546.31595,151.19888   C 546.79595,150.71888 547.11595,148.1589 547.27595,143.59894   L 544.87596,143.59894   C 544.71597,145.59892 544.39597,147.35891 543.83597,148.8789   C 543.27598,150.39889 542.39598,151.75888 541.19599,152.95887   L 540.95599,152.63887   C 541.27599,152.15887 541.67599,151.59888 541.91599,151.03888   C 542.23598,150.47889 542.47598,149.91889 542.63598,149.43889   C 542.87598,148.9589 543.03598,148.3189 543.19598,147.59891   C 543.27598,146.87891 543.35598,146.23892 543.43597,145.75892   C 543.51597,145.35892 543.59597,144.71893 543.59597,143.83893   C 543.67597,143.03894 543.67597,142.39895 543.67597,141.99895   C 543.67597,141.67895 543.67597,141.03896 543.67597,140.15896   L 541.27599,140.15896   L 541.19599,139.59897   L 544.63597,139.59897   L 544.63597,136.07899   L 546.47595,136.23899   C 546.47595,136.55899 546.23595,136.71899 545.83596,136.79899   L 545.83596,139.59897   L 547.35595,139.59897   L 548.23594,138.47897   C 548.87593,138.95897 549.35593,139.43897 549.75593,139.83896   C 549.75593,139.99896 549.59593,140.15896 549.27593,140.15896   L 544.95596,140.15896   C 544.95596,140.79896 544.95596,141.75895 544.87596,143.03894   L 547.11595,143.03894   L 547.75594,142.31895   L 548.55594,142.95894   C 549.43593,141.99895 550.31592,140.87896 551.03592,139.59897   C 551.83591,138.23898 552.31591,137.03898 552.55591,135.91899   z "
     id="path96" />
  <path
     style="fill:#000000;fill-rule:nonzero;fill-opacity:1;stroke:none;"
     d="  M 568.31579,141.99895   L 568.15579,141.91895   C 567.67579,142.15895 567.1158,142.55894 566.7958,142.95894   L 566.5558,143.83893   C 565.99581,144.07893 565.27581,144.39893 564.79582,144.71893   L 564.95582,145.19892   C 565.35581,144.95893 565.83581,144.71893 566.3958,144.55893   C 565.75581,147.75891 565.03581,151.03888 564.31582,154.31886   C 564.07582,155.43885 563.83582,155.59885 562.71583,155.83885   L 562.63583,156.31884   L 566.9558,156.07884   L 566.9558,155.59885   L 566.5558,155.51885   C 565.59581,155.43885 565.51581,155.27885 565.75581,154.23886   L 566.23581,151.59888   C 566.6358,151.75888 567.0358,151.75888 567.3558,151.75888   C 568.55579,151.51888 569.91578,150.63888 570.79577,149.59889   C 571.91576,148.3989 572.39576,147.03891 572.39576,145.75892   C 572.39576,144.07893 571.67577,143.19894 569.75578,143.19894   C 569.19578,143.19894 568.47579,143.27894 567.99579,143.43894   z  M 567.83579,144.15893   C 568.15579,144.07893 568.55579,143.99893 568.87579,143.99893   C 569.99578,143.99893 570.87577,144.39893 570.87577,146.07892   C 570.87577,148.4789 569.03578,150.95888 567.67579,150.95888   C 567.2758,150.95888 566.7958,150.63888 566.5558,150.31889   z "
     id="path98" />
  <path
     style="fill:#000000;fill-rule:nonzero;fill-opacity:1;stroke:none;"
     d="  M 580.5557,149.91889   L 584.39567,149.91889   L 584.39567,145.03893   L 580.5557,145.03893   z  M 584.39567,139.83896   L 580.5557,139.83896   L 580.5557,144.47893   L 584.39567,144.47893   z  M 584.95567,138.47897   L 586.39566,139.67897   C 586.31566,139.83896 585.99566,139.91896 585.59566,139.99896   L 585.59566,151.43888   C 585.59566,151.51888 585.43566,151.59888 585.19567,151.75888   C 585.03567,151.83888 584.79567,151.91887 584.63567,151.91887   L 584.39567,151.91887   L 584.39567,150.47889   L 580.5557,150.47889   L 580.5557,151.99887   C 580.5557,152.07887 580.4757,152.15887 580.2357,152.23887   C 579.9957,152.39887 579.8357,152.39887 579.59571,152.39887   L 579.35571,152.39887   L 579.35571,138.63897   L 580.6357,139.27897   L 581.27569,139.27897   C 581.51569,138.15898 581.75569,137.03898 581.91569,135.99899   L 583.91567,136.39899   C 583.83568,136.71899 583.59568,136.79899 583.19568,136.79899   C 582.79568,137.59898 582.39569,138.39897 581.83569,139.27897   L 584.23567,139.27897   z  M 593.9956,138.39897   L 595.43559,139.67897   C 595.35559,139.83896 595.03559,139.91896 594.71559,139.99896   C 594.6356,143.59894 594.4756,146.39892 594.3156,148.3189   C 594.0756,150.31889 593.7556,151.51888 593.3556,152.07887   C 592.87561,152.63887 592.15561,152.95887 591.19562,152.95887   C 591.19562,152.47887 591.11562,152.15887 590.87562,151.99887   C 590.55563,151.83888 589.99563,151.59888 589.03564,151.43888   L 589.03564,151.11888   C 590.39563,151.27888 591.27562,151.35888 591.67562,151.35888   C 591.99561,151.35888 592.23561,151.27888 592.39561,151.11888   C 592.95561,150.47889 593.3556,146.71891 593.4356,139.75896   L 588.95564,139.75896   C 588.07564,141.43895 587.19565,142.71894 586.23566,143.67894   L 585.91566,143.51894   C 587.27565,141.59895 588.23564,139.03897 588.95564,135.99899   L 590.79562,136.55899   C 590.71562,136.79899 590.47563,136.95899 590.15563,136.87899   C 589.99563,137.43898 589.67563,138.23898 589.19564,139.19897   L 593.27561,139.19897   z  M 587.67565,143.19894   L 587.83565,143.11894   C 589.51563,143.83893 590.47563,144.71893 590.95562,145.75892   C 591.19562,146.31892 591.11562,146.79891 590.87562,147.11891   C 590.63562,147.35891 590.31563,147.35891 589.91563,147.03891   C 589.83563,146.47891 589.51563,145.83892 589.11564,145.11893   C 588.63564,144.39893 588.15564,143.75894 587.67565,143.19894   z "
     id="path100" />
  <path
     style="fill:#000000;fill-rule:nonzero;fill-opacity:1;stroke:none;"
     d="  M 612.31546,138.15898   L 613.83545,138.79897   C 613.75545,139.03897 613.51546,139.11897 613.11546,139.03897   C 612.39546,140.31896 611.59547,141.43895 610.79548,142.55894   C 612.07547,142.47894 612.79546,142.39895 612.79546,142.39895   C 612.63546,141.91895 612.31546,141.43895 611.99547,141.03896   L 612.23546,140.95896   C 613.43546,141.51895 614.07545,142.23895 614.15545,143.03894   C 614.31545,143.51894 614.15545,143.83893 613.91545,143.99893   C 613.67545,144.07893 613.43546,144.07893 613.19546,143.83893   C 613.19546,143.51894 613.11546,143.19894 612.95546,142.79894   C 612.79546,142.87894 612.39546,142.95894 611.75547,143.19894   C 611.11547,143.35894 610.55548,143.51894 610.15548,143.59894   C 610.07548,143.83893 609.91548,143.91893 609.67548,143.99893   L 609.19549,142.63894   C 609.75548,142.63894 610.07548,142.55894 610.15548,142.55894   C 610.87547,141.27895 611.59547,139.83896 612.31546,138.15898   z  M 610.15548,143.99893   L 610.39548,143.83893   C 611.35547,143.91893 611.99547,144.15893 612.15547,144.71893   C 612.23546,144.95893 612.23546,145.19892 611.99547,145.35892   C 611.75547,145.51892 611.51547,145.51892 611.27547,145.35892   C 611.11547,144.79893 610.71548,144.31893 610.15548,143.99893   z  M 608.95549,138.71897   L 609.19549,138.63897   C 609.43549,138.71897 609.67548,138.79897 609.91548,138.95897   C 610.39548,137.83898 610.71548,136.87899 610.95547,136.07899   L 612.55546,136.63899   C 612.47546,136.87899 612.31546,137.03898 611.91547,136.95899   C 611.19547,137.99898 610.71548,138.71897 610.31548,139.19897   C 610.95547,139.59897 611.19547,140.07896 611.11547,140.55896   C 611.03547,140.79896 610.87547,140.95896 610.63548,140.95896   C 610.47548,140.95896 610.31548,140.95896 610.15548,140.79896   C 609.99548,140.07896 609.59548,139.43897 608.95549,138.71897   z  M 604.79552,136.07899   L 606.39551,136.63899   C 606.31551,136.87899 606.07551,137.03898 605.75551,136.95899   C 605.03552,138.15898 604.55552,138.87897 604.31552,139.19897   C 604.95552,139.59897 605.19552,139.99896 605.11552,140.47896   C 605.03552,140.79896 604.87552,140.95896 604.63552,140.95896   C 604.47552,140.95896 604.31552,140.87896 604.15552,140.79896   C 604.07553,140.47896 603.91553,140.15896 603.67553,139.75896   C 603.35553,139.35897 603.11553,138.95897 602.79553,138.71897   L 602.95553,138.55897   C 603.19553,138.63897 603.51553,138.71897 603.91553,138.95897   C 604.23552,137.83898 604.55552,136.87899 604.79552,136.07899   z  M 600.79555,140.87896   L 600.79555,142.47894   C 602.07554,143.11894 602.79553,143.83893 602.95553,144.63893   C 603.11553,145.11893 603.03553,145.43892 602.71554,145.59892   C 602.47554,145.75892 602.31554,145.67892 601.99554,145.51892   C 601.91554,144.63893 601.51554,143.83893 600.79555,142.87894   L 600.79555,152.55887   C 600.79555,152.63887 600.71555,152.71887 600.47555,152.79887   C 600.31555,152.95887 600.07555,152.95887 599.91556,152.95887   L 599.67556,152.95887   L 599.67556,144.39893   C 599.03556,145.99892 598.15557,147.43891 597.11558,148.7989   L 596.79558,148.5589   C 597.99557,146.63891 598.79556,144.07893 599.35556,140.87896   L 597.35558,140.87896   L 597.19558,140.31896   L 599.67556,140.31896   L 599.67556,135.99899   L 601.51554,136.15899   C 601.43554,136.47899 601.19555,136.63899 600.79555,136.71899   L 600.79555,140.31896   L 601.27555,140.31896   L 602.07554,139.27897   C 602.63554,139.75896 603.11553,140.23896 603.35553,140.55896   C 603.35553,140.79896 603.19553,140.87896 602.95553,140.87896   z  M 614.15545,148.8789   L 613.91545,151.67888   C 614.31545,152.15887 614.47545,152.55887 614.31545,152.79887   C 614.23545,152.95887 613.99545,153.03887 613.75545,153.03887   C 613.43546,152.95887 613.19546,152.87887 612.95546,152.79887   C 612.63546,152.63887 612.39546,152.47887 612.07547,152.23887   C 611.35547,151.75888 610.79548,151.11888 610.23548,150.39889   C 608.79549,151.51888 607.1155,152.31887 605.19552,152.79887   L 605.03552,152.55887   C 606.79551,151.83888 608.39549,150.79888 609.67548,149.51889   C 609.11549,148.5589 608.71549,147.51891 608.39549,146.23892   L 605.59551,146.23892   C 605.59551,146.63891 605.51551,147.03891 605.43552,147.59891   C 606.63551,147.9189 607.4355,148.3989 607.6755,149.0389   C 607.8355,149.43889 607.7555,149.75889 607.5155,149.91889   C 607.2755,150.15889 606.9555,150.15889 606.63551,149.91889   C 606.47551,149.35889 606.07551,148.7189 605.35552,148.0789   C 604.95552,150.15889 603.83553,151.83888 601.99554,152.95887   L 601.75554,152.71887   C 602.31554,152.23887 602.71554,151.67888 603.03553,151.19888   C 603.43553,150.63888 603.67553,150.07889 603.83553,149.43889   C 603.99553,148.8789 604.15552,148.3189 604.23552,147.8389   C 604.31552,147.35891 604.31552,146.87891 604.39552,146.23892   L 603.03553,146.23892   L 602.87553,145.67892   L 608.31549,145.67892   C 607.9155,143.99893 607.6755,141.75895 607.5955,139.11897   C 607.4355,139.27897 607.1955,139.35897 606.9555,139.27897   C 606.15551,140.79896 605.35552,142.07895 604.63552,143.11894   C 604.79552,143.11894 605.19552,143.11894 605.59551,143.03894   C 606.07551,143.03894 606.31551,142.95894 606.47551,142.95894   C 606.31551,142.55894 606.07551,142.15895 605.83551,141.75895   L 605.99551,141.59895   C 607.1155,142.23895 607.7555,142.87894 607.8355,143.59894   C 607.9155,143.99893 607.8355,144.31893 607.5955,144.47893   C 607.3555,144.55893 607.1155,144.47893 606.8755,144.31893   C 606.8755,144.07893 606.79551,143.75894 606.63551,143.35894   C 606.47551,143.35894 606.23551,143.43894 605.91551,143.59894   C 605.59551,143.67894 605.27552,143.83893 604.95552,143.91893   C 604.55552,143.99893 604.23552,144.15893 603.91553,144.23893   C 603.83553,144.39893 603.67553,144.55893 603.43553,144.55893   L 602.79553,143.27894   C 602.87553,143.27894 603.35553,143.27894 604.07553,143.19894   C 604.71552,141.91895 605.35552,140.23896 606.07551,138.39897   L 607.5155,138.95897   C 607.5155,137.67898 607.5155,136.71899 607.5155,136.07899   L 609.35549,136.31899   C 609.35549,136.55899 609.11549,136.71899 608.71549,136.79899   C 608.63549,140.63896 608.87549,143.59894 609.43549,145.67892   L 612.07547,145.67892   L 612.87546,144.63893   C 613.51546,145.19892 613.99545,145.59892 614.39545,145.99892   C 614.31545,146.15892 614.15545,146.23892 613.91545,146.23892   L 609.59548,146.23892   C 609.75548,147.03891 610.07548,147.8389 610.47548,148.5589   C 610.87547,148.0789 611.35547,147.35891 611.75547,146.55891   L 613.35546,147.35891   C 613.27546,147.51891 613.03546,147.59891 612.63546,147.51891   C 612.23546,148.2389 611.67547,148.9589 611.03547,149.59889   C 611.51547,150.15889 611.99547,150.63888 612.63546,151.03888   C 612.79546,151.19888 612.87546,151.27888 612.95546,151.19888   C 613.03546,151.19888 613.11546,151.11888 613.19546,150.95888   C 613.51546,150.31889 613.75545,149.59889 613.91545,148.7989   z "
     id="path102" />
  <path
     style="fill:#000000;fill-rule:nonzero;fill-opacity:1;stroke:none;"
     d="  M 616.47543,138.87897   L 616.31543,138.39897   L 623.67538,138.39897   L 623.67538,135.99899   L 625.51537,136.15899   C 625.51537,136.39899 625.27537,136.55899 624.95537,136.63899   L 624.95537,138.39897   L 629.75534,138.39897   L 630.71533,137.19898   C 631.35532,137.75898 631.99532,138.15898 632.39532,138.55897   C 632.39532,138.79897 632.23532,138.87897 631.91532,138.87897   L 623.83538,138.87897   L 625.11537,139.51897   C 625.03537,139.75896 624.79537,139.83896 624.47537,139.83896   C 623.75538,140.47896 623.27538,140.95896 622.79539,141.27895   C 623.35538,141.75895 623.59538,142.23895 623.43538,142.71894   C 623.35538,143.03894 623.19538,143.11894 622.87539,143.11894   C 622.71539,143.11894 622.55539,143.03894 622.47539,142.95894   C 622.31539,142.55894 622.15539,142.15895 621.75539,141.67895   C 621.4354,141.27895 621.1154,140.87896 620.7154,140.55896   L 620.8754,140.39896   C 621.5154,140.55896 621.99539,140.71896 622.39539,140.95896   C 622.87539,139.99896 623.27538,139.27897 623.43538,138.87897   z  M 625.67537,140.39896   L 627.27535,141.11895   C 627.19535,141.35895 626.95536,141.43895 626.55536,141.35895   C 625.43537,142.71894 624.15538,143.99893 622.79539,145.03893   C 623.19538,145.03893 623.83538,144.95893 624.71537,144.95893   C 625.51537,144.87893 626.15536,144.87893 626.55536,144.79893   C 626.31536,144.31893 625.91536,143.75894 625.43537,143.27894   L 625.67537,143.19894   C 627.03536,143.67894 627.91535,144.39893 628.23535,145.27892   C 628.39535,145.75892 628.31535,146.15892 628.07535,146.39892   C 627.75535,146.63891 627.43535,146.55891 627.11535,146.31892   C 627.11535,146.07892 626.95536,145.67892 626.79536,145.19892   C 625.99536,145.43892 624.23538,145.75892 621.67539,146.15892   C 621.5954,146.39892 621.4354,146.55891 621.1954,146.55891   L 620.3954,145.11893   C 621.5154,145.03893 622.15539,145.03893 622.23539,145.03893   C 623.59538,143.43894 624.79537,141.91895 625.67537,140.39896   z  M 627.51535,143.11894   L 627.67535,142.87894   C 629.75534,143.35894 631.19532,144.07893 631.91532,144.95893   C 632.23532,145.51892 632.31532,145.91892 632.07532,146.15892   C 631.99532,146.39892 631.67532,146.47891 631.35532,146.31892   C 631.03533,145.75892 630.47533,145.19892 629.75534,144.63893   C 628.95534,143.99893 628.23535,143.51894 627.51535,143.11894   z  M 630.23533,139.27897   L 631.83532,140.31896   C 631.67532,140.55896 631.43532,140.63896 631.11533,140.47896   C 630.15533,141.27895 629.19534,141.91895 628.15535,142.47894   L 627.91535,142.23895   C 628.63534,141.43895 629.43534,140.47896 630.23533,139.27897   z  M 617.03543,139.75896   L 617.19543,139.59897   C 618.71542,140.15896 619.59541,140.79896 619.91541,141.67895   C 620.15541,142.15895 620.07541,142.55894 619.83541,142.79894   C 619.59541,142.95894 619.27541,142.95894 618.95542,142.71894   C 618.87542,142.23895 618.63542,141.75895 618.23542,141.19895   C 617.83542,140.63896 617.43543,140.15896 617.03543,139.75896   z  M 621.5154,142.87894   L 621.5954,143.11894   C 619.67541,144.55893 618.31542,145.59892 617.35543,146.31892   C 617.35543,146.55891 617.27543,146.71891 617.11543,146.79891   L 616.07544,145.51892   C 616.95543,145.11893 618.79542,144.23893 621.5154,142.87894   z  M 630.15533,147.9989   L 631.11533,146.87891   C 631.83532,147.35891 632.39532,147.8389 632.87531,148.3189   C 632.79531,148.4789 632.63531,148.5589 632.39532,148.5589   L 624.95537,148.5589   L 624.95537,152.55887   C 624.95537,152.63887 624.79537,152.71887 624.63537,152.79887   C 624.39537,152.95887 624.15538,152.95887 623.91538,152.95887   L 623.67538,152.95887   L 623.67538,148.5589   L 615.99544,148.5589   L 615.83544,147.9989   L 623.67538,147.9989   L 623.67538,146.15892   L 625.51537,146.39892   C 625.51537,146.63891 625.27537,146.79891 624.95537,146.87891   L 624.95537,147.9989   z "
     id="path104" />
</svg>
