<?xml version="1.0" encoding="UTF-8" standalone="no"?>
<svg
   width="230pt"
   height="214pt"
   viewBox="0 0 230 214"
   version="1.2"
   id="svg286"
   xmlns:xlink="http://www.w3.org/1999/xlink"
   xmlns="http://www.w3.org/2000/svg"
   xmlns:svg="http://www.w3.org/2000/svg">
  <defs
     id="defs213">
    <g
       id="g208">
      <symbol
         overflow="visible"
         id="glyph0-0">
        <path
           style="stroke:none;"
           d="M 0 0 L 9.046875 0 L 9.046875 -12.671875 L 0 -12.671875 Z M 4.53125 -7.15625 L 1.453125 -11.765625 L 7.609375 -11.765625 Z M 5.078125 -6.34375 L 8.15625 -10.953125 L 8.15625 -1.71875 Z M 1.453125 -0.90625 L 4.53125 -5.515625 L 7.609375 -0.90625 Z M 0.90625 -10.953125 L 3.984375 -6.34375 L 0.90625 -1.71875 Z M 0.90625 -10.953125 "
           id="path151" />
      </symbol>
      <symbol
         overflow="visible"
         id="glyph0-1">
        <path
           style="stroke:none;"
           d="M 8.203125 -2.09375 C 7.671875 -1.578125 7.046875 -1.15625 6.90625 -1.15625 C 6.796875 -1.15625 6.734375 -1.296875 6.859375 -1.9375 C 7.28125 -4.234375 7.828125 -6.703125 8.109375 -7.828125 L 8.0625 -7.890625 C 7.859375 -7.890625 7.625 -7.953125 7.375 -8 C 6.984375 -8.078125 6.625 -8.125 6.25 -8.125 C 5.109375 -8.125 3.78125 -7.5 2.875 -6.734375 C 1.5625 -5.625 0.703125 -3.65625 0.703125 -1.828125 C 0.703125 -0.375 1.28125 0.21875 1.75 0.21875 C 2.25 0.21875 2.84375 -0.109375 3.4375 -0.59375 C 4.21875 -1.234375 5.078125 -2.09375 5.78125 -3.09375 L 5.8125 -3.09375 L 5.453125 -1.375 C 5.203125 -0.046875 5.4375 0.21875 5.78125 0.21875 C 6.234375 0.21875 7.4375 -0.453125 8.421875 -1.671875 Z M 2.703125 -0.9375 C 2.4375 -0.9375 2.203125 -1.328125 2.203125 -2.140625 C 2.203125 -3.9375 2.9375 -6.0625 4.171875 -6.96875 C 4.46875 -7.203125 4.984375 -7.359375 5.453125 -7.359375 C 5.921875 -7.359375 6.40625 -7.21875 6.671875 -7.09375 C 6.53125 -6.515625 6.265625 -5.21875 6.0625 -4.484375 C 5.453125 -3.234375 3.40625 -0.9375 2.703125 -0.9375 Z M 2.703125 -0.9375 "
           id="path154" />
      </symbol>
      <symbol
         overflow="visible"
         id="glyph0-2">
        <path
           style="stroke:none;"
           d="M 1.90625 -11.84375 L 2.421875 -11.828125 C 3.140625 -11.828125 3.1875 -11.765625 3.03125 -10.953125 C 2.421875 -8.046875 1.796875 -5.3125 1.28125 -2.828125 C 1.046875 -1.640625 1.125 -1 1.390625 -0.5625 C 1.671875 -0.109375 2.265625 0.21875 2.84375 0.21875 C 3.515625 0.21875 4.484375 -0.03125 5.578125 -0.78125 C 7.171875 -1.84375 8.359375 -4.140625 8.359375 -6.140625 C 8.359375 -7.328125 7.875 -8.125 7.078125 -8.125 C 6.25 -8.125 4.703125 -7.3125 3.15625 -5.421875 L 3.109375 -5.421875 C 3.625 -7.734375 4.109375 -9.84375 4.71875 -12.328125 C 4.8125 -12.71875 4.8125 -12.890625 4.640625 -12.890625 C 4.34375 -12.890625 3.34375 -12.4375 1.9375 -12.28125 Z M 3.75 -0.609375 C 3 -0.609375 2.296875 -1.140625 2.625 -2.921875 C 2.734375 -3.53125 2.84375 -4 2.953125 -4.328125 C 4.109375 -5.96875 5.609375 -7.140625 6.25 -7.140625 C 6.59375 -7.140625 6.859375 -6.75 6.859375 -5.828125 C 6.859375 -3.625 5.765625 -1.515625 4.6875 -0.890625 C 4.421875 -0.71875 4.0625 -0.609375 3.75 -0.609375 Z M 3.75 -0.609375 "
           id="path157" />
      </symbol>
      <symbol
         overflow="visible"
         id="glyph0-3">
        <path
           style="stroke:none;"
           d="M 6.078125 -2.1875 C 5.59375 -1.6875 4.484375 -0.84375 3.5625 -0.84375 C 2.78125 -0.84375 2.28125 -1.515625 2.28125 -2.8125 C 2.28125 -4.03125 2.625 -5.265625 3.078125 -6.078125 C 3.421875 -6.734375 3.9375 -7.28125 4.578125 -7.28125 C 5.140625 -7.28125 5.5625 -7.03125 5.9375 -6.5 C 6.0625 -6.34375 6.1875 -6.296875 6.34375 -6.390625 C 6.75 -6.609375 6.9375 -6.953125 6.9375 -7.21875 C 6.921875 -7.671875 6.34375 -8.125 5.5625 -8.125 C 4.671875 -8.125 3.40625 -7.4375 2.65625 -6.796875 C 1.5 -5.71875 0.796875 -3.953125 0.796875 -2.4375 C 0.796875 -0.703125 1.578125 0.21875 2.734375 0.21875 C 3.796875 0.21875 5.234375 -0.5 6.359375 -1.796875 Z M 6.078125 -2.1875 "
           id="path160" />
      </symbol>
      <symbol
         overflow="visible"
         id="glyph0-4">
        <path
           style="stroke:none;"
           d="M 8.5 -8.0625 C 8.15625 -7.84375 7.5 -7.640625 6.453125 -7.625 C 6.046875 -7.96875 5.484375 -8.125 4.90625 -8.125 C 4.25 -8.125 3.328125 -7.828125 2.59375 -7.21875 C 1.671875 -6.5 1.0625 -5.375 1.0625 -4.203125 C 1.0625 -2.96875 1.609375 -2.234375 2.640625 -1.984375 C 1.796875 -1.484375 1.546875 -1.15625 1.546875 -0.875 C 1.515625 -0.640625 1.75 -0.265625 2.203125 0.015625 C 0.21875 1.03125 -0.8125 1.84375 -0.828125 2.625 C -0.875 3.75 0.65625 4.65625 2.40625 4.65625 C 4.140625 4.65625 6.6875 3.5625 6.6875 2.0625 C 6.6875 1.28125 5.96875 0.578125 4.234375 -0.34375 C 3.375 -0.796875 2.9375 -1.125 2.9375 -1.390625 C 2.9375 -1.609375 3.078125 -1.796875 3.296875 -1.96875 C 4.328125 -2.171875 5.140625 -2.625 5.625 -3.03125 C 6.296875 -3.546875 7.015625 -4.515625 7.015625 -5.796875 C 7.015625 -6.28125 6.953125 -6.5625 6.859375 -6.8125 C 7.0625 -6.8125 7.1875 -6.828125 7.328125 -6.859375 C 7.625 -6.921875 8.09375 -7.140625 8.625 -7.71875 Z M 3.625 -2.703125 C 2.96875 -2.703125 2.4375 -3.265625 2.4375 -4.328125 C 2.4375 -5.3125 2.75 -6.140625 3.140625 -6.6875 C 3.453125 -7.171875 3.9375 -7.5 4.453125 -7.5 C 5.25 -7.5 5.671875 -6.765625 5.671875 -5.734375 C 5.671875 -3.796875 4.578125 -2.703125 3.625 -2.703125 Z M 3.140625 3.890625 C 1.859375 3.890625 0.671875 3.234375 0.671875 2.3125 C 0.671875 1.640625 1.46875 0.921875 2.6875 0.34375 C 2.9375 0.46875 3.4375 0.765625 4.03125 1.125 C 4.875 1.609375 5.359375 2.0625 5.359375 2.546875 C 5.359375 3.265625 4.484375 3.890625 3.140625 3.890625 Z M 3.140625 3.890625 "
           id="path163" />
      </symbol>
      <symbol
         overflow="visible"
         id="glyph0-5">
        <path
           style="stroke:none;"
           d="M 1.5625 -5.875 C 2.1875 -6.671875 2.53125 -6.90625 2.71875 -6.90625 C 2.890625 -6.90625 3.0625 -6.640625 3.3125 -5.765625 L 3.9375 -3.875 C 2.8125 -2.1875 1.953125 -1.140625 1.4375 -1.140625 C 1.25 -1.140625 1.109375 -1.21875 1.015625 -1.328125 C 0.921875 -1.4375 0.828125 -1.5 0.71875 -1.5 C 0.375 -1.5 0 -1.09375 0 -0.65625 C -0.015625 -0.140625 0.359375 0.21875 0.8125 0.21875 C 1.6875 0.21875 2.515625 -0.671875 4.125 -3.203125 L 4.6875 -1.453125 C 5.03125 -0.3125 5.4375 0.21875 5.890625 0.21875 C 6.515625 0.21875 7.359375 -0.453125 8.1875 -1.734375 L 7.875 -2.09375 C 7.296875 -1.40625 6.859375 -1.046875 6.578125 -1.046875 C 6.28125 -1.046875 6.015625 -1.578125 5.65625 -2.71875 L 5.078125 -4.53125 C 5.46875 -5.09375 5.875 -5.578125 6.25 -6.015625 C 6.71875 -6.609375 7.078125 -6.921875 7.328125 -6.921875 C 7.5 -6.921875 7.640625 -6.84375 7.75 -6.703125 C 7.84375 -6.609375 7.90625 -6.5625 8.015625 -6.5625 C 8.296875 -6.5625 8.703125 -6.921875 8.734375 -7.359375 C 8.734375 -7.75 8.4375 -8.125 7.96875 -8.125 C 7.171875 -8.125 6.390625 -7.359375 4.890625 -5.15625 L 4.5625 -6.15625 C 4.125 -7.46875 3.890625 -8.125 3.40625 -8.125 C 2.8125 -8.125 2.015625 -7.359375 1.25 -6.25 Z M 1.5625 -5.875 "
           id="path166" />
      </symbol>
      <symbol
         overflow="visible"
         id="glyph0-6">
        <path
           style="stroke:none;"
           d="M 0.6875 -3.53125 C 0.71875 -2.25 0.71875 -1.265625 0.75 -0.84375 C 1.140625 -0.390625 2.40625 0.265625 3.859375 0.265625 C 5.9375 0.265625 7.8125 -1.0625 7.8125 -3.1875 C 7.8125 -4.625 6.953125 -5.5625 5.703125 -6.5 L 5.15625 -6.90625 C 4.21875 -7.625 3.484375 -8.28125 3.484375 -9.328125 C 3.484375 -10.4375 4.234375 -11.4375 5.5 -11.4375 C 7.0625 -11.4375 7.53125 -10.21875 7.671875 -8.859375 L 8.203125 -8.90625 C 8.21875 -9.71875 8.1875 -10.6875 8.265625 -11.4375 C 8.109375 -11.5 7.8125 -11.609375 7.46875 -11.734375 C 6.953125 -11.921875 6.3125 -12.046875 5.734375 -12.046875 C 3.5625 -12.046875 2.0625 -10.6875 2.0625 -8.796875 C 2.0625 -7.296875 3.265625 -6.296875 4.09375 -5.625 L 4.59375 -5.234375 C 5.65625 -4.40625 6.28125 -3.71875 6.28125 -2.6875 C 6.28125 -1.25 5.390625 -0.34375 4.109375 -0.34375 C 2.125 -0.34375 1.375 -2.203125 1.171875 -3.578125 Z M 0.6875 -3.53125 "
           id="path169" />
      </symbol>
      <symbol
         overflow="visible"
         id="glyph1-0">
        <path
           style="stroke:none;"
           d="M 9.046875 0 L 9.046875 -12.671875 L 0 -12.671875 L 0 0 Z M 7.609375 -11.765625 L 4.53125 -7.15625 L 1.453125 -11.765625 Z M 8.15625 -1.71875 L 5.078125 -6.34375 L 8.15625 -10.953125 Z M 1.453125 -0.90625 L 4.53125 -5.515625 L 7.609375 -0.90625 Z M 0.90625 -10.953125 L 3.984375 -6.34375 L 0.90625 -1.71875 Z M 0.90625 -10.953125 "
           id="path172" />
      </symbol>
      <symbol
         overflow="visible"
         id="glyph1-1">
        <path
           style="stroke:none;"
           d="M 5.4375 2.65625 C 3.640625 1.140625 2.59375 -1.78125 2.59375 -4.890625 C 2.59375 -8 3.625 -10.921875 5.4375 -12.421875 L 5.109375 -12.84375 C 2.46875 -11.046875 1.265625 -8.15625 1.265625 -4.90625 C 1.265625 -1.625 2.46875 1.28125 5.109375 3.0625 Z M 5.4375 2.65625 "
           id="path175" />
      </symbol>
      <symbol
         overflow="visible"
         id="glyph1-2">
        <path
           style="stroke:none;"
           d="M 0.8125 -12.421875 C 2.625 -10.9375 3.671875 -8 3.671875 -4.890625 C 3.671875 -1.78125 2.65625 1.125 0.8125 2.65625 L 1.15625 3.0625 C 3.859375 1.234375 4.984375 -1.625 4.984375 -4.890625 C 4.984375 -8.15625 3.859375 -11.03125 1.15625 -12.84375 Z M 0.8125 -12.421875 "
           id="path178" />
      </symbol>
      <symbol
         overflow="visible"
         id="glyph2-0">
        <path
           style="stroke:none;"
           d="M 6.984375 0 L 6.984375 -9.78125 L 0 -9.78125 L 0 0 Z M 5.859375 -9.078125 L 3.484375 -5.515625 L 1.125 -9.078125 Z M 6.28125 -1.328125 L 3.90625 -4.890625 L 6.28125 -8.453125 Z M 1.125 -0.703125 L 3.484375 -4.265625 L 5.859375 -0.703125 Z M 0.703125 -8.453125 L 3.078125 -4.890625 L 0.703125 -1.328125 Z M 0.703125 -8.453125 "
           id="path181" />
      </symbol>
      <symbol
         overflow="visible"
         id="glyph2-1">
        <path
           style="stroke:none;"
           d="M 4.1875 2.046875 C 2.8125 0.875 2 -1.375 2 -3.765625 C 2 -6.171875 2.796875 -8.421875 4.1875 -9.578125 L 3.9375 -9.90625 C 1.90625 -8.515625 0.984375 -6.28125 0.984375 -3.78125 C 0.984375 -1.25 1.90625 0.984375 3.9375 2.359375 Z M 4.1875 2.046875 "
           id="path184" />
      </symbol>
      <symbol
         overflow="visible"
         id="glyph2-2">
        <path
           style="stroke:none;"
           d="M 0.625 -9.578125 C 2.03125 -8.4375 2.828125 -6.171875 2.828125 -3.765625 C 2.828125 -1.375 2.046875 0.859375 0.625 2.046875 L 0.890625 2.359375 C 2.96875 0.953125 3.84375 -1.25 3.84375 -3.765625 C 3.84375 -6.28125 2.96875 -8.5 0.890625 -9.90625 Z M 0.625 -9.578125 "
           id="path187" />
      </symbol>
      <symbol
         overflow="visible"
         id="glyph3-0">
        <path
           style="stroke:none;"
           d="M 0 0 L 6.984375 0 L 6.984375 -9.78125 L 0 -9.78125 Z M 3.484375 -5.515625 L 1.125 -9.078125 L 5.859375 -9.078125 Z M 3.90625 -4.890625 L 6.28125 -8.453125 L 6.28125 -1.328125 Z M 1.125 -0.703125 L 3.484375 -4.265625 L 5.859375 -0.703125 Z M 0.703125 -8.453125 L 3.078125 -4.890625 L 0.703125 -1.328125 Z M 0.703125 -8.453125 "
           id="path190" />
      </symbol>
      <symbol
         overflow="visible"
         id="glyph3-1">
        <path
           style="stroke:none;"
           d="M 1.203125 -4.53125 C 1.6875 -5.140625 1.953125 -5.328125 2.09375 -5.328125 C 2.234375 -5.328125 2.359375 -5.125 2.5625 -4.4375 L 3.03125 -2.984375 C 2.171875 -1.6875 1.515625 -0.875 1.109375 -0.875 C 0.96875 -0.875 0.859375 -0.9375 0.78125 -1.015625 C 0.71875 -1.109375 0.640625 -1.15625 0.5625 -1.15625 C 0.296875 -1.15625 0 -0.84375 0 -0.5 C -0.015625 -0.109375 0.28125 0.171875 0.625 0.171875 C 1.296875 0.171875 1.9375 -0.515625 3.1875 -2.46875 L 3.625 -1.125 C 3.890625 -0.234375 4.1875 0.171875 4.546875 0.171875 C 5.03125 0.171875 5.671875 -0.34375 6.3125 -1.34375 L 6.078125 -1.625 C 5.625 -1.09375 5.296875 -0.8125 5.078125 -0.8125 C 4.84375 -0.8125 4.640625 -1.21875 4.359375 -2.09375 L 3.90625 -3.484375 C 4.21875 -3.921875 4.53125 -4.296875 4.8125 -4.640625 C 5.1875 -5.09375 5.46875 -5.34375 5.65625 -5.34375 C 5.78125 -5.34375 5.890625 -5.28125 5.984375 -5.171875 C 6.046875 -5.09375 6.109375 -5.0625 6.1875 -5.0625 C 6.390625 -5.0625 6.71875 -5.34375 6.734375 -5.671875 C 6.734375 -5.984375 6.515625 -6.265625 6.140625 -6.265625 C 5.53125 -6.265625 4.9375 -5.671875 3.765625 -3.984375 L 3.515625 -4.75 C 3.1875 -5.75 3 -6.265625 2.625 -6.265625 C 2.171875 -6.265625 1.546875 -5.671875 0.96875 -4.8125 Z M 1.203125 -4.53125 "
           id="path193" />
      </symbol>
      <symbol
         overflow="visible"
         id="glyph3-2">
        <path
           style="stroke:none;"
           d="M 0.109375 1.59375 C 1 1.296875 2.03125 0.703125 2.078125 -0.40625 C 2.140625 -1.125 1.65625 -1.78125 1.09375 -1.78125 C 0.75 -1.78125 0.421875 -1.5 0.40625 -1.125 C 0.40625 -1 0.46875 -0.953125 0.515625 -0.921875 C 0.90625 -0.796875 1.171875 -0.515625 1.15625 -0.0625 C 1.140625 0.46875 0.609375 0.90625 -0.046875 1.1875 Z M 0.109375 1.59375 "
           id="path196" />
      </symbol>
      <symbol
         overflow="visible"
         id="glyph3-3">
        <path
           style="stroke:none;"
           d="M 3.34375 -1.046875 C 3.25 -2.3125 3.15625 -3.578125 3.015625 -4.640625 C 2.90625 -5.75 2.703125 -6.265625 2.3125 -6.265625 C 1.796875 -6.265625 1.109375 -5.46875 0.65625 -4.78125 L 0.890625 -4.453125 C 1.25 -4.9375 1.59375 -5.265625 1.703125 -5.265625 C 1.8125 -5.265625 1.90625 -5.09375 2 -4.40625 C 2.1875 -3.125 2.421875 -0.953125 2.4375 0.15625 C 1.75 1.078125 0.640625 2.3125 -0.859375 3.28125 L -0.734375 3.59375 L 0.71875 3.21875 C 1.5 2.34375 2.40625 1.125 3.234375 -0.0625 C 3.96875 -1.125 5.15625 -2.96875 5.75 -4.015625 C 6.109375 -4.640625 6.265625 -5.109375 6.25 -5.5 C 6.25 -5.96875 6 -6.265625 5.703125 -6.265625 C 5.46875 -6.265625 5.203125 -6.109375 5.109375 -5.890625 C 5.0625 -5.78125 5.046875 -5.640625 5.078125 -5.546875 C 5.15625 -5.390625 5.234375 -5.171875 5.234375 -4.890625 C 5.25 -3.875 3.96875 -1.96875 3.359375 -1.046875 Z M 3.34375 -1.046875 "
           id="path199" />
      </symbol>
      <symbol
         overflow="visible"
         id="glyph4-0">
        <path
           style="stroke:none;"
           d="M 9.046875 0 L 9.046875 -12.671875 L 0 -12.671875 L 0 0 Z M 7.609375 -11.765625 L 4.53125 -7.15625 L 1.453125 -11.765625 Z M 8.15625 -1.71875 L 5.078125 -6.34375 L 8.15625 -10.953125 Z M 1.453125 -0.90625 L 4.53125 -5.515625 L 7.609375 -0.90625 Z M 0.90625 -10.953125 L 3.984375 -6.34375 L 0.90625 -1.71875 Z M 0.90625 -10.953125 "
           id="path202" />
      </symbol>
      <symbol
         overflow="visible"
         id="glyph4-1">
        <path
           style="stroke:none;"
           d="M 13.015625 -2.640625 L 12.515625 -2.65625 C 12.0625 -1.390625 11.890625 -1.296875 11.0625 -1.296875 L 9.546875 -1.296875 C 10.359375 -2.265625 12.453125 -4.0625 12.453125 -6.59375 C 12.453125 -9.875 10.09375 -12.046875 6.9375 -12.046875 C 3.84375 -12.046875 1.390625 -9.796875 1.390625 -6.515625 C 1.390625 -3.984375 3.40625 -2.25 4.328125 -1.296875 L 2.71875 -1.296875 C 1.984375 -1.296875 1.75 -1.453125 1.328125 -2.65625 L 0.828125 -2.640625 L 1.140625 0 L 5.5625 0 L 5.6875 -0.328125 C 5.125 -1.28125 3.21875 -3.671875 3.21875 -6.5 C 3.21875 -9.578125 4.640625 -11.421875 6.921875 -11.421875 C 9.21875 -11.421875 10.625 -9.46875 10.625 -6.578125 C 10.625 -3.546875 8.765625 -1.21875 8.203125 -0.328125 L 8.28125 0 L 12.6875 0 Z M 13.015625 -2.640625 "
           id="path205" />
      </symbol>
    </g>
    <clipPath
       id="clip1">
      <path
         d="M 0 0 L 229.964844 0 L 229.964844 213.816406 L 0 213.816406 Z M 0 0 "
         id="path210" />
    </clipPath>
  </defs>
  <g
     id="surface16682">
    <g
       clip-path="url(#clip1)"
       clip-rule="nonzero"
       id="g217">
      <path
         style=" stroke:none;fill-rule:nonzero;fill:rgb(100%,100%,100%);fill-opacity:1;"
         d="M 0 0 L 229.964844 0 L 229.964844 213.816406 L 0 213.816406 Z M 0 0 "
         id="path215" />
    </g>
    <path
       style="fill-rule:nonzero;fill:rgb(81.568909%,80.784607%,80.784607%);fill-opacity:1;stroke-width:12700;stroke-linecap:butt;stroke-linejoin:miter;stroke:rgb(47.058105%,47.058105%,47.058105%);stroke-opacity:1;stroke-miterlimit:8;"
       d="M -7.112 -2.936875 L 1027998.323854 -2.936875 L 1027998.323854 1662555.994298 L -7.112 1662555.994298 Z M -7.112 -2.936875 "
       transform="matrix(0.0000787402,0,0,0.0000787402,89.78181,46.4182)"
       id="path219" />
    <path
       style=" stroke:none;fill-rule:nonzero;fill:rgb(0%,0%,0%);fill-opacity:1;"
       d="M 25.078125 177.683594 L 25.078125 16.855469 L 23.578125 16.855469 L 23.578125 177.683594 Z M 24.328125 16.855469 L 29.328125 20.855469 L 24.328125 10.855469 L 19.328125 20.855469 Z M 24.328125 16.855469 "
       id="path221" />
    <path
       style=" stroke:none;fill-rule:nonzero;fill:rgb(0%,0%,0%);fill-opacity:1;"
       d="M 23.890625 176.359375 L 205.507812 176.359375 L 205.507812 177.859375 L 23.890625 177.859375 Z M 205.507812 177.109375 L 201.507812 172.109375 L 211.507812 177.109375 L 201.507812 182.109375 Z M 205.507812 177.109375 "
       id="path223" />
    <path
       style="fill:none;stroke-width:12700;stroke-linecap:butt;stroke-linejoin:miter;stroke:rgb(18.431091%,32.156372%,56.079102%);stroke-opacity:1;stroke-miterlimit:8;"
       d="M -24.145874 908840.784042 C 256257.877175 648986.886107 512539.900224 389083.378799 742082.471003 356390.80172 C 971625.041783 323747.834015 1146746.129929 772216.569664 1377280.888177 712834.149689 C 1607815.646425 653402.120341 1866528.528771 326724.39642 2125291.020491 -2.936875 "
       transform="matrix(0.0000787402,0,0,0.0000787402,36.76362,46.4182)"
       id="path225" />
    <path
       style="fill:none;stroke-width:12700;stroke-linecap:butt;stroke-linejoin:miter;stroke:rgb(49.803162%,49.803162%,49.803162%);stroke-opacity:1;stroke-dasharray:38100,12700;stroke-miterlimit:8;"
       d="M -0.015875 -2.936875 L 831502.691892 -2.936875 "
       transform="matrix(-0.0000787402,0,0,0.0000787402,89.80078,46.4182)"
       id="path227" />
    <g
       style="fill:rgb(0%,0%,0%);fill-opacity:1;"
       id="g231">
      <use
         xlink:href="#glyph0-1"
         x="84.62392"
         y="196.363636"
         id="use229" />
    </g>
    <g
       style="fill:rgb(0%,0%,0%);fill-opacity:1;"
       id="g235">
      <use
         xlink:href="#glyph0-2"
         x="165.9089"
         y="196.800036"
         id="use233" />
    </g>
    <g
       style="fill:rgb(0%,0%,0%);fill-opacity:1;"
       id="g239">
      <use
         xlink:href="#glyph0-3"
         x="10.81542"
         y="51.054556"
         id="use237" />
    </g>
    <g
       style="fill:rgb(18.431091%,33.332825%,59.216309%);fill-opacity:1;"
       id="g243">
      <use
         xlink:href="#glyph0-4"
         x="190.1916"
         y="81.600006"
         id="use241" />
    </g>
    <g
       style="fill:rgb(18.431091%,33.332825%,59.216309%);fill-opacity:1;"
       id="g247">
      <use
         xlink:href="#glyph1-1"
         x="197.6916"
         y="81.600006"
         id="use245" />
    </g>
    <g
       style="fill:rgb(18.431091%,33.332825%,59.216309%);fill-opacity:1;"
       id="g251">
      <use
         xlink:href="#glyph0-5"
         x="203.9416"
         y="81.600006"
         id="use249" />
    </g>
    <g
       style="fill:rgb(18.431091%,33.332825%,59.216309%);fill-opacity:1;"
       id="g255">
      <use
         xlink:href="#glyph1-2"
         x="212.4416"
         y="81.600006"
         id="use253" />
    </g>
    <g
       style="fill:rgb(0%,0%,0%);fill-opacity:1;"
       id="g259">
      <use
         xlink:href="#glyph2-1"
         x="112.0282"
         y="151.418236"
         id="use257" />
    </g>
    <g
       style="fill:rgb(0%,0%,0%);fill-opacity:1;"
       id="g265">
      <use
         xlink:href="#glyph3-1"
         x="116.9032"
         y="151.418236"
         id="use261" />
      <use
         xlink:href="#glyph3-2"
         x="123.527549"
         y="151.418236"
         id="use263" />
    </g>
    <g
       style="fill:rgb(0%,0%,0%);fill-opacity:1;"
       id="g269">
      <use
         xlink:href="#glyph3-3"
         x="126.772697"
         y="151.418236"
         id="use267" />
    </g>
    <g
       style="fill:rgb(0%,0%,0%);fill-opacity:1;"
       id="g273">
      <use
         xlink:href="#glyph2-2"
         x="133.0282"
         y="151.418236"
         id="use271" />
    </g>
    <path
       style=" stroke:none;fill-rule:evenodd;fill:rgb(0%,0%,0%);fill-opacity:1;"
       d="M 104.726562 147.980469 C 104.726562 146.898438 105.605469 146.019531 106.691406 146.019531 C 107.777344 146.019531 108.65625 146.898438 108.65625 147.980469 C 108.65625 149.066406 107.777344 149.945312 106.691406 149.945312 C 105.605469 149.945312 104.726562 149.066406 104.726562 147.980469 Z M 104.726562 147.980469 "
       id="path275" />
    <g
       style="fill:rgb(0%,0%,0%);fill-opacity:1;"
       id="g279">
      <use
         xlink:href="#glyph0-6"
         x="96.22762"
         y="64.581826"
         id="use277" />
    </g>
    <g
       style="fill:rgb(0%,0%,0%);fill-opacity:1;"
       id="g283">
      <use
         xlink:href="#glyph4-1"
         x="150.2892"
         y="169.090936"
         id="use281" />
    </g>
  </g>
</svg>
