<?xml version="1.0" encoding="utf-8" standalone="no"?>
<!DOCTYPE svg PUBLIC "-//W3C//DTD SVG 1.1//EN"
  "http://www.w3.org/Graphics/SVG/1.1/DTD/svg11.dtd">
<!-- Created with matplotlib (https://matplotlib.org/) -->
<svg height="225.95625pt" version="1.1" viewBox="0 0 337.665625 225.95625" width="337.665625pt" xmlns="http://www.w3.org/2000/svg" xmlns:xlink="http://www.w3.org/1999/xlink">
 <metadata>
  <rdf:RDF xmlns:cc="http://creativecommons.org/ns#" xmlns:dc="http://purl.org/dc/elements/1.1/" xmlns:rdf="http://www.w3.org/1999/02/22-rdf-syntax-ns#">
   <cc:Work>
    <dc:type rdf:resource="http://purl.org/dc/dcmitype/StillImage"/>
    <dc:date>2021-08-02T23:05:47.705381</dc:date>
    <dc:format>image/svg+xml</dc:format>
    <dc:creator>
     <cc:Agent>
      <dc:title>Matplotlib v3.3.4, https://matplotlib.org/</dc:title>
     </cc:Agent>
    </dc:creator>
   </cc:Work>
  </rdf:RDF>
 </metadata>
 <defs>
  <style type="text/css">*{stroke-linecap:butt;stroke-linejoin:round;}</style>
 </defs>
 <g id="figure_1">
  <g id="patch_1">
   <path d="M 0 225.95625 
L 337.665625 225.95625 
L 337.665625 0 
L 0 0 
z
" style="fill:#ffffff;"/>
  </g>
  <g id="axes_1">
   <g id="patch_2">
    <path d="M 51.465625 188.4 
L 330.465625 188.4 
L 330.465625 7.2 
L 51.465625 7.2 
z
" style="fill:#ffffff;"/>
   </g>
   <g id="PathCollection_1">
    <defs>
     <path d="M 0 3 
C 0.795609 3 1.55874 2.683901 2.12132 2.12132 
C 2.683901 1.55874 3 0.795609 3 0 
C 3 -0.795609 2.683901 -1.55874 2.12132 -2.12132 
C 1.55874 -2.683901 0.795609 -3 0 -3 
C -0.795609 -3 -1.55874 -2.683901 -2.12132 -2.12132 
C -2.683901 -1.55874 -3 -0.795609 -3 0 
C -3 0.795609 -2.683901 1.55874 -2.12132 2.12132 
C -1.55874 2.683901 -0.795609 3 0 3 
z
" id="m3d7c3e3322" style="stroke:#4682b4;stroke-opacity:0.6;"/>
    </defs>
    <g clip-path="url(#pfba8e38a10)">
     <use style="fill:#4682b4;fill-opacity:0.6;stroke:#4682b4;stroke-opacity:0.6;" x="64.147443" xlink:href="#m3d7c3e3322" y="180.163636"/>
     <use style="fill:#4682b4;fill-opacity:0.6;stroke:#4682b4;stroke-opacity:0.6;" x="69.238967" xlink:href="#m3d7c3e3322" y="119.12224"/>
     <use style="fill:#4682b4;fill-opacity:0.6;stroke:#4682b4;stroke-opacity:0.6;" x="74.36377" xlink:href="#m3d7c3e3322" y="146.310152"/>
     <use style="fill:#4682b4;fill-opacity:0.6;stroke:#4682b4;stroke-opacity:0.6;" x="79.637085" xlink:href="#m3d7c3e3322" y="93.532751"/>
     <use style="fill:#4682b4;fill-opacity:0.6;stroke:#4682b4;stroke-opacity:0.6;" x="84.770118" xlink:href="#m3d7c3e3322" y="67.33946"/>
     <use style="fill:#4682b4;fill-opacity:0.6;stroke:#4682b4;stroke-opacity:0.6;" x="89.977898" xlink:href="#m3d7c3e3322" y="46.678645"/>
     <use style="fill:#4682b4;fill-opacity:0.6;stroke:#4682b4;stroke-opacity:0.6;" x="95.178498" xlink:href="#m3d7c3e3322" y="15.436364"/>
     <use style="fill:#4682b4;fill-opacity:0.6;stroke:#4682b4;stroke-opacity:0.6;" x="100.340873" xlink:href="#m3d7c3e3322" y="38.671371"/>
     <use style="fill:#4682b4;fill-opacity:0.6;stroke:#4682b4;stroke-opacity:0.6;" x="105.553138" xlink:href="#m3d7c3e3322" y="44.443828"/>
     <use style="fill:#4682b4;fill-opacity:0.6;stroke:#4682b4;stroke-opacity:0.6;" x="110.716618" xlink:href="#m3d7c3e3322" y="34.548808"/>
     <use style="fill:#4682b4;fill-opacity:0.6;stroke:#4682b4;stroke-opacity:0.6;" x="115.907588" xlink:href="#m3d7c3e3322" y="43.845603"/>
     <use style="fill:#4682b4;fill-opacity:0.6;stroke:#4682b4;stroke-opacity:0.6;" x="121.074394" xlink:href="#m3d7c3e3322" y="28.429009"/>
     <use style="fill:#4682b4;fill-opacity:0.6;stroke:#4682b4;stroke-opacity:0.6;" x="126.251525" xlink:href="#m3d7c3e3322" y="53.48331"/>
     <use style="fill:#4682b4;fill-opacity:0.6;stroke:#4682b4;stroke-opacity:0.6;" x="131.428844" xlink:href="#m3d7c3e3322" y="70.042937"/>
     <use style="fill:#4682b4;fill-opacity:0.6;stroke:#4682b4;stroke-opacity:0.6;" x="136.609261" xlink:href="#m3d7c3e3322" y="77.066008"/>
     <use style="fill:#4682b4;fill-opacity:0.6;stroke:#4682b4;stroke-opacity:0.6;" x="141.789788" xlink:href="#m3d7c3e3322" y="87.944671"/>
     <use style="fill:#4682b4;fill-opacity:0.6;stroke:#4682b4;stroke-opacity:0.6;" x="146.962684" xlink:href="#m3d7c3e3322" y="101.958796"/>
     <use style="fill:#4682b4;fill-opacity:0.6;stroke:#4682b4;stroke-opacity:0.6;" x="152.140991" xlink:href="#m3d7c3e3322" y="102.245138"/>
     <use style="fill:#4682b4;fill-opacity:0.6;stroke:#4682b4;stroke-opacity:0.6;" x="157.318418" xlink:href="#m3d7c3e3322" y="95.383892"/>
     <use style="fill:#4682b4;fill-opacity:0.6;stroke:#4682b4;stroke-opacity:0.6;" x="162.495949" xlink:href="#m3d7c3e3322" y="85.868462"/>
     <use style="fill:#4682b4;fill-opacity:0.6;stroke:#4682b4;stroke-opacity:0.6;" x="167.671664" xlink:href="#m3d7c3e3322" y="75.88498"/>
     <use style="fill:#4682b4;fill-opacity:0.6;stroke:#4682b4;stroke-opacity:0.6;" x="172.847228" xlink:href="#m3d7c3e3322" y="79.01509"/>
     <use style="fill:#4682b4;fill-opacity:0.6;stroke:#4682b4;stroke-opacity:0.6;" x="178.024861" xlink:href="#m3d7c3e3322" y="84.180973"/>
     <use style="fill:#4682b4;fill-opacity:0.6;stroke:#4682b4;stroke-opacity:0.6;" x="183.20029" xlink:href="#m3d7c3e3322" y="84.684689"/>
     <use style="fill:#4682b4;fill-opacity:0.6;stroke:#4682b4;stroke-opacity:0.6;" x="188.376961" xlink:href="#m3d7c3e3322" y="82.042952"/>
     <use style="fill:#4682b4;fill-opacity:0.6;stroke:#4682b4;stroke-opacity:0.6;" x="193.553254" xlink:href="#m3d7c3e3322" y="83.488395"/>
     <use style="fill:#4682b4;fill-opacity:0.6;stroke:#4682b4;stroke-opacity:0.6;" x="198.729843" xlink:href="#m3d7c3e3322" y="84.505591"/>
     <use style="fill:#4682b4;fill-opacity:0.6;stroke:#4682b4;stroke-opacity:0.6;" x="203.906" xlink:href="#m3d7c3e3322" y="86.241526"/>
     <use style="fill:#4682b4;fill-opacity:0.6;stroke:#4682b4;stroke-opacity:0.6;" x="209.082334" xlink:href="#m3d7c3e3322" y="85.524497"/>
     <use style="fill:#4682b4;fill-opacity:0.6;stroke:#4682b4;stroke-opacity:0.6;" x="214.258563" xlink:href="#m3d7c3e3322" y="82.371776"/>
     <use style="fill:#4682b4;fill-opacity:0.6;stroke:#4682b4;stroke-opacity:0.6;" x="219.434909" xlink:href="#m3d7c3e3322" y="84.20784"/>
     <use style="fill:#4682b4;fill-opacity:0.6;stroke:#4682b4;stroke-opacity:0.6;" x="224.611137" xlink:href="#m3d7c3e3322" y="83.29602"/>
     <use style="fill:#4682b4;fill-opacity:0.6;stroke:#4682b4;stroke-opacity:0.6;" x="229.787398" xlink:href="#m3d7c3e3322" y="84.494214"/>
     <use style="fill:#4682b4;fill-opacity:0.6;stroke:#4682b4;stroke-opacity:0.6;" x="234.963753" xlink:href="#m3d7c3e3322" y="85.154754"/>
     <use style="fill:#4682b4;fill-opacity:0.6;stroke:#4682b4;stroke-opacity:0.6;" x="240.140009" xlink:href="#m3d7c3e3322" y="86.630679"/>
     <use style="fill:#4682b4;fill-opacity:0.6;stroke:#4682b4;stroke-opacity:0.6;" x="245.316252" xlink:href="#m3d7c3e3322" y="86.459806"/>
     <use style="fill:#4682b4;fill-opacity:0.6;stroke:#4682b4;stroke-opacity:0.6;" x="250.492497" xlink:href="#m3d7c3e3322" y="86.58453"/>
     <use style="fill:#4682b4;fill-opacity:0.6;stroke:#4682b4;stroke-opacity:0.6;" x="255.668767" xlink:href="#m3d7c3e3322" y="87.047895"/>
     <use style="fill:#4682b4;fill-opacity:0.6;stroke:#4682b4;stroke-opacity:0.6;" x="260.845031" xlink:href="#m3d7c3e3322" y="86.782371"/>
     <use style="fill:#4682b4;fill-opacity:0.6;stroke:#4682b4;stroke-opacity:0.6;" x="266.021273" xlink:href="#m3d7c3e3322" y="87.404279"/>
     <use style="fill:#4682b4;fill-opacity:0.6;stroke:#4682b4;stroke-opacity:0.6;" x="271.197524" xlink:href="#m3d7c3e3322" y="86.365617"/>
     <use style="fill:#4682b4;fill-opacity:0.6;stroke:#4682b4;stroke-opacity:0.6;" x="276.373774" xlink:href="#m3d7c3e3322" y="86.850701"/>
     <use style="fill:#4682b4;fill-opacity:0.6;stroke:#4682b4;stroke-opacity:0.6;" x="281.550032" xlink:href="#m3d7c3e3322" y="86.989816"/>
     <use style="fill:#4682b4;fill-opacity:0.6;stroke:#4682b4;stroke-opacity:0.6;" x="286.726292" xlink:href="#m3d7c3e3322" y="86.915064"/>
     <use style="fill:#4682b4;fill-opacity:0.6;stroke:#4682b4;stroke-opacity:0.6;" x="291.902541" xlink:href="#m3d7c3e3322" y="86.88953"/>
     <use style="fill:#4682b4;fill-opacity:0.6;stroke:#4682b4;stroke-opacity:0.6;" x="297.078792" xlink:href="#m3d7c3e3322" y="86.597386"/>
     <use style="fill:#4682b4;fill-opacity:0.6;stroke:#4682b4;stroke-opacity:0.6;" x="302.255048" xlink:href="#m3d7c3e3322" y="86.553374"/>
     <use style="fill:#4682b4;fill-opacity:0.6;stroke:#4682b4;stroke-opacity:0.6;" x="307.431299" xlink:href="#m3d7c3e3322" y="86.293103"/>
     <use style="fill:#4682b4;fill-opacity:0.6;stroke:#4682b4;stroke-opacity:0.6;" x="312.607554" xlink:href="#m3d7c3e3322" y="86.167105"/>
     <use style="fill:#4682b4;fill-opacity:0.6;stroke:#4682b4;stroke-opacity:0.6;" x="317.783807" xlink:href="#m3d7c3e3322" y="86.01581"/>
    </g>
   </g>
   <g id="matplotlib.axis_1">
    <g id="xtick_1">
     <g id="line2d_1">
      <defs>
       <path d="M 0 0 
L 0 3.5 
" id="m6ca68a8638" style="stroke:#000000;stroke-width:0.8;"/>
      </defs>
      <g>
       <use style="stroke:#000000;stroke-width:0.8;" x="64.147443" xlink:href="#m6ca68a8638" y="188.4"/>
      </g>
     </g>
     <g id="text_1">
      <!-- $\mathdefault{10^{2}}$ -->
      <g transform="translate(55.347443 202.998437)scale(0.1 -0.1)">
       <defs>
        <path d="M 12.40625 8.296875 
L 28.515625 8.296875 
L 28.515625 63.921875 
L 10.984375 60.40625 
L 10.984375 69.390625 
L 28.421875 72.90625 
L 38.28125 72.90625 
L 38.28125 8.296875 
L 54.390625 8.296875 
L 54.390625 0 
L 12.40625 0 
z
" id="DejaVuSans-49"/>
        <path d="M 31.78125 66.40625 
Q 24.171875 66.40625 20.328125 58.90625 
Q 16.5 51.421875 16.5 36.375 
Q 16.5 21.390625 20.328125 13.890625 
Q 24.171875 6.390625 31.78125 6.390625 
Q 39.453125 6.390625 43.28125 13.890625 
Q 47.125 21.390625 47.125 36.375 
Q 47.125 51.421875 43.28125 58.90625 
Q 39.453125 66.40625 31.78125 66.40625 
z
M 31.78125 74.21875 
Q 44.046875 74.21875 50.515625 64.515625 
Q 56.984375 54.828125 56.984375 36.375 
Q 56.984375 17.96875 50.515625 8.265625 
Q 44.046875 -1.421875 31.78125 -1.421875 
Q 19.53125 -1.421875 13.0625 8.265625 
Q 6.59375 17.96875 6.59375 36.375 
Q 6.59375 54.828125 13.0625 64.515625 
Q 19.53125 74.21875 31.78125 74.21875 
z
" id="DejaVuSans-48"/>
        <path d="M 19.1875 8.296875 
L 53.609375 8.296875 
L 53.609375 0 
L 7.328125 0 
L 7.328125 8.296875 
Q 12.9375 14.109375 22.625 23.890625 
Q 32.328125 33.6875 34.8125 36.53125 
Q 39.546875 41.84375 41.421875 45.53125 
Q 43.3125 49.21875 43.3125 52.78125 
Q 43.3125 58.59375 39.234375 62.25 
Q 35.15625 65.921875 28.609375 65.921875 
Q 23.96875 65.921875 18.8125 64.3125 
Q 13.671875 62.703125 7.8125 59.421875 
L 7.8125 69.390625 
Q 13.765625 71.78125 18.9375 73 
Q 24.125 74.21875 28.421875 74.21875 
Q 39.75 74.21875 46.484375 68.546875 
Q 53.21875 62.890625 53.21875 53.421875 
Q 53.21875 48.921875 51.53125 44.890625 
Q 49.859375 40.875 45.40625 35.40625 
Q 44.1875 33.984375 37.640625 27.21875 
Q 31.109375 20.453125 19.1875 8.296875 
z
" id="DejaVuSans-50"/>
       </defs>
       <use transform="translate(0 0.765625)" xlink:href="#DejaVuSans-49"/>
       <use transform="translate(63.623047 0.765625)" xlink:href="#DejaVuSans-48"/>
       <use transform="translate(128.203125 39.046875)scale(0.7)" xlink:href="#DejaVuSans-50"/>
      </g>
     </g>
    </g>
    <g id="xtick_2">
     <g id="line2d_2">
      <g>
       <use style="stroke:#000000;stroke-width:0.8;" x="114.874716" xlink:href="#m6ca68a8638" y="188.4"/>
      </g>
     </g>
     <g id="text_2">
      <!-- $\mathdefault{10^{3}}$ -->
      <g transform="translate(106.074716 202.998437)scale(0.1 -0.1)">
       <defs>
        <path d="M 40.578125 39.3125 
Q 47.65625 37.796875 51.625 33 
Q 55.609375 28.21875 55.609375 21.1875 
Q 55.609375 10.40625 48.1875 4.484375 
Q 40.765625 -1.421875 27.09375 -1.421875 
Q 22.515625 -1.421875 17.65625 -0.515625 
Q 12.796875 0.390625 7.625 2.203125 
L 7.625 11.71875 
Q 11.71875 9.328125 16.59375 8.109375 
Q 21.484375 6.890625 26.8125 6.890625 
Q 36.078125 6.890625 40.9375 10.546875 
Q 45.796875 14.203125 45.796875 21.1875 
Q 45.796875 27.640625 41.28125 31.265625 
Q 36.765625 34.90625 28.71875 34.90625 
L 20.21875 34.90625 
L 20.21875 43.015625 
L 29.109375 43.015625 
Q 36.375 43.015625 40.234375 45.921875 
Q 44.09375 48.828125 44.09375 54.296875 
Q 44.09375 59.90625 40.109375 62.90625 
Q 36.140625 65.921875 28.71875 65.921875 
Q 24.65625 65.921875 20.015625 65.03125 
Q 15.375 64.15625 9.8125 62.3125 
L 9.8125 71.09375 
Q 15.4375 72.65625 20.34375 73.4375 
Q 25.25 74.21875 29.59375 74.21875 
Q 40.828125 74.21875 47.359375 69.109375 
Q 53.90625 64.015625 53.90625 55.328125 
Q 53.90625 49.265625 50.4375 45.09375 
Q 46.96875 40.921875 40.578125 39.3125 
z
" id="DejaVuSans-51"/>
       </defs>
       <use transform="translate(0 0.765625)" xlink:href="#DejaVuSans-49"/>
       <use transform="translate(63.623047 0.765625)" xlink:href="#DejaVuSans-48"/>
       <use transform="translate(128.203125 39.046875)scale(0.7)" xlink:href="#DejaVuSans-51"/>
      </g>
     </g>
    </g>
    <g id="xtick_3">
     <g id="line2d_3">
      <g>
       <use style="stroke:#000000;stroke-width:0.8;" x="165.601989" xlink:href="#m6ca68a8638" y="188.4"/>
      </g>
     </g>
     <g id="text_3">
      <!-- $\mathdefault{10^{4}}$ -->
      <g transform="translate(156.801989 202.998437)scale(0.1 -0.1)">
       <defs>
        <path d="M 37.796875 64.3125 
L 12.890625 25.390625 
L 37.796875 25.390625 
z
M 35.203125 72.90625 
L 47.609375 72.90625 
L 47.609375 25.390625 
L 58.015625 25.390625 
L 58.015625 17.1875 
L 47.609375 17.1875 
L 47.609375 0 
L 37.796875 0 
L 37.796875 17.1875 
L 4.890625 17.1875 
L 4.890625 26.703125 
z
" id="DejaVuSans-52"/>
       </defs>
       <use transform="translate(0 0.684375)" xlink:href="#DejaVuSans-49"/>
       <use transform="translate(63.623047 0.684375)" xlink:href="#DejaVuSans-48"/>
       <use transform="translate(128.203125 38.965625)scale(0.7)" xlink:href="#DejaVuSans-52"/>
      </g>
     </g>
    </g>
    <g id="xtick_4">
     <g id="line2d_4">
      <g>
       <use style="stroke:#000000;stroke-width:0.8;" x="216.329261" xlink:href="#m6ca68a8638" y="188.4"/>
      </g>
     </g>
     <g id="text_4">
      <!-- $\mathdefault{10^{5}}$ -->
      <g transform="translate(207.529261 202.998437)scale(0.1 -0.1)">
       <defs>
        <path d="M 10.796875 72.90625 
L 49.515625 72.90625 
L 49.515625 64.59375 
L 19.828125 64.59375 
L 19.828125 46.734375 
Q 21.96875 47.46875 24.109375 47.828125 
Q 26.265625 48.1875 28.421875 48.1875 
Q 40.625 48.1875 47.75 41.5 
Q 54.890625 34.8125 54.890625 23.390625 
Q 54.890625 11.625 47.5625 5.09375 
Q 40.234375 -1.421875 26.90625 -1.421875 
Q 22.3125 -1.421875 17.546875 -0.640625 
Q 12.796875 0.140625 7.71875 1.703125 
L 7.71875 11.625 
Q 12.109375 9.234375 16.796875 8.0625 
Q 21.484375 6.890625 26.703125 6.890625 
Q 35.15625 6.890625 40.078125 11.328125 
Q 45.015625 15.765625 45.015625 23.390625 
Q 45.015625 31 40.078125 35.4375 
Q 35.15625 39.890625 26.703125 39.890625 
Q 22.75 39.890625 18.8125 39.015625 
Q 14.890625 38.140625 10.796875 36.28125 
z
" id="DejaVuSans-53"/>
       </defs>
       <use transform="translate(0 0.684375)" xlink:href="#DejaVuSans-49"/>
       <use transform="translate(63.623047 0.684375)" xlink:href="#DejaVuSans-48"/>
       <use transform="translate(128.203125 38.965625)scale(0.7)" xlink:href="#DejaVuSans-53"/>
      </g>
     </g>
    </g>
    <g id="xtick_5">
     <g id="line2d_5">
      <g>
       <use style="stroke:#000000;stroke-width:0.8;" x="267.056534" xlink:href="#m6ca68a8638" y="188.4"/>
      </g>
     </g>
     <g id="text_5">
      <!-- $\mathdefault{10^{6}}$ -->
      <g transform="translate(258.256534 202.998437)scale(0.1 -0.1)">
       <defs>
        <path d="M 33.015625 40.375 
Q 26.375 40.375 22.484375 35.828125 
Q 18.609375 31.296875 18.609375 23.390625 
Q 18.609375 15.53125 22.484375 10.953125 
Q 26.375 6.390625 33.015625 6.390625 
Q 39.65625 6.390625 43.53125 10.953125 
Q 47.40625 15.53125 47.40625 23.390625 
Q 47.40625 31.296875 43.53125 35.828125 
Q 39.65625 40.375 33.015625 40.375 
z
M 52.59375 71.296875 
L 52.59375 62.3125 
Q 48.875 64.0625 45.09375 64.984375 
Q 41.3125 65.921875 37.59375 65.921875 
Q 27.828125 65.921875 22.671875 59.328125 
Q 17.53125 52.734375 16.796875 39.40625 
Q 19.671875 43.65625 24.015625 45.921875 
Q 28.375 48.1875 33.59375 48.1875 
Q 44.578125 48.1875 50.953125 41.515625 
Q 57.328125 34.859375 57.328125 23.390625 
Q 57.328125 12.15625 50.6875 5.359375 
Q 44.046875 -1.421875 33.015625 -1.421875 
Q 20.359375 -1.421875 13.671875 8.265625 
Q 6.984375 17.96875 6.984375 36.375 
Q 6.984375 53.65625 15.1875 63.9375 
Q 23.390625 74.21875 37.203125 74.21875 
Q 40.921875 74.21875 44.703125 73.484375 
Q 48.484375 72.75 52.59375 71.296875 
z
" id="DejaVuSans-54"/>
       </defs>
       <use transform="translate(0 0.765625)" xlink:href="#DejaVuSans-49"/>
       <use transform="translate(63.623047 0.765625)" xlink:href="#DejaVuSans-48"/>
       <use transform="translate(128.203125 39.046875)scale(0.7)" xlink:href="#DejaVuSans-54"/>
      </g>
     </g>
    </g>
    <g id="xtick_6">
     <g id="line2d_6">
      <g>
       <use style="stroke:#000000;stroke-width:0.8;" x="317.783807" xlink:href="#m6ca68a8638" y="188.4"/>
      </g>
     </g>
     <g id="text_6">
      <!-- $\mathdefault{10^{7}}$ -->
      <g transform="translate(308.983807 202.998437)scale(0.1 -0.1)">
       <defs>
        <path d="M 8.203125 72.90625 
L 55.078125 72.90625 
L 55.078125 68.703125 
L 28.609375 0 
L 18.3125 0 
L 43.21875 64.59375 
L 8.203125 64.59375 
z
" id="DejaVuSans-55"/>
       </defs>
       <use transform="translate(0 0.684375)" xlink:href="#DejaVuSans-49"/>
       <use transform="translate(63.623047 0.684375)" xlink:href="#DejaVuSans-48"/>
       <use transform="translate(128.203125 38.965625)scale(0.7)" xlink:href="#DejaVuSans-55"/>
      </g>
     </g>
    </g>
    <g id="xtick_7">
     <g id="line2d_7">
      <defs>
       <path d="M 0 0 
L 0 2 
" id="m349634e292" style="stroke:#000000;stroke-width:0.6;"/>
      </defs>
      <g>
       <use style="stroke:#000000;stroke-width:0.6;" x="52.893661" xlink:href="#m349634e292" y="188.4"/>
      </g>
     </g>
    </g>
    <g id="xtick_8">
     <g id="line2d_8">
      <g>
       <use style="stroke:#000000;stroke-width:0.6;" x="56.289689" xlink:href="#m349634e292" y="188.4"/>
      </g>
     </g>
    </g>
    <g id="xtick_9">
     <g id="line2d_9">
      <g>
       <use style="stroke:#000000;stroke-width:0.6;" x="59.231463" xlink:href="#m349634e292" y="188.4"/>
      </g>
     </g>
    </g>
    <g id="xtick_10">
     <g id="line2d_10">
      <g>
       <use style="stroke:#000000;stroke-width:0.6;" x="61.82629" xlink:href="#m349634e292" y="188.4"/>
      </g>
     </g>
    </g>
    <g id="xtick_11">
     <g id="line2d_11">
      <g>
       <use style="stroke:#000000;stroke-width:0.6;" x="79.417874" xlink:href="#m349634e292" y="188.4"/>
      </g>
     </g>
    </g>
    <g id="xtick_12">
     <g id="line2d_12">
      <g>
       <use style="stroke:#000000;stroke-width:0.6;" x="88.350503" xlink:href="#m349634e292" y="188.4"/>
      </g>
     </g>
    </g>
    <g id="xtick_13">
     <g id="line2d_13">
      <g>
       <use style="stroke:#000000;stroke-width:0.6;" x="94.688305" xlink:href="#m349634e292" y="188.4"/>
      </g>
     </g>
    </g>
    <g id="xtick_14">
     <g id="line2d_14">
      <g>
       <use style="stroke:#000000;stroke-width:0.6;" x="99.604285" xlink:href="#m349634e292" y="188.4"/>
      </g>
     </g>
    </g>
    <g id="xtick_15">
     <g id="line2d_15">
      <g>
       <use style="stroke:#000000;stroke-width:0.6;" x="103.620934" xlink:href="#m349634e292" y="188.4"/>
      </g>
     </g>
    </g>
    <g id="xtick_16">
     <g id="line2d_16">
      <g>
       <use style="stroke:#000000;stroke-width:0.6;" x="107.016962" xlink:href="#m349634e292" y="188.4"/>
      </g>
     </g>
    </g>
    <g id="xtick_17">
     <g id="line2d_17">
      <g>
       <use style="stroke:#000000;stroke-width:0.6;" x="109.958735" xlink:href="#m349634e292" y="188.4"/>
      </g>
     </g>
    </g>
    <g id="xtick_18">
     <g id="line2d_18">
      <g>
       <use style="stroke:#000000;stroke-width:0.6;" x="112.553563" xlink:href="#m349634e292" y="188.4"/>
      </g>
     </g>
    </g>
    <g id="xtick_19">
     <g id="line2d_19">
      <g>
       <use style="stroke:#000000;stroke-width:0.6;" x="130.145147" xlink:href="#m349634e292" y="188.4"/>
      </g>
     </g>
    </g>
    <g id="xtick_20">
     <g id="line2d_20">
      <g>
       <use style="stroke:#000000;stroke-width:0.6;" x="139.077776" xlink:href="#m349634e292" y="188.4"/>
      </g>
     </g>
    </g>
    <g id="xtick_21">
     <g id="line2d_21">
      <g>
       <use style="stroke:#000000;stroke-width:0.6;" x="145.415577" xlink:href="#m349634e292" y="188.4"/>
      </g>
     </g>
    </g>
    <g id="xtick_22">
     <g id="line2d_22">
      <g>
       <use style="stroke:#000000;stroke-width:0.6;" x="150.331558" xlink:href="#m349634e292" y="188.4"/>
      </g>
     </g>
    </g>
    <g id="xtick_23">
     <g id="line2d_23">
      <g>
       <use style="stroke:#000000;stroke-width:0.6;" x="154.348207" xlink:href="#m349634e292" y="188.4"/>
      </g>
     </g>
    </g>
    <g id="xtick_24">
     <g id="line2d_24">
      <g>
       <use style="stroke:#000000;stroke-width:0.6;" x="157.744235" xlink:href="#m349634e292" y="188.4"/>
      </g>
     </g>
    </g>
    <g id="xtick_25">
     <g id="line2d_25">
      <g>
       <use style="stroke:#000000;stroke-width:0.6;" x="160.686008" xlink:href="#m349634e292" y="188.4"/>
      </g>
     </g>
    </g>
    <g id="xtick_26">
     <g id="line2d_26">
      <g>
       <use style="stroke:#000000;stroke-width:0.6;" x="163.280836" xlink:href="#m349634e292" y="188.4"/>
      </g>
     </g>
    </g>
    <g id="xtick_27">
     <g id="line2d_27">
      <g>
       <use style="stroke:#000000;stroke-width:0.6;" x="180.872419" xlink:href="#m349634e292" y="188.4"/>
      </g>
     </g>
    </g>
    <g id="xtick_28">
     <g id="line2d_28">
      <g>
       <use style="stroke:#000000;stroke-width:0.6;" x="189.805049" xlink:href="#m349634e292" y="188.4"/>
      </g>
     </g>
    </g>
    <g id="xtick_29">
     <g id="line2d_29">
      <g>
       <use style="stroke:#000000;stroke-width:0.6;" x="196.14285" xlink:href="#m349634e292" y="188.4"/>
      </g>
     </g>
    </g>
    <g id="xtick_30">
     <g id="line2d_30">
      <g>
       <use style="stroke:#000000;stroke-width:0.6;" x="201.058831" xlink:href="#m349634e292" y="188.4"/>
      </g>
     </g>
    </g>
    <g id="xtick_31">
     <g id="line2d_31">
      <g>
       <use style="stroke:#000000;stroke-width:0.6;" x="205.075479" xlink:href="#m349634e292" y="188.4"/>
      </g>
     </g>
    </g>
    <g id="xtick_32">
     <g id="line2d_32">
      <g>
       <use style="stroke:#000000;stroke-width:0.6;" x="208.471507" xlink:href="#m349634e292" y="188.4"/>
      </g>
     </g>
    </g>
    <g id="xtick_33">
     <g id="line2d_33">
      <g>
       <use style="stroke:#000000;stroke-width:0.6;" x="211.413281" xlink:href="#m349634e292" y="188.4"/>
      </g>
     </g>
    </g>
    <g id="xtick_34">
     <g id="line2d_34">
      <g>
       <use style="stroke:#000000;stroke-width:0.6;" x="214.008109" xlink:href="#m349634e292" y="188.4"/>
      </g>
     </g>
    </g>
    <g id="xtick_35">
     <g id="line2d_35">
      <g>
       <use style="stroke:#000000;stroke-width:0.6;" x="231.599692" xlink:href="#m349634e292" y="188.4"/>
      </g>
     </g>
    </g>
    <g id="xtick_36">
     <g id="line2d_36">
      <g>
       <use style="stroke:#000000;stroke-width:0.6;" x="240.532321" xlink:href="#m349634e292" y="188.4"/>
      </g>
     </g>
    </g>
    <g id="xtick_37">
     <g id="line2d_37">
      <g>
       <use style="stroke:#000000;stroke-width:0.6;" x="246.870123" xlink:href="#m349634e292" y="188.4"/>
      </g>
     </g>
    </g>
    <g id="xtick_38">
     <g id="line2d_38">
      <g>
       <use style="stroke:#000000;stroke-width:0.6;" x="251.786103" xlink:href="#m349634e292" y="188.4"/>
      </g>
     </g>
    </g>
    <g id="xtick_39">
     <g id="line2d_39">
      <g>
       <use style="stroke:#000000;stroke-width:0.6;" x="255.802752" xlink:href="#m349634e292" y="188.4"/>
      </g>
     </g>
    </g>
    <g id="xtick_40">
     <g id="line2d_40">
      <g>
       <use style="stroke:#000000;stroke-width:0.6;" x="259.19878" xlink:href="#m349634e292" y="188.4"/>
      </g>
     </g>
    </g>
    <g id="xtick_41">
     <g id="line2d_41">
      <g>
       <use style="stroke:#000000;stroke-width:0.6;" x="262.140553" xlink:href="#m349634e292" y="188.4"/>
      </g>
     </g>
    </g>
    <g id="xtick_42">
     <g id="line2d_42">
      <g>
       <use style="stroke:#000000;stroke-width:0.6;" x="264.735381" xlink:href="#m349634e292" y="188.4"/>
      </g>
     </g>
    </g>
    <g id="xtick_43">
     <g id="line2d_43">
      <g>
       <use style="stroke:#000000;stroke-width:0.6;" x="282.326965" xlink:href="#m349634e292" y="188.4"/>
      </g>
     </g>
    </g>
    <g id="xtick_44">
     <g id="line2d_44">
      <g>
       <use style="stroke:#000000;stroke-width:0.6;" x="291.259594" xlink:href="#m349634e292" y="188.4"/>
      </g>
     </g>
    </g>
    <g id="xtick_45">
     <g id="line2d_45">
      <g>
       <use style="stroke:#000000;stroke-width:0.6;" x="297.597395" xlink:href="#m349634e292" y="188.4"/>
      </g>
     </g>
    </g>
    <g id="xtick_46">
     <g id="line2d_46">
      <g>
       <use style="stroke:#000000;stroke-width:0.6;" x="302.513376" xlink:href="#m349634e292" y="188.4"/>
      </g>
     </g>
    </g>
    <g id="xtick_47">
     <g id="line2d_47">
      <g>
       <use style="stroke:#000000;stroke-width:0.6;" x="306.530025" xlink:href="#m349634e292" y="188.4"/>
      </g>
     </g>
    </g>
    <g id="xtick_48">
     <g id="line2d_48">
      <g>
       <use style="stroke:#000000;stroke-width:0.6;" x="309.926053" xlink:href="#m349634e292" y="188.4"/>
      </g>
     </g>
    </g>
    <g id="xtick_49">
     <g id="line2d_49">
      <g>
       <use style="stroke:#000000;stroke-width:0.6;" x="312.867826" xlink:href="#m349634e292" y="188.4"/>
      </g>
     </g>
    </g>
    <g id="xtick_50">
     <g id="line2d_50">
      <g>
       <use style="stroke:#000000;stroke-width:0.6;" x="315.462654" xlink:href="#m349634e292" y="188.4"/>
      </g>
     </g>
    </g>
    <g id="text_7">
     <!-- $N$ -->
     <g transform="translate(187.215625 216.676562)scale(0.1 -0.1)">
      <defs>
       <path d="M 16.890625 72.90625 
L 30.171875 72.90625 
L 50.296875 10.40625 
L 62.5 72.90625 
L 72.125 72.90625 
L 57.90625 0 
L 44.578125 0 
L 24.515625 62.890625 
L 12.3125 0 
L 2.6875 0 
z
" id="DejaVuSans-Oblique-78"/>
      </defs>
      <use transform="translate(0 0.09375)" xlink:href="#DejaVuSans-Oblique-78"/>
     </g>
    </g>
   </g>
   <g id="matplotlib.axis_2">
    <g id="ytick_1">
     <g id="line2d_51">
      <defs>
       <path d="M 0 0 
L -3.5 0 
" id="mcd6a89d5d4" style="stroke:#000000;stroke-width:0.8;"/>
      </defs>
      <g>
       <use style="stroke:#000000;stroke-width:0.8;" x="51.465625" xlink:href="#mcd6a89d5d4" y="184.627574"/>
      </g>
     </g>
     <g id="text_8">
      <!-- 0.14 -->
      <g transform="translate(22.2 188.426793)scale(0.1 -0.1)">
       <defs>
        <path d="M 10.6875 12.40625 
L 21 12.40625 
L 21 0 
L 10.6875 0 
z
" id="DejaVuSans-46"/>
       </defs>
       <use xlink:href="#DejaVuSans-48"/>
       <use x="63.623047" xlink:href="#DejaVuSans-46"/>
       <use x="95.410156" xlink:href="#DejaVuSans-49"/>
       <use x="159.033203" xlink:href="#DejaVuSans-52"/>
      </g>
     </g>
    </g>
    <g id="ytick_2">
     <g id="line2d_52">
      <g>
       <use style="stroke:#000000;stroke-width:0.8;" x="51.465625" xlink:href="#mcd6a89d5d4" y="152.593043"/>
      </g>
     </g>
     <g id="text_9">
      <!-- 0.16 -->
      <g transform="translate(22.2 156.392261)scale(0.1 -0.1)">
       <use xlink:href="#DejaVuSans-48"/>
       <use x="63.623047" xlink:href="#DejaVuSans-46"/>
       <use x="95.410156" xlink:href="#DejaVuSans-49"/>
       <use x="159.033203" xlink:href="#DejaVuSans-54"/>
      </g>
     </g>
    </g>
    <g id="ytick_3">
     <g id="line2d_53">
      <g>
       <use style="stroke:#000000;stroke-width:0.8;" x="51.465625" xlink:href="#mcd6a89d5d4" y="120.558511"/>
      </g>
     </g>
     <g id="text_10">
      <!-- 0.18 -->
      <g transform="translate(22.2 124.35773)scale(0.1 -0.1)">
       <defs>
        <path d="M 31.78125 34.625 
Q 24.75 34.625 20.71875 30.859375 
Q 16.703125 27.09375 16.703125 20.515625 
Q 16.703125 13.921875 20.71875 10.15625 
Q 24.75 6.390625 31.78125 6.390625 
Q 38.8125 6.390625 42.859375 10.171875 
Q 46.921875 13.96875 46.921875 20.515625 
Q 46.921875 27.09375 42.890625 30.859375 
Q 38.875 34.625 31.78125 34.625 
z
M 21.921875 38.8125 
Q 15.578125 40.375 12.03125 44.71875 
Q 8.5 49.078125 8.5 55.328125 
Q 8.5 64.0625 14.71875 69.140625 
Q 20.953125 74.21875 31.78125 74.21875 
Q 42.671875 74.21875 48.875 69.140625 
Q 55.078125 64.0625 55.078125 55.328125 
Q 55.078125 49.078125 51.53125 44.71875 
Q 48 40.375 41.703125 38.8125 
Q 48.828125 37.15625 52.796875 32.3125 
Q 56.78125 27.484375 56.78125 20.515625 
Q 56.78125 9.90625 50.3125 4.234375 
Q 43.84375 -1.421875 31.78125 -1.421875 
Q 19.734375 -1.421875 13.25 4.234375 
Q 6.78125 9.90625 6.78125 20.515625 
Q 6.78125 27.484375 10.78125 32.3125 
Q 14.796875 37.15625 21.921875 38.8125 
z
M 18.3125 54.390625 
Q 18.3125 48.734375 21.84375 45.5625 
Q 25.390625 42.390625 31.78125 42.390625 
Q 38.140625 42.390625 41.71875 45.5625 
Q 45.3125 48.734375 45.3125 54.390625 
Q 45.3125 60.0625 41.71875 63.234375 
Q 38.140625 66.40625 31.78125 66.40625 
Q 25.390625 66.40625 21.84375 63.234375 
Q 18.3125 60.0625 18.3125 54.390625 
z
" id="DejaVuSans-56"/>
       </defs>
       <use xlink:href="#DejaVuSans-48"/>
       <use x="63.623047" xlink:href="#DejaVuSans-46"/>
       <use x="95.410156" xlink:href="#DejaVuSans-49"/>
       <use x="159.033203" xlink:href="#DejaVuSans-56"/>
      </g>
     </g>
    </g>
    <g id="ytick_4">
     <g id="line2d_54">
      <g>
       <use style="stroke:#000000;stroke-width:0.8;" x="51.465625" xlink:href="#mcd6a89d5d4" y="88.523979"/>
      </g>
     </g>
     <g id="text_11">
      <!-- 0.20 -->
      <g transform="translate(22.2 92.323198)scale(0.1 -0.1)">
       <use xlink:href="#DejaVuSans-48"/>
       <use x="63.623047" xlink:href="#DejaVuSans-46"/>
       <use x="95.410156" xlink:href="#DejaVuSans-50"/>
       <use x="159.033203" xlink:href="#DejaVuSans-48"/>
      </g>
     </g>
    </g>
    <g id="ytick_5">
     <g id="line2d_55">
      <g>
       <use style="stroke:#000000;stroke-width:0.8;" x="51.465625" xlink:href="#mcd6a89d5d4" y="56.489448"/>
      </g>
     </g>
     <g id="text_12">
      <!-- 0.22 -->
      <g transform="translate(22.2 60.288667)scale(0.1 -0.1)">
       <use xlink:href="#DejaVuSans-48"/>
       <use x="63.623047" xlink:href="#DejaVuSans-46"/>
       <use x="95.410156" xlink:href="#DejaVuSans-50"/>
       <use x="159.033203" xlink:href="#DejaVuSans-50"/>
      </g>
     </g>
    </g>
    <g id="ytick_6">
     <g id="line2d_56">
      <g>
       <use style="stroke:#000000;stroke-width:0.8;" x="51.465625" xlink:href="#mcd6a89d5d4" y="24.454916"/>
      </g>
     </g>
     <g id="text_13">
      <!-- 0.24 -->
      <g transform="translate(22.2 28.254135)scale(0.1 -0.1)">
       <use xlink:href="#DejaVuSans-48"/>
       <use x="63.623047" xlink:href="#DejaVuSans-46"/>
       <use x="95.410156" xlink:href="#DejaVuSans-50"/>
       <use x="159.033203" xlink:href="#DejaVuSans-52"/>
      </g>
     </g>
    </g>
    <g id="text_14">
     <!-- $\hat{I}$ -->
     <g transform="translate(16.120313 99.3)rotate(-90)scale(0.1 -0.1)">
      <defs>
       <path d="M -28.609375 79.984375 
L -21.390625 79.984375 
L -9.421875 61.625 
L -16.21875 61.625 
L -25 73.578125 
L -33.796875 61.625 
L -40.578125 61.625 
z
M -25 56 
z
" id="DejaVuSans-770"/>
       <path d="M 16.890625 72.90625 
L 26.8125 72.90625 
L 12.59375 0 
L 2.6875 0 
z
" id="DejaVuSans-Oblique-73"/>
      </defs>
      <use transform="translate(42.951172 30.015625)" xlink:href="#DejaVuSans-770"/>
      <use transform="translate(0 0.609375)" xlink:href="#DejaVuSans-Oblique-73"/>
     </g>
    </g>
   </g>
   <g id="line2d_57">
    <path clip-path="url(#pfba8e38a10)" d="M 64.147443 85.881131 
L 317.783807 85.881131 
" style="fill:none;stroke:#ff4500;stroke-linecap:square;stroke-width:1.5;"/>
   </g>
   <g id="patch_3">
    <path d="M 51.465625 188.4 
L 51.465625 7.2 
" style="fill:none;stroke:#000000;stroke-linecap:square;stroke-linejoin:miter;stroke-width:0.8;"/>
   </g>
   <g id="patch_4">
    <path d="M 330.465625 188.4 
L 330.465625 7.2 
" style="fill:none;stroke:#000000;stroke-linecap:square;stroke-linejoin:miter;stroke-width:0.8;"/>
   </g>
   <g id="patch_5">
    <path d="M 51.465625 188.4 
L 330.465625 188.4 
" style="fill:none;stroke:#000000;stroke-linecap:square;stroke-linejoin:miter;stroke-width:0.8;"/>
   </g>
   <g id="patch_6">
    <path d="M 51.465625 7.2 
L 330.465625 7.2 
" style="fill:none;stroke:#000000;stroke-linecap:square;stroke-linejoin:miter;stroke-width:0.8;"/>
   </g>
  </g>
 </g>
 <defs>
  <clipPath id="pfba8e38a10">
   <rect height="181.2" width="279" x="51.465625" y="7.2"/>
  </clipPath>
 </defs>
</svg>
