<?xml version="1.0" encoding="utf-8" standalone="no"?>
<!DOCTYPE svg PUBLIC "-//W3C//DTD SVG 1.1//EN"
  "http://www.w3.org/Graphics/SVG/1.1/DTD/svg11.dtd">
<!-- Created with matplotlib (https://matplotlib.org/) -->
<svg height="247.92625pt" version="1.1" viewBox="0 0 492.479687 247.92625" width="492.479687pt" xmlns="http://www.w3.org/2000/svg" xmlns:xlink="http://www.w3.org/1999/xlink">
 <metadata>
  <rdf:RDF xmlns:cc="http://creativecommons.org/ns#" xmlns:dc="http://purl.org/dc/elements/1.1/" xmlns:rdf="http://www.w3.org/1999/02/22-rdf-syntax-ns#">
   <cc:Work>
    <dc:type rdf:resource="http://purl.org/dc/dcmitype/StillImage"/>
    <dc:date>2021-08-03T01:34:26.075980</dc:date>
    <dc:format>image/svg+xml</dc:format>
    <dc:creator>
     <cc:Agent>
      <dc:title>Matplotlib v3.3.4, https://matplotlib.org/</dc:title>
     </cc:Agent>
    </dc:creator>
   </cc:Work>
  </rdf:RDF>
 </metadata>
 <defs>
  <style type="text/css">*{stroke-linecap:butt;stroke-linejoin:round;}</style>
 </defs>
 <g id="figure_1">
  <g id="patch_1">
   <path d="M 0 247.92625 
L 492.479687 247.92625 
L 492.479687 0 
L 0 0 
z
" style="fill:#ffffff;"/>
  </g>
  <g id="axes_1">
   <g id="patch_2">
    <path d="M 49.004688 210.37 
L 237.054688 210.37 
L 237.054688 22.32 
L 49.004688 22.32 
z
" style="fill:#ffffff;"/>
   </g>
   <g id="matplotlib.axis_1">
    <g id="xtick_1">
     <g id="line2d_1">
      <defs>
       <path d="M 0 0 
L 0 3.5 
" id="me16ea29102" style="stroke:#000000;stroke-width:0.8;"/>
      </defs>
      <g>
       <use style="stroke:#000000;stroke-width:0.8;" x="54.639817" xlink:href="#me16ea29102" y="210.37"/>
      </g>
     </g>
     <g id="text_1">
      <!-- −15 -->
      <g transform="translate(44.087473 224.968438)scale(0.1 -0.1)">
       <defs>
        <path d="M 10.59375 35.5 
L 73.1875 35.5 
L 73.1875 27.203125 
L 10.59375 27.203125 
z
" id="DejaVuSans-8722"/>
        <path d="M 12.40625 8.296875 
L 28.515625 8.296875 
L 28.515625 63.921875 
L 10.984375 60.40625 
L 10.984375 69.390625 
L 28.421875 72.90625 
L 38.28125 72.90625 
L 38.28125 8.296875 
L 54.390625 8.296875 
L 54.390625 0 
L 12.40625 0 
z
" id="DejaVuSans-49"/>
        <path d="M 10.796875 72.90625 
L 49.515625 72.90625 
L 49.515625 64.59375 
L 19.828125 64.59375 
L 19.828125 46.734375 
Q 21.96875 47.46875 24.109375 47.828125 
Q 26.265625 48.1875 28.421875 48.1875 
Q 40.625 48.1875 47.75 41.5 
Q 54.890625 34.8125 54.890625 23.390625 
Q 54.890625 11.625 47.5625 5.09375 
Q 40.234375 -1.421875 26.90625 -1.421875 
Q 22.3125 -1.421875 17.546875 -0.640625 
Q 12.796875 0.140625 7.71875 1.703125 
L 7.71875 11.625 
Q 12.109375 9.234375 16.796875 8.0625 
Q 21.484375 6.890625 26.703125 6.890625 
Q 35.15625 6.890625 40.078125 11.328125 
Q 45.015625 15.765625 45.015625 23.390625 
Q 45.015625 31 40.078125 35.4375 
Q 35.15625 39.890625 26.703125 39.890625 
Q 22.75 39.890625 18.8125 39.015625 
Q 14.890625 38.140625 10.796875 36.28125 
z
" id="DejaVuSans-53"/>
       </defs>
       <use xlink:href="#DejaVuSans-8722"/>
       <use x="83.789062" xlink:href="#DejaVuSans-49"/>
       <use x="147.412109" xlink:href="#DejaVuSans-53"/>
      </g>
     </g>
    </g>
    <g id="xtick_2">
     <g id="line2d_2">
      <g>
       <use style="stroke:#000000;stroke-width:0.8;" x="94.758232" xlink:href="#me16ea29102" y="210.37"/>
      </g>
     </g>
     <g id="text_2">
      <!-- −10 -->
      <g transform="translate(84.205888 224.968438)scale(0.1 -0.1)">
       <defs>
        <path d="M 31.78125 66.40625 
Q 24.171875 66.40625 20.328125 58.90625 
Q 16.5 51.421875 16.5 36.375 
Q 16.5 21.390625 20.328125 13.890625 
Q 24.171875 6.390625 31.78125 6.390625 
Q 39.453125 6.390625 43.28125 13.890625 
Q 47.125 21.390625 47.125 36.375 
Q 47.125 51.421875 43.28125 58.90625 
Q 39.453125 66.40625 31.78125 66.40625 
z
M 31.78125 74.21875 
Q 44.046875 74.21875 50.515625 64.515625 
Q 56.984375 54.828125 56.984375 36.375 
Q 56.984375 17.96875 50.515625 8.265625 
Q 44.046875 -1.421875 31.78125 -1.421875 
Q 19.53125 -1.421875 13.0625 8.265625 
Q 6.59375 17.96875 6.59375 36.375 
Q 6.59375 54.828125 13.0625 64.515625 
Q 19.53125 74.21875 31.78125 74.21875 
z
" id="DejaVuSans-48"/>
       </defs>
       <use xlink:href="#DejaVuSans-8722"/>
       <use x="83.789062" xlink:href="#DejaVuSans-49"/>
       <use x="147.412109" xlink:href="#DejaVuSans-48"/>
      </g>
     </g>
    </g>
    <g id="xtick_3">
     <g id="line2d_3">
      <g>
       <use style="stroke:#000000;stroke-width:0.8;" x="134.876647" xlink:href="#me16ea29102" y="210.37"/>
      </g>
     </g>
     <g id="text_3">
      <!-- −5 -->
      <g transform="translate(127.505554 224.968438)scale(0.1 -0.1)">
       <use xlink:href="#DejaVuSans-8722"/>
       <use x="83.789062" xlink:href="#DejaVuSans-53"/>
      </g>
     </g>
    </g>
    <g id="xtick_4">
     <g id="line2d_4">
      <g>
       <use style="stroke:#000000;stroke-width:0.8;" x="174.995063" xlink:href="#me16ea29102" y="210.37"/>
      </g>
     </g>
     <g id="text_4">
      <!-- 0 -->
      <g transform="translate(171.813813 224.968438)scale(0.1 -0.1)">
       <use xlink:href="#DejaVuSans-48"/>
      </g>
     </g>
    </g>
    <g id="xtick_5">
     <g id="line2d_5">
      <g>
       <use style="stroke:#000000;stroke-width:0.8;" x="215.113478" xlink:href="#me16ea29102" y="210.37"/>
      </g>
     </g>
     <g id="text_5">
      <!-- 5 -->
      <g transform="translate(211.932228 224.968438)scale(0.1 -0.1)">
       <use xlink:href="#DejaVuSans-53"/>
      </g>
     </g>
    </g>
    <g id="text_6">
     <!-- $x$ [AU] -->
     <g transform="translate(127.479688 238.646563)scale(0.1 -0.1)">
      <defs>
       <path d="M 60.015625 54.6875 
L 34.90625 27.875 
L 50.296875 0 
L 39.984375 0 
L 28.421875 21.6875 
L 8.296875 0 
L -2.59375 0 
L 24.3125 28.8125 
L 10.015625 54.6875 
L 20.3125 54.6875 
L 30.8125 34.90625 
L 49.125 54.6875 
z
" id="DejaVuSans-Oblique-120"/>
       <path id="DejaVuSans-32"/>
       <path d="M 8.59375 75.984375 
L 29.296875 75.984375 
L 29.296875 69 
L 17.578125 69 
L 17.578125 -6.203125 
L 29.296875 -6.203125 
L 29.296875 -13.1875 
L 8.59375 -13.1875 
z
" id="DejaVuSans-91"/>
       <path d="M 34.1875 63.1875 
L 20.796875 26.90625 
L 47.609375 26.90625 
z
M 28.609375 72.90625 
L 39.796875 72.90625 
L 67.578125 0 
L 57.328125 0 
L 50.6875 18.703125 
L 17.828125 18.703125 
L 11.1875 0 
L 0.78125 0 
z
" id="DejaVuSans-65"/>
       <path d="M 8.6875 72.90625 
L 18.609375 72.90625 
L 18.609375 28.609375 
Q 18.609375 16.890625 22.84375 11.734375 
Q 27.09375 6.59375 36.625 6.59375 
Q 46.09375 6.59375 50.34375 11.734375 
Q 54.59375 16.890625 54.59375 28.609375 
L 54.59375 72.90625 
L 64.5 72.90625 
L 64.5 27.390625 
Q 64.5 13.140625 57.4375 5.859375 
Q 50.390625 -1.421875 36.625 -1.421875 
Q 22.796875 -1.421875 15.734375 5.859375 
Q 8.6875 13.140625 8.6875 27.390625 
z
" id="DejaVuSans-85"/>
       <path d="M 30.421875 75.984375 
L 30.421875 -13.1875 
L 9.71875 -13.1875 
L 9.71875 -6.203125 
L 21.390625 -6.203125 
L 21.390625 69 
L 9.71875 69 
L 9.71875 75.984375 
z
" id="DejaVuSans-93"/>
      </defs>
      <use transform="translate(0 0.015625)" xlink:href="#DejaVuSans-Oblique-120"/>
      <use transform="translate(59.179688 0.015625)" xlink:href="#DejaVuSans-32"/>
      <use transform="translate(90.966797 0.015625)" xlink:href="#DejaVuSans-91"/>
      <use transform="translate(129.980469 0.015625)" xlink:href="#DejaVuSans-65"/>
      <use transform="translate(198.388672 0.015625)" xlink:href="#DejaVuSans-85"/>
      <use transform="translate(271.582031 0.015625)" xlink:href="#DejaVuSans-93"/>
     </g>
    </g>
   </g>
   <g id="matplotlib.axis_2">
    <g id="ytick_1">
     <g id="line2d_6">
      <defs>
       <path d="M 0 0 
L -3.5 0 
" id="madac600367" style="stroke:#000000;stroke-width:0.8;"/>
      </defs>
      <g>
       <use style="stroke:#000000;stroke-width:0.8;" x="49.004688" xlink:href="#madac600367" y="192.886753"/>
      </g>
     </g>
     <g id="text_7">
      <!-- −15 -->
      <g transform="translate(20.9 196.685971)scale(0.1 -0.1)">
       <use xlink:href="#DejaVuSans-8722"/>
       <use x="83.789062" xlink:href="#DejaVuSans-49"/>
       <use x="147.412109" xlink:href="#DejaVuSans-53"/>
      </g>
     </g>
    </g>
    <g id="ytick_2">
     <g id="line2d_7">
      <g>
       <use style="stroke:#000000;stroke-width:0.8;" x="49.004688" xlink:href="#madac600367" y="152.768337"/>
      </g>
     </g>
     <g id="text_8">
      <!-- −10 -->
      <g transform="translate(20.9 156.567556)scale(0.1 -0.1)">
       <use xlink:href="#DejaVuSans-8722"/>
       <use x="83.789062" xlink:href="#DejaVuSans-49"/>
       <use x="147.412109" xlink:href="#DejaVuSans-48"/>
      </g>
     </g>
    </g>
    <g id="ytick_3">
     <g id="line2d_8">
      <g>
       <use style="stroke:#000000;stroke-width:0.8;" x="49.004688" xlink:href="#madac600367" y="112.649922"/>
      </g>
     </g>
     <g id="text_9">
      <!-- −5 -->
      <g transform="translate(27.2625 116.449141)scale(0.1 -0.1)">
       <use xlink:href="#DejaVuSans-8722"/>
       <use x="83.789062" xlink:href="#DejaVuSans-53"/>
      </g>
     </g>
    </g>
    <g id="ytick_4">
     <g id="line2d_9">
      <g>
       <use style="stroke:#000000;stroke-width:0.8;" x="49.004688" xlink:href="#madac600367" y="72.531506"/>
      </g>
     </g>
     <g id="text_10">
      <!-- 0 -->
      <g transform="translate(35.642188 76.330725)scale(0.1 -0.1)">
       <use xlink:href="#DejaVuSans-48"/>
      </g>
     </g>
    </g>
    <g id="ytick_5">
     <g id="line2d_10">
      <g>
       <use style="stroke:#000000;stroke-width:0.8;" x="49.004688" xlink:href="#madac600367" y="32.413091"/>
      </g>
     </g>
     <g id="text_11">
      <!-- 5 -->
      <g transform="translate(35.642188 36.21231)scale(0.1 -0.1)">
       <use xlink:href="#DejaVuSans-53"/>
      </g>
     </g>
    </g>
    <g id="text_12">
     <!-- $y$ [AU] -->
     <g transform="translate(14.8 131.895)rotate(-90)scale(0.1 -0.1)">
      <defs>
       <path d="M 24.8125 -5.078125 
Q 18.5625 -15.578125 14.625 -18.1875 
Q 10.6875 -20.796875 4.59375 -20.796875 
L -2.484375 -20.796875 
L -0.984375 -13.28125 
L 4.203125 -13.28125 
Q 7.953125 -13.28125 10.59375 -11.234375 
Q 13.234375 -9.1875 16.5 -3.21875 
L 19.28125 2 
L 7.171875 54.6875 
L 16.703125 54.6875 
L 25.78125 12.796875 
L 50.875 54.6875 
L 60.296875 54.6875 
z
" id="DejaVuSans-Oblique-121"/>
      </defs>
      <use transform="translate(0 0.015625)" xlink:href="#DejaVuSans-Oblique-121"/>
      <use transform="translate(59.179688 0.015625)" xlink:href="#DejaVuSans-32"/>
      <use transform="translate(90.966797 0.015625)" xlink:href="#DejaVuSans-91"/>
      <use transform="translate(129.980469 0.015625)" xlink:href="#DejaVuSans-65"/>
      <use transform="translate(198.388672 0.015625)" xlink:href="#DejaVuSans-85"/>
      <use transform="translate(271.582031 0.015625)" xlink:href="#DejaVuSans-93"/>
     </g>
    </g>
   </g>
   <g id="line2d_11">
    <path clip-path="url(#p6fd32ea5ed)" d="M 174.995063 72.531506 
L 175.068578 72.448862 
L 175.027807 72.421301 
L 173.915803 71.86906 
L 171.843131 71.078338 
L 169.330971 70.360706 
L 166.607747 69.813182 
L 163.753826 69.46719 
L 160.897126 69.345075 
L 158.078941 69.448038 
L 155.386204 69.766709 
L 152.831435 70.288511 
L 150.392807 71.013939 
L 148.145705 71.913938 
L 146.096649 72.970051 
L 144.238151 74.171897 
L 142.554057 75.522032 
L 141.081584 76.978608 
L 139.793802 78.553777 
L 138.67159 80.275528 
L 137.744654 82.106137 
L 137.003387 84.076581 
L 136.471533 86.140595 
L 136.155289 88.248897 
L 136.045072 90.498304 
L 136.157551 92.826668 
L 136.500923 95.235418 
L 137.084022 97.711009 
L 137.910298 100.22519 
L 138.973066 102.73703 
L 140.2721 105.230765 
L 141.788963 107.658173 
L 143.493814 109.966095 
L 145.338137 112.088918 
L 147.220413 113.920348 
L 148.931725 115.289519 
L 149.374014 115.572928 
L 148.483657 115.111254 
L 146.523779 114.330125 
L 144.071543 113.59348 
L 141.377825 113.015288 
L 138.548067 112.634687 
L 135.687456 112.474188 
L 132.885426 112.537239 
L 130.14123 112.82192 
L 127.566598 113.308846 
L 125.153273 113.984264 
L 122.861273 114.855267 
L 120.755058 115.893935 
L 118.830432 117.092751 
L 117.134557 118.405182 
L 115.587488 119.885446 
L 114.229276 121.502022 
L 113.08769 123.209675 
L 112.13885 125.030721 
L 111.399179 126.920192 
L 110.835115 128.984775 
L 110.489083 131.0999 
L 110.352242 133.290525 
L 110.429153 135.573467 
L 110.731824 137.951818 
L 111.272974 140.412588 
L 112.042044 142.877757 
L 113.049715 145.367335 
L 114.301536 147.864961 
L 115.764853 150.290733 
L 117.437927 152.632915 
L 119.250159 154.789927 
L 121.124473 156.682067 
L 122.905165 158.174942 
L 123.67883 158.697542 
L 122.827963 158.254065 
L 120.887107 157.475143 
L 118.437195 156.733726 
L 115.7315 156.148412 
L 112.911997 155.76494 
L 110.06115 155.599989 
L 107.268205 155.657032 
L 104.532363 155.934 
L 101.909203 156.424622 
L 99.439076 157.115106 
L 97.14634 157.988465 
L 95.039836 159.029684 
L 93.115436 160.231166 
L 91.420327 161.546188 
L 89.874612 163.028952 
L 88.518303 164.647727 
L 87.379031 166.357099 
L 86.432819 168.179323 
L 85.695878 170.06937 
L 85.134649 172.133941 
L 84.791253 174.2485 
L 84.656786 176.438086 
L 84.735756 178.719614 
L 85.040141 181.096255 
L 85.582626 183.555092 
L 86.370338 186.067522 
L 87.399803 188.591409 
L 88.653217 191.074046 
L 90.13558 193.515057 
L 91.804376 195.836516 
L 93.625157 197.990974 
L 95.509581 199.880248 
L 97.276722 201.348622 
L 97.984236 201.822194 
L 97.130913 201.377606 
L 95.281991 200.631439 
L 95.281991 200.631439 
" style="fill:none;stroke:#ff0000;stroke-linecap:square;stroke-width:1.5;"/>
   </g>
   <g id="line2d_12">
    <path clip-path="url(#p6fd32ea5ed)" d="M 183.018746 72.531506 
L 182.899677 71.158678 
L 182.545937 69.826607 
L 181.967842 68.574926 
L 181.182299 67.440983 
L 180.212304 66.458799 
L 179.171412 65.708721 
L 178.02261 65.134904 
L 176.79542 64.752716 
L 175.521507 64.572619 
L 174.233869 64.599945 
L 172.966211 64.834585 
L 171.751759 65.271034 
L 170.622639 65.8984 
L 169.608852 66.700637 
L 168.737459 67.657044 
L 168.031895 68.742494 
L 167.511124 69.928486 
L 167.189243 71.183653 
L 167.074956 72.47462 
L 167.171389 73.767129 
L 167.475921 75.02674 
L 167.980341 76.220056 
L 168.67103 77.315451 
L 169.529359 78.284048 
L 170.532379 79.10051 
L 171.653172 79.743605 
L 172.861997 80.1969 
L 174.126921 80.449025 
L 175.414624 80.494001 
L 176.691514 80.331268 
L 177.924371 79.965699 
L 179.081405 79.407339 
L 180.132879 78.671159 
L 181.116454 77.701887 
L 181.917554 76.578259 
L 182.512632 75.334163 
L 182.88432 74.006672 
L 183.021773 72.635306 
L 182.921011 71.260832 
L 182.584969 69.924061 
L 182.023484 68.664788 
L 181.252942 67.520572 
L 180.296032 66.525797 
L 179.265078 65.762199 
L 178.123995 65.173539 
L 176.902092 64.775512 
L 175.63081 64.579019 
L 174.343216 64.589774 
L 173.072896 64.808126 
L 171.853252 65.228973 
L 170.716501 65.841836 
L 169.692872 66.63109 
L 168.809737 67.576241 
L 168.09077 68.652675 
L 167.555396 69.831954 
L 167.218061 71.082876 
L 167.087944 72.372292 
L 167.168566 73.665827 
L 167.457775 74.929112 
L 167.947751 76.128532 
L 168.625282 77.232325 
L 169.472119 78.211336 
L 170.46548 79.039884 
L 171.578905 79.69646 
L 172.782659 80.164182 
L 174.04491 80.431317 
L 175.332512 80.491431 
L 176.611681 80.343611 
L 177.849228 79.992307 
L 179.013151 79.44722 
L 180.073522 78.723008 
L 181.003269 77.838743 
L 181.831344 76.734175 
L 182.456215 75.504121 
L 182.859586 74.185364 
L 183.029702 72.817249 
L 182.961601 71.44038 
L 182.657317 70.09576 
L 182.125719 68.823329 
L 181.382406 67.661121 
L 180.44919 66.643959 
L 179.436522 65.856273 
L 178.309711 65.240943 
L 177.097569 64.814335 
L 175.831417 64.588086 
L 174.54413 64.568662 
L 173.26928 64.757218 
L 172.040419 65.149394 
L 170.889958 65.735499 
L 169.848534 66.50056 
L 168.943938 67.424784 
L 168.200463 68.484083 
L 167.638179 69.650431 
L 167.272264 70.893054 
L 167.112671 72.178934 
L 167.163727 73.473815 
L 167.424094 74.743253 
L 167.886716 75.95343 
L 168.539145 77.072279 
L 169.363741 78.070171 
L 170.338384 78.920931 
L 171.437028 79.602376 
L 172.630288 80.096948 
L 173.886652 80.39217 
L 175.172982 80.480871 
L 176.455578 80.361353 
L 177.701063 80.037333 
L 178.877178 79.517829 
L 179.953691 78.816784 
L 180.902989 77.952834 
L 181.755447 76.866199 
L 182.407348 75.649602 
L 182.839606 74.339537 
L 183.039607 72.974959 
L 183.001548 71.59654 
L 182.726559 70.245212 
L 182.222705 68.96123 
L 181.504722 67.782874 
L 180.593738 66.745525 
L 179.598396 65.935942 
L 178.485085 65.296227 
L 177.282512 64.843416 
L 176.021614 64.589764 
L 174.735104 64.542487 
L 173.456615 64.703401 
L 172.219679 65.068925 
L 171.057023 65.630001 
L 169.999502 66.372393 
L 169.075427 67.276857 
L 168.309572 68.319762 
L 167.722597 69.473731 
L 167.330396 70.708072 
L 167.143593 71.990071 
L 167.167314 73.285598 
L 167.400894 74.560048 
L 167.838065 75.779561 
L 168.466986 76.911681 
L 169.270703 77.926468 
L 170.227637 78.797206 
L 171.31205 79.501126 
L 172.495121 80.020084 
L 173.745414 80.340894 
L 175.029926 80.455709 
L 176.31501 80.3621 
L 177.567084 80.063141 
L 178.753761 79.567158 
L 179.844409 78.887567 
L 180.811087 78.042401 
L 181.629153 77.053767 
L 182.320164 75.858349 
L 182.79452 74.562303 
L 183.038345 73.204342 
L 183.044556 71.824917 
L 182.812978 70.465026 
L 182.350433 69.165192 
L 181.670437 67.964144 
L 180.793034 66.897929 
L 179.824 66.056717 
L 178.731705 65.381572 
L 177.544226 64.890387 
L 176.292079 64.596414 
L 175.007799 64.507876 
L 173.724861 64.627678 
L 172.476943 64.9533 
L 171.297007 65.476742 
L 170.216358 66.184776 
L 169.263908 67.05905 
L 168.465163 68.076815 
L 167.841694 69.211265 
L 167.410351 70.432299 
L 167.182841 71.707569 
L 167.165356 73.003031 
L 167.358388 74.284164 
L 167.756724 75.516799 
L 168.349589 76.668147 
L 169.120997 77.707684 
L 170.050108 78.607963 
L 171.112088 79.345454 
L 172.278481 79.90101 
L 173.518283 80.26048 
L 174.798798 80.414948 
L 176.086298 80.36097 
L 177.347197 80.100546 
L 178.54872 79.641047 
L 179.659863 78.994924 
L 180.652081 78.179361 
L 181.499997 77.215856 
L 182.22716 76.041591 
L 182.740699 74.760137 
L 183.010666 73.506424 
L 183.071926 72.22313 
L 182.922734 70.943202 
L 182.566483 69.69925 
L 182.011585 68.522938 
L 181.271149 67.444113 
L 180.362634 66.490264 
L 179.30757 65.685949 
L 178.130839 65.052177 
L 176.860517 64.6061 
L 175.527226 64.360433 
L 174.163504 64.323118 
L 172.803434 64.4968 
L 171.481557 64.87848 
L 170.232239 65.459202 
L 169.088457 66.223752 
L 168.080598 67.150972 
L 167.235261 68.213755 
L 166.573788 69.380326 
L 166.111494 70.615161 
L 165.845821 71.978001 
L 165.822072 73.328639 
L 166.032364 74.621003 
L 166.460708 75.812719 
L 167.08415 76.866249 
L 167.874423 77.749918 
L 168.799092 78.438161 
L 169.822884 78.911638 
L 170.908773 79.157238 
L 172.018372 79.167834 
L 173.113134 78.942238 
L 174.154761 78.485144 
L 175.105778 77.807138 
L 175.876555 76.993953 
L 176.511791 76.021936 
L 176.98751 74.912753 
L 177.282969 73.691963 
L 177.38154 72.388545 
L 177.271288 71.034146 
L 176.945636 69.662482 
L 176.403694 68.308057 
L 175.650461 67.005339 
L 174.696724 65.787451 
L 173.55862 64.685174 
L 172.25719 63.726062 
L 170.81741 62.933601 
L 169.267572 62.326796 
L 167.63817 61.919773 
L 165.961197 61.721712 
L 164.269476 61.736786 
L 162.595646 61.964336 
L 160.971932 62.398914 
L 159.429504 63.030281 
L 157.997664 63.843755 
L 156.703554 64.820025 
L 155.571239 65.934963 
L 154.620557 67.160276 
L 153.816735 68.565999 
L 153.250352 70.016943 
L 152.92064 71.465532 
L 152.815518 72.960768 
L 152.937543 74.344456 
L 153.27011 75.646963 
L 153.785823 76.792638 
L 154.432352 77.710621 
L 155.137693 78.342158 
L 155.785086 78.636883 
L 156.259202 78.632457 
L 156.575919 78.41453 
L 156.73081 78.037472 
L 156.716474 77.467913 
L 156.464837 76.694212 
L 155.929932 75.772012 
L 155.063661 74.733243 
L 153.891997 73.689494 
L 152.533047 72.770097 
L 150.946478 71.9693 
L 149.328715 71.39354 
L 147.624559 71.018179 
L 145.906453 70.866602 
L 144.25717 70.934733 
L 142.537968 71.236846 
L 141.025514 71.711836 
L 139.554503 72.380705 
L 137.976626 73.355253 
L 136.547647 74.506824 
L 135.138619 75.94834 
L 133.815812 77.656264 
L 132.627877 79.590761 
L 131.605565 81.706323 
L 130.765838 83.958289 
L 130.078918 86.469996 
L 129.615214 89.023884 
L 129.359877 91.729147 
L 129.336202 94.386442 
L 129.531314 96.963895 
L 129.93349 99.430808 
L 130.532226 101.756264 
L 131.317668 103.907384 
L 132.237772 105.772892 
L 133.222226 107.286893 
L 134.290998 108.529158 
L 135.375122 109.449383 
L 136.397823 110.043133 
L 137.392544 110.377743 
L 138.343728 110.467119 
L 139.23582 110.321003 
L 139.9988 109.978209 
L 140.672697 109.441991 
L 141.236309 108.712413 
L 141.656174 107.78019 
L 141.857773 106.752427 
L 141.816607 105.708438 
L 141.529554 104.776067 
L 141.109271 104.148173 
L 140.623899 103.769491 
L 139.947487 103.585147 
L 139.24668 103.709159 
L 138.675736 104.030843 
L 138.053381 104.633028 
L 137.388045 105.666309 
L 136.850915 107.017254 
L 136.497853 108.577473 
L 136.344284 110.267136 
L 136.405377 112.150515 
L 136.693365 114.01518 
L 137.199326 115.815362 
L 137.877707 117.426614 
L 138.706803 118.840746 
L 139.670786 120.042033 
L 140.705659 120.96952 
L 141.7394 121.605619 
L 142.805565 122.000518 
L 143.835872 122.14644 
L 144.815997 122.068097 
L 145.786696 121.762362 
L 146.67901 121.242148 
L 147.477286 120.517858 
L 148.16182 119.594173 
L 148.705109 118.469072 
L 149.041399 117.244952 
L 149.153181 115.980456 
L 149.027522 114.753159 
L 148.675695 113.675129 
L 148.192559 112.894983 
L 147.595725 112.345114 
L 147.051681 112.077568 
L 146.423548 111.9738 
L 145.80081 112.059339 
L 145.016237 112.428968 
L 144.263779 113.095611 
L 143.637178 113.969237 
L 143.093041 115.130492 
L 142.710908 116.480677 
L 142.512203 118.059149 
L 142.542996 119.640507 
L 142.791187 121.170623 
L 143.246795 122.599129 
L 143.86508 123.818443 
L 144.622262 124.817262 
L 145.456785 125.547139 
L 146.299993 126.003184 
L 147.176125 126.232542 
L 148.070851 126.233616 
L 148.922594 126.017346 
L 149.764202 125.5773 
L 150.57801 124.893767 
L 151.298906 123.997586 
L 151.90468 122.89557 
L 152.365443 121.588163 
L 152.621248 120.186505 
L 152.652383 118.749581 
L 152.481387 117.520113 
L 152.080739 116.293801 
L 151.529246 115.34663 
L 150.811732 114.618091 
L 150.05816 114.204542 
L 149.171672 114.046483 
L 148.31017 114.181251 
L 147.582923 114.510609 
L 146.830735 115.079798 
L 146.038532 115.995769 
L 145.362902 117.169288 
L 144.867127 118.49641 
L 144.554805 119.999308 
L 144.47256 121.46817 
L 144.616666 122.918845 
L 144.954831 124.136905 
L 145.449214 125.114804 
L 146.04167 125.80893 
L 146.667833 126.220828 
L 147.335655 126.39843 
L 147.991697 126.351075 
L 148.69355 126.068122 
L 149.388126 125.533793 
L 150.054167 124.72694 
L 150.63195 123.680757 
L 151.093343 122.399735 
L 151.398103 120.879025 
L 151.483976 119.361379 
L 151.352449 117.824709 
L 151.044153 116.526998 
L 150.60292 115.44429 
L 149.999576 114.491126 
L 149.274341 113.757701 
L 148.548783 113.310161 
L 147.692517 113.053318 
L 146.807718 113.042839 
L 146.000382 113.238199 
L 145.106651 113.679757 
L 144.247009 114.344788 
L 143.37602 115.305802 
L 142.610215 116.476167 
L 141.95559 117.874286 
L 141.463542 119.465269 
L 141.213117 121.007261 
L 141.201578 122.448391 
L 141.401251 123.521595 
L 141.738191 124.197168 
L 142.105427 124.478902 
L 142.473611 124.488269 
L 142.858909 124.260199 
L 143.264753 123.751235 
L 143.684647 122.844497 
L 144.034436 121.520827 
L 144.227581 119.875141 
L 144.213585 118.165739 
L 143.982451 116.430116 
L 143.593109 114.98537 
L 143.032615 113.693651 
L 142.372809 112.693326 
L 141.580284 111.911868 
L 140.781883 111.436344 
L 139.843399 111.175959 
L 138.889315 111.180189 
L 138.027547 111.386914 
L 137.06519 111.82769 
L 135.944617 112.611376 
L 134.841159 113.673517 
L 133.746911 115.034902 
L 132.637618 116.771439 
L 131.495022 118.98695 
L 129.2829 123.462027 
L 128.729351 123.967906 
L 128.209771 124.156904 
L 127.617414 124.133417 
L 126.863924 123.867824 
L 125.859775 123.261492 
L 124.734702 122.328112 
L 123.73924 121.228542 
L 122.961067 120.040995 
L 122.391199 118.770339 
L 121.993932 117.330411 
L 121.680675 115.676612 
L 120.980476 118.014657 
L 120.046659 120.255642 
L 118.863581 122.477451 
L 116.739016 125.859323 
L 115.63994 127.853213 
L 115.178749 129.075026 
L 115.141838 128.696351 
L 114.925567 127.864876 
L 114.468405 126.995061 
L 113.818 126.275276 
L 113.097783 125.809641 
L 112.358073 125.569919 
L 111.481011 125.536219 
L 110.57997 125.760212 
L 109.762787 126.194239 
L 108.864528 126.957991 
L 108.015072 128.03063 
L 107.287753 129.34641 
L 106.712845 130.839694 
L 106.262788 132.651827 
L 106.008349 134.692432 
L 105.983547 136.711893 
L 106.18779 138.818255 
L 106.607596 140.80098 
L 107.223857 142.624107 
L 107.970196 144.158684 
L 108.814086 145.408887 
L 109.729012 146.369779 
L 110.629579 146.994729 
L 111.48752 147.316073 
L 112.218446 147.365921 
L 112.865424 147.200094 
L 113.41045 146.83973 
L 113.832979 146.303481 
L 114.105574 145.607856 
L 114.184009 144.768648 
L 114.043957 143.988564 
L 113.659798 143.238844 
L 113.279699 142.854884 
L 112.698294 142.572298 
L 111.976958 142.57041 
L 111.332346 142.85958 
L 110.65044 143.511841 
L 110.094531 144.439419 
L 109.700799 145.538556 
L 109.444244 146.932704 
L 109.390352 148.51326 
L 109.565252 150.187965 
L 109.978318 151.876065 
L 110.583047 153.402282 
L 111.353819 154.7474 
L 112.212088 155.820924 
L 113.130337 156.638341 
L 114.087398 157.204667 
L 114.998897 157.503304 
L 115.911499 157.56877 
L 116.7426 157.402759 
L 117.476203 157.031566 
L 118.096032 156.4771 
L 118.583409 155.757886 
L 118.913049 154.889297 
L 119.044219 153.884323 
L 118.942563 152.936907 
L 118.67791 152.191664 
L 118.271675 151.588031 
L 117.828552 151.214466 
L 117.208639 150.980002 
L 116.508484 151.022672 
L 115.906448 151.309638 
L 115.269834 151.919363 
L 114.753411 152.776859 
L 114.35154 153.975192 
L 114.174223 155.21435 
L 114.193554 156.596786 
L 114.434429 158.030517 
L 114.904008 159.434321 
L 115.550317 160.654106 
L 116.347455 161.669776 
L 117.215317 162.411899 
L 118.127143 162.89471 
L 118.998893 163.114636 
L 119.873542 163.106913 
L 120.672186 162.884553 
L 121.438037 162.435503 
L 122.091697 161.793107 
L 122.613496 160.977324 
L 122.978237 160.004232 
L 123.146564 158.886283 
L 123.077764 157.808098 
L 122.815555 156.898478 
L 122.347213 156.096563 
L 121.712809 155.532457 
L 121.107241 155.295825 
L 120.427361 155.293094 
L 119.814966 155.515619 
L 119.13341 156.052348 
L 118.559122 156.848311 
L 118.148717 157.799903 
L 117.881096 158.993897 
L 117.821903 160.314911 
L 117.992095 161.665425 
L 118.357578 162.871972 
L 118.930603 163.98804 
L 119.605149 164.832201 
L 120.345384 165.430465 
L 121.126764 165.796969 
L 121.929809 165.936849 
L 122.736718 165.847652 
L 123.472679 165.550462 
L 124.176325 165.030224 
L 124.82018 164.259557 
L 125.322703 163.287349 
L 125.625851 162.243178 
L 125.73979 161.072802 
L 125.637817 159.969268 
L 125.373004 159.055747 
L 124.945454 158.255321 
L 124.403528 157.660259 
L 123.888628 157.333172 
L 123.255372 157.156145 
L 122.591532 157.196385 
L 122.004873 157.42023 
L 121.335172 157.922829 
L 120.744526 158.66798 
L 120.235755 159.737228 
L 119.929462 160.994669 
L 119.860784 162.320676 
L 120.032736 163.619647 
L 120.403152 164.734232 
L 120.934559 165.647547 
L 121.554011 166.29809 
L 122.229407 166.706518 
L 122.937525 166.882941 
L 123.658807 166.829244 
L 124.37405 166.539328 
L 125.013472 166.045583 
L 125.604763 165.313855 
L 126.076524 164.397122 
L 126.403438 163.314604 
L 126.549297 162.081575 
L 126.479211 160.878615 
L 126.224017 159.820264 
L 125.758747 158.83221 
L 125.282794 158.221739 
L 124.573862 157.687857 
L 123.959963 157.471756 
L 123.296392 157.44509 
L 122.679293 157.601425 
L 121.939097 158.034749 
L 121.257676 158.730983 
L 120.718888 159.596663 
L 120.294331 160.69975 
L 120.061182 161.92125 
L 120.043917 163.157544 
L 120.244456 164.319708 
L 120.623024 165.268244 
L 121.145352 165.981434 
L 121.70149 166.389587 
L 122.296998 166.561677 
L 122.910838 166.501189 
L 123.52305 166.203502 
L 124.111486 165.655254 
L 124.64678 164.831373 
L 125.056788 163.782634 
L 125.303051 162.521837 
L 125.333541 161.20149 
L 125.14389 159.919954 
L 124.762342 158.801019 
L 124.29561 157.986858 
L 123.756123 157.377893 
L 122.984336 156.87218 
L 122.346091 156.688853 
L 121.679882 156.686938 
L 120.795041 156.968924 
L 120.116574 157.42168 
L 119.33992 158.2609 
L 118.763065 159.227074 
L 118.326487 160.372187 
L 118.067887 161.692607 
L 118.047773 162.935904 
L 118.246072 164.018138 
L 118.614237 164.817223 
L 119.048986 165.267466 
L 119.501104 165.44165 
L 119.975324 165.382367 
L 120.45132 165.085404 
L 120.906889 164.537617 
L 121.339502 163.644028 
L 121.643176 162.477748 
L 121.76113 161.16517 
L 121.672071 159.789801 
L 121.364298 158.452611 
L 120.85889 157.287095 
L 120.270106 156.452994 
L 119.604979 155.862578 
L 119.025837 155.555812 
L 118.359814 155.391305 
L 117.678643 155.405188 
L 116.77845 155.690022 
L 115.879962 156.291038 
L 115.110586 157.107766 
L 114.416662 158.184937 
L 113.843449 159.519318 
L 113.487217 160.928905 
L 113.372545 162.250708 
L 113.49095 163.33201 
L 113.76246 163.952402 
L 114.05449 164.142527 
L 114.330402 164.063242 
L 114.62372 163.716212 
L 114.903695 163.024145 
L 115.111591 161.87098 
L 115.13574 160.409691 
L 114.928625 158.83871 
L 114.552251 157.518361 
L 114.00045 156.344644 
L 113.370735 155.485801 
L 112.649398 154.870527 
L 112.011521 154.561055 
L 111.282145 154.423851 
L 110.55826 154.487661 
L 109.634434 154.837672 
L 108.719003 155.481108 
L 107.77866 156.478884 
L 106.956687 157.692415 
L 106.186825 159.232921 
L 105.537872 161.033714 
L 105.004902 163.203609 
L 104.714279 164.149104 
L 104.701828 164.14391 
L 104.577787 163.931085 
L 104.148377 162.534789 
L 103.19321 159.660437 
L 102.471403 158.104535 
L 101.868101 157.191216 
L 101.370179 156.676238 
L 100.566395 156.249802 
L 100.04835 156.21271 
L 99.155061 156.537161 
L 98.297603 157.264016 
L 97.412712 158.395413 
L 96.41256 160.088969 
L 95.22477 162.579837 
L 93.725343 166.276354 
L 92.895423 168.80801 
L 92.558592 170.481824 
L 92.47966 171.893968 
L 92.616451 173.209223 
L 92.937801 174.364912 
L 93.440313 175.426597 
L 94.087462 176.341215 
L 94.95057 177.183888 
L 96.023208 177.883405 
L 97.077077 178.317916 
L 98.207548 178.572787 
L 99.556732 178.640156 
L 100.876538 178.485513 
L 102.296405 178.090443 
L 103.748835 177.441735 
L 105.175297 176.549948 
L 106.531708 175.439073 
L 107.883017 174.02692 
L 109.080653 172.447871 
L 110.179542 170.620901 
L 111.135697 168.577271 
L 111.918041 166.350818 
L 112.506027 163.974447 
L 112.887692 161.478669 
L 113.057453 158.890579 
L 113.009322 156.141094 
L 112.738341 153.352035 
L 112.235026 150.456649 
L 111.494214 147.481651 
L 110.489005 144.376328 
L 109.212205 141.172938 
L 107.662256 137.898971 
L 105.842212 134.57727 
L 103.720355 131.169566 
L 101.260599 127.648059 
L 98.465117 124.043689 
L 95.340146 120.381717 
L 91.852095 116.63873 
L 87.966771 112.798086 
L 83.650614 108.848501 
L 78.914763 104.819011 
L 73.685377 100.665969 
L 67.977254 96.420953 
L 61.763576 92.080742 
L 60.896697 91.49561 
L 60.896697 91.49561 
" style="fill:none;stroke:#32cd32;stroke-linecap:square;stroke-width:1.5;"/>
   </g>
   <g id="line2d_13">
    <path clip-path="url(#p6fd32ea5ed)" d="M 216.718215 72.531506 
L 216.607904 69.501075 
L 216.277551 66.486669 
L 215.728895 63.504228 
L 214.964823 60.569527 
L 213.989357 57.698094 
L 212.807633 54.905126 
L 211.425875 52.20541 
L 209.851361 49.613251 
L 208.092392 47.142389 
L 206.158243 44.805933 
L 204.059117 42.61629 
L 201.806097 40.585099 
L 199.411083 38.723166 
L 196.886735 37.040415 
L 194.246404 35.545824 
L 191.504067 34.247384 
L 188.674251 33.152053 
L 185.771958 32.265718 
L 182.812587 31.59316 
L 179.811851 31.138031 
L 176.785701 30.902829 
L 173.750231 30.888885 
L 170.721601 31.096353 
L 167.71595 31.524206 
L 164.749307 32.170244 
L 161.837504 33.031097 
L 158.996096 34.102248 
L 156.240275 35.378049 
L 153.584784 36.851755 
L 151.043842 38.515555 
L 148.631065 40.360612 
L 146.359391 42.377115 
L 144.241008 44.554322 
L 142.28729 46.880625 
L 140.508734 49.343606 
L 138.914899 51.930107 
L 137.514588 54.626416 
L 136.317036 57.41878 
L 135.345268 60.251735 
L 134.601648 63.108151 
L 134.095413 65.927908 
L 133.817872 68.735631 
L 133.772758 71.469814 
L 133.949726 74.068087 
L 134.340301 76.55498 
L 134.92545 78.869202 
L 135.685777 80.993967 
L 136.620763 82.951858 
L 137.694248 84.685722 
L 138.879647 86.181895 
L 140.146883 87.429637 
L 141.462161 88.422542 
L 142.82766 89.178584 
L 144.16907 89.675293 
L 145.487173 89.934316 
L 146.743099 89.962685 
L 147.939806 89.768046 
L 148.995208 89.376958 
L 149.915098 88.80744 
L 150.696992 88.060198 
L 151.279931 87.201101 
L 151.671658 86.23972 
L 151.862794 85.175454 
L 151.834941 84.09431 
L 151.590825 82.996172 
L 151.11356 81.882477 
L 150.424709 80.833076 
L 149.514921 79.84628 
L 148.396809 78.9562 
L 147.049453 78.171134 
L 145.527964 77.542013 
L 143.813571 77.075395 
L 141.926897 76.796829 
L 139.890579 76.726993 
L 137.771304 76.877195 
L 135.548641 77.257589 
L 133.245768 77.879513 
L 130.926204 78.735363 
L 128.570681 79.842655 
L 126.239659 81.184849 
L 123.951897 82.758668 
L 121.726245 84.560862 
L 119.61248 86.557117 
L 117.595673 88.770415 
L 115.747987 91.126959 
L 114.053486 93.648562 
L 112.548003 96.287515 
L 111.240176 99.029903 
L 110.153992 101.820949 
L 109.291195 104.643628 
L 108.654321 107.481252 
L 108.246825 110.316921 
L 108.074092 113.08951 
L 108.130545 115.780015 
L 108.404073 118.326185 
L 108.887631 120.752352 
L 109.560016 122.997371 
L 110.401108 125.044503 
L 111.388665 126.878292 
L 112.52457 128.519219 
L 113.762124 129.914836 
L 115.06934 131.05538 
L 116.410336 131.936179 
L 117.786539 132.574994 
L 119.120184 132.955447 
L 120.411801 133.100725 
L 121.62206 133.023261 
L 122.754444 132.733097 
L 123.767976 132.244219 
L 124.625327 131.58464 
L 125.299307 130.794822 
L 125.794557 129.882424 
L 126.090735 128.887435 
L 126.181484 127.809874 
L 126.049973 126.692826 
L 125.694121 125.580064 
L 125.100395 124.474336 
L 124.299549 123.451907 
L 123.283292 122.509955 
L 122.029807 121.657509 
L 120.590919 120.95115 
L 118.948411 120.397717 
L 117.165339 120.031415 
L 115.222298 119.859009 
L 113.141631 119.899333 
L 110.946507 120.167568 
L 108.660495 120.67592 
L 106.348075 121.41909 
L 103.989707 122.413122 
L 101.646693 123.643292 
L 99.337872 125.106324 
L 97.08197 126.799003 
L 94.898032 128.718079 
L 92.835001 130.827979 
L 90.906372 133.118649 
L 89.126341 135.580541 
L 87.531602 138.166472 
L 86.130364 140.862284 
L 84.931833 143.654211 
L 83.959045 146.486798 
L 83.214356 149.342914 
L 82.707011 152.16245 
L 82.428297 154.970032 
L 82.381957 157.704169 
L 82.557662 160.302501 
L 82.946915 162.789573 
L 83.530704 165.104111 
L 84.306305 167.269432 
L 85.243989 169.225994 
L 86.320163 170.958149 
L 87.508189 172.452192 
L 88.777919 173.697344 
L 90.095465 174.687179 
L 91.462938 175.439569 
L 92.805824 175.932172 
L 94.124787 176.186598 
L 95.380784 176.210011 
L 96.576587 176.01009 
L 97.630049 175.613879 
L 98.546923 175.039559 
L 99.324675 174.288033 
L 99.902763 173.425674 
L 100.289108 172.462122 
L 100.4745 171.396837 
L 100.441163 170.31584 
L 100.191917 169.218839 
L 99.709959 168.107154 
L 98.990269 167.02634 
L 98.072187 166.047215 
L 96.911519 165.14122 
L 95.556085 164.370074 
L 93.987773 163.741097 
L 92.268337 163.293086 
L 90.379059 163.032523 
L 88.342132 162.979835 
L 86.181001 163.151498 
L 83.961595 163.550935 
L 81.66358 164.190732 
L 79.310177 165.080058 
L 76.963426 166.206059 
L 74.642389 167.565454 
L 72.365526 169.15513 
L 70.151732 170.971997 
L 68.05063 172.981567 
L 66.047319 175.207164 
L 64.213698 177.574741 
L 62.534121 180.106292 
L 61.044158 182.754061 
L 59.752582 185.504171 
L 58.683267 188.301692 
L 57.837982 191.12965 
L 57.219385 193.971292 
L 56.991046 195.42959 
L 56.991046 195.42959 
" style="fill:none;stroke:#ff8c00;stroke-linecap:square;stroke-width:1.5;"/>
   </g>
   <g id="patch_3">
    <path d="M 49.004688 210.37 
L 49.004688 22.32 
" style="fill:none;stroke:#000000;stroke-linecap:square;stroke-linejoin:miter;stroke-width:0.8;"/>
   </g>
   <g id="patch_4">
    <path d="M 237.054688 210.37 
L 237.054688 22.32 
" style="fill:none;stroke:#000000;stroke-linecap:square;stroke-linejoin:miter;stroke-width:0.8;"/>
   </g>
   <g id="patch_5">
    <path d="M 49.004688 210.37 
L 237.054688 210.37 
" style="fill:none;stroke:#000000;stroke-linecap:square;stroke-linejoin:miter;stroke-width:0.8;"/>
   </g>
   <g id="patch_6">
    <path d="M 49.004688 22.32 
L 237.054688 22.32 
" style="fill:none;stroke:#000000;stroke-linecap:square;stroke-linejoin:miter;stroke-width:0.8;"/>
   </g>
   <g id="text_13">
    <!-- $t_{\rm trig}=[2{\rm yr},100]$ -->
    <g transform="translate(96.889688 16.32)scale(0.12 -0.12)">
     <defs>
      <path d="M 42.28125 54.6875 
L 40.921875 47.703125 
L 23 47.703125 
L 17.1875 18.015625 
Q 16.890625 16.359375 16.75 15.234375 
Q 16.609375 14.109375 16.609375 13.484375 
Q 16.609375 10.359375 18.484375 8.9375 
Q 20.359375 7.515625 24.515625 7.515625 
L 33.59375 7.515625 
L 32.078125 0 
L 23.484375 0 
Q 15.484375 0 11.546875 3.125 
Q 7.625 6.25 7.625 12.59375 
Q 7.625 13.71875 7.765625 15.0625 
Q 7.90625 16.40625 8.203125 18.015625 
L 14.015625 47.703125 
L 6.390625 47.703125 
L 7.8125 54.6875 
L 15.28125 54.6875 
L 18.3125 70.21875 
L 27.296875 70.21875 
L 24.3125 54.6875 
z
" id="DejaVuSans-Oblique-116"/>
      <path d="M 18.3125 70.21875 
L 18.3125 54.6875 
L 36.8125 54.6875 
L 36.8125 47.703125 
L 18.3125 47.703125 
L 18.3125 18.015625 
Q 18.3125 11.328125 20.140625 9.421875 
Q 21.96875 7.515625 27.59375 7.515625 
L 36.8125 7.515625 
L 36.8125 0 
L 27.59375 0 
Q 17.1875 0 13.234375 3.875 
Q 9.28125 7.765625 9.28125 18.015625 
L 9.28125 47.703125 
L 2.6875 47.703125 
L 2.6875 54.6875 
L 9.28125 54.6875 
L 9.28125 70.21875 
z
" id="DejaVuSans-116"/>
      <path d="M 41.109375 46.296875 
Q 39.59375 47.171875 37.8125 47.578125 
Q 36.03125 48 33.890625 48 
Q 26.265625 48 22.1875 43.046875 
Q 18.109375 38.09375 18.109375 28.8125 
L 18.109375 0 
L 9.078125 0 
L 9.078125 54.6875 
L 18.109375 54.6875 
L 18.109375 46.1875 
Q 20.953125 51.171875 25.484375 53.578125 
Q 30.03125 56 36.53125 56 
Q 37.453125 56 38.578125 55.875 
Q 39.703125 55.765625 41.0625 55.515625 
z
" id="DejaVuSans-114"/>
      <path d="M 9.421875 54.6875 
L 18.40625 54.6875 
L 18.40625 0 
L 9.421875 0 
z
M 9.421875 75.984375 
L 18.40625 75.984375 
L 18.40625 64.59375 
L 9.421875 64.59375 
z
" id="DejaVuSans-105"/>
      <path d="M 45.40625 27.984375 
Q 45.40625 37.75 41.375 43.109375 
Q 37.359375 48.484375 30.078125 48.484375 
Q 22.859375 48.484375 18.828125 43.109375 
Q 14.796875 37.75 14.796875 27.984375 
Q 14.796875 18.265625 18.828125 12.890625 
Q 22.859375 7.515625 30.078125 7.515625 
Q 37.359375 7.515625 41.375 12.890625 
Q 45.40625 18.265625 45.40625 27.984375 
z
M 54.390625 6.78125 
Q 54.390625 -7.171875 48.1875 -13.984375 
Q 42 -20.796875 29.203125 -20.796875 
Q 24.46875 -20.796875 20.265625 -20.09375 
Q 16.0625 -19.390625 12.109375 -17.921875 
L 12.109375 -9.1875 
Q 16.0625 -11.328125 19.921875 -12.34375 
Q 23.78125 -13.375 27.78125 -13.375 
Q 36.625 -13.375 41.015625 -8.765625 
Q 45.40625 -4.15625 45.40625 5.171875 
L 45.40625 9.625 
Q 42.625 4.78125 38.28125 2.390625 
Q 33.9375 0 27.875 0 
Q 17.828125 0 11.671875 7.65625 
Q 5.515625 15.328125 5.515625 27.984375 
Q 5.515625 40.671875 11.671875 48.328125 
Q 17.828125 56 27.875 56 
Q 33.9375 56 38.28125 53.609375 
Q 42.625 51.21875 45.40625 46.390625 
L 45.40625 54.6875 
L 54.390625 54.6875 
z
" id="DejaVuSans-103"/>
      <path d="M 10.59375 45.40625 
L 73.1875 45.40625 
L 73.1875 37.203125 
L 10.59375 37.203125 
z
M 10.59375 25.484375 
L 73.1875 25.484375 
L 73.1875 17.1875 
L 10.59375 17.1875 
z
" id="DejaVuSans-61"/>
      <path d="M 19.1875 8.296875 
L 53.609375 8.296875 
L 53.609375 0 
L 7.328125 0 
L 7.328125 8.296875 
Q 12.9375 14.109375 22.625 23.890625 
Q 32.328125 33.6875 34.8125 36.53125 
Q 39.546875 41.84375 41.421875 45.53125 
Q 43.3125 49.21875 43.3125 52.78125 
Q 43.3125 58.59375 39.234375 62.25 
Q 35.15625 65.921875 28.609375 65.921875 
Q 23.96875 65.921875 18.8125 64.3125 
Q 13.671875 62.703125 7.8125 59.421875 
L 7.8125 69.390625 
Q 13.765625 71.78125 18.9375 73 
Q 24.125 74.21875 28.421875 74.21875 
Q 39.75 74.21875 46.484375 68.546875 
Q 53.21875 62.890625 53.21875 53.421875 
Q 53.21875 48.921875 51.53125 44.890625 
Q 49.859375 40.875 45.40625 35.40625 
Q 44.1875 33.984375 37.640625 27.21875 
Q 31.109375 20.453125 19.1875 8.296875 
z
" id="DejaVuSans-50"/>
      <path d="M 32.171875 -5.078125 
Q 28.375 -14.84375 24.75 -17.8125 
Q 21.140625 -20.796875 15.09375 -20.796875 
L 7.90625 -20.796875 
L 7.90625 -13.28125 
L 13.1875 -13.28125 
Q 16.890625 -13.28125 18.9375 -11.515625 
Q 21 -9.765625 23.484375 -3.21875 
L 25.09375 0.875 
L 2.984375 54.6875 
L 12.5 54.6875 
L 29.59375 11.921875 
L 46.6875 54.6875 
L 56.203125 54.6875 
z
" id="DejaVuSans-121"/>
      <path d="M 11.71875 12.40625 
L 22.015625 12.40625 
L 22.015625 4 
L 14.015625 -11.625 
L 7.71875 -11.625 
L 11.71875 4 
z
" id="DejaVuSans-44"/>
     </defs>
     <use transform="translate(0 0.015625)" xlink:href="#DejaVuSans-Oblique-116"/>
     <use transform="translate(39.208984 -16.390625)scale(0.7)" xlink:href="#DejaVuSans-116"/>
     <use transform="translate(66.655273 -16.390625)scale(0.7)" xlink:href="#DejaVuSans-114"/>
     <use transform="translate(95.43457 -16.390625)scale(0.7)" xlink:href="#DejaVuSans-105"/>
     <use transform="translate(114.882812 -16.390625)scale(0.7)" xlink:href="#DejaVuSans-103"/>
     <use transform="translate(181.533203 0.015625)" xlink:href="#DejaVuSans-61"/>
     <use transform="translate(284.804688 0.015625)" xlink:href="#DejaVuSans-91"/>
     <use transform="translate(323.818359 0.015625)" xlink:href="#DejaVuSans-50"/>
     <use transform="translate(387.441406 0.015625)" xlink:href="#DejaVuSans-121"/>
     <use transform="translate(446.621094 0.015625)" xlink:href="#DejaVuSans-114"/>
     <use transform="translate(487.734375 0.015625)" xlink:href="#DejaVuSans-44"/>
     <use transform="translate(539.003906 0.015625)" xlink:href="#DejaVuSans-49"/>
     <use transform="translate(602.626953 0.015625)" xlink:href="#DejaVuSans-48"/>
     <use transform="translate(666.25 0.015625)" xlink:href="#DejaVuSans-48"/>
     <use transform="translate(729.873047 0.015625)" xlink:href="#DejaVuSans-93"/>
    </g>
   </g>
   <g id="legend_1">
    <g id="patch_7">
     <path d="M 165.45625 205.37 
L 230.054688 205.37 
Q 232.054688 205.37 232.054688 203.37 
L 232.054688 160.335625 
Q 232.054688 158.335625 230.054688 158.335625 
L 165.45625 158.335625 
Q 163.45625 158.335625 163.45625 160.335625 
L 163.45625 203.37 
Q 163.45625 205.37 165.45625 205.37 
z
" style="fill:#ffffff;opacity:0.8;stroke:#cccccc;stroke-linejoin:miter;"/>
    </g>
    <g id="line2d_14">
     <path d="M 167.45625 166.434063 
L 187.45625 166.434063 
" style="fill:none;stroke:#ff0000;stroke-linecap:square;stroke-width:1.5;"/>
    </g>
    <g id="line2d_15"/>
    <g id="text_14">
     <!-- Sun -->
     <g transform="translate(195.45625 169.934063)scale(0.1 -0.1)">
      <defs>
       <path d="M 53.515625 70.515625 
L 53.515625 60.890625 
Q 47.90625 63.578125 42.921875 64.890625 
Q 37.9375 66.21875 33.296875 66.21875 
Q 25.25 66.21875 20.875 63.09375 
Q 16.5 59.96875 16.5 54.203125 
Q 16.5 49.359375 19.40625 46.890625 
Q 22.3125 44.4375 30.421875 42.921875 
L 36.375 41.703125 
Q 47.40625 39.59375 52.65625 34.296875 
Q 57.90625 29 57.90625 20.125 
Q 57.90625 9.515625 50.796875 4.046875 
Q 43.703125 -1.421875 29.984375 -1.421875 
Q 24.8125 -1.421875 18.96875 -0.25 
Q 13.140625 0.921875 6.890625 3.21875 
L 6.890625 13.375 
Q 12.890625 10.015625 18.65625 8.296875 
Q 24.421875 6.59375 29.984375 6.59375 
Q 38.421875 6.59375 43.015625 9.90625 
Q 47.609375 13.234375 47.609375 19.390625 
Q 47.609375 24.75 44.3125 27.78125 
Q 41.015625 30.8125 33.5 32.328125 
L 27.484375 33.5 
Q 16.453125 35.6875 11.515625 40.375 
Q 6.59375 45.0625 6.59375 53.421875 
Q 6.59375 63.09375 13.40625 68.65625 
Q 20.21875 74.21875 32.171875 74.21875 
Q 37.3125 74.21875 42.625 73.28125 
Q 47.953125 72.359375 53.515625 70.515625 
z
" id="DejaVuSans-83"/>
       <path d="M 8.5 21.578125 
L 8.5 54.6875 
L 17.484375 54.6875 
L 17.484375 21.921875 
Q 17.484375 14.15625 20.5 10.265625 
Q 23.53125 6.390625 29.59375 6.390625 
Q 36.859375 6.390625 41.078125 11.03125 
Q 45.3125 15.671875 45.3125 23.6875 
L 45.3125 54.6875 
L 54.296875 54.6875 
L 54.296875 0 
L 45.3125 0 
L 45.3125 8.40625 
Q 42.046875 3.421875 37.71875 1 
Q 33.40625 -1.421875 27.6875 -1.421875 
Q 18.265625 -1.421875 13.375 4.4375 
Q 8.5 10.296875 8.5 21.578125 
z
M 31.109375 56 
z
" id="DejaVuSans-117"/>
       <path d="M 54.890625 33.015625 
L 54.890625 0 
L 45.90625 0 
L 45.90625 32.71875 
Q 45.90625 40.484375 42.875 44.328125 
Q 39.84375 48.1875 33.796875 48.1875 
Q 26.515625 48.1875 22.3125 43.546875 
Q 18.109375 38.921875 18.109375 30.90625 
L 18.109375 0 
L 9.078125 0 
L 9.078125 54.6875 
L 18.109375 54.6875 
L 18.109375 46.1875 
Q 21.34375 51.125 25.703125 53.5625 
Q 30.078125 56 35.796875 56 
Q 45.21875 56 50.046875 50.171875 
Q 54.890625 44.34375 54.890625 33.015625 
z
" id="DejaVuSans-110"/>
      </defs>
      <use xlink:href="#DejaVuSans-83"/>
      <use x="63.476562" xlink:href="#DejaVuSans-117"/>
      <use x="126.855469" xlink:href="#DejaVuSans-110"/>
     </g>
    </g>
    <g id="line2d_16">
     <path d="M 167.45625 181.112188 
L 187.45625 181.112188 
" style="fill:none;stroke:#32cd32;stroke-linecap:square;stroke-width:1.5;"/>
    </g>
    <g id="line2d_17"/>
    <g id="text_15">
     <!-- Earth -->
     <g transform="translate(195.45625 184.612188)scale(0.1 -0.1)">
      <defs>
       <path d="M 9.8125 72.90625 
L 55.90625 72.90625 
L 55.90625 64.59375 
L 19.671875 64.59375 
L 19.671875 43.015625 
L 54.390625 43.015625 
L 54.390625 34.71875 
L 19.671875 34.71875 
L 19.671875 8.296875 
L 56.78125 8.296875 
L 56.78125 0 
L 9.8125 0 
z
" id="DejaVuSans-69"/>
       <path d="M 34.28125 27.484375 
Q 23.390625 27.484375 19.1875 25 
Q 14.984375 22.515625 14.984375 16.5 
Q 14.984375 11.71875 18.140625 8.90625 
Q 21.296875 6.109375 26.703125 6.109375 
Q 34.1875 6.109375 38.703125 11.40625 
Q 43.21875 16.703125 43.21875 25.484375 
L 43.21875 27.484375 
z
M 52.203125 31.203125 
L 52.203125 0 
L 43.21875 0 
L 43.21875 8.296875 
Q 40.140625 3.328125 35.546875 0.953125 
Q 30.953125 -1.421875 24.3125 -1.421875 
Q 15.921875 -1.421875 10.953125 3.296875 
Q 6 8.015625 6 15.921875 
Q 6 25.140625 12.171875 29.828125 
Q 18.359375 34.515625 30.609375 34.515625 
L 43.21875 34.515625 
L 43.21875 35.40625 
Q 43.21875 41.609375 39.140625 45 
Q 35.0625 48.390625 27.6875 48.390625 
Q 23 48.390625 18.546875 47.265625 
Q 14.109375 46.140625 10.015625 43.890625 
L 10.015625 52.203125 
Q 14.9375 54.109375 19.578125 55.046875 
Q 24.21875 56 28.609375 56 
Q 40.484375 56 46.34375 49.84375 
Q 52.203125 43.703125 52.203125 31.203125 
z
" id="DejaVuSans-97"/>
       <path d="M 54.890625 33.015625 
L 54.890625 0 
L 45.90625 0 
L 45.90625 32.71875 
Q 45.90625 40.484375 42.875 44.328125 
Q 39.84375 48.1875 33.796875 48.1875 
Q 26.515625 48.1875 22.3125 43.546875 
Q 18.109375 38.921875 18.109375 30.90625 
L 18.109375 0 
L 9.078125 0 
L 9.078125 75.984375 
L 18.109375 75.984375 
L 18.109375 46.1875 
Q 21.34375 51.125 25.703125 53.5625 
Q 30.078125 56 35.796875 56 
Q 45.21875 56 50.046875 50.171875 
Q 54.890625 44.34375 54.890625 33.015625 
z
" id="DejaVuSans-104"/>
      </defs>
      <use xlink:href="#DejaVuSans-69"/>
      <use x="63.183594" xlink:href="#DejaVuSans-97"/>
      <use x="124.462891" xlink:href="#DejaVuSans-114"/>
      <use x="165.576172" xlink:href="#DejaVuSans-116"/>
      <use x="204.785156" xlink:href="#DejaVuSans-104"/>
     </g>
    </g>
    <g id="line2d_18">
     <path d="M 167.45625 195.790313 
L 187.45625 195.790313 
" style="fill:none;stroke:#ff8c00;stroke-linecap:square;stroke-width:1.5;"/>
    </g>
    <g id="line2d_19"/>
    <g id="text_16">
     <!-- Jupiter -->
     <g transform="translate(195.45625 199.290313)scale(0.1 -0.1)">
      <defs>
       <path d="M 9.8125 72.90625 
L 19.671875 72.90625 
L 19.671875 5.078125 
Q 19.671875 -8.109375 14.671875 -14.0625 
Q 9.671875 -20.015625 -1.421875 -20.015625 
L -5.171875 -20.015625 
L -5.171875 -11.71875 
L -2.09375 -11.71875 
Q 4.4375 -11.71875 7.125 -8.046875 
Q 9.8125 -4.390625 9.8125 5.078125 
z
" id="DejaVuSans-74"/>
       <path d="M 18.109375 8.203125 
L 18.109375 -20.796875 
L 9.078125 -20.796875 
L 9.078125 54.6875 
L 18.109375 54.6875 
L 18.109375 46.390625 
Q 20.953125 51.265625 25.265625 53.625 
Q 29.59375 56 35.59375 56 
Q 45.5625 56 51.78125 48.09375 
Q 58.015625 40.1875 58.015625 27.296875 
Q 58.015625 14.40625 51.78125 6.484375 
Q 45.5625 -1.421875 35.59375 -1.421875 
Q 29.59375 -1.421875 25.265625 0.953125 
Q 20.953125 3.328125 18.109375 8.203125 
z
M 48.6875 27.296875 
Q 48.6875 37.203125 44.609375 42.84375 
Q 40.53125 48.484375 33.40625 48.484375 
Q 26.265625 48.484375 22.1875 42.84375 
Q 18.109375 37.203125 18.109375 27.296875 
Q 18.109375 17.390625 22.1875 11.75 
Q 26.265625 6.109375 33.40625 6.109375 
Q 40.53125 6.109375 44.609375 11.75 
Q 48.6875 17.390625 48.6875 27.296875 
z
" id="DejaVuSans-112"/>
       <path d="M 56.203125 29.59375 
L 56.203125 25.203125 
L 14.890625 25.203125 
Q 15.484375 15.921875 20.484375 11.0625 
Q 25.484375 6.203125 34.421875 6.203125 
Q 39.59375 6.203125 44.453125 7.46875 
Q 49.3125 8.734375 54.109375 11.28125 
L 54.109375 2.78125 
Q 49.265625 0.734375 44.1875 -0.34375 
Q 39.109375 -1.421875 33.890625 -1.421875 
Q 20.796875 -1.421875 13.15625 6.1875 
Q 5.515625 13.8125 5.515625 26.8125 
Q 5.515625 40.234375 12.765625 48.109375 
Q 20.015625 56 32.328125 56 
Q 43.359375 56 49.78125 48.890625 
Q 56.203125 41.796875 56.203125 29.59375 
z
M 47.21875 32.234375 
Q 47.125 39.59375 43.09375 43.984375 
Q 39.0625 48.390625 32.421875 48.390625 
Q 24.90625 48.390625 20.390625 44.140625 
Q 15.875 39.890625 15.1875 32.171875 
z
" id="DejaVuSans-101"/>
      </defs>
      <use xlink:href="#DejaVuSans-74"/>
      <use x="29.492188" xlink:href="#DejaVuSans-117"/>
      <use x="92.871094" xlink:href="#DejaVuSans-112"/>
      <use x="156.347656" xlink:href="#DejaVuSans-105"/>
      <use x="184.130859" xlink:href="#DejaVuSans-116"/>
      <use x="223.339844" xlink:href="#DejaVuSans-101"/>
      <use x="284.863281" xlink:href="#DejaVuSans-114"/>
     </g>
    </g>
   </g>
  </g>
  <g id="axes_2">
   <g id="patch_8">
    <path d="M 297.229687 210.37 
L 485.279687 210.37 
L 485.279687 22.32 
L 297.229687 22.32 
z
" style="fill:#ffffff;"/>
   </g>
   <g id="matplotlib.axis_3">
    <g id="xtick_6">
     <g id="line2d_20">
      <g>
       <use style="stroke:#000000;stroke-width:0.8;" x="300.812521" xlink:href="#me16ea29102" y="210.37"/>
      </g>
     </g>
     <g id="text_17">
      <!-- −5 -->
      <g transform="translate(293.441427 224.968437)scale(0.1 -0.1)">
       <use xlink:href="#DejaVuSans-8722"/>
       <use x="83.789062" xlink:href="#DejaVuSans-53"/>
      </g>
     </g>
    </g>
    <g id="xtick_7">
     <g id="line2d_21">
      <g>
       <use style="stroke:#000000;stroke-width:0.8;" x="354.565117" xlink:href="#me16ea29102" y="210.37"/>
      </g>
     </g>
     <g id="text_18">
      <!-- 0 -->
      <g transform="translate(351.383867 224.968437)scale(0.1 -0.1)">
       <use xlink:href="#DejaVuSans-48"/>
      </g>
     </g>
    </g>
    <g id="xtick_8">
     <g id="line2d_22">
      <g>
       <use style="stroke:#000000;stroke-width:0.8;" x="408.317712" xlink:href="#me16ea29102" y="210.37"/>
      </g>
     </g>
     <g id="text_19">
      <!-- 5 -->
      <g transform="translate(405.136462 224.968437)scale(0.1 -0.1)">
       <use xlink:href="#DejaVuSans-53"/>
      </g>
     </g>
    </g>
    <g id="xtick_9">
     <g id="line2d_23">
      <g>
       <use style="stroke:#000000;stroke-width:0.8;" x="462.070308" xlink:href="#me16ea29102" y="210.37"/>
      </g>
     </g>
     <g id="text_20">
      <!-- 10 -->
      <g transform="translate(455.707808 224.968437)scale(0.1 -0.1)">
       <use xlink:href="#DejaVuSans-49"/>
       <use x="63.623047" xlink:href="#DejaVuSans-48"/>
      </g>
     </g>
    </g>
    <g id="text_21">
     <!-- $x$ [AU] -->
     <g transform="translate(375.704687 238.646563)scale(0.1 -0.1)">
      <use transform="translate(0 0.015625)" xlink:href="#DejaVuSans-Oblique-120"/>
      <use transform="translate(59.179688 0.015625)" xlink:href="#DejaVuSans-32"/>
      <use transform="translate(90.966797 0.015625)" xlink:href="#DejaVuSans-91"/>
      <use transform="translate(129.980469 0.015625)" xlink:href="#DejaVuSans-65"/>
      <use transform="translate(198.388672 0.015625)" xlink:href="#DejaVuSans-85"/>
      <use transform="translate(271.582031 0.015625)" xlink:href="#DejaVuSans-93"/>
     </g>
    </g>
   </g>
   <g id="matplotlib.axis_4">
    <g id="ytick_6">
     <g id="line2d_24">
      <g>
       <use style="stroke:#000000;stroke-width:0.8;" x="297.229687" xlink:href="#madac600367" y="198.594234"/>
      </g>
     </g>
     <g id="text_22">
      <!-- −2 -->
      <g transform="translate(275.4875 202.393453)scale(0.1 -0.1)">
       <use xlink:href="#DejaVuSans-8722"/>
       <use x="83.789062" xlink:href="#DejaVuSans-50"/>
      </g>
     </g>
    </g>
    <g id="ytick_7">
     <g id="line2d_25">
      <g>
       <use style="stroke:#000000;stroke-width:0.8;" x="297.229687" xlink:href="#madac600367" y="177.093196"/>
      </g>
     </g>
     <g id="text_23">
      <!-- 0 -->
      <g transform="translate(283.867187 180.892415)scale(0.1 -0.1)">
       <use xlink:href="#DejaVuSans-48"/>
      </g>
     </g>
    </g>
    <g id="ytick_8">
     <g id="line2d_26">
      <g>
       <use style="stroke:#000000;stroke-width:0.8;" x="297.229687" xlink:href="#madac600367" y="155.592158"/>
      </g>
     </g>
     <g id="text_24">
      <!-- 2 -->
      <g transform="translate(283.867187 159.391376)scale(0.1 -0.1)">
       <use xlink:href="#DejaVuSans-50"/>
      </g>
     </g>
    </g>
    <g id="ytick_9">
     <g id="line2d_27">
      <g>
       <use style="stroke:#000000;stroke-width:0.8;" x="297.229687" xlink:href="#madac600367" y="134.09112"/>
      </g>
     </g>
     <g id="text_25">
      <!-- 4 -->
      <g transform="translate(283.867187 137.890338)scale(0.1 -0.1)">
       <defs>
        <path d="M 37.796875 64.3125 
L 12.890625 25.390625 
L 37.796875 25.390625 
z
M 35.203125 72.90625 
L 47.609375 72.90625 
L 47.609375 25.390625 
L 58.015625 25.390625 
L 58.015625 17.1875 
L 47.609375 17.1875 
L 47.609375 0 
L 37.796875 0 
L 37.796875 17.1875 
L 4.890625 17.1875 
L 4.890625 26.703125 
z
" id="DejaVuSans-52"/>
       </defs>
       <use xlink:href="#DejaVuSans-52"/>
      </g>
     </g>
    </g>
    <g id="ytick_10">
     <g id="line2d_28">
      <g>
       <use style="stroke:#000000;stroke-width:0.8;" x="297.229687" xlink:href="#madac600367" y="112.590081"/>
      </g>
     </g>
     <g id="text_26">
      <!-- 6 -->
      <g transform="translate(283.867187 116.3893)scale(0.1 -0.1)">
       <defs>
        <path d="M 33.015625 40.375 
Q 26.375 40.375 22.484375 35.828125 
Q 18.609375 31.296875 18.609375 23.390625 
Q 18.609375 15.53125 22.484375 10.953125 
Q 26.375 6.390625 33.015625 6.390625 
Q 39.65625 6.390625 43.53125 10.953125 
Q 47.40625 15.53125 47.40625 23.390625 
Q 47.40625 31.296875 43.53125 35.828125 
Q 39.65625 40.375 33.015625 40.375 
z
M 52.59375 71.296875 
L 52.59375 62.3125 
Q 48.875 64.0625 45.09375 64.984375 
Q 41.3125 65.921875 37.59375 65.921875 
Q 27.828125 65.921875 22.671875 59.328125 
Q 17.53125 52.734375 16.796875 39.40625 
Q 19.671875 43.65625 24.015625 45.921875 
Q 28.375 48.1875 33.59375 48.1875 
Q 44.578125 48.1875 50.953125 41.515625 
Q 57.328125 34.859375 57.328125 23.390625 
Q 57.328125 12.15625 50.6875 5.359375 
Q 44.046875 -1.421875 33.015625 -1.421875 
Q 20.359375 -1.421875 13.671875 8.265625 
Q 6.984375 17.96875 6.984375 36.375 
Q 6.984375 53.65625 15.1875 63.9375 
Q 23.390625 74.21875 37.203125 74.21875 
Q 40.921875 74.21875 44.703125 73.484375 
Q 48.484375 72.75 52.59375 71.296875 
z
" id="DejaVuSans-54"/>
       </defs>
       <use xlink:href="#DejaVuSans-54"/>
      </g>
     </g>
    </g>
    <g id="ytick_11">
     <g id="line2d_29">
      <g>
       <use style="stroke:#000000;stroke-width:0.8;" x="297.229687" xlink:href="#madac600367" y="91.089043"/>
      </g>
     </g>
     <g id="text_27">
      <!-- 8 -->
      <g transform="translate(283.867187 94.888262)scale(0.1 -0.1)">
       <defs>
        <path d="M 31.78125 34.625 
Q 24.75 34.625 20.71875 30.859375 
Q 16.703125 27.09375 16.703125 20.515625 
Q 16.703125 13.921875 20.71875 10.15625 
Q 24.75 6.390625 31.78125 6.390625 
Q 38.8125 6.390625 42.859375 10.171875 
Q 46.921875 13.96875 46.921875 20.515625 
Q 46.921875 27.09375 42.890625 30.859375 
Q 38.875 34.625 31.78125 34.625 
z
M 21.921875 38.8125 
Q 15.578125 40.375 12.03125 44.71875 
Q 8.5 49.078125 8.5 55.328125 
Q 8.5 64.0625 14.71875 69.140625 
Q 20.953125 74.21875 31.78125 74.21875 
Q 42.671875 74.21875 48.875 69.140625 
Q 55.078125 64.0625 55.078125 55.328125 
Q 55.078125 49.078125 51.53125 44.71875 
Q 48 40.375 41.703125 38.8125 
Q 48.828125 37.15625 52.796875 32.3125 
Q 56.78125 27.484375 56.78125 20.515625 
Q 56.78125 9.90625 50.3125 4.234375 
Q 43.84375 -1.421875 31.78125 -1.421875 
Q 19.734375 -1.421875 13.25 4.234375 
Q 6.78125 9.90625 6.78125 20.515625 
Q 6.78125 27.484375 10.78125 32.3125 
Q 14.796875 37.15625 21.921875 38.8125 
z
M 18.3125 54.390625 
Q 18.3125 48.734375 21.84375 45.5625 
Q 25.390625 42.390625 31.78125 42.390625 
Q 38.140625 42.390625 41.71875 45.5625 
Q 45.3125 48.734375 45.3125 54.390625 
Q 45.3125 60.0625 41.71875 63.234375 
Q 38.140625 66.40625 31.78125 66.40625 
Q 25.390625 66.40625 21.84375 63.234375 
Q 18.3125 60.0625 18.3125 54.390625 
z
" id="DejaVuSans-56"/>
       </defs>
       <use xlink:href="#DejaVuSans-56"/>
      </g>
     </g>
    </g>
    <g id="ytick_12">
     <g id="line2d_30">
      <g>
       <use style="stroke:#000000;stroke-width:0.8;" x="297.229687" xlink:href="#madac600367" y="69.588005"/>
      </g>
     </g>
     <g id="text_28">
      <!-- 10 -->
      <g transform="translate(277.504687 73.387224)scale(0.1 -0.1)">
       <use xlink:href="#DejaVuSans-49"/>
       <use x="63.623047" xlink:href="#DejaVuSans-48"/>
      </g>
     </g>
    </g>
    <g id="ytick_13">
     <g id="line2d_31">
      <g>
       <use style="stroke:#000000;stroke-width:0.8;" x="297.229687" xlink:href="#madac600367" y="48.086967"/>
      </g>
     </g>
     <g id="text_29">
      <!-- 12 -->
      <g transform="translate(277.504687 51.886186)scale(0.1 -0.1)">
       <use xlink:href="#DejaVuSans-49"/>
       <use x="63.623047" xlink:href="#DejaVuSans-50"/>
      </g>
     </g>
    </g>
    <g id="ytick_14">
     <g id="line2d_32">
      <g>
       <use style="stroke:#000000;stroke-width:0.8;" x="297.229687" xlink:href="#madac600367" y="26.585929"/>
      </g>
     </g>
     <g id="text_30">
      <!-- 14 -->
      <g transform="translate(277.504687 30.385147)scale(0.1 -0.1)">
       <use xlink:href="#DejaVuSans-49"/>
       <use x="63.623047" xlink:href="#DejaVuSans-52"/>
      </g>
     </g>
    </g>
    <g id="text_31">
     <!-- $y$ [AU] -->
     <g transform="translate(269.3875 131.895)rotate(-90)scale(0.1 -0.1)">
      <use transform="translate(0 0.015625)" xlink:href="#DejaVuSans-Oblique-121"/>
      <use transform="translate(59.179688 0.015625)" xlink:href="#DejaVuSans-32"/>
      <use transform="translate(90.966797 0.015625)" xlink:href="#DejaVuSans-91"/>
      <use transform="translate(129.980469 0.015625)" xlink:href="#DejaVuSans-65"/>
      <use transform="translate(198.388672 0.015625)" xlink:href="#DejaVuSans-85"/>
      <use transform="translate(271.582031 0.015625)" xlink:href="#DejaVuSans-93"/>
     </g>
    </g>
   </g>
   <g id="line2d_33">
    <path clip-path="url(#pd0d789d740)" d="M 365.315636 177.093196 
L 365.198347 175.514503 
L 364.848995 173.970269 
L 364.275048 172.494228 
L 363.488865 171.11876 
L 362.507308 169.874058 
L 361.351602 168.787702 
L 360.046841 167.883878 
L 358.621307 167.182879 
L 357.106244 166.700723 
L 355.534972 166.448643 
L 353.942132 166.432903 
L 352.363229 166.654503 
L 350.833503 167.109154 
L 349.387308 167.787363 
L 348.057392 168.674418 
L 346.873889 169.750922 
L 345.863844 170.993006 
L 345.050401 172.372813 
L 344.452217 173.859456 
L 344.083105 175.419344 
L 343.951564 177.017135 
L 344.060664 178.616693 
L 344.407873 180.181679 
L 344.985193 181.676708 
L 345.779367 183.068023 
L 346.772072 184.324265 
L 347.940654 185.417391 
L 349.258412 186.323075 
L 350.695313 187.021407 
L 352.218986 187.497285 
L 353.795101 187.740663 
L 355.388366 187.746781 
L 356.963388 187.516147 
L 358.485243 187.054556 
L 359.920499 186.3728 
L 361.237709 185.486466 
L 362.408149 184.415572 
L 363.406489 183.183904 
L 364.211106 181.818801 
L 364.804683 180.350374 
L 365.174482 178.810703 
L 365.312572 177.233525 
L 365.216012 175.653292 
L 364.886853 174.104476 
L 364.332183 172.620997 
L 363.563878 171.235304 
L 362.598507 169.977935 
L 361.456946 168.876682 
L 360.163829 167.956032 
L 358.747417 167.236738 
L 357.2387 166.735151 
L 355.670737 166.462969 
L 354.078261 166.426866 
L 352.496646 166.628299 
L 350.961233 167.063456 
L 349.506564 167.723206 
L 348.165463 168.593379 
L 346.968462 169.65482 
L 345.942818 170.884027 
L 345.112039 172.25363 
L 344.495253 173.732678 
L 344.106638 175.287863 
L 343.955209 176.884033 
L 344.044445 178.484908 
L 344.372305 180.054244 
L 344.931231 181.556453 
L 345.708338 182.957582 
L 346.685817 184.2261 
L 347.841151 185.333522 
L 349.148034 186.255279 
L 350.576777 186.971043 
L 352.094881 187.465273 
L 353.668274 187.727521 
L 355.261729 187.752549 
L 356.839638 187.540513 
L 358.367141 187.096742 
L 359.810559 186.431674 
L 361.138228 185.560583 
L 362.321249 184.503045 
L 363.333866 183.282769 
L 364.154202 181.926803 
L 364.764592 180.464934 
L 365.151898 178.929352 
L 365.307828 177.353646 
L 365.229016 175.772202 
L 364.917187 174.219678 
L 364.379019 172.729962 
L 363.62606 171.335727 
L 362.674589 170.067694 
L 361.545078 168.953843 
L 360.262068 168.019039 
L 358.853563 167.284277 
L 357.350258 166.766267 
L 355.785267 166.477077 
L 354.193212 166.423735 
L 352.609422 166.608121 
L 351.069389 167.026754 
L 349.607674 167.670909 
L 348.257326 168.52673 
L 347.049059 169.575385 
L 346.010382 170.793725 
L 345.165153 172.154479 
L 344.532788 173.626979 
L 344.127854 175.178103 
L 343.959725 176.772664 
L 344.032273 178.374487 
L 344.34386 179.947264 
L 344.887268 181.455277 
L 345.650018 182.864479 
L 346.61453 184.143048 
L 347.758659 185.262326 
L 349.056358 186.197418 
L 350.477954 186.92765 
L 351.99126 187.437171 
L 353.562248 187.715148 
L 355.15561 187.756024 
L 356.735855 187.559553 
L 358.267932 187.130744 
L 359.718036 186.479733 
L 361.054396 185.621404 
L 362.247761 184.575244 
L 363.272254 183.36459 
L 364.105689 182.016246 
L 364.730054 180.560122 
L 365.131952 179.02811 
L 365.302736 177.453735 
L 365.238772 175.871517 
L 364.941427 174.315986 
L 364.417098 172.821226 
L 363.67706 171.420001 
L 362.737222 170.143149 
L 361.61799 169.018968 
L 360.343553 168.072427 
L 358.941656 167.324836 
L 357.443116 166.793214 
L 355.880772 166.489884 
L 354.289175 166.422245 
L 352.70378 166.592432 
L 351.159974 166.997332 
L 349.692528 167.628493 
L 348.334577 168.472341 
L 347.116997 169.510407 
L 346.067614 170.719591 
L 345.210427 172.072976 
L 344.5652 173.540102 
L 344.146795 175.087723 
L 343.964889 176.680911 
L 344.023721 178.283468 
L 344.321895 179.858946 
L 344.852578 181.371695 
L 345.603505 182.787408 
L 346.557381 184.074164 
L 347.692394 185.203104 
L 348.982443 186.148991 
L 350.398206 186.890985 
L 351.907635 187.412905 
L 353.476561 187.703639 
L 355.069849 187.757327 
L 356.651917 187.573416 
L 358.187601 187.156676 
L 359.643073 186.51692 
L 360.986299 185.6689 
L 362.187953 184.631804 
L 363.221917 183.428765 
L 364.065726 182.086654 
L 364.701205 180.635051 
L 365.114664 179.10581 
L 365.297231 177.532563 
L 365.245 175.949687 
L 364.959088 174.391826 
L 364.445676 172.893132 
L 363.715767 171.486425 
L 362.785157 170.202752 
L 361.67397 169.070478 
L 360.406224 168.114804 
L 359.009693 167.357261 
L 357.514904 166.815035 
L 355.954664 166.500735 
L 354.363577 166.421958 
L 352.776982 166.581114 
L 351.230382 166.97533 
L 349.758585 167.596383 
L 348.394824 168.430967 
L 347.170173 169.460719 
L 346.112543 170.66284 
L 345.246199 172.010545 
L 344.591111 173.473349 
L 344.162354 175.01829 
L 343.969883 176.610391 
L 344.018132 178.213421 
L 344.306012 179.791025 
L 344.826869 181.307346 
L 345.568693 182.728059 
L 346.514427 184.021088 
L 347.642263 185.157338 
L 348.926487 186.111515 
L 350.337785 186.862481 
L 351.844034 187.393858 
L 353.411347 187.694317 
L 355.004476 187.757763 
L 356.587805 187.583457 
L 358.126211 187.175907 
L 359.585645 186.544802 
L 360.934083 185.704631 
L 362.141987 184.674447 
L 363.183053 183.477381 
L 364.034749 182.139977 
L 364.678665 180.691826 
L 365.10139 179.165145 
L 365.29522 177.59449 
L 365.256131 176.0144 
L 364.985075 174.459465 
L 364.487932 172.96362 
L 363.775414 171.559622 
L 362.862647 170.278203 
L 361.768971 169.147729 
L 360.517588 168.193593 
L 359.134915 167.437702 
L 357.650494 166.898223 
L 356.096421 166.589038 
L 354.639658 166.515941 
L 353.180353 166.647683 
L 351.746541 166.983884 
L 350.366336 167.520258 
L 349.067598 168.248283 
L 347.87704 169.15515 
L 346.81961 170.223995 
L 345.917846 171.433767 
L 345.190883 172.759895 
L 344.653981 174.175001 
L 344.317966 175.649371 
L 344.18881 177.152106 
L 344.267673 178.652148 
L 344.550914 180.118993 
L 345.030532 181.523734 
L 345.763643 182.954028 
L 346.696179 184.247516 
L 347.804368 185.377356 
L 349.061378 186.321124 
L 350.438039 187.060856 
L 351.903816 187.583155 
L 353.427007 187.879002 
L 354.975145 187.943696 
L 356.515861 187.776812 
L 358.016958 187.382162 
L 359.446734 186.767841 
L 360.774775 185.946097 
L 361.972188 184.933391 
L 363.012325 183.750325 
L 363.871414 182.421287 
L 364.529114 180.974422 
L 364.969341 179.440896 
L 365.180683 177.854367 
L 365.157055 176.250365 
L 364.897919 174.665063 
L 364.408468 173.134611 
L 363.699587 171.693939 
L 362.787405 170.375788 
L 361.693012 169.209986 
L 360.44158 168.222557 
L 359.061761 167.435311 
L 357.584913 166.865438 
L 356.044101 166.525302 
L 354.473713 166.422408 
L 352.908579 166.559402 
L 351.38325 166.934246 
L 350.049162 167.481127 
L 348.80272 168.213601 
L 347.668137 169.119948 
L 346.668217 170.185364 
L 345.824043 171.391581 
L 345.154074 172.717251 
L 344.673785 174.138202 
L 344.395086 175.627379 
L 344.325199 177.155088 
L 344.466088 178.690243 
L 344.814049 180.200916 
L 345.417911 181.784113 
L 346.235486 183.262915 
L 347.238898 184.604155 
L 348.395442 185.781202 
L 349.669801 186.774632 
L 351.142247 187.629422 
L 352.668783 188.246787 
L 354.210629 188.626028 
L 355.733462 188.770889 
L 357.207431 188.688404 
L 358.606041 188.387277 
L 359.905211 187.876939 
L 361.082609 187.167284 
L 362.116147 186.268405 
L 362.922865 185.279812 
L 363.568506 184.14785 
L 364.031683 182.882749 
L 364.287944 181.496928 
L 364.316751 180.134205 
L 364.121678 178.701016 
L 363.724587 177.357179 
L 363.09141 176.00168 
L 362.296519 174.803361 
L 361.2682 173.666793 
L 360.146771 172.752805 
L 358.82976 171.981666 
L 357.529632 171.470942 
L 356.119517 171.156222 
L 354.643654 171.071174 
L 353.159898 171.232108 
L 351.72961 171.631338 
L 350.404943 172.23845 
L 349.220255 173.009132 
L 348.05652 174.029718 
L 346.987727 175.282319 
L 346.071699 176.725966 
L 345.345307 178.307189 
L 344.825361 179.970127 
L 344.498383 181.787027 
L 344.39959 183.564035 
L 344.51642 185.359673 
L 344.850862 187.102096 
L 345.393686 188.726946 
L 346.097335 190.120143 
L 346.899897 191.224004 
L 347.777653 192.057347 
L 348.672571 192.609978 
L 349.614976 192.926972 
L 350.550937 193.005021 
L 351.519283 192.853843 
L 352.463682 192.481661 
L 353.42486 191.8639 
L 354.392859 190.968356 
L 355.30125 189.820067 
L 356.129841 188.411379 
L 356.807343 186.840235 
L 357.347462 185.009393 
L 357.647947 183.232604 
L 357.729359 181.461967 
L 357.577628 179.795774 
L 357.214786 178.382491 
L 356.776915 177.425938 
L 356.306942 176.761087 
L 355.602774 176.153783 
L 354.642618 175.807378 
L 353.649756 175.874641 
L 352.830872 176.207266 
L 351.916121 176.867485 
L 351.06116 177.785779 
L 350.199059 179.081876 
L 349.464671 180.62628 
L 348.91092 182.310819 
L 348.540105 184.185661 
L 348.413431 186.007399 
L 348.523455 187.721693 
L 348.842966 189.201876 
L 349.314792 190.385006 
L 349.902591 191.30138 
L 350.581558 191.969658 
L 351.33294 192.400326 
L 352.095482 192.592921 
L 352.89795 192.576413 
L 353.729426 192.34531 
L 354.62877 191.855199 
L 355.532016 191.093187 
L 356.369923 190.09662 
L 357.167818 188.79252 
L 357.845832 187.231415 
L 358.333735 185.538076 
L 358.612612 183.775913 
L 358.669114 182.019869 
L 358.503476 180.364947 
L 358.150024 178.935195 
L 357.569015 177.603142 
L 356.994839 176.762547 
L 356.140306 175.97303 
L 355.374981 175.579668 
L 354.49714 175.405979 
L 353.62668 175.486165 
L 352.858714 175.753855 
L 351.933582 176.328267 
L 351.027206 177.19264 
L 350.229533 178.26806 
L 349.482641 179.673864 
L 348.892678 181.295665 
L 348.50703 183.032257 
L 348.345629 184.799584 
L 348.416583 186.525317 
L 348.69946 188.056822 
L 349.167086 189.382841 
L 349.762661 190.432344 
L 350.45597 191.227834 
L 351.225323 191.783145 
L 352.053545 192.105873 
L 352.926207 192.198341 
L 353.829792 192.057802 
L 354.750596 191.676447 
L 355.673167 191.040394 
L 356.578174 190.127908 
L 357.390713 188.987933 
L 358.087526 187.634705 
L 358.641636 186.078491 
L 358.99384 184.471252 
L 359.149884 182.722066 
L 359.075402 181.0439 
L 358.799224 179.548405 
L 358.295079 178.116145 
L 357.725784 177.095775 
L 357.105734 176.330362 
L 356.256902 175.641582 
L 355.550632 175.296284 
L 354.761463 175.106143 
L 353.953816 175.099589 
L 352.844351 175.38149 
L 351.929952 175.871865 
L 350.985931 176.653708 
L 350.124492 177.673172 
L 349.299422 179.050292 
L 348.695036 180.502194 
L 348.255717 182.13367 
L 348.026409 183.853678 
L 348.029466 185.580722 
L 348.254034 187.145398 
L 348.673198 188.530481 
L 349.268341 189.715172 
L 349.980273 190.628476 
L 350.782057 191.286295 
L 351.600347 191.679997 
L 352.465868 191.85815 
L 353.36589 191.819479 
L 354.287754 191.558482 
L 355.217926 191.065061 
L 356.140304 190.323263 
L 357.033843 189.309319 
L 357.818914 188.080853 
L 358.47107 186.653577 
L 358.960475 185.040034 
L 359.23047 183.411554 
L 359.283893 181.672963 
L 359.103553 180.066127 
L 358.747869 178.716338 
L 358.212557 177.501124 
L 357.538048 176.503179 
L 356.826953 175.794857 
L 355.904868 175.21521 
L 355.186292 174.963631 
L 354.425948 174.856742 
L 353.314393 174.966167 
L 352.335483 175.31539 
L 351.276142 175.975834 
L 350.277366 176.915306 
L 349.413245 178.060106 
L 348.630966 179.517031 
L 348.077204 181.025305 
L 347.70533 182.682586 
L 347.554521 184.403086 
L 347.632185 186.002065 
L 347.911856 187.457028 
L 348.375195 188.744221 
L 348.967924 189.780293 
L 349.661294 190.580427 
L 350.434248 191.153885 
L 351.270325 191.50531 
L 352.155645 191.634954 
L 353.077537 191.538924 
L 354.023342 191.20869 
L 354.978954 190.630098 
L 355.92726 189.781919 
L 356.788388 188.713555 
L 357.541504 187.44323 
L 358.162319 185.985529 
L 358.61967 184.351737 
L 358.855647 182.728043 
L 358.871008 181.010217 
L 358.655286 179.467242 
L 358.288826 178.240649 
L 357.784932 177.195506 
L 357.221347 176.405324 
L 356.441589 175.677433 
L 355.788603 175.286852 
L 355.049457 175.026087 
L 354.272918 174.924909 
L 353.157277 175.051667 
L 352.189544 175.407507 
L 351.145169 176.056241 
L 350.15117 176.964983 
L 349.274423 178.068208 
L 348.456002 179.475228 
L 347.794298 181.094393 
L 347.338934 182.836438 
L 347.110731 184.621619 
L 347.113863 186.3782 
L 347.341661 188.038872 
L 347.753643 189.470236 
L 348.31158 190.652952 
L 348.981074 191.562388 
L 349.659794 192.127092 
L 350.31378 192.398937 
L 350.921097 192.421475 
L 351.499183 192.215003 
L 352.032852 191.776288 
L 352.534298 191.053031 
L 352.984177 189.98418 
L 353.390891 188.389959 
L 353.784786 185.852483 
L 354.340982 180.554033 
L 354.557733 177.828724 
L 354.472154 177.501871 
L 353.970394 181.726061 
L 353.667496 185.849634 
L 353.775146 186.9452 
L 354.01444 187.421619 
L 354.342068 187.619356 
L 354.782363 187.610809 
L 355.373252 187.344879 
L 356.056646 186.779416 
L 356.793078 185.872719 
L 357.469335 184.684588 
L 358.019645 183.24332 
L 358.342433 181.76063 
L 358.433187 180.37945 
L 358.305733 179.012263 
L 357.94715 177.742942 
L 357.387976 176.677179 
L 356.737059 175.91178 
L 355.849889 175.284035 
L 355.145924 175.0115 
L 354.39943 174.891981 
L 353.312319 174.990468 
L 352.361238 175.332678 
L 351.343653 175.988663 
L 350.407743 176.927988 
L 349.636186 178.073146 
L 349.061885 179.346249 
L 348.692394 180.682552 
L 348.517963 182.169193 
L 348.575112 183.583495 
L 348.840791 184.886484 
L 349.295903 186.041742 
L 349.875284 186.951765 
L 350.599769 187.674277 
L 351.340705 188.114979 
L 352.129127 188.336587 
L 352.95009 188.335779 
L 353.789779 188.103294 
L 354.633254 187.622004 
L 355.398983 186.933021 
L 356.131081 185.974739 
L 356.743404 184.814188 
L 357.210121 183.46743 
L 357.493946 181.94477 
L 357.543333 180.483636 
L 357.398246 179.236498 
L 357.066178 178.080135 
L 356.565457 177.118014 
L 356.007892 176.473934 
L 355.180389 175.966343 
L 354.678203 175.842885 
L 353.682933 175.929935 
L 352.876832 176.303469 
L 352.014925 177.027682 
L 351.263301 178.011699 
L 350.672241 179.151154 
L 350.198634 180.561585 
L 349.930127 182.109869 
L 349.896465 183.55211 
L 350.085244 184.972898 
L 350.475682 186.195506 
L 350.999048 187.133755 
L 351.617363 187.815631 
L 352.304592 188.257239 
L 353.041147 188.46631 
L 353.810306 188.443249 
L 354.596244 188.18185 
L 355.381729 187.667997 
L 356.145294 186.877483 
L 356.804385 185.868744 
L 357.336232 184.665999 
L 357.713864 183.28909 
L 357.899641 181.753595 
L 357.857919 180.301987 
L 357.640665 179.083002 
L 357.254344 177.973742 
L 356.733486 177.06887 
L 356.194991 176.466954 
L 355.430577 175.964763 
L 354.464186 175.753033 
L 353.519374 175.927343 
L 352.762849 176.336123 
L 351.950954 177.084196 
L 351.24651 178.089154 
L 350.704307 179.249138 
L 350.291713 180.68069 
L 350.094386 182.245193 
L 350.13271 183.693535 
L 350.399777 185.107802 
L 350.825495 186.227267 
L 351.408919 187.1515 
L 352.081759 187.804594 
L 352.817249 188.203639 
L 353.533826 188.353715 
L 354.27201 188.294893 
L 355.017836 188.02235 
L 355.756088 187.525381 
L 356.46773 186.785582 
L 357.126448 185.773964 
L 357.648532 184.569037 
L 358.007346 183.194824 
L 358.166875 181.672548 
L 358.100362 180.247617 
L 357.794925 178.810648 
L 357.351774 177.724829 
L 356.787698 176.860028 
L 356.2323 176.30085 
L 355.481688 175.843979 
L 354.561546 175.636723 
L 353.63962 175.763686 
L 352.867808 176.126386 
L 352.015136 176.841018 
L 351.267436 177.838506 
L 350.693581 179.009631 
L 350.262313 180.465805 
L 350.072194 181.898019 
L 350.101883 183.40423 
L 350.348796 184.763162 
L 350.784877 185.947879 
L 351.33965 186.862575 
L 352.033997 187.579134 
L 352.735283 188.004318 
L 353.475726 188.211309 
L 354.239629 188.202427 
L 355.012121 187.974554 
L 355.777086 187.518534 
L 356.515138 186.818091 
L 357.19981 185.847033 
L 357.746157 184.684228 
L 358.129953 183.358031 
L 358.320764 181.895147 
L 358.296393 180.536483 
L 358.06408 179.18029 
L 357.600213 177.894175 
L 357.112852 177.064207 
L 356.360388 176.247814 
L 355.653145 175.797034 
L 354.787502 175.54747 
L 353.881059 175.589171 
L 353.078206 175.877033 
L 352.156014 176.532652 
L 351.332073 177.507875 
L 350.695358 178.683393 
L 350.261399 179.962948 
L 350.006381 181.453606 
L 349.984994 182.88036 
L 350.1949 184.326787 
L 350.615292 185.591791 
L 351.16956 186.574594 
L 351.816831 187.304147 
L 352.529519 187.798385 
L 353.287139 188.067393 
L 354.07252 188.114971 
L 354.869842 187.939338 
L 355.662443 187.532732 
L 356.430803 186.88054 
L 357.148865 185.958836 
L 357.729974 184.845376 
L 358.151884 183.571721 
L 358.388661 182.168377 
L 358.406065 180.667876 
L 358.212213 179.349945 
L 357.810269 178.10638 
L 357.210395 177.028755 
L 356.48612 176.229801 
L 355.818117 175.776935 
L 355.000359 175.490314 
L 354.116252 175.457615 
L 353.294616 175.670217 
L 352.311026 176.255712 
L 351.599977 176.956383 
L 350.943937 177.905179 
L 350.421756 179.02679 
L 350.025455 180.439901 
L 349.861593 181.845158 
L 349.922016 183.333512 
L 350.205795 184.680755 
L 350.686483 185.854293 
L 351.289542 186.755053 
L 351.978347 187.406856 
L 352.727409 187.824085 
L 353.516813 188.014056 
L 354.329463 187.978138 
L 355.148622 187.711871 
L 355.956067 187.204555 
L 356.729027 186.437477 
L 357.380532 185.481105 
L 357.938612 184.2465 
L 358.310639 182.837279 
L 358.452617 181.469967 
L 358.383669 180.058523 
L 358.073926 178.658315 
L 357.643348 177.62319 
L 357.125046 176.813464 
L 356.351318 176.041021 
L 355.654424 175.627947 
L 354.82966 175.394962 
L 353.967673 175.4051 
L 353.177841 175.632289 
L 352.224843 176.206649 
L 351.523146 176.887488 
L 350.864007 177.814521 
L 350.329871 178.918795 
L 349.915156 180.319979 
L 349.73341 181.7214 
L 349.777381 183.212334 
L 350.049559 184.566844 
L 350.523708 185.750333 
L 351.125247 186.661231 
L 351.816651 187.322234 
L 352.571671 187.746866 
L 353.370045 187.941834 
L 354.194217 187.907773 
L 355.027212 187.639528 
L 355.850286 187.125333 
L 356.640263 186.345253 
L 357.307207 185.369622 
L 357.832247 184.234301 
L 358.196172 182.974045 
L 358.378224 181.625196 
L 358.354729 180.229576 
L 358.098725 178.841652 
L 357.719201 177.811078 
L 357.254249 176.997102 
L 356.55328 176.199059 
L 355.912483 175.741294 
L 355.131484 175.430868 
L 354.276384 175.344921 
L 353.456224 175.489021 
L 352.432814 175.987628 
L 351.665433 176.632928 
L 350.93674 177.541051 
L 350.337229 178.640377 
L 349.854962 180.047847 
L 349.61546 181.463946 
L 349.594236 182.838363 
L 349.799588 184.24681 
L 350.217254 185.487976 
L 350.773523 186.455832 
L 351.427801 187.173492 
L 352.152375 187.654884 
L 352.926391 187.907038 
L 353.732421 187.930922 
L 354.55422 187.72173 
L 355.374484 187.268048 
L 356.172385 186.550278 
L 356.8594 185.633597 
L 357.468394 184.430776 
L 357.903381 183.03896 
L 358.109598 181.67164 
L 358.107235 180.241608 
L 357.922245 179.055857 
L 357.581945 177.996097 
L 357.139632 177.145573 
L 356.438223 176.299421 
L 355.771072 175.816171 
L 354.94514 175.510656 
L 354.056857 175.470285 
L 353.23839 175.672571 
L 352.25575 176.228846 
L 351.532961 176.895152 
L 350.847758 177.80287 
L 350.1928 179.091749 
L 349.76754 180.445558 
L 349.539268 181.963586 
L 349.545693 183.398102 
L 349.781992 184.823512 
L 350.221023 186.054712 
L 350.785872 186.998115 
L 351.434866 187.677949 
L 352.139192 188.108221 
L 352.877283 188.295019 
L 353.573108 188.250638 
L 354.269778 187.991808 
L 354.954162 187.505692 
L 355.611029 186.770743 
L 356.219205 185.751269 
L 356.704796 184.516242 
L 357.042756 183.074534 
L 357.188165 181.419072 
L 357.116068 180.040199 
L 356.823301 178.633471 
L 356.410212 177.628376 
L 355.898031 176.893697 
L 355.503173 176.542123 
L 354.976462 176.276813 
L 354.360207 176.204036 
L 353.785441 176.34019 
L 352.949887 176.886308 
L 352.197632 177.789973 
L 351.612932 178.885791 
L 351.130664 180.294993 
L 350.83725 181.858722 
L 350.756037 183.465786 
L 350.888549 185.041559 
L 351.229021 186.543804 
L 351.774573 187.970782 
L 352.594967 189.459735 
L 353.719273 191.023948 
L 355.066974 192.531659 
L 356.420709 193.743297 
L 357.954425 194.809704 
L 359.536727 195.622994 
L 361.218298 196.215397 
L 362.875012 196.559508 
L 364.694108 196.691342 
L 366.616333 196.573213 
L 368.573481 196.196539 
L 370.505346 195.579167 
L 372.36851 194.754367 
L 374.421658 193.579896 
L 376.328002 192.228856 
L 378.323027 190.525651 
L 380.129069 188.700951 
L 381.950536 186.548436 
L 383.735992 184.076245 
L 385.295257 181.553469 
L 386.776417 178.74986 
L 388.142762 175.683583 
L 389.362311 172.376641 
L 390.408255 168.853833 
L 391.210062 165.386778 
L 391.831454 161.746653 
L 392.25729 157.958486 
L 392.476886 154.047417 
L 392.483918 150.038141 
L 392.275741 145.953967 
L 391.826982 141.614158 
L 391.149781 137.258281 
L 390.252882 132.904196 
L 389.097069 128.391217 
L 387.675844 123.758662 
L 385.988308 119.043139 
L 384.038609 114.278082 
L 381.834464 109.493435 
L 379.386858 104.715918 
L 376.636136 99.844702 
L 373.66778 95.040034 
L 370.424459 90.209972 
L 366.848277 85.289391 
L 363.037204 80.425587 
L 358.941986 75.558875 
L 354.520613 70.652489 
L 349.814675 65.764153 
L 344.732976 60.811464 
L 339.281984 55.815275 
L 333.368948 50.703449 
L 326.741099 45.274844 
L 317.926364 38.369869 
L 309.368764 31.602665 
L 308.494034 30.867727 
L 308.494034 30.867727 
" style="fill:none;stroke:#32cd32;stroke-linecap:square;stroke-width:1.5;"/>
   </g>
   <g id="line2d_34">
    <path clip-path="url(#pd0d789d740)" d="M 410.467816 177.093196 
L 410.35546 173.55417 
L 410.018841 170.02937 
L 409.459303 166.532965 
L 408.679085 163.079015 
L 407.681303 159.681408 
L 406.469947 156.353812 
L 405.049862 153.109618 
L 403.426728 149.961885 
L 401.607038 146.923294 
L 399.598078 144.006091 
L 397.407892 141.222041 
L 395.045253 138.582381 
L 392.519633 136.097776 
L 389.841157 133.778272 
L 387.020575 131.633261 
L 384.069209 129.671438 
L 380.998916 127.900768 
L 377.822036 126.328452 
L 374.55135 124.9609 
L 371.20002 123.803699 
L 367.781546 122.861595 
L 364.309708 122.13847 
L 360.798509 121.637325 
L 357.262122 121.360267 
L 353.714835 121.308499 
L 350.170986 121.482315 
L 346.644915 121.881097 
L 343.150896 122.503315 
L 339.703087 123.346531 
L 336.315467 124.407412 
L 333.001783 125.681737 
L 329.827604 127.138462 
L 326.750453 128.791122 
L 323.782434 130.633297 
L 320.935232 132.657816 
L 318.220059 134.856786 
L 315.647617 137.221622 
L 313.228049 139.743079 
L 310.970901 142.41129 
L 308.885084 145.215803 
L 306.978832 148.145626 
L 305.652504 150.541881 
L 304.639138 152.843067 
L 303.824396 155.240708 
L 303.214359 157.726478 
L 302.815653 160.291909 
L 302.635527 162.928249 
L 302.678218 165.562937 
L 302.945175 168.247384 
L 303.430678 170.906457 
L 304.147638 173.59343 
L 305.07985 176.231001 
L 306.252374 178.872618 
L 307.637852 181.43922 
L 309.229048 183.917608 
L 311.018453 186.294558 
L 312.998178 188.556741 
L 315.159836 190.690634 
L 317.494391 192.682454 
L 319.991972 194.518103 
L 322.641661 196.183133 
L 325.33773 197.617361 
L 328.14567 198.8619 
L 331.049898 199.904153 
L 334.032809 200.73194 
L 336.95445 201.314662 
L 339.900784 201.679061 
L 342.848341 201.82003 
L 345.771592 201.735286 
L 348.643235 201.426169 
L 351.434775 200.898475 
L 354.117409 200.163222 
L 356.663279 199.237135 
L 359.046937 198.142808 
L 361.382435 196.824375 
L 363.508136 195.373392 
L 365.533797 193.71868 
L 367.314745 191.987766 
L 368.955839 190.093748 
L 370.433938 188.05264 
L 371.729342 185.885408 
L 372.827172 183.616921 
L 373.718261 181.274464 
L 374.399432 178.885984 
L 374.897563 176.317992 
L 375.168787 173.758304 
L 375.223836 171.076557 
L 375.058573 168.458522 
L 374.668208 165.777268 
L 374.04487 163.06597 
L 373.187017 160.357094 
L 372.098615 157.681218 
L 370.788058 155.066285 
L 369.267102 152.536887 
L 367.549899 150.114528 
L 365.65206 147.817413 
L 363.590052 145.66091 
L 361.29784 143.588064 
L 358.872301 141.696246 
L 356.332025 139.993237 
L 353.609852 138.440609 
L 350.808957 137.103233 
L 347.947319 135.983864 
L 345.0421 135.084493 
L 342.109775 134.406521 
L 339.166273 133.950905 
L 336.22711 133.718246 
L 333.307517 133.708871 
L 330.422572 133.92287 
L 327.65496 134.346968 
L 324.945674 134.984268 
L 322.309467 135.834969 
L 319.818935 136.872157 
L 317.478529 138.083241 
L 315.242286 139.491308 
L 313.172094 141.058232 
L 311.272221 142.773481 
L 309.546983 144.627204 
L 308.000824 146.610099 
L 306.638398 148.713284 
L 305.464635 150.928185 
L 304.484809 153.246421 
L 303.704606 155.659689 
L 303.130196 158.159649 
L 302.768304 160.737794 
L 302.627038 163.32302 
L 302.703065 165.965792 
L 303.004653 168.656879 
L 303.525336 171.320916 
L 304.278972 174.011191 
L 305.248554 176.650187 
L 306.426847 179.225268 
L 307.845951 181.789521 
L 309.471513 184.263546 
L 311.296036 186.633945 
L 313.311629 188.887178 
L 315.50988 191.009478 
L 317.881698 192.986776 
L 320.41712 194.804645 
L 323.017566 196.398941 
L 325.743846 197.813277 
L 328.581863 199.034582 
L 331.515715 200.049937 
L 334.41264 200.820898 
L 337.35453 201.377788 
L 340.319629 201.713272 
L 343.283949 201.822204 
L 346.221378 201.70237 
L 349.103988 201.355333 
L 351.902652 200.787301 
L 354.58801 200.009899 
L 357.131775 199.040686 
L 359.508294 197.903241 
L 361.83076 196.540129 
L 363.938135 195.046637 
L 365.939169 193.350167 
L 367.691237 191.58202 
L 369.298106 189.653857 
L 370.737275 187.58285 
L 371.990002 185.39094 
L 373.042613 183.103671 
L 373.887269 180.748617 
L 374.522101 178.353672 
L 374.972186 175.785057 
L 375.197907 173.230485 
L 375.208214 170.559391 
L 375.002476 167.956227 
L 374.574067 165.294117 
L 373.915862 162.605547 
L 373.0268 159.922267 
L 371.911078 157.274103 
L 370.577143 154.688204 
L 369.036651 152.188638 
L 367.303508 149.79629 
L 365.393067 147.529002 
L 363.240433 145.32452 
L 360.939101 143.290146 
L 358.507797 141.435457 
L 355.964693 139.768118 
L 353.242287 138.250702 
L 350.443528 136.946853 
L 347.586082 135.859364 
L 344.686848 134.990284 
L 341.762085 134.341086 
L 338.827542 133.912802 
L 335.898588 133.706111 
L 332.990338 133.721415 
L 330.117776 133.958877 
L 327.295879 134.418453 
L 324.603733 135.081313 
L 321.985724 135.956384 
L 319.513975 137.01628 
L 317.192893 138.248559 
L 314.976969 139.676886 
L 312.927625 141.262724 
L 311.049131 142.995635 
L 309.345811 144.865842 
L 307.822136 146.8641 
L 306.482787 148.981573 
L 305.332734 151.209716 
L 304.377297 153.540165 
L 303.622221 155.964618 
L 303.073738 158.474721 
L 302.738648 161.061938 
L 302.624487 163.654946 
L 302.728623 166.304365 
L 303.059426 169.000878 
L 303.609803 171.668923 
L 304.394413 174.361792 
L 305.395571 177.001786 
L 306.606073 179.57618 
L 308.05893 182.137861 
L 309.719004 184.607269 
L 311.578811 186.970821 
L 313.630456 189.214758 
L 315.865501 191.325057 
L 318.274796 193.287349 
L 320.766787 195.034096 
L 323.397468 196.611128 
L 326.154069 198.005091 
L 329.022245 199.202591 
L 331.876604 200.158304 
L 334.794805 200.905983 
L 337.756877 201.436567 
L 340.740605 201.742602 
L 343.721468 201.818906 
L 346.672742 201.663347 
L 349.426684 201.301774 
L 352.229967 200.705166 
L 354.916771 199.897957 
L 357.458517 198.898307 
L 359.829425 197.730517 
L 362.142063 196.336072 
L 364.235887 194.812903 
L 366.218938 193.087444 
L 367.950106 191.293614 
L 369.532409 189.342083 
L 370.943824 187.250815 
L 372.166323 185.0424 
L 373.1871 182.742805 
L 373.999247 180.379766 
L 374.634588 177.820551 
L 375.037086 175.252585 
L 375.217919 172.704201 
L 375.1843 170.044673 
L 374.91838 167.307514 
L 374.44184 164.671065 
L 373.739649 162.012585 
L 372.811282 159.36291 
L 371.661233 156.750837 
L 370.297983 154.202709 
L 368.733018 151.741733 
L 366.979966 149.388189 
L 364.975069 147.074838 
L 362.80742 144.91857 
L 360.495646 142.931037 
L 358.05793 141.121541 
L 355.42675 139.447575 
L 352.704537 137.981016 
L 349.909444 136.725611 
L 347.058483 135.684152 
L 344.168229 134.858865 
L 341.174828 134.237724 
L 338.177953 133.847956 
L 335.268835 133.690606 
L 332.382545 133.752895 
L 329.53405 134.035024 
L 326.738069 134.537045 
L 324.072776 135.239358 
L 321.483231 136.152114 
L 319.040927 137.24715 
L 316.697569 138.544266 
L 314.517339 140.007618 
L 312.504524 141.62617 
L 310.663492 143.389659 
L 308.998657 145.288381 
L 307.514517 147.313148 
L 306.215681 149.455262 
L 305.107204 151.706239 
L 304.194541 154.057744 
L 303.483573 156.501421 
L 302.980641 159.028862 
L 302.692602 161.631549 
L 302.626014 164.237775 
L 302.779489 166.898403 
L 303.16159 169.603915 
L 303.261054 170.123506 
L 303.261054 170.123506 
" style="fill:none;stroke:#ff8c00;stroke-linecap:square;stroke-width:1.5;"/>
   </g>
   <g id="line2d_35">
    <defs>
     <path d="M 0 3 
C 0.795609 3 1.55874 2.683901 2.12132 2.12132 
C 2.683901 1.55874 3 0.795609 3 0 
C 3 -0.795609 2.683901 -1.55874 2.12132 -2.12132 
C 1.55874 -2.683901 0.795609 -3 0 -3 
C -0.795609 -3 -1.55874 -2.683901 -2.12132 -2.12132 
C -2.683901 -1.55874 -3 -0.795609 -3 0 
C -3 0.795609 -2.683901 1.55874 -2.12132 2.12132 
C -1.55874 2.683901 -0.795609 3 0 3 
z
" id="mb041e9aa5a" style="stroke:#ff0000;"/>
    </defs>
    <g clip-path="url(#pd0d789d740)">
     <use style="fill:#ff0000;stroke:#ff0000;" x="354.565117" xlink:href="#mb041e9aa5a" y="177.093196"/>
    </g>
   </g>
   <g id="patch_9">
    <path d="M 297.229687 210.37 
L 297.229687 22.32 
" style="fill:none;stroke:#000000;stroke-linecap:square;stroke-linejoin:miter;stroke-width:0.8;"/>
   </g>
   <g id="patch_10">
    <path d="M 485.279687 210.37 
L 485.279687 22.32 
" style="fill:none;stroke:#000000;stroke-linecap:square;stroke-linejoin:miter;stroke-width:0.8;"/>
   </g>
   <g id="patch_11">
    <path d="M 297.229687 210.37 
L 485.279687 210.37 
" style="fill:none;stroke:#000000;stroke-linecap:square;stroke-linejoin:miter;stroke-width:0.8;"/>
   </g>
   <g id="patch_12">
    <path d="M 297.229687 22.32 
L 485.279687 22.32 
" style="fill:none;stroke:#000000;stroke-linecap:square;stroke-linejoin:miter;stroke-width:0.8;"/>
   </g>
   <g id="text_32">
    <!-- Sun-centered view -->
    <g transform="translate(335.282187 16.32)scale(0.12 -0.12)">
     <defs>
      <path d="M 4.890625 31.390625 
L 31.203125 31.390625 
L 31.203125 23.390625 
L 4.890625 23.390625 
z
" id="DejaVuSans-45"/>
      <path d="M 48.78125 52.59375 
L 48.78125 44.1875 
Q 44.96875 46.296875 41.140625 47.34375 
Q 37.3125 48.390625 33.40625 48.390625 
Q 24.65625 48.390625 19.8125 42.84375 
Q 14.984375 37.3125 14.984375 27.296875 
Q 14.984375 17.28125 19.8125 11.734375 
Q 24.65625 6.203125 33.40625 6.203125 
Q 37.3125 6.203125 41.140625 7.25 
Q 44.96875 8.296875 48.78125 10.40625 
L 48.78125 2.09375 
Q 45.015625 0.34375 40.984375 -0.53125 
Q 36.96875 -1.421875 32.421875 -1.421875 
Q 20.0625 -1.421875 12.78125 6.34375 
Q 5.515625 14.109375 5.515625 27.296875 
Q 5.515625 40.671875 12.859375 48.328125 
Q 20.21875 56 33.015625 56 
Q 37.15625 56 41.109375 55.140625 
Q 45.0625 54.296875 48.78125 52.59375 
z
" id="DejaVuSans-99"/>
      <path d="M 45.40625 46.390625 
L 45.40625 75.984375 
L 54.390625 75.984375 
L 54.390625 0 
L 45.40625 0 
L 45.40625 8.203125 
Q 42.578125 3.328125 38.25 0.953125 
Q 33.9375 -1.421875 27.875 -1.421875 
Q 17.96875 -1.421875 11.734375 6.484375 
Q 5.515625 14.40625 5.515625 27.296875 
Q 5.515625 40.1875 11.734375 48.09375 
Q 17.96875 56 27.875 56 
Q 33.9375 56 38.25 53.625 
Q 42.578125 51.265625 45.40625 46.390625 
z
M 14.796875 27.296875 
Q 14.796875 17.390625 18.875 11.75 
Q 22.953125 6.109375 30.078125 6.109375 
Q 37.203125 6.109375 41.296875 11.75 
Q 45.40625 17.390625 45.40625 27.296875 
Q 45.40625 37.203125 41.296875 42.84375 
Q 37.203125 48.484375 30.078125 48.484375 
Q 22.953125 48.484375 18.875 42.84375 
Q 14.796875 37.203125 14.796875 27.296875 
z
" id="DejaVuSans-100"/>
      <path d="M 2.984375 54.6875 
L 12.5 54.6875 
L 29.59375 8.796875 
L 46.6875 54.6875 
L 56.203125 54.6875 
L 35.6875 0 
L 23.484375 0 
z
" id="DejaVuSans-118"/>
      <path d="M 4.203125 54.6875 
L 13.1875 54.6875 
L 24.421875 12.015625 
L 35.59375 54.6875 
L 46.1875 54.6875 
L 57.421875 12.015625 
L 68.609375 54.6875 
L 77.59375 54.6875 
L 63.28125 0 
L 52.6875 0 
L 40.921875 44.828125 
L 29.109375 0 
L 18.5 0 
z
" id="DejaVuSans-119"/>
     </defs>
     <use xlink:href="#DejaVuSans-83"/>
     <use x="63.476562" xlink:href="#DejaVuSans-117"/>
     <use x="126.855469" xlink:href="#DejaVuSans-110"/>
     <use x="190.234375" xlink:href="#DejaVuSans-45"/>
     <use x="226.318359" xlink:href="#DejaVuSans-99"/>
     <use x="281.298828" xlink:href="#DejaVuSans-101"/>
     <use x="342.822266" xlink:href="#DejaVuSans-110"/>
     <use x="406.201172" xlink:href="#DejaVuSans-116"/>
     <use x="445.410156" xlink:href="#DejaVuSans-101"/>
     <use x="506.933594" xlink:href="#DejaVuSans-114"/>
     <use x="545.796875" xlink:href="#DejaVuSans-101"/>
     <use x="607.320312" xlink:href="#DejaVuSans-100"/>
     <use x="670.796875" xlink:href="#DejaVuSans-32"/>
     <use x="702.583984" xlink:href="#DejaVuSans-118"/>
     <use x="761.763672" xlink:href="#DejaVuSans-105"/>
     <use x="789.546875" xlink:href="#DejaVuSans-101"/>
     <use x="851.070312" xlink:href="#DejaVuSans-119"/>
    </g>
   </g>
  </g>
 </g>
 <defs>
  <clipPath id="p6fd32ea5ed">
   <rect height="188.05" width="188.05" x="49.004688" y="22.32"/>
  </clipPath>
  <clipPath id="pd0d789d740">
   <rect height="188.05" width="188.05" x="297.229687" y="22.32"/>
  </clipPath>
 </defs>
</svg>
