<?xml version="1.0" encoding="utf-8" standalone="no"?>
<!DOCTYPE svg PUBLIC "-//W3C//DTD SVG 1.1//EN"
  "http://www.w3.org/Graphics/SVG/1.1/DTD/svg11.dtd">
<!-- Created with matplotlib (https://matplotlib.org/) -->
<svg height="207.274375pt" version="1.1" viewBox="0 0 490.263998 207.274375" width="490.263998pt" xmlns="http://www.w3.org/2000/svg" xmlns:xlink="http://www.w3.org/1999/xlink">
 <metadata>
  <rdf:RDF xmlns:cc="http://creativecommons.org/ns#" xmlns:dc="http://purl.org/dc/elements/1.1/" xmlns:rdf="http://www.w3.org/1999/02/22-rdf-syntax-ns#">
   <cc:Work>
    <dc:type rdf:resource="http://purl.org/dc/dcmitype/StillImage"/>
    <dc:date>2021-08-03T01:54:36.921555</dc:date>
    <dc:format>image/svg+xml</dc:format>
    <dc:creator>
     <cc:Agent>
      <dc:title>Matplotlib v3.3.4, https://matplotlib.org/</dc:title>
     </cc:Agent>
    </dc:creator>
   </cc:Work>
  </rdf:RDF>
 </metadata>
 <defs>
  <style type="text/css">*{stroke-linecap:butt;stroke-linejoin:round;}</style>
 </defs>
 <g id="figure_1">
  <g id="patch_1">
   <path d="M 0 207.274375 
L 490.263998 207.274375 
L 490.263998 0 
L 0 0 
z
" style="fill:#ffffff;"/>
  </g>
  <g id="axes_1">
   <g id="patch_2">
    <path d="M 43.78125 169.718125 
L 236.463998 169.718125 
L 236.463998 22.318125 
L 43.78125 22.318125 
z
" style="fill:#ffffff;"/>
   </g>
   <g id="patch_3">
    <path clip-path="url(#pad561a7108)" d="M 54.058522 169.718125 
L 62.173051 169.718125 
L 62.173051 83.857767 
L 54.058522 83.857767 
z
" style="fill:#ffa07a;"/>
   </g>
   <g id="patch_4">
    <path clip-path="url(#pad561a7108)" d="M 62.173051 169.718125 
L 70.28758 169.718125 
L 70.28758 8.098627 
L 62.173051 8.098627 
z
" style="fill:#ffa07a;"/>
   </g>
   <g id="patch_5">
    <path clip-path="url(#pad561a7108)" d="M 70.28758 169.718125 
L 78.402109 169.718125 
L 78.402109 33.351674 
L 70.28758 33.351674 
z
" style="fill:#ffa07a;"/>
   </g>
   <g id="patch_6">
    <path clip-path="url(#pad561a7108)" d="M 78.402109 169.718125 
L 86.516638 169.718125 
L 86.516638 96.48429 
L 78.402109 96.48429 
z
" style="fill:#ffa07a;"/>
   </g>
   <g id="patch_7">
    <path clip-path="url(#pad561a7108)" d="M 86.516638 169.718125 
L 94.631166 169.718125 
L 94.631166 78.807158 
L 86.516638 78.807158 
z
" style="fill:#ffa07a;"/>
   </g>
   <g id="patch_8">
    <path clip-path="url(#pad561a7108)" d="M 94.631166 169.718125 
L 102.745695 169.718125 
L 102.745695 101.534899 
L 94.631166 101.534899 
z
" style="fill:#ffa07a;"/>
   </g>
   <g id="patch_9">
    <path clip-path="url(#pad561a7108)" d="M 102.745695 169.718125 
L 110.860224 169.718125 
L 110.860224 129.313251 
L 102.745695 129.313251 
z
" style="fill:#ffa07a;"/>
   </g>
   <g id="patch_10">
    <path clip-path="url(#pad561a7108)" d="M 110.860224 169.718125 
L 118.974753 169.718125 
L 118.974753 126.787946 
L 110.860224 126.787946 
z
" style="fill:#ffa07a;"/>
   </g>
   <g id="patch_11">
    <path clip-path="url(#pad561a7108)" d="M 118.974753 169.718125 
L 127.089282 169.718125 
L 127.089282 149.515688 
L 118.974753 149.515688 
z
" style="fill:#ffa07a;"/>
   </g>
   <g id="patch_12">
    <path clip-path="url(#pad561a7108)" d="M 127.089282 169.718125 
L 135.20381 169.718125 
L 135.20381 162.142211 
L 127.089282 162.142211 
z
" style="fill:#ffa07a;"/>
   </g>
   <g id="patch_13">
    <path clip-path="url(#pad561a7108)" d="M 135.20381 169.718125 
L 143.318339 169.718125 
L 143.318339 159.616906 
L 135.20381 159.616906 
z
" style="fill:#ffa07a;"/>
   </g>
   <g id="patch_14">
    <path clip-path="url(#pad561a7108)" d="M 143.318339 169.718125 
L 151.432868 169.718125 
L 151.432868 164.667516 
L 143.318339 164.667516 
z
" style="fill:#ffa07a;"/>
   </g>
   <g id="patch_15">
    <path clip-path="url(#pad561a7108)" d="M 151.432868 169.718125 
L 159.547397 169.718125 
L 159.547397 164.667516 
L 151.432868 164.667516 
z
" style="fill:#ffa07a;"/>
   </g>
   <g id="patch_16">
    <path clip-path="url(#pad561a7108)" d="M 159.547397 169.718125 
L 167.661926 169.718125 
L 167.661926 167.19282 
L 159.547397 167.19282 
z
" style="fill:#ffa07a;"/>
   </g>
   <g id="patch_17">
    <path clip-path="url(#pad561a7108)" d="M 167.661926 169.718125 
L 175.776454 169.718125 
L 175.776454 167.19282 
L 167.661926 167.19282 
z
" style="fill:#ffa07a;"/>
   </g>
   <g id="patch_18">
    <path clip-path="url(#pad561a7108)" d="M 175.776454 169.718125 
L 183.890983 169.718125 
L 183.890983 169.718125 
L 175.776454 169.718125 
z
" style="fill:#ffa07a;"/>
   </g>
   <g id="patch_19">
    <path clip-path="url(#pad561a7108)" d="M 183.890983 169.718125 
L 192.005512 169.718125 
L 192.005512 167.19282 
L 183.890983 167.19282 
z
" style="fill:#ffa07a;"/>
   </g>
   <g id="patch_20">
    <path clip-path="url(#pad561a7108)" d="M 192.005512 169.718125 
L 200.120041 169.718125 
L 200.120041 169.718125 
L 192.005512 169.718125 
z
" style="fill:#ffa07a;"/>
   </g>
   <g id="patch_21">
    <path clip-path="url(#pad561a7108)" d="M 200.120041 169.718125 
L 208.23457 169.718125 
L 208.23457 169.718125 
L 200.120041 169.718125 
z
" style="fill:#ffa07a;"/>
   </g>
   <g id="patch_22">
    <path clip-path="url(#pad561a7108)" d="M 208.23457 169.718125 
L 216.349098 169.718125 
L 216.349098 167.19282 
L 208.23457 167.19282 
z
" style="fill:#ffa07a;"/>
   </g>
   <g id="matplotlib.axis_1">
    <g id="xtick_1">
     <g id="line2d_1">
      <defs>
       <path d="M 0 0 
L 0 3.5 
" id="m59ed1487c7" style="stroke:#000000;stroke-width:0.8;"/>
      </defs>
      <g>
       <use style="stroke:#000000;stroke-width:0.8;" x="52.539557" xlink:href="#m59ed1487c7" y="169.718125"/>
      </g>
     </g>
     <g id="text_1">
      <!-- 0 -->
      <g transform="translate(49.358307 184.316562)scale(0.1 -0.1)">
       <defs>
        <path d="M 31.78125 66.40625 
Q 24.171875 66.40625 20.328125 58.90625 
Q 16.5 51.421875 16.5 36.375 
Q 16.5 21.390625 20.328125 13.890625 
Q 24.171875 6.390625 31.78125 6.390625 
Q 39.453125 6.390625 43.28125 13.890625 
Q 47.125 21.390625 47.125 36.375 
Q 47.125 51.421875 43.28125 58.90625 
Q 39.453125 66.40625 31.78125 66.40625 
z
M 31.78125 74.21875 
Q 44.046875 74.21875 50.515625 64.515625 
Q 56.984375 54.828125 56.984375 36.375 
Q 56.984375 17.96875 50.515625 8.265625 
Q 44.046875 -1.421875 31.78125 -1.421875 
Q 19.53125 -1.421875 13.0625 8.265625 
Q 6.59375 17.96875 6.59375 36.375 
Q 6.59375 54.828125 13.0625 64.515625 
Q 19.53125 74.21875 31.78125 74.21875 
z
" id="DejaVuSans-48"/>
       </defs>
       <use xlink:href="#DejaVuSans-48"/>
      </g>
     </g>
    </g>
    <g id="xtick_2">
     <g id="line2d_2">
      <g>
       <use style="stroke:#000000;stroke-width:0.8;" x="87.572784" xlink:href="#m59ed1487c7" y="169.718125"/>
      </g>
     </g>
     <g id="text_2">
      <!-- 2 -->
      <g transform="translate(84.391534 184.316562)scale(0.1 -0.1)">
       <defs>
        <path d="M 19.1875 8.296875 
L 53.609375 8.296875 
L 53.609375 0 
L 7.328125 0 
L 7.328125 8.296875 
Q 12.9375 14.109375 22.625 23.890625 
Q 32.328125 33.6875 34.8125 36.53125 
Q 39.546875 41.84375 41.421875 45.53125 
Q 43.3125 49.21875 43.3125 52.78125 
Q 43.3125 58.59375 39.234375 62.25 
Q 35.15625 65.921875 28.609375 65.921875 
Q 23.96875 65.921875 18.8125 64.3125 
Q 13.671875 62.703125 7.8125 59.421875 
L 7.8125 69.390625 
Q 13.765625 71.78125 18.9375 73 
Q 24.125 74.21875 28.421875 74.21875 
Q 39.75 74.21875 46.484375 68.546875 
Q 53.21875 62.890625 53.21875 53.421875 
Q 53.21875 48.921875 51.53125 44.890625 
Q 49.859375 40.875 45.40625 35.40625 
Q 44.1875 33.984375 37.640625 27.21875 
Q 31.109375 20.453125 19.1875 8.296875 
z
" id="DejaVuSans-50"/>
       </defs>
       <use xlink:href="#DejaVuSans-50"/>
      </g>
     </g>
    </g>
    <g id="xtick_3">
     <g id="line2d_3">
      <g>
       <use style="stroke:#000000;stroke-width:0.8;" x="122.606011" xlink:href="#m59ed1487c7" y="169.718125"/>
      </g>
     </g>
     <g id="text_3">
      <!-- 4 -->
      <g transform="translate(119.424761 184.316562)scale(0.1 -0.1)">
       <defs>
        <path d="M 37.796875 64.3125 
L 12.890625 25.390625 
L 37.796875 25.390625 
z
M 35.203125 72.90625 
L 47.609375 72.90625 
L 47.609375 25.390625 
L 58.015625 25.390625 
L 58.015625 17.1875 
L 47.609375 17.1875 
L 47.609375 0 
L 37.796875 0 
L 37.796875 17.1875 
L 4.890625 17.1875 
L 4.890625 26.703125 
z
" id="DejaVuSans-52"/>
       </defs>
       <use xlink:href="#DejaVuSans-52"/>
      </g>
     </g>
    </g>
    <g id="xtick_4">
     <g id="line2d_4">
      <g>
       <use style="stroke:#000000;stroke-width:0.8;" x="157.639237" xlink:href="#m59ed1487c7" y="169.718125"/>
      </g>
     </g>
     <g id="text_4">
      <!-- 6 -->
      <g transform="translate(154.457987 184.316562)scale(0.1 -0.1)">
       <defs>
        <path d="M 33.015625 40.375 
Q 26.375 40.375 22.484375 35.828125 
Q 18.609375 31.296875 18.609375 23.390625 
Q 18.609375 15.53125 22.484375 10.953125 
Q 26.375 6.390625 33.015625 6.390625 
Q 39.65625 6.390625 43.53125 10.953125 
Q 47.40625 15.53125 47.40625 23.390625 
Q 47.40625 31.296875 43.53125 35.828125 
Q 39.65625 40.375 33.015625 40.375 
z
M 52.59375 71.296875 
L 52.59375 62.3125 
Q 48.875 64.0625 45.09375 64.984375 
Q 41.3125 65.921875 37.59375 65.921875 
Q 27.828125 65.921875 22.671875 59.328125 
Q 17.53125 52.734375 16.796875 39.40625 
Q 19.671875 43.65625 24.015625 45.921875 
Q 28.375 48.1875 33.59375 48.1875 
Q 44.578125 48.1875 50.953125 41.515625 
Q 57.328125 34.859375 57.328125 23.390625 
Q 57.328125 12.15625 50.6875 5.359375 
Q 44.046875 -1.421875 33.015625 -1.421875 
Q 20.359375 -1.421875 13.671875 8.265625 
Q 6.984375 17.96875 6.984375 36.375 
Q 6.984375 53.65625 15.1875 63.9375 
Q 23.390625 74.21875 37.203125 74.21875 
Q 40.921875 74.21875 44.703125 73.484375 
Q 48.484375 72.75 52.59375 71.296875 
z
" id="DejaVuSans-54"/>
       </defs>
       <use xlink:href="#DejaVuSans-54"/>
      </g>
     </g>
    </g>
    <g id="xtick_5">
     <g id="line2d_5">
      <g>
       <use style="stroke:#000000;stroke-width:0.8;" x="192.672464" xlink:href="#m59ed1487c7" y="169.718125"/>
      </g>
     </g>
     <g id="text_5">
      <!-- 8 -->
      <g transform="translate(189.491214 184.316562)scale(0.1 -0.1)">
       <defs>
        <path d="M 31.78125 34.625 
Q 24.75 34.625 20.71875 30.859375 
Q 16.703125 27.09375 16.703125 20.515625 
Q 16.703125 13.921875 20.71875 10.15625 
Q 24.75 6.390625 31.78125 6.390625 
Q 38.8125 6.390625 42.859375 10.171875 
Q 46.921875 13.96875 46.921875 20.515625 
Q 46.921875 27.09375 42.890625 30.859375 
Q 38.875 34.625 31.78125 34.625 
z
M 21.921875 38.8125 
Q 15.578125 40.375 12.03125 44.71875 
Q 8.5 49.078125 8.5 55.328125 
Q 8.5 64.0625 14.71875 69.140625 
Q 20.953125 74.21875 31.78125 74.21875 
Q 42.671875 74.21875 48.875 69.140625 
Q 55.078125 64.0625 55.078125 55.328125 
Q 55.078125 49.078125 51.53125 44.71875 
Q 48 40.375 41.703125 38.8125 
Q 48.828125 37.15625 52.796875 32.3125 
Q 56.78125 27.484375 56.78125 20.515625 
Q 56.78125 9.90625 50.3125 4.234375 
Q 43.84375 -1.421875 31.78125 -1.421875 
Q 19.734375 -1.421875 13.25 4.234375 
Q 6.78125 9.90625 6.78125 20.515625 
Q 6.78125 27.484375 10.78125 32.3125 
Q 14.796875 37.15625 21.921875 38.8125 
z
M 18.3125 54.390625 
Q 18.3125 48.734375 21.84375 45.5625 
Q 25.390625 42.390625 31.78125 42.390625 
Q 38.140625 42.390625 41.71875 45.5625 
Q 45.3125 48.734375 45.3125 54.390625 
Q 45.3125 60.0625 41.71875 63.234375 
Q 38.140625 66.40625 31.78125 66.40625 
Q 25.390625 66.40625 21.84375 63.234375 
Q 18.3125 60.0625 18.3125 54.390625 
z
" id="DejaVuSans-56"/>
       </defs>
       <use xlink:href="#DejaVuSans-56"/>
      </g>
     </g>
    </g>
    <g id="xtick_6">
     <g id="line2d_6">
      <g>
       <use style="stroke:#000000;stroke-width:0.8;" x="227.705691" xlink:href="#m59ed1487c7" y="169.718125"/>
      </g>
     </g>
     <g id="text_6">
      <!-- 10 -->
      <g transform="translate(221.343191 184.316562)scale(0.1 -0.1)">
       <defs>
        <path d="M 12.40625 8.296875 
L 28.515625 8.296875 
L 28.515625 63.921875 
L 10.984375 60.40625 
L 10.984375 69.390625 
L 28.421875 72.90625 
L 38.28125 72.90625 
L 38.28125 8.296875 
L 54.390625 8.296875 
L 54.390625 0 
L 12.40625 0 
z
" id="DejaVuSans-49"/>
       </defs>
       <use xlink:href="#DejaVuSans-49"/>
       <use x="63.623047" xlink:href="#DejaVuSans-48"/>
      </g>
     </g>
    </g>
    <g id="text_7">
     <!-- $x$ -->
     <g transform="translate(137.122624 197.994687)scale(0.1 -0.1)">
      <defs>
       <path d="M 60.015625 54.6875 
L 34.90625 27.875 
L 50.296875 0 
L 39.984375 0 
L 28.421875 21.6875 
L 8.296875 0 
L -2.59375 0 
L 24.3125 28.8125 
L 10.015625 54.6875 
L 20.3125 54.6875 
L 30.8125 34.90625 
L 49.125 54.6875 
z
" id="DejaVuSans-Oblique-120"/>
      </defs>
      <use transform="translate(0 0.3125)" xlink:href="#DejaVuSans-Oblique-120"/>
     </g>
    </g>
   </g>
   <g id="matplotlib.axis_2">
    <g id="ytick_1">
     <g id="line2d_7">
      <defs>
       <path d="M 0 0 
L -3.5 0 
" id="ma45e112b32" style="stroke:#000000;stroke-width:0.8;"/>
      </defs>
      <g>
       <use style="stroke:#000000;stroke-width:0.8;" x="43.78125" xlink:href="#ma45e112b32" y="169.718125"/>
      </g>
     </g>
     <g id="text_8">
      <!-- 0.0 -->
      <g transform="translate(20.878125 173.517344)scale(0.1 -0.1)">
       <defs>
        <path d="M 10.6875 12.40625 
L 21 12.40625 
L 21 0 
L 10.6875 0 
z
" id="DejaVuSans-46"/>
       </defs>
       <use xlink:href="#DejaVuSans-48"/>
       <use x="63.623047" xlink:href="#DejaVuSans-46"/>
       <use x="95.410156" xlink:href="#DejaVuSans-48"/>
      </g>
     </g>
    </g>
    <g id="ytick_2">
     <g id="line2d_8">
      <g>
       <use style="stroke:#000000;stroke-width:0.8;" x="43.78125" xlink:href="#ma45e112b32" y="134.622887"/>
      </g>
     </g>
     <g id="text_9">
      <!-- 0.1 -->
      <g transform="translate(20.878125 138.422106)scale(0.1 -0.1)">
       <use xlink:href="#DejaVuSans-48"/>
       <use x="63.623047" xlink:href="#DejaVuSans-46"/>
       <use x="95.410156" xlink:href="#DejaVuSans-49"/>
      </g>
     </g>
    </g>
    <g id="ytick_3">
     <g id="line2d_9">
      <g>
       <use style="stroke:#000000;stroke-width:0.8;" x="43.78125" xlink:href="#ma45e112b32" y="99.527649"/>
      </g>
     </g>
     <g id="text_10">
      <!-- 0.2 -->
      <g transform="translate(20.878125 103.326868)scale(0.1 -0.1)">
       <use xlink:href="#DejaVuSans-48"/>
       <use x="63.623047" xlink:href="#DejaVuSans-46"/>
       <use x="95.410156" xlink:href="#DejaVuSans-50"/>
      </g>
     </g>
    </g>
    <g id="ytick_4">
     <g id="line2d_10">
      <g>
       <use style="stroke:#000000;stroke-width:0.8;" x="43.78125" xlink:href="#ma45e112b32" y="64.432411"/>
      </g>
     </g>
     <g id="text_11">
      <!-- 0.3 -->
      <g transform="translate(20.878125 68.231629)scale(0.1 -0.1)">
       <defs>
        <path d="M 40.578125 39.3125 
Q 47.65625 37.796875 51.625 33 
Q 55.609375 28.21875 55.609375 21.1875 
Q 55.609375 10.40625 48.1875 4.484375 
Q 40.765625 -1.421875 27.09375 -1.421875 
Q 22.515625 -1.421875 17.65625 -0.515625 
Q 12.796875 0.390625 7.625 2.203125 
L 7.625 11.71875 
Q 11.71875 9.328125 16.59375 8.109375 
Q 21.484375 6.890625 26.8125 6.890625 
Q 36.078125 6.890625 40.9375 10.546875 
Q 45.796875 14.203125 45.796875 21.1875 
Q 45.796875 27.640625 41.28125 31.265625 
Q 36.765625 34.90625 28.71875 34.90625 
L 20.21875 34.90625 
L 20.21875 43.015625 
L 29.109375 43.015625 
Q 36.375 43.015625 40.234375 45.921875 
Q 44.09375 48.828125 44.09375 54.296875 
Q 44.09375 59.90625 40.109375 62.90625 
Q 36.140625 65.921875 28.71875 65.921875 
Q 24.65625 65.921875 20.015625 65.03125 
Q 15.375 64.15625 9.8125 62.3125 
L 9.8125 71.09375 
Q 15.4375 72.65625 20.34375 73.4375 
Q 25.25 74.21875 29.59375 74.21875 
Q 40.828125 74.21875 47.359375 69.109375 
Q 53.90625 64.015625 53.90625 55.328125 
Q 53.90625 49.265625 50.4375 45.09375 
Q 46.96875 40.921875 40.578125 39.3125 
z
" id="DejaVuSans-51"/>
       </defs>
       <use xlink:href="#DejaVuSans-48"/>
       <use x="63.623047" xlink:href="#DejaVuSans-46"/>
       <use x="95.410156" xlink:href="#DejaVuSans-51"/>
      </g>
     </g>
    </g>
    <g id="ytick_5">
     <g id="line2d_11">
      <g>
       <use style="stroke:#000000;stroke-width:0.8;" x="43.78125" xlink:href="#ma45e112b32" y="29.337173"/>
      </g>
     </g>
     <g id="text_12">
      <!-- 0.4 -->
      <g transform="translate(20.878125 33.136391)scale(0.1 -0.1)">
       <use xlink:href="#DejaVuSans-48"/>
       <use x="63.623047" xlink:href="#DejaVuSans-46"/>
       <use x="95.410156" xlink:href="#DejaVuSans-52"/>
      </g>
     </g>
    </g>
    <g id="text_13">
     <!-- $f(x)$ -->
     <g transform="translate(14.798438 104.668125)rotate(-90)scale(0.1 -0.1)">
      <defs>
       <path d="M 47.796875 75.984375 
L 46.390625 68.5 
L 37.796875 68.5 
Q 32.90625 68.5 30.6875 66.578125 
Q 28.46875 64.65625 27.390625 59.515625 
L 26.421875 54.6875 
L 41.21875 54.6875 
L 39.890625 47.703125 
L 25.09375 47.703125 
L 15.828125 0 
L 6.78125 0 
L 16.109375 47.703125 
L 7.515625 47.703125 
L 8.796875 54.6875 
L 17.390625 54.6875 
L 18.109375 58.5 
Q 19.96875 68.171875 24.625 72.078125 
Q 29.296875 75.984375 39.3125 75.984375 
z
" id="DejaVuSans-Oblique-102"/>
       <path d="M 31 75.875 
Q 24.46875 64.65625 21.28125 53.65625 
Q 18.109375 42.671875 18.109375 31.390625 
Q 18.109375 20.125 21.3125 9.0625 
Q 24.515625 -2 31 -13.1875 
L 23.1875 -13.1875 
Q 15.875 -1.703125 12.234375 9.375 
Q 8.59375 20.453125 8.59375 31.390625 
Q 8.59375 42.28125 12.203125 53.3125 
Q 15.828125 64.359375 23.1875 75.875 
z
" id="DejaVuSans-40"/>
       <path d="M 8.015625 75.875 
L 15.828125 75.875 
Q 23.140625 64.359375 26.78125 53.3125 
Q 30.421875 42.28125 30.421875 31.390625 
Q 30.421875 20.453125 26.78125 9.375 
Q 23.140625 -1.703125 15.828125 -13.1875 
L 8.015625 -13.1875 
Q 14.5 -2 17.703125 9.0625 
Q 20.90625 20.125 20.90625 31.390625 
Q 20.90625 42.671875 17.703125 53.65625 
Q 14.5 64.65625 8.015625 75.875 
z
" id="DejaVuSans-41"/>
      </defs>
      <use transform="translate(0 0.015625)" xlink:href="#DejaVuSans-Oblique-102"/>
      <use transform="translate(35.205078 0.015625)" xlink:href="#DejaVuSans-40"/>
      <use transform="translate(74.21875 0.015625)" xlink:href="#DejaVuSans-Oblique-120"/>
      <use transform="translate(133.398438 0.015625)" xlink:href="#DejaVuSans-41"/>
     </g>
    </g>
   </g>
   <g id="line2d_12">
    <path clip-path="url(#pad561a7108)" d="M 52.539557 169.718125 
L 54.308912 137.674262 
L 56.078267 111.787697 
L 57.847621 91.171078 
L 59.616976 75.05072 
L 61.386331 62.752962 
L 63.155686 53.692084 
L 64.925041 47.359628 
L 66.694396 43.31496 
L 68.463751 41.176927 
L 70.233106 40.616502 
L 72.002461 41.350277 
L 73.771815 43.134744 
L 75.54117 45.761236 
L 77.310525 49.051485 
L 79.07988 52.853703 
L 80.849235 57.039144 
L 82.61859 61.499075 
L 84.387945 66.142116 
L 86.1573 70.891915 
L 87.926655 75.685101 
L 89.696009 80.469492 
L 91.465364 85.202534 
L 93.234719 89.849932 
L 95.004074 94.384454 
L 96.773429 98.784889 
L 98.542784 103.035148 
L 100.312139 107.123468 
L 102.081494 111.041733 
L 103.850849 114.784882 
L 105.620204 118.350396 
L 107.389558 121.737856 
L 109.158913 124.948564 
L 110.928268 127.985215 
L 112.697623 130.851618 
L 114.466978 133.552455 
L 116.236333 136.093083 
L 118.005688 138.479355 
L 119.775043 140.717479 
L 121.544398 142.813896 
L 123.313752 144.775175 
L 125.083107 146.607933 
L 126.852462 148.318762 
L 128.621817 149.914172 
L 130.391172 151.40055 
L 132.160527 152.78412 
L 133.929882 154.070916 
L 135.699237 155.266763 
L 137.468592 156.377259 
L 139.237947 157.407766 
L 141.007301 158.363402 
L 142.776656 159.249044 
L 144.546011 160.069318 
L 146.315366 160.828611 
L 148.084721 161.531069 
L 149.854076 162.180603 
L 151.623431 162.7809 
L 153.392786 163.335424 
L 155.162141 163.84743 
L 156.931495 164.31997 
L 158.70085 164.7559 
L 160.470205 165.157893 
L 162.23956 165.528447 
L 164.008915 165.869892 
L 165.77827 166.184401 
L 167.547625 166.473997 
L 169.31698 166.740566 
L 171.086335 166.985858 
L 172.85569 167.211502 
L 174.625044 167.419008 
L 176.394399 167.609779 
L 178.163754 167.785115 
L 179.933109 167.946221 
L 181.702464 168.094213 
L 183.471819 168.230124 
L 185.241174 168.354909 
L 187.010529 168.469452 
L 188.779884 168.574568 
L 190.549238 168.671012 
L 192.318593 168.75948 
L 194.087948 168.840614 
L 195.857303 168.915007 
L 197.626658 168.983205 
L 199.396013 169.045712 
L 201.165368 169.102991 
L 202.934723 169.155472 
L 204.704078 169.203546 
L 206.473432 169.247576 
L 208.242787 169.287895 
L 210.012142 169.324811 
L 211.781497 169.358604 
L 213.550852 169.389535 
L 215.320207 169.417841 
L 217.089562 169.44374 
L 218.858917 169.467435 
L 220.628272 169.48911 
L 222.397627 169.508934 
L 224.166981 169.527062 
L 225.936336 169.543638 
L 227.705691 169.558793 
" style="fill:none;stroke:#1f77b4;stroke-linecap:square;stroke-width:1.5;"/>
   </g>
   <g id="patch_23">
    <path d="M 43.78125 169.718125 
L 43.78125 22.318125 
" style="fill:none;stroke:#000000;stroke-linecap:square;stroke-linejoin:miter;stroke-width:0.8;"/>
   </g>
   <g id="patch_24">
    <path d="M 236.463998 169.718125 
L 236.463998 22.318125 
" style="fill:none;stroke:#000000;stroke-linecap:square;stroke-linejoin:miter;stroke-width:0.8;"/>
   </g>
   <g id="patch_25">
    <path d="M 43.78125 169.718125 
L 236.463998 169.718125 
" style="fill:none;stroke:#000000;stroke-linecap:square;stroke-linejoin:miter;stroke-width:0.8;"/>
   </g>
   <g id="patch_26">
    <path d="M 43.78125 22.318125 
L 236.463998 22.318125 
" style="fill:none;stroke:#000000;stroke-linecap:square;stroke-linejoin:miter;stroke-width:0.8;"/>
   </g>
   <g id="text_14">
    <!-- home made -->
    <g transform="translate(104.183561 16.318125)scale(0.12 -0.12)">
     <defs>
      <path d="M 54.890625 33.015625 
L 54.890625 0 
L 45.90625 0 
L 45.90625 32.71875 
Q 45.90625 40.484375 42.875 44.328125 
Q 39.84375 48.1875 33.796875 48.1875 
Q 26.515625 48.1875 22.3125 43.546875 
Q 18.109375 38.921875 18.109375 30.90625 
L 18.109375 0 
L 9.078125 0 
L 9.078125 75.984375 
L 18.109375 75.984375 
L 18.109375 46.1875 
Q 21.34375 51.125 25.703125 53.5625 
Q 30.078125 56 35.796875 56 
Q 45.21875 56 50.046875 50.171875 
Q 54.890625 44.34375 54.890625 33.015625 
z
" id="DejaVuSans-104"/>
      <path d="M 30.609375 48.390625 
Q 23.390625 48.390625 19.1875 42.75 
Q 14.984375 37.109375 14.984375 27.296875 
Q 14.984375 17.484375 19.15625 11.84375 
Q 23.34375 6.203125 30.609375 6.203125 
Q 37.796875 6.203125 41.984375 11.859375 
Q 46.1875 17.53125 46.1875 27.296875 
Q 46.1875 37.015625 41.984375 42.703125 
Q 37.796875 48.390625 30.609375 48.390625 
z
M 30.609375 56 
Q 42.328125 56 49.015625 48.375 
Q 55.71875 40.765625 55.71875 27.296875 
Q 55.71875 13.875 49.015625 6.21875 
Q 42.328125 -1.421875 30.609375 -1.421875 
Q 18.84375 -1.421875 12.171875 6.21875 
Q 5.515625 13.875 5.515625 27.296875 
Q 5.515625 40.765625 12.171875 48.375 
Q 18.84375 56 30.609375 56 
z
" id="DejaVuSans-111"/>
      <path d="M 52 44.1875 
Q 55.375 50.25 60.0625 53.125 
Q 64.75 56 71.09375 56 
Q 79.640625 56 84.28125 50.015625 
Q 88.921875 44.046875 88.921875 33.015625 
L 88.921875 0 
L 79.890625 0 
L 79.890625 32.71875 
Q 79.890625 40.578125 77.09375 44.375 
Q 74.3125 48.1875 68.609375 48.1875 
Q 61.625 48.1875 57.5625 43.546875 
Q 53.515625 38.921875 53.515625 30.90625 
L 53.515625 0 
L 44.484375 0 
L 44.484375 32.71875 
Q 44.484375 40.625 41.703125 44.40625 
Q 38.921875 48.1875 33.109375 48.1875 
Q 26.21875 48.1875 22.15625 43.53125 
Q 18.109375 38.875 18.109375 30.90625 
L 18.109375 0 
L 9.078125 0 
L 9.078125 54.6875 
L 18.109375 54.6875 
L 18.109375 46.1875 
Q 21.1875 51.21875 25.484375 53.609375 
Q 29.78125 56 35.6875 56 
Q 41.65625 56 45.828125 52.96875 
Q 50 49.953125 52 44.1875 
z
" id="DejaVuSans-109"/>
      <path d="M 56.203125 29.59375 
L 56.203125 25.203125 
L 14.890625 25.203125 
Q 15.484375 15.921875 20.484375 11.0625 
Q 25.484375 6.203125 34.421875 6.203125 
Q 39.59375 6.203125 44.453125 7.46875 
Q 49.3125 8.734375 54.109375 11.28125 
L 54.109375 2.78125 
Q 49.265625 0.734375 44.1875 -0.34375 
Q 39.109375 -1.421875 33.890625 -1.421875 
Q 20.796875 -1.421875 13.15625 6.1875 
Q 5.515625 13.8125 5.515625 26.8125 
Q 5.515625 40.234375 12.765625 48.109375 
Q 20.015625 56 32.328125 56 
Q 43.359375 56 49.78125 48.890625 
Q 56.203125 41.796875 56.203125 29.59375 
z
M 47.21875 32.234375 
Q 47.125 39.59375 43.09375 43.984375 
Q 39.0625 48.390625 32.421875 48.390625 
Q 24.90625 48.390625 20.390625 44.140625 
Q 15.875 39.890625 15.1875 32.171875 
z
" id="DejaVuSans-101"/>
      <path id="DejaVuSans-32"/>
      <path d="M 34.28125 27.484375 
Q 23.390625 27.484375 19.1875 25 
Q 14.984375 22.515625 14.984375 16.5 
Q 14.984375 11.71875 18.140625 8.90625 
Q 21.296875 6.109375 26.703125 6.109375 
Q 34.1875 6.109375 38.703125 11.40625 
Q 43.21875 16.703125 43.21875 25.484375 
L 43.21875 27.484375 
z
M 52.203125 31.203125 
L 52.203125 0 
L 43.21875 0 
L 43.21875 8.296875 
Q 40.140625 3.328125 35.546875 0.953125 
Q 30.953125 -1.421875 24.3125 -1.421875 
Q 15.921875 -1.421875 10.953125 3.296875 
Q 6 8.015625 6 15.921875 
Q 6 25.140625 12.171875 29.828125 
Q 18.359375 34.515625 30.609375 34.515625 
L 43.21875 34.515625 
L 43.21875 35.40625 
Q 43.21875 41.609375 39.140625 45 
Q 35.0625 48.390625 27.6875 48.390625 
Q 23 48.390625 18.546875 47.265625 
Q 14.109375 46.140625 10.015625 43.890625 
L 10.015625 52.203125 
Q 14.9375 54.109375 19.578125 55.046875 
Q 24.21875 56 28.609375 56 
Q 40.484375 56 46.34375 49.84375 
Q 52.203125 43.703125 52.203125 31.203125 
z
" id="DejaVuSans-97"/>
      <path d="M 45.40625 46.390625 
L 45.40625 75.984375 
L 54.390625 75.984375 
L 54.390625 0 
L 45.40625 0 
L 45.40625 8.203125 
Q 42.578125 3.328125 38.25 0.953125 
Q 33.9375 -1.421875 27.875 -1.421875 
Q 17.96875 -1.421875 11.734375 6.484375 
Q 5.515625 14.40625 5.515625 27.296875 
Q 5.515625 40.1875 11.734375 48.09375 
Q 17.96875 56 27.875 56 
Q 33.9375 56 38.25 53.625 
Q 42.578125 51.265625 45.40625 46.390625 
z
M 14.796875 27.296875 
Q 14.796875 17.390625 18.875 11.75 
Q 22.953125 6.109375 30.078125 6.109375 
Q 37.203125 6.109375 41.296875 11.75 
Q 45.40625 17.390625 45.40625 27.296875 
Q 45.40625 37.203125 41.296875 42.84375 
Q 37.203125 48.484375 30.078125 48.484375 
Q 22.953125 48.484375 18.875 42.84375 
Q 14.796875 37.203125 14.796875 27.296875 
z
" id="DejaVuSans-100"/>
     </defs>
     <use xlink:href="#DejaVuSans-104"/>
     <use x="63.378906" xlink:href="#DejaVuSans-111"/>
     <use x="124.560547" xlink:href="#DejaVuSans-109"/>
     <use x="221.972656" xlink:href="#DejaVuSans-101"/>
     <use x="283.496094" xlink:href="#DejaVuSans-32"/>
     <use x="315.283203" xlink:href="#DejaVuSans-109"/>
     <use x="412.695312" xlink:href="#DejaVuSans-97"/>
     <use x="473.974609" xlink:href="#DejaVuSans-100"/>
     <use x="537.451172" xlink:href="#DejaVuSans-101"/>
    </g>
   </g>
  </g>
  <g id="axes_2">
   <g id="patch_27">
    <path d="M 290.38125 169.718125 
L 483.063998 169.718125 
L 483.063998 22.318125 
L 290.38125 22.318125 
z
" style="fill:#ffffff;"/>
   </g>
   <g id="patch_28">
    <path clip-path="url(#p4e599a6cdc)" d="M 300.934245 169.718125 
L 307.731093 169.718125 
L 307.731093 100.37597 
L 300.934245 100.37597 
z
" style="fill:#ffe4b5;"/>
   </g>
   <g id="patch_29">
    <path clip-path="url(#p4e599a6cdc)" d="M 307.731093 169.718125 
L 314.527942 169.718125 
L 314.527942 85.301589 
L 307.731093 85.301589 
z
" style="fill:#ffe4b5;"/>
   </g>
   <g id="patch_30">
    <path clip-path="url(#p4e599a6cdc)" d="M 314.527942 169.718125 
L 321.32479 169.718125 
L 321.32479 34.048691 
L 314.527942 34.048691 
z
" style="fill:#ffe4b5;"/>
   </g>
   <g id="patch_31">
    <path clip-path="url(#p4e599a6cdc)" d="M 321.32479 169.718125 
L 328.121639 169.718125 
L 328.121639 43.09332 
L 321.32479 43.09332 
z
" style="fill:#ffe4b5;"/>
   </g>
   <g id="patch_32">
    <path clip-path="url(#p4e599a6cdc)" d="M 328.121639 169.718125 
L 334.918487 169.718125 
L 334.918487 82.286712 
L 328.121639 82.286712 
z
" style="fill:#ffe4b5;"/>
   </g>
   <g id="patch_33">
    <path clip-path="url(#p4e599a6cdc)" d="M 334.918487 169.718125 
L 341.715336 169.718125 
L 341.715336 100.37597 
L 334.918487 100.37597 
z
" style="fill:#ffe4b5;"/>
   </g>
   <g id="patch_34">
    <path clip-path="url(#p4e599a6cdc)" d="M 341.715336 169.718125 
L 348.512184 169.718125 
L 348.512184 109.420599 
L 341.715336 109.420599 
z
" style="fill:#ffe4b5;"/>
   </g>
   <g id="patch_35">
    <path clip-path="url(#p4e599a6cdc)" d="M 348.512184 169.718125 
L 355.309032 169.718125 
L 355.309032 106.405723 
L 348.512184 106.405723 
z
" style="fill:#ffe4b5;"/>
   </g>
   <g id="patch_36">
    <path clip-path="url(#p4e599a6cdc)" d="M 355.309032 169.718125 
L 362.105881 169.718125 
L 362.105881 112.435475 
L 355.309032 112.435475 
z
" style="fill:#ffe4b5;"/>
   </g>
   <g id="patch_37">
    <path clip-path="url(#p4e599a6cdc)" d="M 362.105881 169.718125 
L 368.902729 169.718125 
L 368.902729 118.465228 
L 362.105881 118.465228 
z
" style="fill:#ffe4b5;"/>
   </g>
   <g id="patch_38">
    <path clip-path="url(#p4e599a6cdc)" d="M 368.902729 169.718125 
L 375.699578 169.718125 
L 375.699578 145.599115 
L 368.902729 145.599115 
z
" style="fill:#ffe4b5;"/>
   </g>
   <g id="patch_39">
    <path clip-path="url(#p4e599a6cdc)" d="M 375.699578 169.718125 
L 382.496426 169.718125 
L 382.496426 154.643743 
L 375.699578 154.643743 
z
" style="fill:#ffe4b5;"/>
   </g>
   <g id="patch_40">
    <path clip-path="url(#p4e599a6cdc)" d="M 382.496426 169.718125 
L 389.293275 169.718125 
L 389.293275 160.673496 
L 382.496426 160.673496 
z
" style="fill:#ffe4b5;"/>
   </g>
   <g id="patch_41">
    <path clip-path="url(#p4e599a6cdc)" d="M 389.293275 169.718125 
L 396.090123 169.718125 
L 396.090123 160.673496 
L 389.293275 160.673496 
z
" style="fill:#ffe4b5;"/>
   </g>
   <g id="patch_42">
    <path clip-path="url(#p4e599a6cdc)" d="M 396.090123 169.718125 
L 402.886972 169.718125 
L 402.886972 160.673496 
L 396.090123 160.673496 
z
" style="fill:#ffe4b5;"/>
   </g>
   <g id="patch_43">
    <path clip-path="url(#p4e599a6cdc)" d="M 402.886972 169.718125 
L 409.68382 169.718125 
L 409.68382 160.673496 
L 402.886972 160.673496 
z
" style="fill:#ffe4b5;"/>
   </g>
   <g id="patch_44">
    <path clip-path="url(#p4e599a6cdc)" d="M 409.68382 169.718125 
L 416.480668 169.718125 
L 416.480668 163.688372 
L 409.68382 163.688372 
z
" style="fill:#ffe4b5;"/>
   </g>
   <g id="patch_45">
    <path clip-path="url(#p4e599a6cdc)" d="M 416.480668 169.718125 
L 423.277517 169.718125 
L 423.277517 166.703249 
L 416.480668 166.703249 
z
" style="fill:#ffe4b5;"/>
   </g>
   <g id="patch_46">
    <path clip-path="url(#p4e599a6cdc)" d="M 423.277517 169.718125 
L 430.074365 169.718125 
L 430.074365 166.703249 
L 423.277517 166.703249 
z
" style="fill:#ffe4b5;"/>
   </g>
   <g id="patch_47">
    <path clip-path="url(#p4e599a6cdc)" d="M 430.074365 169.718125 
L 436.871214 169.718125 
L 436.871214 157.65862 
L 430.074365 157.65862 
z
" style="fill:#ffe4b5;"/>
   </g>
   <g id="matplotlib.axis_3">
    <g id="xtick_7">
     <g id="line2d_13">
      <g>
       <use style="stroke:#000000;stroke-width:0.8;" x="299.139557" xlink:href="#m59ed1487c7" y="169.718125"/>
      </g>
     </g>
     <g id="text_15">
      <!-- 0 -->
      <g transform="translate(295.958307 184.316562)scale(0.1 -0.1)">
       <use xlink:href="#DejaVuSans-48"/>
      </g>
     </g>
    </g>
    <g id="xtick_8">
     <g id="line2d_14">
      <g>
       <use style="stroke:#000000;stroke-width:0.8;" x="334.172784" xlink:href="#m59ed1487c7" y="169.718125"/>
      </g>
     </g>
     <g id="text_16">
      <!-- 2 -->
      <g transform="translate(330.991534 184.316562)scale(0.1 -0.1)">
       <use xlink:href="#DejaVuSans-50"/>
      </g>
     </g>
    </g>
    <g id="xtick_9">
     <g id="line2d_15">
      <g>
       <use style="stroke:#000000;stroke-width:0.8;" x="369.206011" xlink:href="#m59ed1487c7" y="169.718125"/>
      </g>
     </g>
     <g id="text_17">
      <!-- 4 -->
      <g transform="translate(366.024761 184.316562)scale(0.1 -0.1)">
       <use xlink:href="#DejaVuSans-52"/>
      </g>
     </g>
    </g>
    <g id="xtick_10">
     <g id="line2d_16">
      <g>
       <use style="stroke:#000000;stroke-width:0.8;" x="404.239237" xlink:href="#m59ed1487c7" y="169.718125"/>
      </g>
     </g>
     <g id="text_18">
      <!-- 6 -->
      <g transform="translate(401.057987 184.316562)scale(0.1 -0.1)">
       <use xlink:href="#DejaVuSans-54"/>
      </g>
     </g>
    </g>
    <g id="xtick_11">
     <g id="line2d_17">
      <g>
       <use style="stroke:#000000;stroke-width:0.8;" x="439.272464" xlink:href="#m59ed1487c7" y="169.718125"/>
      </g>
     </g>
     <g id="text_19">
      <!-- 8 -->
      <g transform="translate(436.091214 184.316562)scale(0.1 -0.1)">
       <use xlink:href="#DejaVuSans-56"/>
      </g>
     </g>
    </g>
    <g id="xtick_12">
     <g id="line2d_18">
      <g>
       <use style="stroke:#000000;stroke-width:0.8;" x="474.305691" xlink:href="#m59ed1487c7" y="169.718125"/>
      </g>
     </g>
     <g id="text_20">
      <!-- 10 -->
      <g transform="translate(467.943191 184.316562)scale(0.1 -0.1)">
       <use xlink:href="#DejaVuSans-49"/>
       <use x="63.623047" xlink:href="#DejaVuSans-48"/>
      </g>
     </g>
    </g>
    <g id="text_21">
     <!-- $x$ -->
     <g transform="translate(383.722624 197.994687)scale(0.1 -0.1)">
      <use transform="translate(0 0.3125)" xlink:href="#DejaVuSans-Oblique-120"/>
     </g>
    </g>
   </g>
   <g id="matplotlib.axis_4">
    <g id="ytick_6">
     <g id="line2d_19">
      <g>
       <use style="stroke:#000000;stroke-width:0.8;" x="290.38125" xlink:href="#ma45e112b32" y="169.718125"/>
      </g>
     </g>
     <g id="text_22">
      <!-- 0.0 -->
      <g transform="translate(267.478125 173.517344)scale(0.1 -0.1)">
       <use xlink:href="#DejaVuSans-48"/>
       <use x="63.623047" xlink:href="#DejaVuSans-46"/>
       <use x="95.410156" xlink:href="#DejaVuSans-48"/>
      </g>
     </g>
    </g>
    <g id="ytick_7">
     <g id="line2d_20">
      <g>
       <use style="stroke:#000000;stroke-width:0.8;" x="290.38125" xlink:href="#ma45e112b32" y="134.622887"/>
      </g>
     </g>
     <g id="text_23">
      <!-- 0.1 -->
      <g transform="translate(267.478125 138.422106)scale(0.1 -0.1)">
       <use xlink:href="#DejaVuSans-48"/>
       <use x="63.623047" xlink:href="#DejaVuSans-46"/>
       <use x="95.410156" xlink:href="#DejaVuSans-49"/>
      </g>
     </g>
    </g>
    <g id="ytick_8">
     <g id="line2d_21">
      <g>
       <use style="stroke:#000000;stroke-width:0.8;" x="290.38125" xlink:href="#ma45e112b32" y="99.527649"/>
      </g>
     </g>
     <g id="text_24">
      <!-- 0.2 -->
      <g transform="translate(267.478125 103.326868)scale(0.1 -0.1)">
       <use xlink:href="#DejaVuSans-48"/>
       <use x="63.623047" xlink:href="#DejaVuSans-46"/>
       <use x="95.410156" xlink:href="#DejaVuSans-50"/>
      </g>
     </g>
    </g>
    <g id="ytick_9">
     <g id="line2d_22">
      <g>
       <use style="stroke:#000000;stroke-width:0.8;" x="290.38125" xlink:href="#ma45e112b32" y="64.432411"/>
      </g>
     </g>
     <g id="text_25">
      <!-- 0.3 -->
      <g transform="translate(267.478125 68.231629)scale(0.1 -0.1)">
       <use xlink:href="#DejaVuSans-48"/>
       <use x="63.623047" xlink:href="#DejaVuSans-46"/>
       <use x="95.410156" xlink:href="#DejaVuSans-51"/>
      </g>
     </g>
    </g>
    <g id="ytick_10">
     <g id="line2d_23">
      <g>
       <use style="stroke:#000000;stroke-width:0.8;" x="290.38125" xlink:href="#ma45e112b32" y="29.337173"/>
      </g>
     </g>
     <g id="text_26">
      <!-- 0.4 -->
      <g transform="translate(267.478125 33.136391)scale(0.1 -0.1)">
       <use xlink:href="#DejaVuSans-48"/>
       <use x="63.623047" xlink:href="#DejaVuSans-46"/>
       <use x="95.410156" xlink:href="#DejaVuSans-52"/>
      </g>
     </g>
    </g>
    <g id="text_27">
     <!-- $f(x)$ -->
     <g transform="translate(261.398438 104.668125)rotate(-90)scale(0.1 -0.1)">
      <use transform="translate(0 0.015625)" xlink:href="#DejaVuSans-Oblique-102"/>
      <use transform="translate(35.205078 0.015625)" xlink:href="#DejaVuSans-40"/>
      <use transform="translate(74.21875 0.015625)" xlink:href="#DejaVuSans-Oblique-120"/>
      <use transform="translate(133.398438 0.015625)" xlink:href="#DejaVuSans-41"/>
     </g>
    </g>
   </g>
   <g id="line2d_24">
    <path clip-path="url(#p4e599a6cdc)" d="M 299.139557 169.718125 
L 300.908912 137.674262 
L 302.678267 111.787697 
L 304.447621 91.171078 
L 306.216976 75.05072 
L 307.986331 62.752962 
L 309.755686 53.692084 
L 311.525041 47.359628 
L 313.294396 43.31496 
L 315.063751 41.176927 
L 316.833106 40.616502 
L 318.602461 41.350277 
L 320.371815 43.134744 
L 322.14117 45.761236 
L 323.910525 49.051485 
L 325.67988 52.853703 
L 327.449235 57.039144 
L 329.21859 61.499075 
L 330.987945 66.142116 
L 332.7573 70.891915 
L 334.526655 75.685101 
L 336.296009 80.469492 
L 338.065364 85.202534 
L 339.834719 89.849932 
L 341.604074 94.384454 
L 343.373429 98.784889 
L 345.142784 103.035148 
L 346.912139 107.123468 
L 348.681494 111.041733 
L 350.450849 114.784882 
L 352.220204 118.350396 
L 353.989558 121.737856 
L 355.758913 124.948564 
L 357.528268 127.985215 
L 359.297623 130.851618 
L 361.066978 133.552455 
L 362.836333 136.093083 
L 364.605688 138.479355 
L 366.375043 140.717479 
L 368.144398 142.813896 
L 369.913752 144.775175 
L 371.683107 146.607933 
L 373.452462 148.318762 
L 375.221817 149.914172 
L 376.991172 151.40055 
L 378.760527 152.78412 
L 380.529882 154.070916 
L 382.299237 155.266763 
L 384.068592 156.377259 
L 385.837947 157.407766 
L 387.607301 158.363402 
L 389.376656 159.249044 
L 391.146011 160.069318 
L 392.915366 160.828611 
L 394.684721 161.531069 
L 396.454076 162.180603 
L 398.223431 162.7809 
L 399.992786 163.335424 
L 401.762141 163.84743 
L 403.531495 164.31997 
L 405.30085 164.7559 
L 407.070205 165.157893 
L 408.83956 165.528447 
L 410.608915 165.869892 
L 412.37827 166.184401 
L 414.147625 166.473997 
L 415.91698 166.740566 
L 417.686335 166.985858 
L 419.45569 167.211502 
L 421.225044 167.419008 
L 422.994399 167.609779 
L 424.763754 167.785115 
L 426.533109 167.946221 
L 428.302464 168.094213 
L 430.071819 168.230124 
L 431.841174 168.354909 
L 433.610529 168.469452 
L 435.379884 168.574568 
L 437.149238 168.671012 
L 438.918593 168.75948 
L 440.687948 168.840614 
L 442.457303 168.915007 
L 444.226658 168.983205 
L 445.996013 169.045712 
L 447.765368 169.102991 
L 449.534723 169.155472 
L 451.304078 169.203546 
L 453.073432 169.247576 
L 454.842787 169.287895 
L 456.612142 169.324811 
L 458.381497 169.358604 
L 460.150852 169.389535 
L 461.920207 169.417841 
L 463.689562 169.44374 
L 465.458917 169.467435 
L 467.228272 169.48911 
L 468.997627 169.508934 
L 470.766981 169.527062 
L 472.536336 169.543638 
L 474.305691 169.558793 
" style="fill:none;stroke:#1f77b4;stroke-linecap:square;stroke-width:1.5;"/>
   </g>
   <g id="patch_48">
    <path d="M 290.38125 169.718125 
L 290.38125 22.318125 
" style="fill:none;stroke:#000000;stroke-linecap:square;stroke-linejoin:miter;stroke-width:0.8;"/>
   </g>
   <g id="patch_49">
    <path d="M 483.063998 169.718125 
L 483.063998 22.318125 
" style="fill:none;stroke:#000000;stroke-linecap:square;stroke-linejoin:miter;stroke-width:0.8;"/>
   </g>
   <g id="patch_50">
    <path d="M 290.38125 169.718125 
L 483.063998 169.718125 
" style="fill:none;stroke:#000000;stroke-linecap:square;stroke-linejoin:miter;stroke-width:0.8;"/>
   </g>
   <g id="patch_51">
    <path d="M 290.38125 22.318125 
L 483.063998 22.318125 
" style="fill:none;stroke:#000000;stroke-linecap:square;stroke-linejoin:miter;stroke-width:0.8;"/>
   </g>
   <g id="text_28">
    <!-- scipy build-in -->
    <g transform="translate(346.975436 16.318125)scale(0.12 -0.12)">
     <defs>
      <path d="M 44.28125 53.078125 
L 44.28125 44.578125 
Q 40.484375 46.53125 36.375 47.5 
Q 32.28125 48.484375 27.875 48.484375 
Q 21.1875 48.484375 17.84375 46.4375 
Q 14.5 44.390625 14.5 40.28125 
Q 14.5 37.15625 16.890625 35.375 
Q 19.28125 33.59375 26.515625 31.984375 
L 29.59375 31.296875 
Q 39.15625 29.25 43.1875 25.515625 
Q 47.21875 21.78125 47.21875 15.09375 
Q 47.21875 7.46875 41.1875 3.015625 
Q 35.15625 -1.421875 24.609375 -1.421875 
Q 20.21875 -1.421875 15.453125 -0.5625 
Q 10.6875 0.296875 5.421875 2 
L 5.421875 11.28125 
Q 10.40625 8.6875 15.234375 7.390625 
Q 20.0625 6.109375 24.8125 6.109375 
Q 31.15625 6.109375 34.5625 8.28125 
Q 37.984375 10.453125 37.984375 14.40625 
Q 37.984375 18.0625 35.515625 20.015625 
Q 33.0625 21.96875 24.703125 23.78125 
L 21.578125 24.515625 
Q 13.234375 26.265625 9.515625 29.90625 
Q 5.8125 33.546875 5.8125 39.890625 
Q 5.8125 47.609375 11.28125 51.796875 
Q 16.75 56 26.8125 56 
Q 31.78125 56 36.171875 55.265625 
Q 40.578125 54.546875 44.28125 53.078125 
z
" id="DejaVuSans-115"/>
      <path d="M 48.78125 52.59375 
L 48.78125 44.1875 
Q 44.96875 46.296875 41.140625 47.34375 
Q 37.3125 48.390625 33.40625 48.390625 
Q 24.65625 48.390625 19.8125 42.84375 
Q 14.984375 37.3125 14.984375 27.296875 
Q 14.984375 17.28125 19.8125 11.734375 
Q 24.65625 6.203125 33.40625 6.203125 
Q 37.3125 6.203125 41.140625 7.25 
Q 44.96875 8.296875 48.78125 10.40625 
L 48.78125 2.09375 
Q 45.015625 0.34375 40.984375 -0.53125 
Q 36.96875 -1.421875 32.421875 -1.421875 
Q 20.0625 -1.421875 12.78125 6.34375 
Q 5.515625 14.109375 5.515625 27.296875 
Q 5.515625 40.671875 12.859375 48.328125 
Q 20.21875 56 33.015625 56 
Q 37.15625 56 41.109375 55.140625 
Q 45.0625 54.296875 48.78125 52.59375 
z
" id="DejaVuSans-99"/>
      <path d="M 9.421875 54.6875 
L 18.40625 54.6875 
L 18.40625 0 
L 9.421875 0 
z
M 9.421875 75.984375 
L 18.40625 75.984375 
L 18.40625 64.59375 
L 9.421875 64.59375 
z
" id="DejaVuSans-105"/>
      <path d="M 18.109375 8.203125 
L 18.109375 -20.796875 
L 9.078125 -20.796875 
L 9.078125 54.6875 
L 18.109375 54.6875 
L 18.109375 46.390625 
Q 20.953125 51.265625 25.265625 53.625 
Q 29.59375 56 35.59375 56 
Q 45.5625 56 51.78125 48.09375 
Q 58.015625 40.1875 58.015625 27.296875 
Q 58.015625 14.40625 51.78125 6.484375 
Q 45.5625 -1.421875 35.59375 -1.421875 
Q 29.59375 -1.421875 25.265625 0.953125 
Q 20.953125 3.328125 18.109375 8.203125 
z
M 48.6875 27.296875 
Q 48.6875 37.203125 44.609375 42.84375 
Q 40.53125 48.484375 33.40625 48.484375 
Q 26.265625 48.484375 22.1875 42.84375 
Q 18.109375 37.203125 18.109375 27.296875 
Q 18.109375 17.390625 22.1875 11.75 
Q 26.265625 6.109375 33.40625 6.109375 
Q 40.53125 6.109375 44.609375 11.75 
Q 48.6875 17.390625 48.6875 27.296875 
z
" id="DejaVuSans-112"/>
      <path d="M 32.171875 -5.078125 
Q 28.375 -14.84375 24.75 -17.8125 
Q 21.140625 -20.796875 15.09375 -20.796875 
L 7.90625 -20.796875 
L 7.90625 -13.28125 
L 13.1875 -13.28125 
Q 16.890625 -13.28125 18.9375 -11.515625 
Q 21 -9.765625 23.484375 -3.21875 
L 25.09375 0.875 
L 2.984375 54.6875 
L 12.5 54.6875 
L 29.59375 11.921875 
L 46.6875 54.6875 
L 56.203125 54.6875 
z
" id="DejaVuSans-121"/>
      <path d="M 48.6875 27.296875 
Q 48.6875 37.203125 44.609375 42.84375 
Q 40.53125 48.484375 33.40625 48.484375 
Q 26.265625 48.484375 22.1875 42.84375 
Q 18.109375 37.203125 18.109375 27.296875 
Q 18.109375 17.390625 22.1875 11.75 
Q 26.265625 6.109375 33.40625 6.109375 
Q 40.53125 6.109375 44.609375 11.75 
Q 48.6875 17.390625 48.6875 27.296875 
z
M 18.109375 46.390625 
Q 20.953125 51.265625 25.265625 53.625 
Q 29.59375 56 35.59375 56 
Q 45.5625 56 51.78125 48.09375 
Q 58.015625 40.1875 58.015625 27.296875 
Q 58.015625 14.40625 51.78125 6.484375 
Q 45.5625 -1.421875 35.59375 -1.421875 
Q 29.59375 -1.421875 25.265625 0.953125 
Q 20.953125 3.328125 18.109375 8.203125 
L 18.109375 0 
L 9.078125 0 
L 9.078125 75.984375 
L 18.109375 75.984375 
z
" id="DejaVuSans-98"/>
      <path d="M 8.5 21.578125 
L 8.5 54.6875 
L 17.484375 54.6875 
L 17.484375 21.921875 
Q 17.484375 14.15625 20.5 10.265625 
Q 23.53125 6.390625 29.59375 6.390625 
Q 36.859375 6.390625 41.078125 11.03125 
Q 45.3125 15.671875 45.3125 23.6875 
L 45.3125 54.6875 
L 54.296875 54.6875 
L 54.296875 0 
L 45.3125 0 
L 45.3125 8.40625 
Q 42.046875 3.421875 37.71875 1 
Q 33.40625 -1.421875 27.6875 -1.421875 
Q 18.265625 -1.421875 13.375 4.4375 
Q 8.5 10.296875 8.5 21.578125 
z
M 31.109375 56 
z
" id="DejaVuSans-117"/>
      <path d="M 9.421875 75.984375 
L 18.40625 75.984375 
L 18.40625 0 
L 9.421875 0 
z
" id="DejaVuSans-108"/>
      <path d="M 4.890625 31.390625 
L 31.203125 31.390625 
L 31.203125 23.390625 
L 4.890625 23.390625 
z
" id="DejaVuSans-45"/>
      <path d="M 54.890625 33.015625 
L 54.890625 0 
L 45.90625 0 
L 45.90625 32.71875 
Q 45.90625 40.484375 42.875 44.328125 
Q 39.84375 48.1875 33.796875 48.1875 
Q 26.515625 48.1875 22.3125 43.546875 
Q 18.109375 38.921875 18.109375 30.90625 
L 18.109375 0 
L 9.078125 0 
L 9.078125 54.6875 
L 18.109375 54.6875 
L 18.109375 46.1875 
Q 21.34375 51.125 25.703125 53.5625 
Q 30.078125 56 35.796875 56 
Q 45.21875 56 50.046875 50.171875 
Q 54.890625 44.34375 54.890625 33.015625 
z
" id="DejaVuSans-110"/>
     </defs>
     <use xlink:href="#DejaVuSans-115"/>
     <use x="52.099609" xlink:href="#DejaVuSans-99"/>
     <use x="107.080078" xlink:href="#DejaVuSans-105"/>
     <use x="134.863281" xlink:href="#DejaVuSans-112"/>
     <use x="198.339844" xlink:href="#DejaVuSans-121"/>
     <use x="257.519531" xlink:href="#DejaVuSans-32"/>
     <use x="289.306641" xlink:href="#DejaVuSans-98"/>
     <use x="352.783203" xlink:href="#DejaVuSans-117"/>
     <use x="416.162109" xlink:href="#DejaVuSans-105"/>
     <use x="443.945312" xlink:href="#DejaVuSans-108"/>
     <use x="471.728516" xlink:href="#DejaVuSans-100"/>
     <use x="535.205078" xlink:href="#DejaVuSans-45"/>
     <use x="571.289062" xlink:href="#DejaVuSans-105"/>
     <use x="599.072266" xlink:href="#DejaVuSans-110"/>
    </g>
   </g>
  </g>
 </g>
 <defs>
  <clipPath id="pad561a7108">
   <rect height="147.4" width="192.682748" x="43.78125" y="22.318125"/>
  </clipPath>
  <clipPath id="p4e599a6cdc">
   <rect height="147.4" width="192.682748" x="290.38125" y="22.318125"/>
  </clipPath>
 </defs>
</svg>
