<?xml version="1.0" encoding="utf-8" standalone="no"?>
<!DOCTYPE svg PUBLIC "-//W3C//DTD SVG 1.1//EN"
  "http://www.w3.org/Graphics/SVG/1.1/DTD/svg11.dtd">
<!-- Created with matplotlib (https://matplotlib.org/) -->
<svg height="222.954375pt" version="1.1" viewBox="0 0 438.403125 222.954375" width="438.403125pt" xmlns="http://www.w3.org/2000/svg" xmlns:xlink="http://www.w3.org/1999/xlink">
 <metadata>
  <rdf:RDF xmlns:cc="http://creativecommons.org/ns#" xmlns:dc="http://purl.org/dc/elements/1.1/" xmlns:rdf="http://www.w3.org/1999/02/22-rdf-syntax-ns#">
   <cc:Work>
    <dc:type rdf:resource="http://purl.org/dc/dcmitype/StillImage"/>
    <dc:date>2021-08-02T22:50:48.132232</dc:date>
    <dc:format>image/svg+xml</dc:format>
    <dc:creator>
     <cc:Agent>
      <dc:title>Matplotlib v3.3.4, https://matplotlib.org/</dc:title>
     </cc:Agent>
    </dc:creator>
   </cc:Work>
  </rdf:RDF>
 </metadata>
 <defs>
  <style type="text/css">*{stroke-linecap:butt;stroke-linejoin:round;}</style>
 </defs>
 <g id="figure_1">
  <g id="patch_1">
   <path d="M 0 222.954375 
L 438.403125 222.954375 
L 438.403125 0 
L 0 0 
z
" style="fill:#ffffff;"/>
  </g>
  <g id="axes_1">
   <g id="patch_2">
    <path d="M 40.603125 185.398125 
L 218.14858 185.398125 
L 218.14858 22.318125 
L 40.603125 22.318125 
z
" style="fill:#ffffff;"/>
   </g>
   <g id="patch_3">
    <path clip-path="url(#p10246e0f78)" d="M 115.954349 185.398125 
L 142.263963 185.398125 
L 142.263963 100.695408 
L 115.954349 100.695408 
z
" style="fill:#ff7f0e;"/>
   </g>
   <g id="patch_4">
    <path clip-path="url(#p10246e0f78)" d="M 142.263963 185.398125 
L 168.573577 185.398125 
L 168.573577 185.222757 
L 142.263963 185.222757 
z
" style="fill:#ff7f0e;"/>
   </g>
   <g id="patch_5">
    <path clip-path="url(#p10246e0f78)" d="M 168.573577 185.398125 
L 194.88319 185.398125 
L 194.88319 185.398125 
L 168.573577 185.398125 
z
" style="fill:#ff7f0e;"/>
   </g>
   <g id="patch_6">
    <path clip-path="url(#p10246e0f78)" d="M 194.88319 185.398125 
L 221.192804 185.398125 
L 221.192804 185.398125 
L 194.88319 185.398125 
z
" style="fill:#ff7f0e;"/>
   </g>
   <g id="patch_7">
    <path clip-path="url(#p10246e0f78)" d="M 221.192804 185.398125 
L 247.502418 185.398125 
L 247.502418 185.398125 
L 221.192804 185.398125 
z
" style="fill:#ff7f0e;"/>
   </g>
   <g id="patch_8">
    <path clip-path="url(#p10246e0f78)" d="M 247.502418 185.398125 
L 273.812032 185.398125 
L 273.812032 185.398125 
L 247.502418 185.398125 
z
" style="fill:#ff7f0e;"/>
   </g>
   <g id="patch_9">
    <path clip-path="url(#p10246e0f78)" d="M 273.812032 185.398125 
L 300.121646 185.398125 
L 300.121646 185.398125 
L 273.812032 185.398125 
z
" style="fill:#ff7f0e;"/>
   </g>
   <g id="patch_10">
    <path clip-path="url(#p10246e0f78)" d="M 300.121646 185.398125 
L 326.431259 185.398125 
L 326.431259 185.398125 
L 300.121646 185.398125 
z
" style="fill:#ff7f0e;"/>
   </g>
   <g id="patch_11">
    <path clip-path="url(#p10246e0f78)" d="M 326.431259 185.398125 
L 352.740873 185.398125 
L 352.740873 185.398125 
L 326.431259 185.398125 
z
" style="fill:#ff7f0e;"/>
   </g>
   <g id="patch_12">
    <path clip-path="url(#p10246e0f78)" d="M 352.740873 185.398125 
L 379.050487 185.398125 
L 379.050487 185.398125 
L 352.740873 185.398125 
z
" style="fill:#ff7f0e;"/>
   </g>
   <g id="patch_13">
    <path clip-path="url(#p10246e0f78)" d="M 379.050487 185.398125 
L 405.360101 185.398125 
L 405.360101 185.398125 
L 379.050487 185.398125 
z
" style="fill:#ff7f0e;"/>
   </g>
   <g id="patch_14">
    <path clip-path="url(#p10246e0f78)" d="M 405.360101 185.398125 
L 431.669714 185.398125 
L 431.669714 185.398125 
L 405.360101 185.398125 
z
" style="fill:#ff7f0e;"/>
   </g>
   <g id="patch_15">
    <path clip-path="url(#p10246e0f78)" d="M 431.669714 185.398125 
L 457.979328 185.398125 
L 457.979328 185.398125 
L 431.669714 185.398125 
z
" style="fill:#ff7f0e;"/>
   </g>
   <g id="patch_16">
    <path clip-path="url(#p10246e0f78)" d="M 457.979328 185.398125 
L 484.288942 185.398125 
L 484.288942 185.398125 
L 457.979328 185.398125 
z
" style="fill:#ff7f0e;"/>
   </g>
   <g id="patch_17">
    <path clip-path="url(#p10246e0f78)" d="M 484.288942 185.398125 
L 510.598556 185.398125 
L 510.598556 185.398125 
L 484.288942 185.398125 
z
" style="fill:#ff7f0e;"/>
   </g>
   <g id="patch_18">
    <path clip-path="url(#p10246e0f78)" d="M 510.598556 185.398125 
L 536.90817 185.398125 
L 536.90817 185.398125 
L 510.598556 185.398125 
z
" style="fill:#ff7f0e;"/>
   </g>
   <g id="patch_19">
    <path clip-path="url(#p10246e0f78)" d="M 536.90817 185.398125 
L 563.217783 185.398125 
L 563.217783 185.398125 
L 536.90817 185.398125 
z
" style="fill:#ff7f0e;"/>
   </g>
   <g id="patch_20">
    <path clip-path="url(#p10246e0f78)" d="M 563.217783 185.398125 
L 589.527397 185.398125 
L 589.527397 185.398125 
L 563.217783 185.398125 
z
" style="fill:#ff7f0e;"/>
   </g>
   <g id="patch_21">
    <path clip-path="url(#p10246e0f78)" d="M 589.527397 185.398125 
L 615.837011 185.398125 
L 615.837011 185.398125 
L 589.527397 185.398125 
z
" style="fill:#ff7f0e;"/>
   </g>
   <g id="patch_22">
    <path clip-path="url(#p10246e0f78)" d="M 615.837011 185.398125 
L 642.146625 185.398125 
L 642.146625 182.592238 
L 615.837011 182.592238 
z
" style="fill:#ff7f0e;"/>
   </g>
   <g id="matplotlib.axis_1">
    <g id="xtick_1">
     <g id="line2d_1">
      <defs>
       <path d="M 0 0 
L 0 3.5 
" id="m6982ccc50d" style="stroke:#000000;stroke-width:0.8;"/>
      </defs>
      <g>
       <use style="stroke:#000000;stroke-width:0.8;" x="70.194034" xlink:href="#m6982ccc50d" y="185.398125"/>
      </g>
     </g>
     <g id="text_1">
      <!-- −0.1 -->
      <g transform="translate(58.052628 199.996562)scale(0.1 -0.1)">
       <defs>
        <path d="M 10.59375 35.5 
L 73.1875 35.5 
L 73.1875 27.203125 
L 10.59375 27.203125 
z
" id="DejaVuSans-8722"/>
        <path d="M 31.78125 66.40625 
Q 24.171875 66.40625 20.328125 58.90625 
Q 16.5 51.421875 16.5 36.375 
Q 16.5 21.390625 20.328125 13.890625 
Q 24.171875 6.390625 31.78125 6.390625 
Q 39.453125 6.390625 43.28125 13.890625 
Q 47.125 21.390625 47.125 36.375 
Q 47.125 51.421875 43.28125 58.90625 
Q 39.453125 66.40625 31.78125 66.40625 
z
M 31.78125 74.21875 
Q 44.046875 74.21875 50.515625 64.515625 
Q 56.984375 54.828125 56.984375 36.375 
Q 56.984375 17.96875 50.515625 8.265625 
Q 44.046875 -1.421875 31.78125 -1.421875 
Q 19.53125 -1.421875 13.0625 8.265625 
Q 6.59375 17.96875 6.59375 36.375 
Q 6.59375 54.828125 13.0625 64.515625 
Q 19.53125 74.21875 31.78125 74.21875 
z
" id="DejaVuSans-48"/>
        <path d="M 10.6875 12.40625 
L 21 12.40625 
L 21 0 
L 10.6875 0 
z
" id="DejaVuSans-46"/>
        <path d="M 12.40625 8.296875 
L 28.515625 8.296875 
L 28.515625 63.921875 
L 10.984375 60.40625 
L 10.984375 69.390625 
L 28.421875 72.90625 
L 38.28125 72.90625 
L 38.28125 8.296875 
L 54.390625 8.296875 
L 54.390625 0 
L 12.40625 0 
z
" id="DejaVuSans-49"/>
       </defs>
       <use xlink:href="#DejaVuSans-8722"/>
       <use x="83.789062" xlink:href="#DejaVuSans-48"/>
       <use x="147.412109" xlink:href="#DejaVuSans-46"/>
       <use x="179.199219" xlink:href="#DejaVuSans-49"/>
      </g>
     </g>
    </g>
    <g id="xtick_2">
     <g id="line2d_2">
      <g>
       <use style="stroke:#000000;stroke-width:0.8;" x="129.375852" xlink:href="#m6982ccc50d" y="185.398125"/>
      </g>
     </g>
     <g id="text_2">
      <!-- 0.0 -->
      <g transform="translate(121.42429 199.996562)scale(0.1 -0.1)">
       <use xlink:href="#DejaVuSans-48"/>
       <use x="63.623047" xlink:href="#DejaVuSans-46"/>
       <use x="95.410156" xlink:href="#DejaVuSans-48"/>
      </g>
     </g>
    </g>
    <g id="xtick_3">
     <g id="line2d_3">
      <g>
       <use style="stroke:#000000;stroke-width:0.8;" x="188.55767" xlink:href="#m6982ccc50d" y="185.398125"/>
      </g>
     </g>
     <g id="text_3">
      <!-- 0.1 -->
      <g transform="translate(180.606108 199.996562)scale(0.1 -0.1)">
       <use xlink:href="#DejaVuSans-48"/>
       <use x="63.623047" xlink:href="#DejaVuSans-46"/>
       <use x="95.410156" xlink:href="#DejaVuSans-49"/>
      </g>
     </g>
    </g>
    <g id="text_4">
     <!-- $x$ -->
     <g transform="translate(126.375852 213.674688)scale(0.1 -0.1)">
      <defs>
       <path d="M 60.015625 54.6875 
L 34.90625 27.875 
L 50.296875 0 
L 39.984375 0 
L 28.421875 21.6875 
L 8.296875 0 
L -2.59375 0 
L 24.3125 28.8125 
L 10.015625 54.6875 
L 20.3125 54.6875 
L 30.8125 34.90625 
L 49.125 54.6875 
z
" id="DejaVuSans-Oblique-120"/>
      </defs>
      <use transform="translate(0 0.3125)" xlink:href="#DejaVuSans-Oblique-120"/>
     </g>
    </g>
   </g>
   <g id="matplotlib.axis_2">
    <g id="ytick_1">
     <g id="line2d_4">
      <defs>
       <path d="M 0 0 
L -3.5 0 
" id="m764a8ff193" style="stroke:#000000;stroke-width:0.8;"/>
      </defs>
      <g>
       <use style="stroke:#000000;stroke-width:0.8;" x="40.603125" xlink:href="#m764a8ff193" y="185.398125"/>
      </g>
     </g>
     <g id="text_5">
      <!-- 0 -->
      <g transform="translate(27.240625 189.197344)scale(0.1 -0.1)">
       <use xlink:href="#DejaVuSans-48"/>
      </g>
     </g>
    </g>
    <g id="ytick_2">
     <g id="line2d_5">
      <g>
       <use style="stroke:#000000;stroke-width:0.8;" x="40.603125" xlink:href="#m764a8ff193" y="146.417717"/>
      </g>
     </g>
     <g id="text_6">
      <!-- 10 -->
      <g transform="translate(20.878125 150.216935)scale(0.1 -0.1)">
       <use xlink:href="#DejaVuSans-49"/>
       <use x="63.623047" xlink:href="#DejaVuSans-48"/>
      </g>
     </g>
    </g>
    <g id="ytick_3">
     <g id="line2d_6">
      <g>
       <use style="stroke:#000000;stroke-width:0.8;" x="40.603125" xlink:href="#m764a8ff193" y="107.437308"/>
      </g>
     </g>
     <g id="text_7">
      <!-- 20 -->
      <g transform="translate(20.878125 111.236527)scale(0.1 -0.1)">
       <defs>
        <path d="M 19.1875 8.296875 
L 53.609375 8.296875 
L 53.609375 0 
L 7.328125 0 
L 7.328125 8.296875 
Q 12.9375 14.109375 22.625 23.890625 
Q 32.328125 33.6875 34.8125 36.53125 
Q 39.546875 41.84375 41.421875 45.53125 
Q 43.3125 49.21875 43.3125 52.78125 
Q 43.3125 58.59375 39.234375 62.25 
Q 35.15625 65.921875 28.609375 65.921875 
Q 23.96875 65.921875 18.8125 64.3125 
Q 13.671875 62.703125 7.8125 59.421875 
L 7.8125 69.390625 
Q 13.765625 71.78125 18.9375 73 
Q 24.125 74.21875 28.421875 74.21875 
Q 39.75 74.21875 46.484375 68.546875 
Q 53.21875 62.890625 53.21875 53.421875 
Q 53.21875 48.921875 51.53125 44.890625 
Q 49.859375 40.875 45.40625 35.40625 
Q 44.1875 33.984375 37.640625 27.21875 
Q 31.109375 20.453125 19.1875 8.296875 
z
" id="DejaVuSans-50"/>
       </defs>
       <use xlink:href="#DejaVuSans-50"/>
       <use x="63.623047" xlink:href="#DejaVuSans-48"/>
      </g>
     </g>
    </g>
    <g id="ytick_4">
     <g id="line2d_7">
      <g>
       <use style="stroke:#000000;stroke-width:0.8;" x="40.603125" xlink:href="#m764a8ff193" y="68.4569"/>
      </g>
     </g>
     <g id="text_8">
      <!-- 30 -->
      <g transform="translate(20.878125 72.256119)scale(0.1 -0.1)">
       <defs>
        <path d="M 40.578125 39.3125 
Q 47.65625 37.796875 51.625 33 
Q 55.609375 28.21875 55.609375 21.1875 
Q 55.609375 10.40625 48.1875 4.484375 
Q 40.765625 -1.421875 27.09375 -1.421875 
Q 22.515625 -1.421875 17.65625 -0.515625 
Q 12.796875 0.390625 7.625 2.203125 
L 7.625 11.71875 
Q 11.71875 9.328125 16.59375 8.109375 
Q 21.484375 6.890625 26.8125 6.890625 
Q 36.078125 6.890625 40.9375 10.546875 
Q 45.796875 14.203125 45.796875 21.1875 
Q 45.796875 27.640625 41.28125 31.265625 
Q 36.765625 34.90625 28.71875 34.90625 
L 20.21875 34.90625 
L 20.21875 43.015625 
L 29.109375 43.015625 
Q 36.375 43.015625 40.234375 45.921875 
Q 44.09375 48.828125 44.09375 54.296875 
Q 44.09375 59.90625 40.109375 62.90625 
Q 36.140625 65.921875 28.71875 65.921875 
Q 24.65625 65.921875 20.015625 65.03125 
Q 15.375 64.15625 9.8125 62.3125 
L 9.8125 71.09375 
Q 15.4375 72.65625 20.34375 73.4375 
Q 25.25 74.21875 29.59375 74.21875 
Q 40.828125 74.21875 47.359375 69.109375 
Q 53.90625 64.015625 53.90625 55.328125 
Q 53.90625 49.265625 50.4375 45.09375 
Q 46.96875 40.921875 40.578125 39.3125 
z
" id="DejaVuSans-51"/>
       </defs>
       <use xlink:href="#DejaVuSans-51"/>
       <use x="63.623047" xlink:href="#DejaVuSans-48"/>
      </g>
     </g>
    </g>
    <g id="ytick_5">
     <g id="line2d_8">
      <g>
       <use style="stroke:#000000;stroke-width:0.8;" x="40.603125" xlink:href="#m764a8ff193" y="29.476492"/>
      </g>
     </g>
     <g id="text_9">
      <!-- 40 -->
      <g transform="translate(20.878125 33.27571)scale(0.1 -0.1)">
       <defs>
        <path d="M 37.796875 64.3125 
L 12.890625 25.390625 
L 37.796875 25.390625 
z
M 35.203125 72.90625 
L 47.609375 72.90625 
L 47.609375 25.390625 
L 58.015625 25.390625 
L 58.015625 17.1875 
L 47.609375 17.1875 
L 47.609375 0 
L 37.796875 0 
L 37.796875 17.1875 
L 4.890625 17.1875 
L 4.890625 26.703125 
z
" id="DejaVuSans-52"/>
       </defs>
       <use xlink:href="#DejaVuSans-52"/>
       <use x="63.623047" xlink:href="#DejaVuSans-48"/>
      </g>
     </g>
    </g>
    <g id="text_10">
     <!-- PDF -->
     <g transform="translate(14.798438 113.59875)rotate(-90)scale(0.1 -0.1)">
      <defs>
       <path d="M 19.671875 64.796875 
L 19.671875 37.40625 
L 32.078125 37.40625 
Q 38.96875 37.40625 42.71875 40.96875 
Q 46.484375 44.53125 46.484375 51.125 
Q 46.484375 57.671875 42.71875 61.234375 
Q 38.96875 64.796875 32.078125 64.796875 
z
M 9.8125 72.90625 
L 32.078125 72.90625 
Q 44.34375 72.90625 50.609375 67.359375 
Q 56.890625 61.8125 56.890625 51.125 
Q 56.890625 40.328125 50.609375 34.8125 
Q 44.34375 29.296875 32.078125 29.296875 
L 19.671875 29.296875 
L 19.671875 0 
L 9.8125 0 
z
" id="DejaVuSans-80"/>
       <path d="M 19.671875 64.796875 
L 19.671875 8.109375 
L 31.59375 8.109375 
Q 46.6875 8.109375 53.6875 14.9375 
Q 60.6875 21.78125 60.6875 36.53125 
Q 60.6875 51.171875 53.6875 57.984375 
Q 46.6875 64.796875 31.59375 64.796875 
z
M 9.8125 72.90625 
L 30.078125 72.90625 
Q 51.265625 72.90625 61.171875 64.09375 
Q 71.09375 55.28125 71.09375 36.53125 
Q 71.09375 17.671875 61.125 8.828125 
Q 51.171875 0 30.078125 0 
L 9.8125 0 
z
" id="DejaVuSans-68"/>
       <path d="M 9.8125 72.90625 
L 51.703125 72.90625 
L 51.703125 64.59375 
L 19.671875 64.59375 
L 19.671875 43.109375 
L 48.578125 43.109375 
L 48.578125 34.8125 
L 19.671875 34.8125 
L 19.671875 0 
L 9.8125 0 
z
" id="DejaVuSans-70"/>
      </defs>
      <use xlink:href="#DejaVuSans-80"/>
      <use x="60.302734" xlink:href="#DejaVuSans-68"/>
      <use x="137.304688" xlink:href="#DejaVuSans-70"/>
     </g>
    </g>
   </g>
   <g id="line2d_9">
    <path clip-path="url(#p10246e0f78)" d="M -1 185.398125 
L 106.545191 185.306887 
L 108.324204 185.120039 
L 109.510212 184.842164 
L 110.69622 184.330378 
L 111.882229 183.428194 
L 112.475233 182.762391 
L 113.068237 181.906786 
L 113.661241 180.819639 
L 114.254245 179.453951 
L 114.84725 177.757995 
L 115.440254 175.67626 
L 116.033258 173.150889 
L 117.219266 166.538461 
L 118.405275 157.499145 
L 119.591283 145.751955 
L 120.777292 131.27627 
L 122.556304 105.33601 
L 125.521325 59.608837 
L 126.707333 44.920319 
L 127.300338 39.163845 
L 127.893342 34.69221 
L 128.486346 31.635411 
L 129.07935 30.083839 
L 129.672354 30.083839 
L 130.265359 31.635411 
L 130.858363 34.69221 
L 131.451367 39.163845 
L 132.044371 44.920319 
L 133.23038 59.608837 
L 135.009392 86.543998 
L 137.381409 123.108196 
L 138.567417 138.843038 
L 139.753426 151.972852 
L 140.939434 162.344389 
L 142.125442 170.123653 
L 143.311451 175.67626 
L 144.497459 179.453951 
L 145.683468 181.906786 
L 146.869476 183.428194 
L 148.055484 184.330378 
L 149.241493 184.842164 
L 150.427501 185.120039 
L 152.206514 185.306887 
L 155.764539 185.390636 
L 181.263719 185.398125 
L 277.330398 185.398125 
L 277.330398 185.398125 
" style="fill:none;stroke:#1f77b4;stroke-linecap:square;stroke-width:1.5;"/>
   </g>
   <g id="patch_23">
    <path d="M 40.603125 185.398125 
L 40.603125 22.318125 
" style="fill:none;stroke:#000000;stroke-linecap:square;stroke-linejoin:miter;stroke-width:0.8;"/>
   </g>
   <g id="patch_24">
    <path d="M 218.14858 185.398125 
L 218.14858 22.318125 
" style="fill:none;stroke:#000000;stroke-linecap:square;stroke-linejoin:miter;stroke-width:0.8;"/>
   </g>
   <g id="patch_25">
    <path d="M 40.603125 185.398125 
L 218.14858 185.398125 
" style="fill:none;stroke:#000000;stroke-linecap:square;stroke-linejoin:miter;stroke-width:0.8;"/>
   </g>
   <g id="patch_26">
    <path d="M 40.603125 22.318125 
L 218.14858 22.318125 
" style="fill:none;stroke:#000000;stroke-linecap:square;stroke-linejoin:miter;stroke-width:0.8;"/>
   </g>
   <g id="text_11">
    <!-- $N=100$ -->
    <g transform="translate(106.035852 16.318125)scale(0.12 -0.12)">
     <defs>
      <path d="M 16.890625 72.90625 
L 30.171875 72.90625 
L 50.296875 10.40625 
L 62.5 72.90625 
L 72.125 72.90625 
L 57.90625 0 
L 44.578125 0 
L 24.515625 62.890625 
L 12.3125 0 
L 2.6875 0 
z
" id="DejaVuSans-Oblique-78"/>
      <path d="M 10.59375 45.40625 
L 73.1875 45.40625 
L 73.1875 37.203125 
L 10.59375 37.203125 
z
M 10.59375 25.484375 
L 73.1875 25.484375 
L 73.1875 17.1875 
L 10.59375 17.1875 
z
" id="DejaVuSans-61"/>
     </defs>
     <use transform="translate(0 0.78125)" xlink:href="#DejaVuSans-Oblique-78"/>
     <use transform="translate(94.287109 0.78125)" xlink:href="#DejaVuSans-61"/>
     <use transform="translate(197.558594 0.78125)" xlink:href="#DejaVuSans-49"/>
     <use transform="translate(261.181641 0.78125)" xlink:href="#DejaVuSans-48"/>
     <use transform="translate(324.804688 0.78125)" xlink:href="#DejaVuSans-48"/>
    </g>
   </g>
  </g>
  <g id="axes_2">
   <g id="patch_27">
    <path d="M 253.65767 185.398125 
L 431.203125 185.398125 
L 431.203125 22.318125 
L 253.65767 22.318125 
z
" style="fill:#ffffff;"/>
   </g>
   <g id="patch_28">
    <path clip-path="url(#p437aaab21f)" d="M 325.724284 185.398125 
L 338.667874 185.398125 
L 338.667874 134.780904 
L 325.724284 134.780904 
z
" style="fill:#ff7f0e;"/>
   </g>
   <g id="patch_29">
    <path clip-path="url(#p437aaab21f)" d="M 338.667874 185.398125 
L 351.611463 185.398125 
L 351.611463 67.410096 
L 338.667874 67.410096 
z
" style="fill:#ff7f0e;"/>
   </g>
   <g id="patch_30">
    <path clip-path="url(#p437aaab21f)" d="M 351.611463 185.398125 
L 364.555053 185.398125 
L 364.555053 176.664872 
L 351.611463 176.664872 
z
" style="fill:#ff7f0e;"/>
   </g>
   <g id="patch_31">
    <path clip-path="url(#p437aaab21f)" d="M 364.555053 185.398125 
L 377.498642 185.398125 
L 377.498642 185.398125 
L 364.555053 185.398125 
z
" style="fill:#ff7f0e;"/>
   </g>
   <g id="patch_32">
    <path clip-path="url(#p437aaab21f)" d="M 377.498642 185.398125 
L 390.442232 185.398125 
L 390.442232 185.398125 
L 377.498642 185.398125 
z
" style="fill:#ff7f0e;"/>
   </g>
   <g id="patch_33">
    <path clip-path="url(#p437aaab21f)" d="M 390.442232 185.398125 
L 403.385821 185.398125 
L 403.385821 185.398125 
L 390.442232 185.398125 
z
" style="fill:#ff7f0e;"/>
   </g>
   <g id="patch_34">
    <path clip-path="url(#p437aaab21f)" d="M 403.385821 185.398125 
L 416.329411 185.398125 
L 416.329411 185.398125 
L 403.385821 185.398125 
z
" style="fill:#ff7f0e;"/>
   </g>
   <g id="patch_35">
    <path clip-path="url(#p437aaab21f)" d="M 416.329411 185.398125 
L 429.273 185.398125 
L 429.273 185.398125 
L 416.329411 185.398125 
z
" style="fill:#ff7f0e;"/>
   </g>
   <g id="patch_36">
    <path clip-path="url(#p437aaab21f)" d="M 429.273 185.398125 
L 442.21659 185.398125 
L 442.21659 185.398125 
L 429.273 185.398125 
z
" style="fill:#ff7f0e;"/>
   </g>
   <g id="patch_37">
    <path clip-path="url(#p437aaab21f)" d="M 442.21659 185.398125 
L 455.160179 185.398125 
L 455.160179 185.398125 
L 442.21659 185.398125 
z
" style="fill:#ff7f0e;"/>
   </g>
   <g id="patch_38">
    <path clip-path="url(#p437aaab21f)" d="M 455.160179 185.398125 
L 468.103769 185.398125 
L 468.103769 185.398125 
L 455.160179 185.398125 
z
" style="fill:#ff7f0e;"/>
   </g>
   <g id="patch_39">
    <path clip-path="url(#p437aaab21f)" d="M 468.103769 185.398125 
L 481.047358 185.398125 
L 481.047358 185.398125 
L 468.103769 185.398125 
z
" style="fill:#ff7f0e;"/>
   </g>
   <g id="patch_40">
    <path clip-path="url(#p437aaab21f)" d="M 481.047358 185.398125 
L 493.990948 185.398125 
L 493.990948 185.398125 
L 481.047358 185.398125 
z
" style="fill:#ff7f0e;"/>
   </g>
   <g id="patch_41">
    <path clip-path="url(#p437aaab21f)" d="M 493.990948 185.398125 
L 506.934537 185.398125 
L 506.934537 185.398125 
L 493.990948 185.398125 
z
" style="fill:#ff7f0e;"/>
   </g>
   <g id="patch_42">
    <path clip-path="url(#p437aaab21f)" d="M 506.934537 185.398125 
L 519.878126 185.398125 
L 519.878126 185.398125 
L 506.934537 185.398125 
z
" style="fill:#ff7f0e;"/>
   </g>
   <g id="patch_43">
    <path clip-path="url(#p437aaab21f)" d="M 519.878126 185.398125 
L 532.821716 185.398125 
L 532.821716 185.398125 
L 519.878126 185.398125 
z
" style="fill:#ff7f0e;"/>
   </g>
   <g id="patch_44">
    <path clip-path="url(#p437aaab21f)" d="M 532.821716 185.398125 
L 545.765305 185.398125 
L 545.765305 185.398125 
L 532.821716 185.398125 
z
" style="fill:#ff7f0e;"/>
   </g>
   <g id="patch_45">
    <path clip-path="url(#p437aaab21f)" d="M 545.765305 185.398125 
L 558.708895 185.398125 
L 558.708895 185.398125 
L 545.765305 185.398125 
z
" style="fill:#ff7f0e;"/>
   </g>
   <g id="patch_46">
    <path clip-path="url(#p437aaab21f)" d="M 558.708895 185.398125 
L 571.652484 185.398125 
L 571.652484 185.398125 
L 558.708895 185.398125 
z
" style="fill:#ff7f0e;"/>
   </g>
   <g id="patch_47">
    <path clip-path="url(#p437aaab21f)" d="M 571.652484 185.398125 
L 584.596074 185.398125 
L 584.596074 184.506977 
L 571.652484 184.506977 
z
" style="fill:#ff7f0e;"/>
   </g>
   <g id="matplotlib.axis_3">
    <g id="xtick_4">
     <g id="line2d_10">
      <g>
       <use style="stroke:#000000;stroke-width:0.8;" x="283.24858" xlink:href="#m6982ccc50d" y="185.398125"/>
      </g>
     </g>
     <g id="text_12">
      <!-- −0.1 -->
      <g transform="translate(271.107173 199.996562)scale(0.1 -0.1)">
       <use xlink:href="#DejaVuSans-8722"/>
       <use x="83.789062" xlink:href="#DejaVuSans-48"/>
       <use x="147.412109" xlink:href="#DejaVuSans-46"/>
       <use x="179.199219" xlink:href="#DejaVuSans-49"/>
      </g>
     </g>
    </g>
    <g id="xtick_5">
     <g id="line2d_11">
      <g>
       <use style="stroke:#000000;stroke-width:0.8;" x="342.430398" xlink:href="#m6982ccc50d" y="185.398125"/>
      </g>
     </g>
     <g id="text_13">
      <!-- 0.0 -->
      <g transform="translate(334.478835 199.996562)scale(0.1 -0.1)">
       <use xlink:href="#DejaVuSans-48"/>
       <use x="63.623047" xlink:href="#DejaVuSans-46"/>
       <use x="95.410156" xlink:href="#DejaVuSans-48"/>
      </g>
     </g>
    </g>
    <g id="xtick_6">
     <g id="line2d_12">
      <g>
       <use style="stroke:#000000;stroke-width:0.8;" x="401.612216" xlink:href="#m6982ccc50d" y="185.398125"/>
      </g>
     </g>
     <g id="text_14">
      <!-- 0.1 -->
      <g transform="translate(393.660653 199.996562)scale(0.1 -0.1)">
       <use xlink:href="#DejaVuSans-48"/>
       <use x="63.623047" xlink:href="#DejaVuSans-46"/>
       <use x="95.410156" xlink:href="#DejaVuSans-49"/>
      </g>
     </g>
    </g>
    <g id="text_15">
     <!-- $x$ -->
     <g transform="translate(339.430398 213.674688)scale(0.1 -0.1)">
      <use transform="translate(0 0.3125)" xlink:href="#DejaVuSans-Oblique-120"/>
     </g>
    </g>
   </g>
   <g id="matplotlib.axis_4">
    <g id="ytick_6">
     <g id="line2d_13">
      <g>
       <use style="stroke:#000000;stroke-width:0.8;" x="253.65767" xlink:href="#m764a8ff193" y="185.398125"/>
      </g>
     </g>
     <g id="text_16">
      <!-- 0 -->
      <g transform="translate(240.29517 189.197344)scale(0.1 -0.1)">
       <use xlink:href="#DejaVuSans-48"/>
      </g>
     </g>
    </g>
    <g id="ytick_7">
     <g id="line2d_14">
      <g>
       <use style="stroke:#000000;stroke-width:0.8;" x="253.65767" xlink:href="#m764a8ff193" y="146.417717"/>
      </g>
     </g>
     <g id="text_17">
      <!-- 10 -->
      <g transform="translate(233.93267 150.216935)scale(0.1 -0.1)">
       <use xlink:href="#DejaVuSans-49"/>
       <use x="63.623047" xlink:href="#DejaVuSans-48"/>
      </g>
     </g>
    </g>
    <g id="ytick_8">
     <g id="line2d_15">
      <g>
       <use style="stroke:#000000;stroke-width:0.8;" x="253.65767" xlink:href="#m764a8ff193" y="107.437308"/>
      </g>
     </g>
     <g id="text_18">
      <!-- 20 -->
      <g transform="translate(233.93267 111.236527)scale(0.1 -0.1)">
       <use xlink:href="#DejaVuSans-50"/>
       <use x="63.623047" xlink:href="#DejaVuSans-48"/>
      </g>
     </g>
    </g>
    <g id="ytick_9">
     <g id="line2d_16">
      <g>
       <use style="stroke:#000000;stroke-width:0.8;" x="253.65767" xlink:href="#m764a8ff193" y="68.4569"/>
      </g>
     </g>
     <g id="text_19">
      <!-- 30 -->
      <g transform="translate(233.93267 72.256119)scale(0.1 -0.1)">
       <use xlink:href="#DejaVuSans-51"/>
       <use x="63.623047" xlink:href="#DejaVuSans-48"/>
      </g>
     </g>
    </g>
    <g id="ytick_10">
     <g id="line2d_17">
      <g>
       <use style="stroke:#000000;stroke-width:0.8;" x="253.65767" xlink:href="#m764a8ff193" y="29.476492"/>
      </g>
     </g>
     <g id="text_20">
      <!-- 40 -->
      <g transform="translate(233.93267 33.27571)scale(0.1 -0.1)">
       <use xlink:href="#DejaVuSans-52"/>
       <use x="63.623047" xlink:href="#DejaVuSans-48"/>
      </g>
     </g>
    </g>
   </g>
   <g id="line2d_18">
    <path clip-path="url(#p437aaab21f)" d="M 194.475852 185.398125 
L 319.599736 185.306887 
L 321.378749 185.120039 
L 322.564757 184.842164 
L 323.750766 184.330378 
L 324.936774 183.428194 
L 325.529778 182.762391 
L 326.122782 181.906786 
L 326.715787 180.819639 
L 327.308791 179.453951 
L 327.901795 177.757995 
L 328.494799 175.67626 
L 329.087803 173.150889 
L 330.273812 166.538461 
L 331.45982 157.499145 
L 332.645829 145.751955 
L 333.831837 131.27627 
L 335.61085 105.33601 
L 338.57587 59.608837 
L 339.761879 44.920319 
L 340.354883 39.163845 
L 340.947887 34.69221 
L 341.540891 31.635411 
L 342.133896 30.083839 
L 342.7269 30.083839 
L 343.319904 31.635411 
L 343.912908 34.69221 
L 344.505912 39.163845 
L 345.098917 44.920319 
L 346.284925 59.608837 
L 348.063938 86.543998 
L 350.435954 123.108196 
L 351.621963 138.843038 
L 352.807971 151.972852 
L 353.993979 162.344389 
L 355.179988 170.123653 
L 356.365996 175.67626 
L 357.552005 179.453951 
L 358.738013 181.906786 
L 359.924021 183.428194 
L 361.11003 184.330378 
L 362.296038 184.842164 
L 363.482046 185.120039 
L 365.261059 185.306887 
L 368.819084 185.390636 
L 394.318264 185.398125 
L 439.403125 185.398125 
L 439.403125 185.398125 
" style="fill:none;stroke:#1f77b4;stroke-linecap:square;stroke-width:1.5;"/>
   </g>
   <g id="patch_48">
    <path d="M 253.65767 185.398125 
L 253.65767 22.318125 
" style="fill:none;stroke:#000000;stroke-linecap:square;stroke-linejoin:miter;stroke-width:0.8;"/>
   </g>
   <g id="patch_49">
    <path d="M 431.203125 185.398125 
L 431.203125 22.318125 
" style="fill:none;stroke:#000000;stroke-linecap:square;stroke-linejoin:miter;stroke-width:0.8;"/>
   </g>
   <g id="patch_50">
    <path d="M 253.65767 185.398125 
L 431.203125 185.398125 
" style="fill:none;stroke:#000000;stroke-linecap:square;stroke-linejoin:miter;stroke-width:0.8;"/>
   </g>
   <g id="patch_51">
    <path d="M 253.65767 22.318125 
L 431.203125 22.318125 
" style="fill:none;stroke:#000000;stroke-linecap:square;stroke-linejoin:miter;stroke-width:0.8;"/>
   </g>
   <g id="text_21">
    <!-- $N=1000$ -->
    <g transform="translate(315.250398 16.318125)scale(0.12 -0.12)">
     <use transform="translate(0 0.78125)" xlink:href="#DejaVuSans-Oblique-78"/>
     <use transform="translate(94.287109 0.78125)" xlink:href="#DejaVuSans-61"/>
     <use transform="translate(197.558594 0.78125)" xlink:href="#DejaVuSans-49"/>
     <use transform="translate(261.181641 0.78125)" xlink:href="#DejaVuSans-48"/>
     <use transform="translate(324.804688 0.78125)" xlink:href="#DejaVuSans-48"/>
     <use transform="translate(388.427734 0.78125)" xlink:href="#DejaVuSans-48"/>
    </g>
   </g>
  </g>
 </g>
 <defs>
  <clipPath id="p10246e0f78">
   <rect height="163.08" width="177.545455" x="40.603125" y="22.318125"/>
  </clipPath>
  <clipPath id="p437aaab21f">
   <rect height="163.08" width="177.545455" x="253.65767" y="22.318125"/>
  </clipPath>
 </defs>
</svg>
