<?xml version="1.0" encoding="UTF-8" standalone="no"?>
<svg
   version="1.0"
   width="74mm"
   height="45mm"
   id="svg51"
   xmlns="http://www.w3.org/2000/svg"
   xmlns:svg="http://www.w3.org/2000/svg">
  <defs
     id="defs13">
    <clipPath
       clipPathUnits="userSpaceOnUse"
       id="clipEmfPath1">
      <path
         d="  M 0,169.27875   L 275.75796,169.27875   L 275.75796,0   L 0,0   z"
         id="path9" />
    </clipPath>
    <pattern
       id="EMFhbasepattern"
       patternUnits="userSpaceOnUse"
       width="6"
       height="6"
       x="0"
       y="0" />
  </defs>
  <path
     style="fill:#ffffff;fill-rule:nonzero;fill-opacity:1;stroke:none;"
     clip-path="url(#clipEmfPath1)"
     d="  M 0,0   L 275.75796,0   L 275.75796,169.27875   L 0,169.27875   z "
     id="path15" />
  <path
     style="fill:#f7b192;fill-rule:evenodd;fill-opacity:1;stroke:none;"
     d="  M 2.3999822,93.279309   C 2.3999822,51.519618 63.359531,17.679869 138.55897,17.679869   C 213.67842,17.679869 274.63797,51.519618 274.63797,93.279309   C 274.63797,135.119 213.67842,168.95875 138.55897,168.95875   C 63.359531,168.95875 2.3999822,135.119 2.3999822,93.279309   z "
     id="path17" />
  <path
     style="fill:#f7b192;fill-rule:evenodd;fill-opacity:1;stroke:none;"
     d="  M 2.3999822,93.279309   C 2.3999822,51.519618 63.359531,17.679869 138.55897,17.679869   C 213.67842,17.679869 274.63797,51.519618 274.63797,93.279309   C 274.63797,135.119 213.67842,168.95875 138.55897,168.95875   C 63.359531,168.95875 2.3999822,135.119 2.3999822,93.279309   z "
     id="path19" />
  <path
     style="fill:none;stroke:#ed7d31;stroke-width:0.63999528px;stroke-linecap:butt;stroke-linejoin:miter;stroke-miterlimit:8;stroke-dasharray:none;stroke-opacity:1;"
     d="  M 2.3999822,93.279309   C 2.3999822,51.519618 63.359531,17.679869 138.55897,17.679869   C 213.67842,17.679869 274.63797,51.519618 274.63797,93.279309   C 274.63797,135.119 213.67842,168.95875 138.55897,168.95875   C 63.359531,168.95875 2.3999822,135.119 2.3999822,93.279309   z "
     id="path21" />
  <path
     style="fill:#97aadb;fill-rule:evenodd;fill-opacity:1;stroke:none;"
     d="  M 110.87918,93.19931   C 110.87918,68.319494 139.43897,48.239643 174.55871,48.239643   C 209.75845,48.239643 238.31823,68.319494 238.31823,93.19931   C 238.31823,117.99913 209.75845,138.07898 174.55871,138.07898   C 139.43897,138.07898 110.87918,117.99913 110.87918,93.19931   z "
     id="path23" />
  <path
     style="fill:#97aadb;fill-rule:evenodd;fill-opacity:1;stroke:none;"
     d="  M 110.87918,93.19931   C 110.87918,68.319494 139.43897,48.239643 174.55871,48.239643   C 209.75845,48.239643 238.31823,68.319494 238.31823,93.19931   C 238.31823,117.99913 209.75845,138.07898 174.55871,138.07898   C 139.43897,138.07898 110.87918,117.99913 110.87918,93.19931   z "
     id="path25" />
  <path
     style="fill:#97aadb;fill-rule:evenodd;fill-opacity:1;stroke:none;"
     d="  M 110.87918,93.19931   C 110.87918,68.319494 139.43897,48.239643 174.55871,48.239643   C 209.75845,48.239643 238.31823,68.319494 238.31823,93.19931   C 238.31823,117.99913 209.75845,138.07898 174.55871,138.07898   C 139.43897,138.07898 110.87918,117.99913 110.87918,93.19931   z "
     id="path27" />
  <path
     style="fill:none;stroke:#4472c4;stroke-width:0.63999528px;stroke-linecap:butt;stroke-linejoin:miter;stroke-miterlimit:8;stroke-dasharray:none;stroke-opacity:1;"
     d="  M 110.87918,93.19931   C 110.87918,68.319494 139.43897,48.239643 174.55871,48.239643   C 209.75845,48.239643 238.31823,68.319494 238.31823,93.19931   C 238.31823,117.99913 209.75845,138.07898 174.55871,138.07898   C 139.43897,138.07898 110.87918,117.99913 110.87918,93.19931   z "
     id="path29" />
  <path
     style="fill:#c55a11;fill-rule:nonzero;fill-opacity:1;stroke:none;"
     d="  M 54.639595,57.039577   L 55.119592,57.039577   C 55.919586,57.039577 55.919586,57.119577 55.759587,57.99957   C 55.119592,60.959548 54.479596,63.759528 53.9996,66.319509   C 53.759602,67.5195 53.839601,68.239495 54.079599,68.639492   C 54.399597,69.119488 54.959593,69.439486 55.599588,69.439486   C 56.239583,69.439486 57.279576,69.199487 58.399567,68.399493   C 59.999556,67.359501 61.279546,64.959519 61.279546,62.959534   C 61.279546,61.679543 60.79955,60.879549 59.919556,60.879549   C 59.119562,60.879549 57.519574,61.679543 55.919586,63.679528   L 55.839586,63.679528   C 56.399582,61.279546 56.879579,59.119562 57.519574,56.559581   C 57.599573,56.159584 57.599573,55.999585 57.439575,55.999585   C 57.119577,55.999585 56.079585,56.479582 54.639595,56.63958   z  M 56.479582,68.639492   C 55.759587,68.639492 55.039592,68.079496 55.35959,66.239509   C 55.439589,65.599514 55.599588,65.119518 55.679588,64.79952   C 56.879579,63.119532 58.399567,61.919541 59.119562,61.919541   C 59.43956,61.919541 59.679558,62.319538 59.679558,63.279531   C 59.679558,65.519515 58.559566,67.679499 57.519574,68.319494   C 57.199576,68.479493 56.799579,68.639492 56.479582,68.639492   z "
     id="path31" />
  <path
     style="fill:#c55a11;fill-rule:nonzero;fill-opacity:1;stroke:none;"
     d="  M 75.679439,63.279531   L 75.679439,62.319538   L 66.799505,62.319538   L 66.799505,63.279531   z  M 75.679439,66.639506   L 75.679439,65.759513   L 66.799505,65.759513   L 66.799505,66.639506   z "
     id="path33" />
  <path
     style="fill:#c55a11;fill-rule:nonzero;fill-opacity:1;stroke:none;"
     d="  M 85.279368,57.439575   C 82.479389,57.439575 81.519396,60.71955 81.519396,63.43953   C 81.519396,66.399508 82.479389,69.439486 85.279368,69.439486   C 88.079348,69.439486 89.03934,66.15951 89.03934,63.43953   C 89.03934,60.559551 88.079348,57.439575 85.279368,57.439575   z  M 85.279368,57.99957   C 86.959356,57.99957 87.439352,60.79955 87.439352,63.43953   C 87.439352,65.999511 86.959356,68.79949 85.279368,68.79949   C 83.67938,68.79949 83.119384,65.999511 83.119384,63.43953   C 83.119384,60.79955 83.599381,57.99957 85.279368,57.99957   z "
     id="path35" />
  <path
     style="fill:#2e75b6;fill-rule:nonzero;fill-opacity:1;stroke:none;"
     d="  M 157.67883,71.279472   L 158.23883,71.359471   C 158.95882,71.359471 158.95882,71.359471 158.79882,72.239465   C 158.23883,75.199443 157.51883,77.999422 157.03884,80.559403   C 156.79884,81.759394 156.87884,82.479389 157.11884,82.879386   C 157.43883,83.359383 157.99883,83.67938 158.63882,83.67938   C 159.35882,83.67938 160.31881,83.439382 161.4388,82.719387   C 163.11879,81.599396 164.31878,79.199413 164.31878,77.199428   C 164.31878,75.919438 163.83879,75.119444 162.95879,75.119444   C 162.1588,75.119444 160.55881,75.999437 158.95882,77.919423   L 158.87882,77.919423   C 159.43882,75.519441 159.91882,73.359457 160.55881,70.799476   C 160.63881,70.399479 160.63881,70.23948 160.47881,70.23948   C 160.15881,70.23948 159.11882,70.719476 157.67883,70.879475   z  M 159.59882,82.879386   C 158.79882,82.879386 158.07883,82.31939 158.39883,80.479404   C 158.55883,79.839409 158.63882,79.359412 158.71882,79.039415   C 159.91882,77.359427 161.5188,76.159436 162.1588,76.159436   C 162.4788,76.159436 162.79879,76.559433 162.79879,77.519426   C 162.79879,79.759409 161.5988,81.919393 160.55881,82.559388   C 160.23881,82.719387 159.91882,82.879386 159.59882,82.879386   z "
     id="path37" />
  <path
     style="fill:#2e75b6;fill-rule:nonzero;fill-opacity:1;stroke:none;"
     d="  M 178.71868,77.519426   L 178.71868,76.559433   L 169.83874,76.559433   L 169.83874,77.519426   z  M 178.71868,80.9594   L 178.71868,79.999407   L 169.83874,79.999407   L 169.83874,80.9594   z "
     id="path39" />
  <path
     style="fill:#2e75b6;fill-rule:nonzero;fill-opacity:1;stroke:none;"
     d="  M 191.03858,83.519381   L 191.03858,82.959385   C 189.3586,82.879386 189.1986,82.719387 189.1986,81.359397   L 189.1986,71.679469   C 188.15861,72.079466 187.11861,72.399464 185.91862,72.639462   L 185.91862,73.039459   L 186.79862,73.119458   C 187.59861,73.119458 187.67861,73.199458 187.67861,74.23945   L 187.67861,81.359397   C 187.67861,82.719387 187.59861,82.879386 185.91862,82.959385   L 185.91862,83.519381   z "
     id="path41" />
  <path
     style="fill:#000000;fill-rule:nonzero;fill-opacity:1;stroke:none;"
     d="  M 20.639847,14.079896   C 20.319849,14.319894 19.599855,14.559892 18.559863,14.559892   C 18.159865,14.239895 17.59987,14.079896 16.959874,14.079896   C 16.319879,14.079896 15.359886,14.319894 14.559892,14.959889   C 13.599899,15.679884 13.039903,16.879875 13.039903,18.079866   C 13.039903,19.359857 13.599899,20.079851 14.639892,20.319849   C 13.759898,20.879845 13.5199,21.199843 13.5199,21.519841   C 13.5199,21.759839 13.759898,22.159836 14.159895,22.399834   C 12.15991,23.439826 11.119918,24.31982 11.039918,25.119814   C 11.039918,26.239806 12.559907,27.199799 14.399893,27.199799   C 16.15988,27.199799 18.799861,26.079807 18.799861,24.559818   C 18.799861,23.759824 18.079866,22.95983 16.23988,22.079836   C 15.359886,21.59984 14.959889,21.279842 14.959889,20.959845   C 14.959889,20.719847 15.119888,20.559848 15.279887,20.399849   C 16.399879,20.159851 17.199873,19.679854 17.679869,19.279857   C 18.399864,18.719861 19.119858,17.759868 19.119858,16.479878   C 19.119858,15.919882 19.039859,15.679884 18.95986,15.359886   C 19.199858,15.359886 19.279857,15.359886 19.439856,15.359886   C 19.759854,15.279887 20.23985,15.039889 20.799846,14.479893   z  M 15.679884,19.599855   C 14.959889,19.599855 14.399893,19.039859 14.399893,17.919867   C 14.399893,16.959874 14.719891,16.079881 15.119888,15.519885   C 15.439886,15.039889 15.919882,14.719891 16.479878,14.719891   C 17.279872,14.719891 17.759868,15.439886 17.759868,16.479878   C 17.759868,18.479863 16.639877,19.599855 15.679884,19.599855   z  M 15.119888,26.399804   C 13.839897,26.399804 12.639906,25.759809 12.639906,24.799816   C 12.639906,24.079822 13.4399,23.359827 14.639892,22.719832   C 14.959889,22.879831 15.439886,23.199828 16.079881,23.519826   C 16.959874,24.079822 17.439871,24.559818 17.439871,25.039815   C 17.439871,25.759809 16.559877,26.399804 15.119888,26.399804   z "
     id="path43" />
  <path
     style="fill:#000000;fill-rule:nonzero;fill-opacity:1;stroke:none;"
     d="  M 25.359812,25.119814   C 23.519826,23.599825 22.399834,20.559848 22.399834,17.359871   C 22.399834,14.159895 23.439826,11.199917 25.359812,9.5999289   L 25.039815,9.1999319   C 22.319835,11.039918 21.039844,13.999896 21.039844,17.359871   C 21.039844,20.719847 22.319835,23.759824 25.039815,25.519811   z "
     id="path45" />
  <path
     style="fill:#000000;fill-rule:nonzero;fill-opacity:1;stroke:none;"
     d="  M 27.839794,16.399879   C 28.479789,15.519885 28.879786,15.279887 29.039785,15.279887   C 29.199784,15.279887 29.359783,15.599884 29.67978,16.479878   L 30.319775,18.399864   C 29.119784,20.159851 28.239791,21.199843 27.759794,21.199843   C 27.519796,21.199843 27.359797,21.119844 27.279798,21.039844   C 27.199799,20.959845 27.119799,20.879845 26.9598,20.879845   C 26.639803,20.879845 26.239806,21.279842 26.239806,21.759839   C 26.239806,22.239835 26.639803,22.639832 27.119799,22.639832   C 27.999793,22.639832 28.879786,21.679839 30.479774,19.119858   L 31.03977,20.879845   C 31.439767,22.079836 31.839764,22.639832 32.319761,22.639832   C 32.959756,22.639832 33.839749,21.919838 34.639743,20.639847   L 34.319746,20.23985   C 33.75975,20.959845 33.279753,21.359842 33.039755,21.359842   C 32.719758,21.359842 32.39976,20.799846 32.079762,19.599855   L 31.439767,17.759868   C 31.839764,17.199873 32.319761,16.639877 32.639758,16.23988   C 33.119755,15.599884 33.519752,15.279887 33.75975,15.279887   C 33.999748,15.279887 34.079748,15.359886 34.239746,15.519885   C 34.319746,15.599884 34.399745,15.679884 34.479745,15.679884   C 34.799742,15.679884 35.199739,15.279887 35.199739,14.87989   C 35.199739,14.399893 34.959741,14.079896 34.479745,14.079896   C 33.599751,14.079896 32.799757,14.87989 31.279768,17.119873   L 30.959771,16.079881   C 30.479774,14.719891 30.239776,14.079896 29.75978,14.079896   C 29.119784,14.079896 28.31979,14.87989 27.519796,15.999881   z "
     id="path47" />
  <path
     style="fill:#000000;fill-rule:nonzero;fill-opacity:1;stroke:none;"
     d="  M 35.919734,9.5999289   C 37.75972,11.119918 38.879712,14.159895 38.879712,17.359871   C 38.879712,20.559848 37.83972,23.519826 35.919734,25.119814   L 36.239732,25.519811   C 39.039711,23.679825 40.239702,20.719847 40.239702,17.359871   C 40.239702,13.999896 39.039711,11.039918 36.239732,9.1999319   z "
     id="path49" />
</svg>
