<?xml version="1.0" encoding="utf-8" standalone="no"?>
<!DOCTYPE svg PUBLIC "-//W3C//DTD SVG 1.1//EN"
  "http://www.w3.org/Graphics/SVG/1.1/DTD/svg11.dtd">
<svg xmlns:xlink="http://www.w3.org/1999/xlink" width="416.82pt" height="325.890125pt" viewBox="0 0 416.82 325.890125" xmlns="http://www.w3.org/2000/svg" version="1.1">
 <metadata>
  <rdf:RDF xmlns:dc="http://purl.org/dc/elements/1.1/" xmlns:cc="http://creativecommons.org/ns#" xmlns:rdf="http://www.w3.org/1999/02/22-rdf-syntax-ns#">
   <cc:Work>
    <dc:type rdf:resource="http://purl.org/dc/dcmitype/StillImage"/>
    <dc:date>2025-03-03T20:22:10.985694</dc:date>
    <dc:format>image/svg+xml</dc:format>
    <dc:creator>
     <cc:Agent>
      <dc:title>Matplotlib v3.8.4, https://matplotlib.org/</dc:title>
     </cc:Agent>
    </dc:creator>
   </cc:Work>
  </rdf:RDF>
 </metadata>
 <defs>
  <style type="text/css">*{stroke-linejoin: round; stroke-linecap: butt}</style>
 </defs>
 <g id="figure_1">
  <g id="patch_1">
   <path d="M 0 325.890125 
L 416.82 325.890125 
L 416.82 0 
L 0 0 
z
" style="fill: #ffffff"/>
  </g>
  <g id="axes_1">
   <g id="patch_2">
    <path d="M 52.5 288.312 
L 409.62 288.312 
L 409.62 22.2 
L 52.5 22.2 
z
" style="fill: #ffffff"/>
   </g>
   <g id="matplotlib.axis_1">
    <g id="xtick_1">
     <g id="line2d_1">
      <defs>
       <path id="md1dee41a79" d="M 0 0 
L 0 3.5 
" style="stroke: #000000; stroke-width: 0.8"/>
      </defs>
      <g>
       <use xlink:href="#md1dee41a79" x="68.732727" y="288.312" style="stroke: #000000; stroke-width: 0.8"/>
      </g>
     </g>
     <g id="text_1">
      <!-- $\mathdefault{10^{-5}}$ -->
      <g transform="translate(56.982727 302.910437) scale(0.1 -0.1)">
       <defs>
        <path id="DejaVuSans-31" d="M 794 531 
L 1825 531 
L 1825 4091 
L 703 3866 
L 703 4441 
L 1819 4666 
L 2450 4666 
L 2450 531 
L 3481 531 
L 3481 0 
L 794 0 
L 794 531 
z
" transform="scale(0.015625)"/>
        <path id="DejaVuSans-30" d="M 2034 4250 
Q 1547 4250 1301 3770 
Q 1056 3291 1056 2328 
Q 1056 1369 1301 889 
Q 1547 409 2034 409 
Q 2525 409 2770 889 
Q 3016 1369 3016 2328 
Q 3016 3291 2770 3770 
Q 2525 4250 2034 4250 
z
M 2034 4750 
Q 2819 4750 3233 4129 
Q 3647 3509 3647 2328 
Q 3647 1150 3233 529 
Q 2819 -91 2034 -91 
Q 1250 -91 836 529 
Q 422 1150 422 2328 
Q 422 3509 836 4129 
Q 1250 4750 2034 4750 
z
" transform="scale(0.015625)"/>
        <path id="DejaVuSans-2212" d="M 678 2272 
L 4684 2272 
L 4684 1741 
L 678 1741 
L 678 2272 
z
" transform="scale(0.015625)"/>
        <path id="DejaVuSans-35" d="M 691 4666 
L 3169 4666 
L 3169 4134 
L 1269 4134 
L 1269 2991 
Q 1406 3038 1543 3061 
Q 1681 3084 1819 3084 
Q 2600 3084 3056 2656 
Q 3513 2228 3513 1497 
Q 3513 744 3044 326 
Q 2575 -91 1722 -91 
Q 1428 -91 1123 -41 
Q 819 9 494 109 
L 494 744 
Q 775 591 1075 516 
Q 1375 441 1709 441 
Q 2250 441 2565 725 
Q 2881 1009 2881 1497 
Q 2881 1984 2565 2268 
Q 2250 2553 1709 2553 
Q 1456 2553 1204 2497 
Q 953 2441 691 2322 
L 691 4666 
z
" transform="scale(0.015625)"/>
       </defs>
       <use xlink:href="#DejaVuSans-31" transform="translate(0 0.684375)"/>
       <use xlink:href="#DejaVuSans-30" transform="translate(63.623047 0.684375)"/>
       <use xlink:href="#DejaVuSans-2212" transform="translate(128.203125 38.965625) scale(0.7)"/>
       <use xlink:href="#DejaVuSans-35" transform="translate(186.855469 38.965625) scale(0.7)"/>
      </g>
     </g>
    </g>
    <g id="xtick_2">
     <g id="line2d_2">
      <g>
       <use xlink:href="#md1dee41a79" x="115.111948" y="288.312" style="stroke: #000000; stroke-width: 0.8"/>
      </g>
     </g>
     <g id="text_2">
      <!-- $\mathdefault{10^{-4}}$ -->
      <g transform="translate(103.361948 302.910437) scale(0.1 -0.1)">
       <defs>
        <path id="DejaVuSans-34" d="M 2419 4116 
L 825 1625 
L 2419 1625 
L 2419 4116 
z
M 2253 4666 
L 3047 4666 
L 3047 1625 
L 3713 1625 
L 3713 1100 
L 3047 1100 
L 3047 0 
L 2419 0 
L 2419 1100 
L 313 1100 
L 313 1709 
L 2253 4666 
z
" transform="scale(0.015625)"/>
       </defs>
       <use xlink:href="#DejaVuSans-31" transform="translate(0 0.684375)"/>
       <use xlink:href="#DejaVuSans-30" transform="translate(63.623047 0.684375)"/>
       <use xlink:href="#DejaVuSans-2212" transform="translate(128.203125 38.965625) scale(0.7)"/>
       <use xlink:href="#DejaVuSans-34" transform="translate(186.855469 38.965625) scale(0.7)"/>
      </g>
     </g>
    </g>
    <g id="xtick_3">
     <g id="line2d_3">
      <g>
       <use xlink:href="#md1dee41a79" x="161.491169" y="288.312" style="stroke: #000000; stroke-width: 0.8"/>
      </g>
     </g>
     <g id="text_3">
      <!-- $\mathdefault{10^{-3}}$ -->
      <g transform="translate(149.741169 302.910437) scale(0.1 -0.1)">
       <defs>
        <path id="DejaVuSans-33" d="M 2597 2516 
Q 3050 2419 3304 2112 
Q 3559 1806 3559 1356 
Q 3559 666 3084 287 
Q 2609 -91 1734 -91 
Q 1441 -91 1130 -33 
Q 819 25 488 141 
L 488 750 
Q 750 597 1062 519 
Q 1375 441 1716 441 
Q 2309 441 2620 675 
Q 2931 909 2931 1356 
Q 2931 1769 2642 2001 
Q 2353 2234 1838 2234 
L 1294 2234 
L 1294 2753 
L 1863 2753 
Q 2328 2753 2575 2939 
Q 2822 3125 2822 3475 
Q 2822 3834 2567 4026 
Q 2313 4219 1838 4219 
Q 1578 4219 1281 4162 
Q 984 4106 628 3988 
L 628 4550 
Q 988 4650 1302 4700 
Q 1616 4750 1894 4750 
Q 2613 4750 3031 4423 
Q 3450 4097 3450 3541 
Q 3450 3153 3228 2886 
Q 3006 2619 2597 2516 
z
" transform="scale(0.015625)"/>
       </defs>
       <use xlink:href="#DejaVuSans-31" transform="translate(0 0.765625)"/>
       <use xlink:href="#DejaVuSans-30" transform="translate(63.623047 0.765625)"/>
       <use xlink:href="#DejaVuSans-2212" transform="translate(128.203125 39.046875) scale(0.7)"/>
       <use xlink:href="#DejaVuSans-33" transform="translate(186.855469 39.046875) scale(0.7)"/>
      </g>
     </g>
    </g>
    <g id="xtick_4">
     <g id="line2d_4">
      <g>
       <use xlink:href="#md1dee41a79" x="207.87039" y="288.312" style="stroke: #000000; stroke-width: 0.8"/>
      </g>
     </g>
     <g id="text_4">
      <!-- $\mathdefault{10^{-2}}$ -->
      <g transform="translate(196.12039 302.910437) scale(0.1 -0.1)">
       <defs>
        <path id="DejaVuSans-32" d="M 1228 531 
L 3431 531 
L 3431 0 
L 469 0 
L 469 531 
Q 828 903 1448 1529 
Q 2069 2156 2228 2338 
Q 2531 2678 2651 2914 
Q 2772 3150 2772 3378 
Q 2772 3750 2511 3984 
Q 2250 4219 1831 4219 
Q 1534 4219 1204 4116 
Q 875 4013 500 3803 
L 500 4441 
Q 881 4594 1212 4672 
Q 1544 4750 1819 4750 
Q 2544 4750 2975 4387 
Q 3406 4025 3406 3419 
Q 3406 3131 3298 2873 
Q 3191 2616 2906 2266 
Q 2828 2175 2409 1742 
Q 1991 1309 1228 531 
z
" transform="scale(0.015625)"/>
       </defs>
       <use xlink:href="#DejaVuSans-31" transform="translate(0 0.765625)"/>
       <use xlink:href="#DejaVuSans-30" transform="translate(63.623047 0.765625)"/>
       <use xlink:href="#DejaVuSans-2212" transform="translate(128.203125 39.046875) scale(0.7)"/>
       <use xlink:href="#DejaVuSans-32" transform="translate(186.855469 39.046875) scale(0.7)"/>
      </g>
     </g>
    </g>
    <g id="xtick_5">
     <g id="line2d_5">
      <g>
       <use xlink:href="#md1dee41a79" x="254.24961" y="288.312" style="stroke: #000000; stroke-width: 0.8"/>
      </g>
     </g>
     <g id="text_5">
      <!-- $\mathdefault{10^{-1}}$ -->
      <g transform="translate(242.49961 302.910437) scale(0.1 -0.1)">
       <use xlink:href="#DejaVuSans-31" transform="translate(0 0.684375)"/>
       <use xlink:href="#DejaVuSans-30" transform="translate(63.623047 0.684375)"/>
       <use xlink:href="#DejaVuSans-2212" transform="translate(128.203125 38.965625) scale(0.7)"/>
       <use xlink:href="#DejaVuSans-31" transform="translate(186.855469 38.965625) scale(0.7)"/>
      </g>
     </g>
    </g>
    <g id="xtick_6">
     <g id="line2d_6">
      <g>
       <use xlink:href="#md1dee41a79" x="300.628831" y="288.312" style="stroke: #000000; stroke-width: 0.8"/>
      </g>
     </g>
     <g id="text_6">
      <!-- $\mathdefault{10^{0}}$ -->
      <g transform="translate(291.828831 302.910437) scale(0.1 -0.1)">
       <use xlink:href="#DejaVuSans-31" transform="translate(0 0.765625)"/>
       <use xlink:href="#DejaVuSans-30" transform="translate(63.623047 0.765625)"/>
       <use xlink:href="#DejaVuSans-30" transform="translate(128.203125 39.046875) scale(0.7)"/>
      </g>
     </g>
    </g>
    <g id="xtick_7">
     <g id="line2d_7">
      <g>
       <use xlink:href="#md1dee41a79" x="347.008052" y="288.312" style="stroke: #000000; stroke-width: 0.8"/>
      </g>
     </g>
     <g id="text_7">
      <!-- $\mathdefault{10^{1}}$ -->
      <g transform="translate(338.208052 302.910437) scale(0.1 -0.1)">
       <use xlink:href="#DejaVuSans-31" transform="translate(0 0.684375)"/>
       <use xlink:href="#DejaVuSans-30" transform="translate(63.623047 0.684375)"/>
       <use xlink:href="#DejaVuSans-31" transform="translate(128.203125 38.965625) scale(0.7)"/>
      </g>
     </g>
    </g>
    <g id="xtick_8">
     <g id="line2d_8">
      <g>
       <use xlink:href="#md1dee41a79" x="393.387273" y="288.312" style="stroke: #000000; stroke-width: 0.8"/>
      </g>
     </g>
     <g id="text_8">
      <!-- $\mathdefault{10^{2}}$ -->
      <g transform="translate(384.587273 302.910437) scale(0.1 -0.1)">
       <use xlink:href="#DejaVuSans-31" transform="translate(0 0.765625)"/>
       <use xlink:href="#DejaVuSans-30" transform="translate(63.623047 0.765625)"/>
       <use xlink:href="#DejaVuSans-32" transform="translate(128.203125 39.046875) scale(0.7)"/>
      </g>
     </g>
    </g>
    <g id="xtick_9">
     <g id="line2d_9">
      <defs>
       <path id="m580a68b84f" d="M 0 0 
L 0 2 
" style="stroke: #000000; stroke-width: 0.6"/>
      </defs>
      <g>
       <use xlink:href="#m580a68b84f" x="54.771191" y="288.312" style="stroke: #000000; stroke-width: 0.6"/>
      </g>
     </g>
    </g>
    <g id="xtick_10">
     <g id="line2d_10">
      <g>
       <use xlink:href="#m580a68b84f" x="58.443555" y="288.312" style="stroke: #000000; stroke-width: 0.6"/>
      </g>
     </g>
    </g>
    <g id="xtick_11">
     <g id="line2d_11">
      <g>
       <use xlink:href="#m580a68b84f" x="61.548495" y="288.312" style="stroke: #000000; stroke-width: 0.6"/>
      </g>
     </g>
    </g>
    <g id="xtick_12">
     <g id="line2d_12">
      <g>
       <use xlink:href="#m580a68b84f" x="64.238116" y="288.312" style="stroke: #000000; stroke-width: 0.6"/>
      </g>
     </g>
    </g>
    <g id="xtick_13">
     <g id="line2d_13">
      <g>
       <use xlink:href="#m580a68b84f" x="66.610531" y="288.312" style="stroke: #000000; stroke-width: 0.6"/>
      </g>
     </g>
    </g>
    <g id="xtick_14">
     <g id="line2d_14">
      <g>
       <use xlink:href="#m580a68b84f" x="82.694264" y="288.312" style="stroke: #000000; stroke-width: 0.6"/>
      </g>
     </g>
    </g>
    <g id="xtick_15">
     <g id="line2d_15">
      <g>
       <use xlink:href="#m580a68b84f" x="90.861239" y="288.312" style="stroke: #000000; stroke-width: 0.6"/>
      </g>
     </g>
    </g>
    <g id="xtick_16">
     <g id="line2d_16">
      <g>
       <use xlink:href="#m580a68b84f" x="96.655801" y="288.312" style="stroke: #000000; stroke-width: 0.6"/>
      </g>
     </g>
    </g>
    <g id="xtick_17">
     <g id="line2d_17">
      <g>
       <use xlink:href="#m580a68b84f" x="101.150411" y="288.312" style="stroke: #000000; stroke-width: 0.6"/>
      </g>
     </g>
    </g>
    <g id="xtick_18">
     <g id="line2d_18">
      <g>
       <use xlink:href="#m580a68b84f" x="104.822776" y="288.312" style="stroke: #000000; stroke-width: 0.6"/>
      </g>
     </g>
    </g>
    <g id="xtick_19">
     <g id="line2d_19">
      <g>
       <use xlink:href="#m580a68b84f" x="107.927716" y="288.312" style="stroke: #000000; stroke-width: 0.6"/>
      </g>
     </g>
    </g>
    <g id="xtick_20">
     <g id="line2d_20">
      <g>
       <use xlink:href="#m580a68b84f" x="110.617337" y="288.312" style="stroke: #000000; stroke-width: 0.6"/>
      </g>
     </g>
    </g>
    <g id="xtick_21">
     <g id="line2d_21">
      <g>
       <use xlink:href="#m580a68b84f" x="112.989751" y="288.312" style="stroke: #000000; stroke-width: 0.6"/>
      </g>
     </g>
    </g>
    <g id="xtick_22">
     <g id="line2d_22">
      <g>
       <use xlink:href="#m580a68b84f" x="129.073485" y="288.312" style="stroke: #000000; stroke-width: 0.6"/>
      </g>
     </g>
    </g>
    <g id="xtick_23">
     <g id="line2d_23">
      <g>
       <use xlink:href="#m580a68b84f" x="137.24046" y="288.312" style="stroke: #000000; stroke-width: 0.6"/>
      </g>
     </g>
    </g>
    <g id="xtick_24">
     <g id="line2d_24">
      <g>
       <use xlink:href="#m580a68b84f" x="143.035021" y="288.312" style="stroke: #000000; stroke-width: 0.6"/>
      </g>
     </g>
    </g>
    <g id="xtick_25">
     <g id="line2d_25">
      <g>
       <use xlink:href="#m580a68b84f" x="147.529632" y="288.312" style="stroke: #000000; stroke-width: 0.6"/>
      </g>
     </g>
    </g>
    <g id="xtick_26">
     <g id="line2d_26">
      <g>
       <use xlink:href="#m580a68b84f" x="151.201997" y="288.312" style="stroke: #000000; stroke-width: 0.6"/>
      </g>
     </g>
    </g>
    <g id="xtick_27">
     <g id="line2d_27">
      <g>
       <use xlink:href="#m580a68b84f" x="154.306937" y="288.312" style="stroke: #000000; stroke-width: 0.6"/>
      </g>
     </g>
    </g>
    <g id="xtick_28">
     <g id="line2d_28">
      <g>
       <use xlink:href="#m580a68b84f" x="156.996558" y="288.312" style="stroke: #000000; stroke-width: 0.6"/>
      </g>
     </g>
    </g>
    <g id="xtick_29">
     <g id="line2d_29">
      <g>
       <use xlink:href="#m580a68b84f" x="159.368972" y="288.312" style="stroke: #000000; stroke-width: 0.6"/>
      </g>
     </g>
    </g>
    <g id="xtick_30">
     <g id="line2d_30">
      <g>
       <use xlink:href="#m580a68b84f" x="175.452705" y="288.312" style="stroke: #000000; stroke-width: 0.6"/>
      </g>
     </g>
    </g>
    <g id="xtick_31">
     <g id="line2d_31">
      <g>
       <use xlink:href="#m580a68b84f" x="183.619681" y="288.312" style="stroke: #000000; stroke-width: 0.6"/>
      </g>
     </g>
    </g>
    <g id="xtick_32">
     <g id="line2d_32">
      <g>
       <use xlink:href="#m580a68b84f" x="189.414242" y="288.312" style="stroke: #000000; stroke-width: 0.6"/>
      </g>
     </g>
    </g>
    <g id="xtick_33">
     <g id="line2d_33">
      <g>
       <use xlink:href="#m580a68b84f" x="193.908853" y="288.312" style="stroke: #000000; stroke-width: 0.6"/>
      </g>
     </g>
    </g>
    <g id="xtick_34">
     <g id="line2d_34">
      <g>
       <use xlink:href="#m580a68b84f" x="197.581217" y="288.312" style="stroke: #000000; stroke-width: 0.6"/>
      </g>
     </g>
    </g>
    <g id="xtick_35">
     <g id="line2d_35">
      <g>
       <use xlink:href="#m580a68b84f" x="200.686157" y="288.312" style="stroke: #000000; stroke-width: 0.6"/>
      </g>
     </g>
    </g>
    <g id="xtick_36">
     <g id="line2d_36">
      <g>
       <use xlink:href="#m580a68b84f" x="203.375779" y="288.312" style="stroke: #000000; stroke-width: 0.6"/>
      </g>
     </g>
    </g>
    <g id="xtick_37">
     <g id="line2d_37">
      <g>
       <use xlink:href="#m580a68b84f" x="205.748193" y="288.312" style="stroke: #000000; stroke-width: 0.6"/>
      </g>
     </g>
    </g>
    <g id="xtick_38">
     <g id="line2d_38">
      <g>
       <use xlink:href="#m580a68b84f" x="221.831926" y="288.312" style="stroke: #000000; stroke-width: 0.6"/>
      </g>
     </g>
    </g>
    <g id="xtick_39">
     <g id="line2d_39">
      <g>
       <use xlink:href="#m580a68b84f" x="229.998902" y="288.312" style="stroke: #000000; stroke-width: 0.6"/>
      </g>
     </g>
    </g>
    <g id="xtick_40">
     <g id="line2d_40">
      <g>
       <use xlink:href="#m580a68b84f" x="235.793463" y="288.312" style="stroke: #000000; stroke-width: 0.6"/>
      </g>
     </g>
    </g>
    <g id="xtick_41">
     <g id="line2d_41">
      <g>
       <use xlink:href="#m580a68b84f" x="240.288074" y="288.312" style="stroke: #000000; stroke-width: 0.6"/>
      </g>
     </g>
    </g>
    <g id="xtick_42">
     <g id="line2d_42">
      <g>
       <use xlink:href="#m580a68b84f" x="243.960438" y="288.312" style="stroke: #000000; stroke-width: 0.6"/>
      </g>
     </g>
    </g>
    <g id="xtick_43">
     <g id="line2d_43">
      <g>
       <use xlink:href="#m580a68b84f" x="247.065378" y="288.312" style="stroke: #000000; stroke-width: 0.6"/>
      </g>
     </g>
    </g>
    <g id="xtick_44">
     <g id="line2d_44">
      <g>
       <use xlink:href="#m580a68b84f" x="249.755" y="288.312" style="stroke: #000000; stroke-width: 0.6"/>
      </g>
     </g>
    </g>
    <g id="xtick_45">
     <g id="line2d_45">
      <g>
       <use xlink:href="#m580a68b84f" x="252.127414" y="288.312" style="stroke: #000000; stroke-width: 0.6"/>
      </g>
     </g>
    </g>
    <g id="xtick_46">
     <g id="line2d_46">
      <g>
       <use xlink:href="#m580a68b84f" x="268.211147" y="288.312" style="stroke: #000000; stroke-width: 0.6"/>
      </g>
     </g>
    </g>
    <g id="xtick_47">
     <g id="line2d_47">
      <g>
       <use xlink:href="#m580a68b84f" x="276.378122" y="288.312" style="stroke: #000000; stroke-width: 0.6"/>
      </g>
     </g>
    </g>
    <g id="xtick_48">
     <g id="line2d_48">
      <g>
       <use xlink:href="#m580a68b84f" x="282.172684" y="288.312" style="stroke: #000000; stroke-width: 0.6"/>
      </g>
     </g>
    </g>
    <g id="xtick_49">
     <g id="line2d_49">
      <g>
       <use xlink:href="#m580a68b84f" x="286.667295" y="288.312" style="stroke: #000000; stroke-width: 0.6"/>
      </g>
     </g>
    </g>
    <g id="xtick_50">
     <g id="line2d_50">
      <g>
       <use xlink:href="#m580a68b84f" x="290.339659" y="288.312" style="stroke: #000000; stroke-width: 0.6"/>
      </g>
     </g>
    </g>
    <g id="xtick_51">
     <g id="line2d_51">
      <g>
       <use xlink:href="#m580a68b84f" x="293.444599" y="288.312" style="stroke: #000000; stroke-width: 0.6"/>
      </g>
     </g>
    </g>
    <g id="xtick_52">
     <g id="line2d_52">
      <g>
       <use xlink:href="#m580a68b84f" x="296.13422" y="288.312" style="stroke: #000000; stroke-width: 0.6"/>
      </g>
     </g>
    </g>
    <g id="xtick_53">
     <g id="line2d_53">
      <g>
       <use xlink:href="#m580a68b84f" x="298.506634" y="288.312" style="stroke: #000000; stroke-width: 0.6"/>
      </g>
     </g>
    </g>
    <g id="xtick_54">
     <g id="line2d_54">
      <g>
       <use xlink:href="#m580a68b84f" x="314.590368" y="288.312" style="stroke: #000000; stroke-width: 0.6"/>
      </g>
     </g>
    </g>
    <g id="xtick_55">
     <g id="line2d_55">
      <g>
       <use xlink:href="#m580a68b84f" x="322.757343" y="288.312" style="stroke: #000000; stroke-width: 0.6"/>
      </g>
     </g>
    </g>
    <g id="xtick_56">
     <g id="line2d_56">
      <g>
       <use xlink:href="#m580a68b84f" x="328.551904" y="288.312" style="stroke: #000000; stroke-width: 0.6"/>
      </g>
     </g>
    </g>
    <g id="xtick_57">
     <g id="line2d_57">
      <g>
       <use xlink:href="#m580a68b84f" x="333.046515" y="288.312" style="stroke: #000000; stroke-width: 0.6"/>
      </g>
     </g>
    </g>
    <g id="xtick_58">
     <g id="line2d_58">
      <g>
       <use xlink:href="#m580a68b84f" x="336.71888" y="288.312" style="stroke: #000000; stroke-width: 0.6"/>
      </g>
     </g>
    </g>
    <g id="xtick_59">
     <g id="line2d_59">
      <g>
       <use xlink:href="#m580a68b84f" x="339.82382" y="288.312" style="stroke: #000000; stroke-width: 0.6"/>
      </g>
     </g>
    </g>
    <g id="xtick_60">
     <g id="line2d_60">
      <g>
       <use xlink:href="#m580a68b84f" x="342.513441" y="288.312" style="stroke: #000000; stroke-width: 0.6"/>
      </g>
     </g>
    </g>
    <g id="xtick_61">
     <g id="line2d_61">
      <g>
       <use xlink:href="#m580a68b84f" x="344.885855" y="288.312" style="stroke: #000000; stroke-width: 0.6"/>
      </g>
     </g>
    </g>
    <g id="xtick_62">
     <g id="line2d_62">
      <g>
       <use xlink:href="#m580a68b84f" x="360.969589" y="288.312" style="stroke: #000000; stroke-width: 0.6"/>
      </g>
     </g>
    </g>
    <g id="xtick_63">
     <g id="line2d_63">
      <g>
       <use xlink:href="#m580a68b84f" x="369.136564" y="288.312" style="stroke: #000000; stroke-width: 0.6"/>
      </g>
     </g>
    </g>
    <g id="xtick_64">
     <g id="line2d_64">
      <g>
       <use xlink:href="#m580a68b84f" x="374.931125" y="288.312" style="stroke: #000000; stroke-width: 0.6"/>
      </g>
     </g>
    </g>
    <g id="xtick_65">
     <g id="line2d_65">
      <g>
       <use xlink:href="#m580a68b84f" x="379.425736" y="288.312" style="stroke: #000000; stroke-width: 0.6"/>
      </g>
     </g>
    </g>
    <g id="xtick_66">
     <g id="line2d_66">
      <g>
       <use xlink:href="#m580a68b84f" x="383.098101" y="288.312" style="stroke: #000000; stroke-width: 0.6"/>
      </g>
     </g>
    </g>
    <g id="xtick_67">
     <g id="line2d_67">
      <g>
       <use xlink:href="#m580a68b84f" x="386.203041" y="288.312" style="stroke: #000000; stroke-width: 0.6"/>
      </g>
     </g>
    </g>
    <g id="xtick_68">
     <g id="line2d_68">
      <g>
       <use xlink:href="#m580a68b84f" x="388.892662" y="288.312" style="stroke: #000000; stroke-width: 0.6"/>
      </g>
     </g>
    </g>
    <g id="xtick_69">
     <g id="line2d_69">
      <g>
       <use xlink:href="#m580a68b84f" x="391.265076" y="288.312" style="stroke: #000000; stroke-width: 0.6"/>
      </g>
     </g>
    </g>
    <g id="xtick_70">
     <g id="line2d_70">
      <g>
       <use xlink:href="#m580a68b84f" x="407.348809" y="288.312" style="stroke: #000000; stroke-width: 0.6"/>
      </g>
     </g>
    </g>
    <g id="text_9">
     <!-- $r$ [kpc] -->
     <g transform="translate(214.66 316.590125) scale(0.1 -0.1)">
      <defs>
       <path id="DejaVuSans-Oblique-72" d="M 2853 2969 
Q 2766 3016 2653 3041 
Q 2541 3066 2413 3066 
Q 1953 3066 1609 2717 
Q 1266 2369 1153 1784 
L 800 0 
L 225 0 
L 909 3500 
L 1484 3500 
L 1375 2956 
Q 1603 3259 1920 3421 
Q 2238 3584 2597 3584 
Q 2691 3584 2781 3573 
Q 2872 3563 2963 3538 
L 2853 2969 
z
" transform="scale(0.015625)"/>
       <path id="DejaVuSans-20" transform="scale(0.015625)"/>
       <path id="DejaVuSans-5b" d="M 550 4863 
L 1875 4863 
L 1875 4416 
L 1125 4416 
L 1125 -397 
L 1875 -397 
L 1875 -844 
L 550 -844 
L 550 4863 
z
" transform="scale(0.015625)"/>
       <path id="DejaVuSans-6b" d="M 581 4863 
L 1159 4863 
L 1159 1991 
L 2875 3500 
L 3609 3500 
L 1753 1863 
L 3688 0 
L 2938 0 
L 1159 1709 
L 1159 0 
L 581 0 
L 581 4863 
z
" transform="scale(0.015625)"/>
       <path id="DejaVuSans-70" d="M 1159 525 
L 1159 -1331 
L 581 -1331 
L 581 3500 
L 1159 3500 
L 1159 2969 
Q 1341 3281 1617 3432 
Q 1894 3584 2278 3584 
Q 2916 3584 3314 3078 
Q 3713 2572 3713 1747 
Q 3713 922 3314 415 
Q 2916 -91 2278 -91 
Q 1894 -91 1617 61 
Q 1341 213 1159 525 
z
M 3116 1747 
Q 3116 2381 2855 2742 
Q 2594 3103 2138 3103 
Q 1681 3103 1420 2742 
Q 1159 2381 1159 1747 
Q 1159 1113 1420 752 
Q 1681 391 2138 391 
Q 2594 391 2855 752 
Q 3116 1113 3116 1747 
z
" transform="scale(0.015625)"/>
       <path id="DejaVuSans-63" d="M 3122 3366 
L 3122 2828 
Q 2878 2963 2633 3030 
Q 2388 3097 2138 3097 
Q 1578 3097 1268 2742 
Q 959 2388 959 1747 
Q 959 1106 1268 751 
Q 1578 397 2138 397 
Q 2388 397 2633 464 
Q 2878 531 3122 666 
L 3122 134 
Q 2881 22 2623 -34 
Q 2366 -91 2075 -91 
Q 1284 -91 818 406 
Q 353 903 353 1747 
Q 353 2603 823 3093 
Q 1294 3584 2113 3584 
Q 2378 3584 2631 3529 
Q 2884 3475 3122 3366 
z
" transform="scale(0.015625)"/>
       <path id="DejaVuSans-5d" d="M 1947 4863 
L 1947 -844 
L 622 -844 
L 622 -397 
L 1369 -397 
L 1369 4416 
L 622 4416 
L 622 4863 
L 1947 4863 
z
" transform="scale(0.015625)"/>
      </defs>
      <use xlink:href="#DejaVuSans-Oblique-72" transform="translate(0 0.015625)"/>
      <use xlink:href="#DejaVuSans-20" transform="translate(41.113281 0.015625)"/>
      <use xlink:href="#DejaVuSans-5b" transform="translate(72.900391 0.015625)"/>
      <use xlink:href="#DejaVuSans-6b" transform="translate(111.914062 0.015625)"/>
      <use xlink:href="#DejaVuSans-70" transform="translate(169.824219 0.015625)"/>
      <use xlink:href="#DejaVuSans-63" transform="translate(233.300781 0.015625)"/>
      <use xlink:href="#DejaVuSans-5d" transform="translate(288.28125 0.015625)"/>
     </g>
    </g>
   </g>
   <g id="matplotlib.axis_2">
    <g id="ytick_1">
     <g id="line2d_71">
      <defs>
       <path id="m1e5b1ff8fa" d="M 0 0 
L -3.5 0 
" style="stroke: #000000; stroke-width: 0.8"/>
      </defs>
      <g>
       <use xlink:href="#m1e5b1ff8fa" x="52.5" y="261.574604" style="stroke: #000000; stroke-width: 0.8"/>
      </g>
     </g>
     <g id="text_10">
      <!-- $\mathdefault{10^{2}}$ -->
      <g transform="translate(27.9 265.373823) scale(0.1 -0.1)">
       <use xlink:href="#DejaVuSans-31" transform="translate(0 0.765625)"/>
       <use xlink:href="#DejaVuSans-30" transform="translate(63.623047 0.765625)"/>
       <use xlink:href="#DejaVuSans-32" transform="translate(128.203125 39.046875) scale(0.7)"/>
      </g>
     </g>
    </g>
    <g id="ytick_2">
     <g id="line2d_72">
      <g>
       <use xlink:href="#m1e5b1ff8fa" x="52.5" y="223.131904" style="stroke: #000000; stroke-width: 0.8"/>
      </g>
     </g>
     <g id="text_11">
      <!-- $\mathdefault{10^{4}}$ -->
      <g transform="translate(27.9 226.931123) scale(0.1 -0.1)">
       <use xlink:href="#DejaVuSans-31" transform="translate(0 0.684375)"/>
       <use xlink:href="#DejaVuSans-30" transform="translate(63.623047 0.684375)"/>
       <use xlink:href="#DejaVuSans-34" transform="translate(128.203125 38.965625) scale(0.7)"/>
      </g>
     </g>
    </g>
    <g id="ytick_3">
     <g id="line2d_73">
      <g>
       <use xlink:href="#m1e5b1ff8fa" x="52.5" y="184.689204" style="stroke: #000000; stroke-width: 0.8"/>
      </g>
     </g>
     <g id="text_12">
      <!-- $\mathdefault{10^{6}}$ -->
      <g transform="translate(27.9 188.488423) scale(0.1 -0.1)">
       <defs>
        <path id="DejaVuSans-36" d="M 2113 2584 
Q 1688 2584 1439 2293 
Q 1191 2003 1191 1497 
Q 1191 994 1439 701 
Q 1688 409 2113 409 
Q 2538 409 2786 701 
Q 3034 994 3034 1497 
Q 3034 2003 2786 2293 
Q 2538 2584 2113 2584 
z
M 3366 4563 
L 3366 3988 
Q 3128 4100 2886 4159 
Q 2644 4219 2406 4219 
Q 1781 4219 1451 3797 
Q 1122 3375 1075 2522 
Q 1259 2794 1537 2939 
Q 1816 3084 2150 3084 
Q 2853 3084 3261 2657 
Q 3669 2231 3669 1497 
Q 3669 778 3244 343 
Q 2819 -91 2113 -91 
Q 1303 -91 875 529 
Q 447 1150 447 2328 
Q 447 3434 972 4092 
Q 1497 4750 2381 4750 
Q 2619 4750 2861 4703 
Q 3103 4656 3366 4563 
z
" transform="scale(0.015625)"/>
       </defs>
       <use xlink:href="#DejaVuSans-31" transform="translate(0 0.765625)"/>
       <use xlink:href="#DejaVuSans-30" transform="translate(63.623047 0.765625)"/>
       <use xlink:href="#DejaVuSans-36" transform="translate(128.203125 39.046875) scale(0.7)"/>
      </g>
     </g>
    </g>
    <g id="ytick_4">
     <g id="line2d_74">
      <g>
       <use xlink:href="#m1e5b1ff8fa" x="52.5" y="146.246504" style="stroke: #000000; stroke-width: 0.8"/>
      </g>
     </g>
     <g id="text_13">
      <!-- $\mathdefault{10^{8}}$ -->
      <g transform="translate(27.9 150.045723) scale(0.1 -0.1)">
       <defs>
        <path id="DejaVuSans-38" d="M 2034 2216 
Q 1584 2216 1326 1975 
Q 1069 1734 1069 1313 
Q 1069 891 1326 650 
Q 1584 409 2034 409 
Q 2484 409 2743 651 
Q 3003 894 3003 1313 
Q 3003 1734 2745 1975 
Q 2488 2216 2034 2216 
z
M 1403 2484 
Q 997 2584 770 2862 
Q 544 3141 544 3541 
Q 544 4100 942 4425 
Q 1341 4750 2034 4750 
Q 2731 4750 3128 4425 
Q 3525 4100 3525 3541 
Q 3525 3141 3298 2862 
Q 3072 2584 2669 2484 
Q 3125 2378 3379 2068 
Q 3634 1759 3634 1313 
Q 3634 634 3220 271 
Q 2806 -91 2034 -91 
Q 1263 -91 848 271 
Q 434 634 434 1313 
Q 434 1759 690 2068 
Q 947 2378 1403 2484 
z
M 1172 3481 
Q 1172 3119 1398 2916 
Q 1625 2713 2034 2713 
Q 2441 2713 2670 2916 
Q 2900 3119 2900 3481 
Q 2900 3844 2670 4047 
Q 2441 4250 2034 4250 
Q 1625 4250 1398 4047 
Q 1172 3844 1172 3481 
z
" transform="scale(0.015625)"/>
       </defs>
       <use xlink:href="#DejaVuSans-31" transform="translate(0 0.765625)"/>
       <use xlink:href="#DejaVuSans-30" transform="translate(63.623047 0.765625)"/>
       <use xlink:href="#DejaVuSans-38" transform="translate(128.203125 39.046875) scale(0.7)"/>
      </g>
     </g>
    </g>
    <g id="ytick_5">
     <g id="line2d_75">
      <g>
       <use xlink:href="#m1e5b1ff8fa" x="52.5" y="107.803804" style="stroke: #000000; stroke-width: 0.8"/>
      </g>
     </g>
     <g id="text_14">
      <!-- $\mathdefault{10^{10}}$ -->
      <g transform="translate(23.4 111.603023) scale(0.1 -0.1)">
       <use xlink:href="#DejaVuSans-31" transform="translate(0 0.765625)"/>
       <use xlink:href="#DejaVuSans-30" transform="translate(63.623047 0.765625)"/>
       <use xlink:href="#DejaVuSans-31" transform="translate(128.203125 39.046875) scale(0.7)"/>
       <use xlink:href="#DejaVuSans-30" transform="translate(172.739258 39.046875) scale(0.7)"/>
      </g>
     </g>
    </g>
    <g id="ytick_6">
     <g id="line2d_76">
      <g>
       <use xlink:href="#m1e5b1ff8fa" x="52.5" y="69.361104" style="stroke: #000000; stroke-width: 0.8"/>
      </g>
     </g>
     <g id="text_15">
      <!-- $\mathdefault{10^{12}}$ -->
      <g transform="translate(23.4 73.160323) scale(0.1 -0.1)">
       <use xlink:href="#DejaVuSans-31" transform="translate(0 0.765625)"/>
       <use xlink:href="#DejaVuSans-30" transform="translate(63.623047 0.765625)"/>
       <use xlink:href="#DejaVuSans-31" transform="translate(128.203125 39.046875) scale(0.7)"/>
       <use xlink:href="#DejaVuSans-32" transform="translate(172.739258 39.046875) scale(0.7)"/>
      </g>
     </g>
    </g>
    <g id="ytick_7">
     <g id="line2d_77">
      <g>
       <use xlink:href="#m1e5b1ff8fa" x="52.5" y="30.918405" style="stroke: #000000; stroke-width: 0.8"/>
      </g>
     </g>
     <g id="text_16">
      <!-- $\mathdefault{10^{14}}$ -->
      <g transform="translate(23.4 34.717623) scale(0.1 -0.1)">
       <use xlink:href="#DejaVuSans-31" transform="translate(0 0.684375)"/>
       <use xlink:href="#DejaVuSans-30" transform="translate(63.623047 0.684375)"/>
       <use xlink:href="#DejaVuSans-31" transform="translate(128.203125 38.965625) scale(0.7)"/>
       <use xlink:href="#DejaVuSans-34" transform="translate(172.739258 38.965625) scale(0.7)"/>
      </g>
     </g>
    </g>
    <g id="text_17">
     <!-- $n_\chi(r)$ [cm$^{-3}$] -->
     <g transform="translate(16.3 185.056) rotate(-90) scale(0.1 -0.1)">
      <defs>
       <path id="DejaVuSans-Oblique-6e" d="M 3566 2113 
L 3156 0 
L 2578 0 
L 2988 2091 
Q 3016 2238 3031 2350 
Q 3047 2463 3047 2528 
Q 3047 2791 2881 2937 
Q 2716 3084 2419 3084 
Q 1956 3084 1622 2776 
Q 1288 2469 1184 1941 
L 800 0 
L 225 0 
L 903 3500 
L 1478 3500 
L 1363 2950 
Q 1603 3253 1940 3418 
Q 2278 3584 2650 3584 
Q 3113 3584 3367 3334 
Q 3622 3084 3622 2631 
Q 3622 2519 3608 2391 
Q 3594 2263 3566 2113 
z
" transform="scale(0.015625)"/>
       <path id="DejaVuSans-Oblique-3c7" d="M 1922 -781 
L 1691 416 
L 394 -1334 
L -284 -1334 
L 1553 1141 
L 1269 2613 
Q 1194 3006 713 3006 
L 559 3006 
L 653 3500 
L 872 3494 
Q 1675 3472 1775 2950 
L 2006 1753 
L 3303 3503 
L 3981 3503 
L 2144 1028 
L 2428 -444 
Q 2503 -838 2984 -838 
L 3138 -838 
L 3044 -1331 
L 2825 -1325 
Q 2022 -1303 1922 -781 
z
" transform="scale(0.015625)"/>
       <path id="DejaVuSans-28" d="M 1984 4856 
Q 1566 4138 1362 3434 
Q 1159 2731 1159 2009 
Q 1159 1288 1364 580 
Q 1569 -128 1984 -844 
L 1484 -844 
Q 1016 -109 783 600 
Q 550 1309 550 2009 
Q 550 2706 781 3412 
Q 1013 4119 1484 4856 
L 1984 4856 
z
" transform="scale(0.015625)"/>
       <path id="DejaVuSans-29" d="M 513 4856 
L 1013 4856 
Q 1481 4119 1714 3412 
Q 1947 2706 1947 2009 
Q 1947 1309 1714 600 
Q 1481 -109 1013 -844 
L 513 -844 
Q 928 -128 1133 580 
Q 1338 1288 1338 2009 
Q 1338 2731 1133 3434 
Q 928 4138 513 4856 
z
" transform="scale(0.015625)"/>
       <path id="DejaVuSans-6d" d="M 3328 2828 
Q 3544 3216 3844 3400 
Q 4144 3584 4550 3584 
Q 5097 3584 5394 3201 
Q 5691 2819 5691 2113 
L 5691 0 
L 5113 0 
L 5113 2094 
Q 5113 2597 4934 2840 
Q 4756 3084 4391 3084 
Q 3944 3084 3684 2787 
Q 3425 2491 3425 1978 
L 3425 0 
L 2847 0 
L 2847 2094 
Q 2847 2600 2669 2842 
Q 2491 3084 2119 3084 
Q 1678 3084 1418 2786 
Q 1159 2488 1159 1978 
L 1159 0 
L 581 0 
L 581 3500 
L 1159 3500 
L 1159 2956 
Q 1356 3278 1631 3431 
Q 1906 3584 2284 3584 
Q 2666 3584 2933 3390 
Q 3200 3197 3328 2828 
z
" transform="scale(0.015625)"/>
      </defs>
      <use xlink:href="#DejaVuSans-Oblique-6e" transform="translate(0 0.765625)"/>
      <use xlink:href="#DejaVuSans-Oblique-3c7" transform="translate(63.378906 -15.640625) scale(0.7)"/>
      <use xlink:href="#DejaVuSans-28" transform="translate(107.539062 0.765625)"/>
      <use xlink:href="#DejaVuSans-Oblique-72" transform="translate(146.552734 0.765625)"/>
      <use xlink:href="#DejaVuSans-29" transform="translate(187.666016 0.765625)"/>
      <use xlink:href="#DejaVuSans-20" transform="translate(226.679688 0.765625)"/>
      <use xlink:href="#DejaVuSans-5b" transform="translate(258.466797 0.765625)"/>
      <use xlink:href="#DejaVuSans-63" transform="translate(297.480469 0.765625)"/>
      <use xlink:href="#DejaVuSans-6d" transform="translate(352.460938 0.765625)"/>
      <use xlink:href="#DejaVuSans-2212" transform="translate(450.830078 39.046875) scale(0.7)"/>
      <use xlink:href="#DejaVuSans-33" transform="translate(509.482422 39.046875) scale(0.7)"/>
      <use xlink:href="#DejaVuSans-5d" transform="translate(556.75293 0.765625)"/>
     </g>
    </g>
   </g>
   <g id="line2d_78">
    <path d="M 68.732727 145.789356 
L 72.012066 145.78936 
L 75.291405 145.789364 
L 78.570744 145.78937 
L 81.850083 145.789378 
L 85.129421 145.789388 
L 88.40876 145.7894 
L 91.688099 145.789416 
L 94.967438 145.789436 
L 98.246777 145.789462 
L 101.526116 145.789495 
L 104.805455 145.789537 
L 108.084793 145.78959 
L 111.364132 145.789659 
L 114.643471 145.789746 
L 117.92281 145.789858 
L 121.202149 145.79 
L 124.481488 145.790182 
L 127.760826 145.790414 
L 131.040165 145.790711 
L 134.319504 145.791089 
L 137.598843 145.791572 
L 140.878182 145.792188 
L 144.157521 145.792975 
L 147.43686 145.793979 
L 150.716198 145.795262 
L 153.995537 145.796898 
L 157.274876 145.798987 
L 160.554215 145.801652 
L 163.833554 145.805054 
L 167.112893 145.809395 
L 170.392231 145.814933 
L 173.67157 145.821998 
L 176.950909 145.832947 
L 180.230248 145.85302 
L 183.509587 145.882284 
L 186.788926 145.924887 
L 190.068264 145.986788 
L 193.347603 146.076478 
L 196.626942 146.205904 
L 199.906281 146.391601 
L 203.18562 146.655886 
L 206.464959 147.027839 
L 209.744298 147.543481 
L 213.023636 148.244338 
L 216.302975 149.173547 
L 219.582314 150.369381 
L 222.861653 151.857488 
L 226.140992 153.644651 
L 229.420331 155.71701 
L 232.699669 158.043645 
L 235.979008 160.583715 
L 239.258347 163.294032 
L 242.537686 166.134694 
L 245.817025 169.072046 
L 249.096364 172.079451 
L 252.375702 175.136744 
L 255.655041 178.229134 
L 258.93438 181.346001 
L 262.213719 184.479836 
L 265.493058 187.625384 
L 268.772397 190.778993 
L 272.051736 193.938141 
L 275.331074 197.101087 
L 278.610413 200.266637 
L 281.889752 203.098769 
L 285.169091 204.503359 
L 288.44843 205.916269 
L 291.727769 207.33884 
L 295.007107 208.772638 
L 298.286446 210.219481 
L 301.565785 211.681475 
L 304.845124 213.161044 
L 308.124463 214.660969 
L 311.403802 216.18442 
L 314.68314 217.734994 
L 317.962479 219.31674 
L 321.241818 220.934187 
L 324.521157 222.592345 
L 327.800496 224.29671 
L 331.079835 226.053229 
L 334.359174 227.868252 
L 337.638512 229.748443 
L 340.917851 231.700664 
L 344.19719 233.731816 
L 347.476529 235.848649 
L 350.755868 238.057541 
L 354.035207 240.364265 
L 357.314545 242.773745 
L 360.593884 245.289839 
L 363.873223 247.915149 
L 367.152562 250.650892 
L 370.431901 253.496834 
L 373.71124 256.451308 
L 376.990579 259.511293 
L 380.269917 262.672568 
L 383.549256 265.929911 
L 386.828595 269.27733 
L 390.107934 272.708301 
L 393.387273 276.216 
" clip-path="url(#p5509895bf4)" style="fill: none; stroke: #1f77b4; stroke-width: 1.5; stroke-linecap: square"/>
   </g>
   <g id="line2d_79">
    <path d="M 68.732727 107.347964 
L 72.012066 107.34833 
L 75.291405 107.348796 
L 78.570744 107.349391 
L 81.850083 107.350151 
L 85.129421 107.351121 
L 88.40876 107.35236 
L 91.688099 107.35394 
L 94.967438 107.355957 
L 98.246777 107.358532 
L 101.526116 107.361817 
L 104.805455 107.36601 
L 108.084793 107.371359 
L 111.364132 107.378182 
L 114.643471 107.386885 
L 117.92281 107.397982 
L 121.202149 107.412128 
L 124.481488 107.430151 
L 127.760826 107.453104 
L 131.040165 107.482314 
L 134.319504 107.519456 
L 137.598843 107.566634 
L 140.878182 107.626477 
L 144.157521 107.702255 
L 147.43686 107.798005 
L 150.716198 107.918667 
L 153.995537 108.070215 
L 157.274876 108.259768 
L 160.554215 108.495664 
L 163.833554 108.787438 
L 167.112893 109.145689 
L 170.392231 109.581772 
L 173.67157 110.107296 
L 176.950909 110.862285 
L 180.230248 112.092863 
L 183.509587 113.617645 
L 186.788926 115.440871 
L 190.068264 117.546302 
L 193.347603 119.90138 
L 196.626942 122.464594 
L 199.906281 125.192907 
L 203.18562 128.047077 
L 206.464959 130.994299 
L 209.744298 134.008776 
L 213.023636 137.071067 
L 216.302975 140.166953 
L 219.582314 143.286249 
L 222.861653 146.421762 
L 226.140992 149.568466 
L 229.420331 152.722871 
L 232.699669 155.882564 
L 235.979008 159.045885 
L 239.258347 162.211692 
L 242.537686 165.379201 
L 245.817025 168.547875 
L 249.096364 171.717347 
L 252.375702 174.887364 
L 255.655041 178.057755 
L 258.93438 181.228402 
L 262.213719 184.399223 
L 265.493058 187.570163 
L 268.772397 190.741186 
L 272.051736 193.912264 
L 275.331074 197.08338 
L 278.610413 200.254523 
L 281.889752 203.090141 
L 285.169091 204.496068 
L 288.44843 205.910114 
L 291.727769 207.333649 
L 295.007107 208.768267 
L 298.286446 210.215806 
L 301.565785 211.678391 
L 304.845124 213.158461 
L 308.124463 214.65881 
L 311.403802 216.182621 
L 314.68314 217.7335 
L 317.962479 219.315505 
L 321.241818 220.933169 
L 324.521157 222.591511 
L 327.800496 224.296029 
L 331.079835 226.052678 
L 334.359174 227.867808 
L 337.638512 229.748089 
L 340.917851 231.700384 
L 344.19719 233.731596 
L 347.476529 235.848478 
L 350.755868 238.05741 
L 354.035207 240.364165 
L 357.314545 242.773671 
L 360.593884 245.289784 
L 363.873223 247.915109 
L 367.152562 250.650863 
L 370.431901 253.496814 
L 373.71124 256.451294 
L 376.990579 259.511283 
L 380.269917 262.672561 
L 383.549256 265.929906 
L 386.828595 269.277327 
L 390.107934 272.708299 
L 393.387273 276.215999 
" clip-path="url(#p5509895bf4)" style="fill: none; stroke: #ff7f0e; stroke-width: 1.5; stroke-linecap: square"/>
   </g>
   <g id="line2d_80">
    <path d="M 68.732727 34.296 
L 72.012066 36.334014 
L 75.291405 38.372121 
L 78.570744 40.410306 
L 81.850083 42.448557 
L 85.129421 44.486865 
L 88.40876 46.525221 
L 91.688099 48.563618 
L 94.967438 50.60205 
L 98.246777 52.640511 
L 101.526116 54.678998 
L 104.805455 56.717505 
L 108.084793 58.756031 
L 111.364132 60.794572 
L 114.643471 62.833126 
L 117.92281 64.871691 
L 121.202149 66.910266 
L 124.481488 68.948849 
L 127.760826 70.987438 
L 131.040165 73.026033 
L 134.319504 75.064634 
L 137.598843 77.103238 
L 140.878182 79.141846 
L 144.157521 81.180457 
L 147.43686 83.21907 
L 150.716198 85.257686 
L 153.995537 87.296304 
L 157.274876 89.334923 
L 160.554215 91.373543 
L 163.833554 93.412165 
L 167.112893 95.450787 
L 170.392231 97.489411 
L 173.67157 99.528035 
L 176.950909 101.947226 
L 180.230248 105.118426 
L 183.509587 108.289625 
L 186.788926 111.460824 
L 190.068264 114.632023 
L 193.347603 117.803222 
L 196.626942 120.974421 
L 199.906281 124.14562 
L 203.18562 127.31682 
L 206.464959 130.488019 
L 209.744298 133.659218 
L 213.023636 136.830417 
L 216.302975 140.001616 
L 219.582314 143.172815 
L 222.861653 146.344015 
L 226.140992 149.515214 
L 229.420331 152.686413 
L 232.699669 155.857612 
L 235.979008 159.028811 
L 239.258347 162.20001 
L 242.537686 165.37121 
L 245.817025 168.542409 
L 249.096364 171.713608 
L 252.375702 174.884807 
L 255.655041 178.056006 
L 258.93438 181.227205 
L 262.213719 184.398404 
L 265.493058 187.569604 
L 268.772397 190.740803 
L 272.051736 193.912002 
L 275.331074 197.083201 
L 278.610413 200.2544 
L 281.889752 203.090054 
L 285.169091 204.495994 
L 288.44843 205.910051 
L 291.727769 207.333597 
L 295.007107 208.768222 
L 298.286446 210.215769 
L 301.565785 211.678359 
L 304.845124 213.158435 
L 308.124463 214.658788 
L 311.403802 216.182603 
L 314.68314 217.733485 
L 317.962479 219.315492 
L 321.241818 220.933158 
L 324.521157 222.591502 
L 327.800496 224.296023 
L 331.079835 226.052672 
L 334.359174 227.867804 
L 337.638512 229.748085 
L 340.917851 231.700381 
L 344.19719 233.731594 
L 347.476529 235.848476 
L 350.755868 238.057409 
L 354.035207 240.364164 
L 357.314545 242.77367 
L 360.593884 245.289783 
L 363.873223 247.915108 
L 367.152562 250.650862 
L 370.431901 253.496814 
L 373.71124 256.451294 
L 376.990579 259.511283 
L 380.269917 262.672561 
L 383.549256 265.929906 
L 386.828595 269.277327 
L 390.107934 272.708298 
L 393.387273 276.215999 
" clip-path="url(#p5509895bf4)" style="fill: none; stroke: #2ca02c; stroke-width: 1.5; stroke-linecap: square"/>
   </g>
   <g id="patch_3">
    <path d="M 52.5 288.312 
L 52.5 22.2 
" style="fill: none; stroke: #000000; stroke-width: 0.8; stroke-linejoin: miter; stroke-linecap: square"/>
   </g>
   <g id="patch_4">
    <path d="M 409.62 288.312 
L 409.62 22.2 
" style="fill: none; stroke: #000000; stroke-width: 0.8; stroke-linejoin: miter; stroke-linecap: square"/>
   </g>
   <g id="patch_5">
    <path d="M 52.5 288.312 
L 409.62 288.312 
" style="fill: none; stroke: #000000; stroke-width: 0.8; stroke-linejoin: miter; stroke-linecap: square"/>
   </g>
   <g id="patch_6">
    <path d="M 52.5 22.2 
L 409.62 22.2 
" style="fill: none; stroke: #000000; stroke-width: 0.8; stroke-linejoin: miter; stroke-linecap: square"/>
   </g>
   <g id="text_18">
    <!-- $m_\chi = 0.1$ MeV -->
    <g transform="translate(190.74 16.2) scale(0.12 -0.12)">
     <defs>
      <path id="DejaVuSans-Oblique-6d" d="M 5747 2113 
L 5338 0 
L 4763 0 
L 5166 2094 
Q 5191 2228 5203 2325 
Q 5216 2422 5216 2491 
Q 5216 2772 5059 2928 
Q 4903 3084 4622 3084 
Q 4203 3084 3875 2770 
Q 3547 2456 3450 1953 
L 3066 0 
L 2491 0 
L 2900 2094 
Q 2925 2209 2937 2307 
Q 2950 2406 2950 2484 
Q 2950 2769 2794 2926 
Q 2638 3084 2363 3084 
Q 1938 3084 1609 2770 
Q 1281 2456 1184 1953 
L 800 0 
L 225 0 
L 909 3500 
L 1484 3500 
L 1375 2956 
Q 1609 3263 1923 3423 
Q 2238 3584 2597 3584 
Q 2978 3584 3223 3384 
Q 3469 3184 3519 2828 
Q 3781 3197 4126 3390 
Q 4472 3584 4856 3584 
Q 5306 3584 5551 3325 
Q 5797 3066 5797 2591 
Q 5797 2488 5784 2364 
Q 5772 2241 5747 2113 
z
" transform="scale(0.015625)"/>
      <path id="DejaVuSans-3d" d="M 678 2906 
L 4684 2906 
L 4684 2381 
L 678 2381 
L 678 2906 
z
M 678 1631 
L 4684 1631 
L 4684 1100 
L 678 1100 
L 678 1631 
z
" transform="scale(0.015625)"/>
      <path id="DejaVuSans-2e" d="M 684 794 
L 1344 794 
L 1344 0 
L 684 0 
L 684 794 
z
" transform="scale(0.015625)"/>
      <path id="DejaVuSans-4d" d="M 628 4666 
L 1569 4666 
L 2759 1491 
L 3956 4666 
L 4897 4666 
L 4897 0 
L 4281 0 
L 4281 4097 
L 3078 897 
L 2444 897 
L 1241 4097 
L 1241 0 
L 628 0 
L 628 4666 
z
" transform="scale(0.015625)"/>
      <path id="DejaVuSans-65" d="M 3597 1894 
L 3597 1613 
L 953 1613 
Q 991 1019 1311 708 
Q 1631 397 2203 397 
Q 2534 397 2845 478 
Q 3156 559 3463 722 
L 3463 178 
Q 3153 47 2828 -22 
Q 2503 -91 2169 -91 
Q 1331 -91 842 396 
Q 353 884 353 1716 
Q 353 2575 817 3079 
Q 1281 3584 2069 3584 
Q 2775 3584 3186 3129 
Q 3597 2675 3597 1894 
z
M 3022 2063 
Q 3016 2534 2758 2815 
Q 2500 3097 2075 3097 
Q 1594 3097 1305 2825 
Q 1016 2553 972 2059 
L 3022 2063 
z
" transform="scale(0.015625)"/>
      <path id="DejaVuSans-56" d="M 1831 0 
L 50 4666 
L 709 4666 
L 2188 738 
L 3669 4666 
L 4325 4666 
L 2547 0 
L 1831 0 
z
" transform="scale(0.015625)"/>
     </defs>
     <use xlink:href="#DejaVuSans-Oblique-6d" transform="translate(0 0.78125)"/>
     <use xlink:href="#DejaVuSans-Oblique-3c7" transform="translate(97.412109 -15.625) scale(0.7)"/>
     <use xlink:href="#DejaVuSans-3d" transform="translate(161.054688 0.78125)"/>
     <use xlink:href="#DejaVuSans-30" transform="translate(264.326172 0.78125)"/>
     <use xlink:href="#DejaVuSans-2e" transform="translate(327.949219 0.78125)"/>
     <use xlink:href="#DejaVuSans-31" transform="translate(359.736328 0.78125)"/>
     <use xlink:href="#DejaVuSans-20" transform="translate(423.359375 0.78125)"/>
     <use xlink:href="#DejaVuSans-4d" transform="translate(455.146484 0.78125)"/>
     <use xlink:href="#DejaVuSans-65" transform="translate(541.425781 0.78125)"/>
     <use xlink:href="#DejaVuSans-56" transform="translate(602.949219 0.78125)"/>
    </g>
   </g>
   <g id="legend_1">
    <g id="patch_7">
     <path d="M 271.22 74.234375 
L 402.62 74.234375 
Q 404.62 74.234375 404.62 72.234375 
L 404.62 29.2 
Q 404.62 27.2 402.62 27.2 
L 271.22 27.2 
Q 269.22 27.2 269.22 29.2 
L 269.22 72.234375 
Q 269.22 74.234375 271.22 74.234375 
z
" style="fill: #ffffff; opacity: 0.8; stroke: #cccccc; stroke-linejoin: miter"/>
    </g>
    <g id="line2d_81">
     <path d="M 273.22 35.298437 
L 283.22 35.298437 
L 293.22 35.298437 
" style="fill: none; stroke: #1f77b4; stroke-width: 1.5; stroke-linecap: square"/>
    </g>
    <g id="text_19">
     <!-- 3$\times10^{-26}\,{\rm cm^3~s^{-1}}$ -->
     <g transform="translate(301.22 38.798437) scale(0.1 -0.1)">
      <defs>
       <path id="DejaVuSans-d7" d="M 4488 3438 
L 3059 2003 
L 4488 575 
L 4116 197 
L 2681 1631 
L 1247 197 
L 878 575 
L 2303 2003 
L 878 3438 
L 1247 3816 
L 2681 2381 
L 4116 3816 
L 4488 3438 
z
" transform="scale(0.015625)"/>
       <path id="DejaVuSans-73" d="M 2834 3397 
L 2834 2853 
Q 2591 2978 2328 3040 
Q 2066 3103 1784 3103 
Q 1356 3103 1142 2972 
Q 928 2841 928 2578 
Q 928 2378 1081 2264 
Q 1234 2150 1697 2047 
L 1894 2003 
Q 2506 1872 2764 1633 
Q 3022 1394 3022 966 
Q 3022 478 2636 193 
Q 2250 -91 1575 -91 
Q 1294 -91 989 -36 
Q 684 19 347 128 
L 347 722 
Q 666 556 975 473 
Q 1284 391 1588 391 
Q 1994 391 2212 530 
Q 2431 669 2431 922 
Q 2431 1156 2273 1281 
Q 2116 1406 1581 1522 
L 1381 1569 
Q 847 1681 609 1914 
Q 372 2147 372 2553 
Q 372 3047 722 3315 
Q 1072 3584 1716 3584 
Q 2034 3584 2315 3537 
Q 2597 3491 2834 3397 
z
" transform="scale(0.015625)"/>
      </defs>
      <use xlink:href="#DejaVuSans-33" transform="translate(0 0.765625)"/>
      <use xlink:href="#DejaVuSans-d7" transform="translate(63.623047 0.765625)"/>
      <use xlink:href="#DejaVuSans-31" transform="translate(147.412109 0.765625)"/>
      <use xlink:href="#DejaVuSans-30" transform="translate(211.035156 0.765625)"/>
      <use xlink:href="#DejaVuSans-2212" transform="translate(275.615234 39.046875) scale(0.7)"/>
      <use xlink:href="#DejaVuSans-32" transform="translate(334.267578 39.046875) scale(0.7)"/>
      <use xlink:href="#DejaVuSans-36" transform="translate(378.803711 39.046875) scale(0.7)"/>
      <use xlink:href="#DejaVuSans-63" transform="translate(442.309895 0.765625)"/>
      <use xlink:href="#DejaVuSans-6d" transform="translate(497.290364 0.765625)"/>
      <use xlink:href="#DejaVuSans-33" transform="translate(595.659504 39.046875) scale(0.7)"/>
      <use xlink:href="#DejaVuSans-73" transform="translate(675.400391 0.765625)"/>
      <use xlink:href="#DejaVuSans-2212" transform="translate(728.457031 39.046875) scale(0.7)"/>
      <use xlink:href="#DejaVuSans-31" transform="translate(787.109375 39.046875) scale(0.7)"/>
     </g>
    </g>
    <g id="line2d_82">
     <path d="M 273.22 49.976562 
L 283.22 49.976562 
L 293.22 49.976562 
" style="fill: none; stroke: #ff7f0e; stroke-width: 1.5; stroke-linecap: square"/>
    </g>
    <g id="text_20">
     <!-- 0.03$\times10^{-26}\,{\rm cm^3~s^{-1}}$ -->
     <g transform="translate(301.22 53.476562) scale(0.1 -0.1)">
      <use xlink:href="#DejaVuSans-30" transform="translate(0 0.765625)"/>
      <use xlink:href="#DejaVuSans-2e" transform="translate(63.623047 0.765625)"/>
      <use xlink:href="#DejaVuSans-30" transform="translate(95.410156 0.765625)"/>
      <use xlink:href="#DejaVuSans-33" transform="translate(159.033203 0.765625)"/>
      <use xlink:href="#DejaVuSans-d7" transform="translate(222.65625 0.765625)"/>
      <use xlink:href="#DejaVuSans-31" transform="translate(306.445312 0.765625)"/>
      <use xlink:href="#DejaVuSans-30" transform="translate(370.068359 0.765625)"/>
      <use xlink:href="#DejaVuSans-2212" transform="translate(434.648438 39.046875) scale(0.7)"/>
      <use xlink:href="#DejaVuSans-32" transform="translate(493.300781 39.046875) scale(0.7)"/>
      <use xlink:href="#DejaVuSans-36" transform="translate(537.836914 39.046875) scale(0.7)"/>
      <use xlink:href="#DejaVuSans-63" transform="translate(601.343098 0.765625)"/>
      <use xlink:href="#DejaVuSans-6d" transform="translate(656.323567 0.765625)"/>
      <use xlink:href="#DejaVuSans-33" transform="translate(754.692708 39.046875) scale(0.7)"/>
      <use xlink:href="#DejaVuSans-73" transform="translate(834.433594 0.765625)"/>
      <use xlink:href="#DejaVuSans-2212" transform="translate(887.490234 39.046875) scale(0.7)"/>
      <use xlink:href="#DejaVuSans-31" transform="translate(946.142578 39.046875) scale(0.7)"/>
     </g>
    </g>
    <g id="line2d_83">
     <path d="M 273.22 64.654687 
L 283.22 64.654687 
L 293.22 64.654687 
" style="fill: none; stroke: #2ca02c; stroke-width: 1.5; stroke-linecap: square"/>
    </g>
    <g id="text_21">
     <!-- 0$\times10^{-26}\,{\rm cm^3~s^{-1}}$ -->
     <g transform="translate(301.22 68.154687) scale(0.1 -0.1)">
      <use xlink:href="#DejaVuSans-30" transform="translate(0 0.765625)"/>
      <use xlink:href="#DejaVuSans-d7" transform="translate(63.623047 0.765625)"/>
      <use xlink:href="#DejaVuSans-31" transform="translate(147.412109 0.765625)"/>
      <use xlink:href="#DejaVuSans-30" transform="translate(211.035156 0.765625)"/>
      <use xlink:href="#DejaVuSans-2212" transform="translate(275.615234 39.046875) scale(0.7)"/>
      <use xlink:href="#DejaVuSans-32" transform="translate(334.267578 39.046875) scale(0.7)"/>
      <use xlink:href="#DejaVuSans-36" transform="translate(378.803711 39.046875) scale(0.7)"/>
      <use xlink:href="#DejaVuSans-63" transform="translate(442.309895 0.765625)"/>
      <use xlink:href="#DejaVuSans-6d" transform="translate(497.290364 0.765625)"/>
      <use xlink:href="#DejaVuSans-33" transform="translate(595.659504 39.046875) scale(0.7)"/>
      <use xlink:href="#DejaVuSans-73" transform="translate(675.400391 0.765625)"/>
      <use xlink:href="#DejaVuSans-2212" transform="translate(728.457031 39.046875) scale(0.7)"/>
      <use xlink:href="#DejaVuSans-31" transform="translate(787.109375 39.046875) scale(0.7)"/>
     </g>
    </g>
   </g>
  </g>
 </g>
 <defs>
  <clipPath id="p5509895bf4">
   <rect x="52.5" y="22.2" width="357.12" height="266.112"/>
  </clipPath>
 </defs>
</svg>
