<?xml version="1.0" encoding="utf-8" standalone="no"?>
<!DOCTYPE svg PUBLIC "-//W3C//DTD SVG 1.1//EN"
  "http://www.w3.org/Graphics/SVG/1.1/DTD/svg11.dtd">
<svg xmlns:xlink="http://www.w3.org/1999/xlink" width="416.82pt" height="326.010125pt" viewBox="0 0 416.82 326.010125" xmlns="http://www.w3.org/2000/svg" version="1.1">
 <metadata>
  <rdf:RDF xmlns:dc="http://purl.org/dc/elements/1.1/" xmlns:cc="http://creativecommons.org/ns#" xmlns:rdf="http://www.w3.org/1999/02/22-rdf-syntax-ns#">
   <cc:Work>
    <dc:type rdf:resource="http://purl.org/dc/dcmitype/StillImage"/>
    <dc:date>2025-03-04T00:00:22.082526</dc:date>
    <dc:format>image/svg+xml</dc:format>
    <dc:creator>
     <cc:Agent>
      <dc:title>Matplotlib v3.8.4, https://matplotlib.org/</dc:title>
     </cc:Agent>
    </dc:creator>
   </cc:Work>
  </rdf:RDF>
 </metadata>
 <defs>
  <style type="text/css">*{stroke-linejoin: round; stroke-linecap: butt}</style>
 </defs>
 <g id="figure_1">
  <g id="patch_1">
   <path d="M 0 326.010125 
L 416.82 326.010125 
L 416.82 0 
L 0 0 
z
" style="fill: #ffffff"/>
  </g>
  <g id="axes_1">
   <g id="patch_2">
    <path d="M 52.5 288.432 
L 409.62 288.432 
L 409.62 22.32 
L 52.5 22.32 
z
" style="fill: #ffffff"/>
   </g>
   <g id="matplotlib.axis_1">
    <g id="xtick_1">
     <g id="line2d_1">
      <defs>
       <path id="m4b14637153" d="M 0 0 
L 0 3.5 
" style="stroke: #000000; stroke-width: 0.8"/>
      </defs>
      <g>
       <use xlink:href="#m4b14637153" x="68.732727" y="288.432" style="stroke: #000000; stroke-width: 0.8"/>
      </g>
     </g>
     <g id="text_1">
      <!-- $\mathdefault{10^{-5}}$ -->
      <g transform="translate(56.982727 303.030437) scale(0.1 -0.1)">
       <defs>
        <path id="DejaVuSans-31" d="M 794 531 
L 1825 531 
L 1825 4091 
L 703 3866 
L 703 4441 
L 1819 4666 
L 2450 4666 
L 2450 531 
L 3481 531 
L 3481 0 
L 794 0 
L 794 531 
z
" transform="scale(0.015625)"/>
        <path id="DejaVuSans-30" d="M 2034 4250 
Q 1547 4250 1301 3770 
Q 1056 3291 1056 2328 
Q 1056 1369 1301 889 
Q 1547 409 2034 409 
Q 2525 409 2770 889 
Q 3016 1369 3016 2328 
Q 3016 3291 2770 3770 
Q 2525 4250 2034 4250 
z
M 2034 4750 
Q 2819 4750 3233 4129 
Q 3647 3509 3647 2328 
Q 3647 1150 3233 529 
Q 2819 -91 2034 -91 
Q 1250 -91 836 529 
Q 422 1150 422 2328 
Q 422 3509 836 4129 
Q 1250 4750 2034 4750 
z
" transform="scale(0.015625)"/>
        <path id="DejaVuSans-2212" d="M 678 2272 
L 4684 2272 
L 4684 1741 
L 678 1741 
L 678 2272 
z
" transform="scale(0.015625)"/>
        <path id="DejaVuSans-35" d="M 691 4666 
L 3169 4666 
L 3169 4134 
L 1269 4134 
L 1269 2991 
Q 1406 3038 1543 3061 
Q 1681 3084 1819 3084 
Q 2600 3084 3056 2656 
Q 3513 2228 3513 1497 
Q 3513 744 3044 326 
Q 2575 -91 1722 -91 
Q 1428 -91 1123 -41 
Q 819 9 494 109 
L 494 744 
Q 775 591 1075 516 
Q 1375 441 1709 441 
Q 2250 441 2565 725 
Q 2881 1009 2881 1497 
Q 2881 1984 2565 2268 
Q 2250 2553 1709 2553 
Q 1456 2553 1204 2497 
Q 953 2441 691 2322 
L 691 4666 
z
" transform="scale(0.015625)"/>
       </defs>
       <use xlink:href="#DejaVuSans-31" transform="translate(0 0.684375)"/>
       <use xlink:href="#DejaVuSans-30" transform="translate(63.623047 0.684375)"/>
       <use xlink:href="#DejaVuSans-2212" transform="translate(128.203125 38.965625) scale(0.7)"/>
       <use xlink:href="#DejaVuSans-35" transform="translate(186.855469 38.965625) scale(0.7)"/>
      </g>
     </g>
    </g>
    <g id="xtick_2">
     <g id="line2d_2">
      <g>
       <use xlink:href="#m4b14637153" x="115.111948" y="288.432" style="stroke: #000000; stroke-width: 0.8"/>
      </g>
     </g>
     <g id="text_2">
      <!-- $\mathdefault{10^{-4}}$ -->
      <g transform="translate(103.361948 303.030437) scale(0.1 -0.1)">
       <defs>
        <path id="DejaVuSans-34" d="M 2419 4116 
L 825 1625 
L 2419 1625 
L 2419 4116 
z
M 2253 4666 
L 3047 4666 
L 3047 1625 
L 3713 1625 
L 3713 1100 
L 3047 1100 
L 3047 0 
L 2419 0 
L 2419 1100 
L 313 1100 
L 313 1709 
L 2253 4666 
z
" transform="scale(0.015625)"/>
       </defs>
       <use xlink:href="#DejaVuSans-31" transform="translate(0 0.684375)"/>
       <use xlink:href="#DejaVuSans-30" transform="translate(63.623047 0.684375)"/>
       <use xlink:href="#DejaVuSans-2212" transform="translate(128.203125 38.965625) scale(0.7)"/>
       <use xlink:href="#DejaVuSans-34" transform="translate(186.855469 38.965625) scale(0.7)"/>
      </g>
     </g>
    </g>
    <g id="xtick_3">
     <g id="line2d_3">
      <g>
       <use xlink:href="#m4b14637153" x="161.491169" y="288.432" style="stroke: #000000; stroke-width: 0.8"/>
      </g>
     </g>
     <g id="text_3">
      <!-- $\mathdefault{10^{-3}}$ -->
      <g transform="translate(149.741169 303.030437) scale(0.1 -0.1)">
       <defs>
        <path id="DejaVuSans-33" d="M 2597 2516 
Q 3050 2419 3304 2112 
Q 3559 1806 3559 1356 
Q 3559 666 3084 287 
Q 2609 -91 1734 -91 
Q 1441 -91 1130 -33 
Q 819 25 488 141 
L 488 750 
Q 750 597 1062 519 
Q 1375 441 1716 441 
Q 2309 441 2620 675 
Q 2931 909 2931 1356 
Q 2931 1769 2642 2001 
Q 2353 2234 1838 2234 
L 1294 2234 
L 1294 2753 
L 1863 2753 
Q 2328 2753 2575 2939 
Q 2822 3125 2822 3475 
Q 2822 3834 2567 4026 
Q 2313 4219 1838 4219 
Q 1578 4219 1281 4162 
Q 984 4106 628 3988 
L 628 4550 
Q 988 4650 1302 4700 
Q 1616 4750 1894 4750 
Q 2613 4750 3031 4423 
Q 3450 4097 3450 3541 
Q 3450 3153 3228 2886 
Q 3006 2619 2597 2516 
z
" transform="scale(0.015625)"/>
       </defs>
       <use xlink:href="#DejaVuSans-31" transform="translate(0 0.765625)"/>
       <use xlink:href="#DejaVuSans-30" transform="translate(63.623047 0.765625)"/>
       <use xlink:href="#DejaVuSans-2212" transform="translate(128.203125 39.046875) scale(0.7)"/>
       <use xlink:href="#DejaVuSans-33" transform="translate(186.855469 39.046875) scale(0.7)"/>
      </g>
     </g>
    </g>
    <g id="xtick_4">
     <g id="line2d_4">
      <g>
       <use xlink:href="#m4b14637153" x="207.87039" y="288.432" style="stroke: #000000; stroke-width: 0.8"/>
      </g>
     </g>
     <g id="text_4">
      <!-- $\mathdefault{10^{-2}}$ -->
      <g transform="translate(196.12039 303.030437) scale(0.1 -0.1)">
       <defs>
        <path id="DejaVuSans-32" d="M 1228 531 
L 3431 531 
L 3431 0 
L 469 0 
L 469 531 
Q 828 903 1448 1529 
Q 2069 2156 2228 2338 
Q 2531 2678 2651 2914 
Q 2772 3150 2772 3378 
Q 2772 3750 2511 3984 
Q 2250 4219 1831 4219 
Q 1534 4219 1204 4116 
Q 875 4013 500 3803 
L 500 4441 
Q 881 4594 1212 4672 
Q 1544 4750 1819 4750 
Q 2544 4750 2975 4387 
Q 3406 4025 3406 3419 
Q 3406 3131 3298 2873 
Q 3191 2616 2906 2266 
Q 2828 2175 2409 1742 
Q 1991 1309 1228 531 
z
" transform="scale(0.015625)"/>
       </defs>
       <use xlink:href="#DejaVuSans-31" transform="translate(0 0.765625)"/>
       <use xlink:href="#DejaVuSans-30" transform="translate(63.623047 0.765625)"/>
       <use xlink:href="#DejaVuSans-2212" transform="translate(128.203125 39.046875) scale(0.7)"/>
       <use xlink:href="#DejaVuSans-32" transform="translate(186.855469 39.046875) scale(0.7)"/>
      </g>
     </g>
    </g>
    <g id="xtick_5">
     <g id="line2d_5">
      <g>
       <use xlink:href="#m4b14637153" x="254.24961" y="288.432" style="stroke: #000000; stroke-width: 0.8"/>
      </g>
     </g>
     <g id="text_5">
      <!-- $\mathdefault{10^{-1}}$ -->
      <g transform="translate(242.49961 303.030437) scale(0.1 -0.1)">
       <use xlink:href="#DejaVuSans-31" transform="translate(0 0.684375)"/>
       <use xlink:href="#DejaVuSans-30" transform="translate(63.623047 0.684375)"/>
       <use xlink:href="#DejaVuSans-2212" transform="translate(128.203125 38.965625) scale(0.7)"/>
       <use xlink:href="#DejaVuSans-31" transform="translate(186.855469 38.965625) scale(0.7)"/>
      </g>
     </g>
    </g>
    <g id="xtick_6">
     <g id="line2d_6">
      <g>
       <use xlink:href="#m4b14637153" x="300.628831" y="288.432" style="stroke: #000000; stroke-width: 0.8"/>
      </g>
     </g>
     <g id="text_6">
      <!-- $\mathdefault{10^{0}}$ -->
      <g transform="translate(291.828831 303.030437) scale(0.1 -0.1)">
       <use xlink:href="#DejaVuSans-31" transform="translate(0 0.765625)"/>
       <use xlink:href="#DejaVuSans-30" transform="translate(63.623047 0.765625)"/>
       <use xlink:href="#DejaVuSans-30" transform="translate(128.203125 39.046875) scale(0.7)"/>
      </g>
     </g>
    </g>
    <g id="xtick_7">
     <g id="line2d_7">
      <g>
       <use xlink:href="#m4b14637153" x="347.008052" y="288.432" style="stroke: #000000; stroke-width: 0.8"/>
      </g>
     </g>
     <g id="text_7">
      <!-- $\mathdefault{10^{1}}$ -->
      <g transform="translate(338.208052 303.030437) scale(0.1 -0.1)">
       <use xlink:href="#DejaVuSans-31" transform="translate(0 0.684375)"/>
       <use xlink:href="#DejaVuSans-30" transform="translate(63.623047 0.684375)"/>
       <use xlink:href="#DejaVuSans-31" transform="translate(128.203125 38.965625) scale(0.7)"/>
      </g>
     </g>
    </g>
    <g id="xtick_8">
     <g id="line2d_8">
      <g>
       <use xlink:href="#m4b14637153" x="393.387273" y="288.432" style="stroke: #000000; stroke-width: 0.8"/>
      </g>
     </g>
     <g id="text_8">
      <!-- $\mathdefault{10^{2}}$ -->
      <g transform="translate(384.587273 303.030437) scale(0.1 -0.1)">
       <use xlink:href="#DejaVuSans-31" transform="translate(0 0.765625)"/>
       <use xlink:href="#DejaVuSans-30" transform="translate(63.623047 0.765625)"/>
       <use xlink:href="#DejaVuSans-32" transform="translate(128.203125 39.046875) scale(0.7)"/>
      </g>
     </g>
    </g>
    <g id="xtick_9">
     <g id="line2d_9">
      <defs>
       <path id="m1f659a62bb" d="M 0 0 
L 0 2 
" style="stroke: #000000; stroke-width: 0.6"/>
      </defs>
      <g>
       <use xlink:href="#m1f659a62bb" x="54.771191" y="288.432" style="stroke: #000000; stroke-width: 0.6"/>
      </g>
     </g>
    </g>
    <g id="xtick_10">
     <g id="line2d_10">
      <g>
       <use xlink:href="#m1f659a62bb" x="58.443555" y="288.432" style="stroke: #000000; stroke-width: 0.6"/>
      </g>
     </g>
    </g>
    <g id="xtick_11">
     <g id="line2d_11">
      <g>
       <use xlink:href="#m1f659a62bb" x="61.548495" y="288.432" style="stroke: #000000; stroke-width: 0.6"/>
      </g>
     </g>
    </g>
    <g id="xtick_12">
     <g id="line2d_12">
      <g>
       <use xlink:href="#m1f659a62bb" x="64.238116" y="288.432" style="stroke: #000000; stroke-width: 0.6"/>
      </g>
     </g>
    </g>
    <g id="xtick_13">
     <g id="line2d_13">
      <g>
       <use xlink:href="#m1f659a62bb" x="66.610531" y="288.432" style="stroke: #000000; stroke-width: 0.6"/>
      </g>
     </g>
    </g>
    <g id="xtick_14">
     <g id="line2d_14">
      <g>
       <use xlink:href="#m1f659a62bb" x="82.694264" y="288.432" style="stroke: #000000; stroke-width: 0.6"/>
      </g>
     </g>
    </g>
    <g id="xtick_15">
     <g id="line2d_15">
      <g>
       <use xlink:href="#m1f659a62bb" x="90.861239" y="288.432" style="stroke: #000000; stroke-width: 0.6"/>
      </g>
     </g>
    </g>
    <g id="xtick_16">
     <g id="line2d_16">
      <g>
       <use xlink:href="#m1f659a62bb" x="96.655801" y="288.432" style="stroke: #000000; stroke-width: 0.6"/>
      </g>
     </g>
    </g>
    <g id="xtick_17">
     <g id="line2d_17">
      <g>
       <use xlink:href="#m1f659a62bb" x="101.150411" y="288.432" style="stroke: #000000; stroke-width: 0.6"/>
      </g>
     </g>
    </g>
    <g id="xtick_18">
     <g id="line2d_18">
      <g>
       <use xlink:href="#m1f659a62bb" x="104.822776" y="288.432" style="stroke: #000000; stroke-width: 0.6"/>
      </g>
     </g>
    </g>
    <g id="xtick_19">
     <g id="line2d_19">
      <g>
       <use xlink:href="#m1f659a62bb" x="107.927716" y="288.432" style="stroke: #000000; stroke-width: 0.6"/>
      </g>
     </g>
    </g>
    <g id="xtick_20">
     <g id="line2d_20">
      <g>
       <use xlink:href="#m1f659a62bb" x="110.617337" y="288.432" style="stroke: #000000; stroke-width: 0.6"/>
      </g>
     </g>
    </g>
    <g id="xtick_21">
     <g id="line2d_21">
      <g>
       <use xlink:href="#m1f659a62bb" x="112.989751" y="288.432" style="stroke: #000000; stroke-width: 0.6"/>
      </g>
     </g>
    </g>
    <g id="xtick_22">
     <g id="line2d_22">
      <g>
       <use xlink:href="#m1f659a62bb" x="129.073485" y="288.432" style="stroke: #000000; stroke-width: 0.6"/>
      </g>
     </g>
    </g>
    <g id="xtick_23">
     <g id="line2d_23">
      <g>
       <use xlink:href="#m1f659a62bb" x="137.24046" y="288.432" style="stroke: #000000; stroke-width: 0.6"/>
      </g>
     </g>
    </g>
    <g id="xtick_24">
     <g id="line2d_24">
      <g>
       <use xlink:href="#m1f659a62bb" x="143.035021" y="288.432" style="stroke: #000000; stroke-width: 0.6"/>
      </g>
     </g>
    </g>
    <g id="xtick_25">
     <g id="line2d_25">
      <g>
       <use xlink:href="#m1f659a62bb" x="147.529632" y="288.432" style="stroke: #000000; stroke-width: 0.6"/>
      </g>
     </g>
    </g>
    <g id="xtick_26">
     <g id="line2d_26">
      <g>
       <use xlink:href="#m1f659a62bb" x="151.201997" y="288.432" style="stroke: #000000; stroke-width: 0.6"/>
      </g>
     </g>
    </g>
    <g id="xtick_27">
     <g id="line2d_27">
      <g>
       <use xlink:href="#m1f659a62bb" x="154.306937" y="288.432" style="stroke: #000000; stroke-width: 0.6"/>
      </g>
     </g>
    </g>
    <g id="xtick_28">
     <g id="line2d_28">
      <g>
       <use xlink:href="#m1f659a62bb" x="156.996558" y="288.432" style="stroke: #000000; stroke-width: 0.6"/>
      </g>
     </g>
    </g>
    <g id="xtick_29">
     <g id="line2d_29">
      <g>
       <use xlink:href="#m1f659a62bb" x="159.368972" y="288.432" style="stroke: #000000; stroke-width: 0.6"/>
      </g>
     </g>
    </g>
    <g id="xtick_30">
     <g id="line2d_30">
      <g>
       <use xlink:href="#m1f659a62bb" x="175.452705" y="288.432" style="stroke: #000000; stroke-width: 0.6"/>
      </g>
     </g>
    </g>
    <g id="xtick_31">
     <g id="line2d_31">
      <g>
       <use xlink:href="#m1f659a62bb" x="183.619681" y="288.432" style="stroke: #000000; stroke-width: 0.6"/>
      </g>
     </g>
    </g>
    <g id="xtick_32">
     <g id="line2d_32">
      <g>
       <use xlink:href="#m1f659a62bb" x="189.414242" y="288.432" style="stroke: #000000; stroke-width: 0.6"/>
      </g>
     </g>
    </g>
    <g id="xtick_33">
     <g id="line2d_33">
      <g>
       <use xlink:href="#m1f659a62bb" x="193.908853" y="288.432" style="stroke: #000000; stroke-width: 0.6"/>
      </g>
     </g>
    </g>
    <g id="xtick_34">
     <g id="line2d_34">
      <g>
       <use xlink:href="#m1f659a62bb" x="197.581217" y="288.432" style="stroke: #000000; stroke-width: 0.6"/>
      </g>
     </g>
    </g>
    <g id="xtick_35">
     <g id="line2d_35">
      <g>
       <use xlink:href="#m1f659a62bb" x="200.686157" y="288.432" style="stroke: #000000; stroke-width: 0.6"/>
      </g>
     </g>
    </g>
    <g id="xtick_36">
     <g id="line2d_36">
      <g>
       <use xlink:href="#m1f659a62bb" x="203.375779" y="288.432" style="stroke: #000000; stroke-width: 0.6"/>
      </g>
     </g>
    </g>
    <g id="xtick_37">
     <g id="line2d_37">
      <g>
       <use xlink:href="#m1f659a62bb" x="205.748193" y="288.432" style="stroke: #000000; stroke-width: 0.6"/>
      </g>
     </g>
    </g>
    <g id="xtick_38">
     <g id="line2d_38">
      <g>
       <use xlink:href="#m1f659a62bb" x="221.831926" y="288.432" style="stroke: #000000; stroke-width: 0.6"/>
      </g>
     </g>
    </g>
    <g id="xtick_39">
     <g id="line2d_39">
      <g>
       <use xlink:href="#m1f659a62bb" x="229.998902" y="288.432" style="stroke: #000000; stroke-width: 0.6"/>
      </g>
     </g>
    </g>
    <g id="xtick_40">
     <g id="line2d_40">
      <g>
       <use xlink:href="#m1f659a62bb" x="235.793463" y="288.432" style="stroke: #000000; stroke-width: 0.6"/>
      </g>
     </g>
    </g>
    <g id="xtick_41">
     <g id="line2d_41">
      <g>
       <use xlink:href="#m1f659a62bb" x="240.288074" y="288.432" style="stroke: #000000; stroke-width: 0.6"/>
      </g>
     </g>
    </g>
    <g id="xtick_42">
     <g id="line2d_42">
      <g>
       <use xlink:href="#m1f659a62bb" x="243.960438" y="288.432" style="stroke: #000000; stroke-width: 0.6"/>
      </g>
     </g>
    </g>
    <g id="xtick_43">
     <g id="line2d_43">
      <g>
       <use xlink:href="#m1f659a62bb" x="247.065378" y="288.432" style="stroke: #000000; stroke-width: 0.6"/>
      </g>
     </g>
    </g>
    <g id="xtick_44">
     <g id="line2d_44">
      <g>
       <use xlink:href="#m1f659a62bb" x="249.755" y="288.432" style="stroke: #000000; stroke-width: 0.6"/>
      </g>
     </g>
    </g>
    <g id="xtick_45">
     <g id="line2d_45">
      <g>
       <use xlink:href="#m1f659a62bb" x="252.127414" y="288.432" style="stroke: #000000; stroke-width: 0.6"/>
      </g>
     </g>
    </g>
    <g id="xtick_46">
     <g id="line2d_46">
      <g>
       <use xlink:href="#m1f659a62bb" x="268.211147" y="288.432" style="stroke: #000000; stroke-width: 0.6"/>
      </g>
     </g>
    </g>
    <g id="xtick_47">
     <g id="line2d_47">
      <g>
       <use xlink:href="#m1f659a62bb" x="276.378122" y="288.432" style="stroke: #000000; stroke-width: 0.6"/>
      </g>
     </g>
    </g>
    <g id="xtick_48">
     <g id="line2d_48">
      <g>
       <use xlink:href="#m1f659a62bb" x="282.172684" y="288.432" style="stroke: #000000; stroke-width: 0.6"/>
      </g>
     </g>
    </g>
    <g id="xtick_49">
     <g id="line2d_49">
      <g>
       <use xlink:href="#m1f659a62bb" x="286.667295" y="288.432" style="stroke: #000000; stroke-width: 0.6"/>
      </g>
     </g>
    </g>
    <g id="xtick_50">
     <g id="line2d_50">
      <g>
       <use xlink:href="#m1f659a62bb" x="290.339659" y="288.432" style="stroke: #000000; stroke-width: 0.6"/>
      </g>
     </g>
    </g>
    <g id="xtick_51">
     <g id="line2d_51">
      <g>
       <use xlink:href="#m1f659a62bb" x="293.444599" y="288.432" style="stroke: #000000; stroke-width: 0.6"/>
      </g>
     </g>
    </g>
    <g id="xtick_52">
     <g id="line2d_52">
      <g>
       <use xlink:href="#m1f659a62bb" x="296.13422" y="288.432" style="stroke: #000000; stroke-width: 0.6"/>
      </g>
     </g>
    </g>
    <g id="xtick_53">
     <g id="line2d_53">
      <g>
       <use xlink:href="#m1f659a62bb" x="298.506634" y="288.432" style="stroke: #000000; stroke-width: 0.6"/>
      </g>
     </g>
    </g>
    <g id="xtick_54">
     <g id="line2d_54">
      <g>
       <use xlink:href="#m1f659a62bb" x="314.590368" y="288.432" style="stroke: #000000; stroke-width: 0.6"/>
      </g>
     </g>
    </g>
    <g id="xtick_55">
     <g id="line2d_55">
      <g>
       <use xlink:href="#m1f659a62bb" x="322.757343" y="288.432" style="stroke: #000000; stroke-width: 0.6"/>
      </g>
     </g>
    </g>
    <g id="xtick_56">
     <g id="line2d_56">
      <g>
       <use xlink:href="#m1f659a62bb" x="328.551904" y="288.432" style="stroke: #000000; stroke-width: 0.6"/>
      </g>
     </g>
    </g>
    <g id="xtick_57">
     <g id="line2d_57">
      <g>
       <use xlink:href="#m1f659a62bb" x="333.046515" y="288.432" style="stroke: #000000; stroke-width: 0.6"/>
      </g>
     </g>
    </g>
    <g id="xtick_58">
     <g id="line2d_58">
      <g>
       <use xlink:href="#m1f659a62bb" x="336.71888" y="288.432" style="stroke: #000000; stroke-width: 0.6"/>
      </g>
     </g>
    </g>
    <g id="xtick_59">
     <g id="line2d_59">
      <g>
       <use xlink:href="#m1f659a62bb" x="339.82382" y="288.432" style="stroke: #000000; stroke-width: 0.6"/>
      </g>
     </g>
    </g>
    <g id="xtick_60">
     <g id="line2d_60">
      <g>
       <use xlink:href="#m1f659a62bb" x="342.513441" y="288.432" style="stroke: #000000; stroke-width: 0.6"/>
      </g>
     </g>
    </g>
    <g id="xtick_61">
     <g id="line2d_61">
      <g>
       <use xlink:href="#m1f659a62bb" x="344.885855" y="288.432" style="stroke: #000000; stroke-width: 0.6"/>
      </g>
     </g>
    </g>
    <g id="xtick_62">
     <g id="line2d_62">
      <g>
       <use xlink:href="#m1f659a62bb" x="360.969589" y="288.432" style="stroke: #000000; stroke-width: 0.6"/>
      </g>
     </g>
    </g>
    <g id="xtick_63">
     <g id="line2d_63">
      <g>
       <use xlink:href="#m1f659a62bb" x="369.136564" y="288.432" style="stroke: #000000; stroke-width: 0.6"/>
      </g>
     </g>
    </g>
    <g id="xtick_64">
     <g id="line2d_64">
      <g>
       <use xlink:href="#m1f659a62bb" x="374.931125" y="288.432" style="stroke: #000000; stroke-width: 0.6"/>
      </g>
     </g>
    </g>
    <g id="xtick_65">
     <g id="line2d_65">
      <g>
       <use xlink:href="#m1f659a62bb" x="379.425736" y="288.432" style="stroke: #000000; stroke-width: 0.6"/>
      </g>
     </g>
    </g>
    <g id="xtick_66">
     <g id="line2d_66">
      <g>
       <use xlink:href="#m1f659a62bb" x="383.098101" y="288.432" style="stroke: #000000; stroke-width: 0.6"/>
      </g>
     </g>
    </g>
    <g id="xtick_67">
     <g id="line2d_67">
      <g>
       <use xlink:href="#m1f659a62bb" x="386.203041" y="288.432" style="stroke: #000000; stroke-width: 0.6"/>
      </g>
     </g>
    </g>
    <g id="xtick_68">
     <g id="line2d_68">
      <g>
       <use xlink:href="#m1f659a62bb" x="388.892662" y="288.432" style="stroke: #000000; stroke-width: 0.6"/>
      </g>
     </g>
    </g>
    <g id="xtick_69">
     <g id="line2d_69">
      <g>
       <use xlink:href="#m1f659a62bb" x="391.265076" y="288.432" style="stroke: #000000; stroke-width: 0.6"/>
      </g>
     </g>
    </g>
    <g id="xtick_70">
     <g id="line2d_70">
      <g>
       <use xlink:href="#m1f659a62bb" x="407.348809" y="288.432" style="stroke: #000000; stroke-width: 0.6"/>
      </g>
     </g>
    </g>
    <g id="text_9">
     <!-- $r$ [kpc] -->
     <g transform="translate(214.66 316.710125) scale(0.1 -0.1)">
      <defs>
       <path id="DejaVuSans-Oblique-72" d="M 2853 2969 
Q 2766 3016 2653 3041 
Q 2541 3066 2413 3066 
Q 1953 3066 1609 2717 
Q 1266 2369 1153 1784 
L 800 0 
L 225 0 
L 909 3500 
L 1484 3500 
L 1375 2956 
Q 1603 3259 1920 3421 
Q 2238 3584 2597 3584 
Q 2691 3584 2781 3573 
Q 2872 3563 2963 3538 
L 2853 2969 
z
" transform="scale(0.015625)"/>
       <path id="DejaVuSans-20" transform="scale(0.015625)"/>
       <path id="DejaVuSans-5b" d="M 550 4863 
L 1875 4863 
L 1875 4416 
L 1125 4416 
L 1125 -397 
L 1875 -397 
L 1875 -844 
L 550 -844 
L 550 4863 
z
" transform="scale(0.015625)"/>
       <path id="DejaVuSans-6b" d="M 581 4863 
L 1159 4863 
L 1159 1991 
L 2875 3500 
L 3609 3500 
L 1753 1863 
L 3688 0 
L 2938 0 
L 1159 1709 
L 1159 0 
L 581 0 
L 581 4863 
z
" transform="scale(0.015625)"/>
       <path id="DejaVuSans-70" d="M 1159 525 
L 1159 -1331 
L 581 -1331 
L 581 3500 
L 1159 3500 
L 1159 2969 
Q 1341 3281 1617 3432 
Q 1894 3584 2278 3584 
Q 2916 3584 3314 3078 
Q 3713 2572 3713 1747 
Q 3713 922 3314 415 
Q 2916 -91 2278 -91 
Q 1894 -91 1617 61 
Q 1341 213 1159 525 
z
M 3116 1747 
Q 3116 2381 2855 2742 
Q 2594 3103 2138 3103 
Q 1681 3103 1420 2742 
Q 1159 2381 1159 1747 
Q 1159 1113 1420 752 
Q 1681 391 2138 391 
Q 2594 391 2855 752 
Q 3116 1113 3116 1747 
z
" transform="scale(0.015625)"/>
       <path id="DejaVuSans-63" d="M 3122 3366 
L 3122 2828 
Q 2878 2963 2633 3030 
Q 2388 3097 2138 3097 
Q 1578 3097 1268 2742 
Q 959 2388 959 1747 
Q 959 1106 1268 751 
Q 1578 397 2138 397 
Q 2388 397 2633 464 
Q 2878 531 3122 666 
L 3122 134 
Q 2881 22 2623 -34 
Q 2366 -91 2075 -91 
Q 1284 -91 818 406 
Q 353 903 353 1747 
Q 353 2603 823 3093 
Q 1294 3584 2113 3584 
Q 2378 3584 2631 3529 
Q 2884 3475 3122 3366 
z
" transform="scale(0.015625)"/>
       <path id="DejaVuSans-5d" d="M 1947 4863 
L 1947 -844 
L 622 -844 
L 622 -397 
L 1369 -397 
L 1369 4416 
L 622 4416 
L 622 4863 
L 1947 4863 
z
" transform="scale(0.015625)"/>
      </defs>
      <use xlink:href="#DejaVuSans-Oblique-72" transform="translate(0 0.015625)"/>
      <use xlink:href="#DejaVuSans-20" transform="translate(41.113281 0.015625)"/>
      <use xlink:href="#DejaVuSans-5b" transform="translate(72.900391 0.015625)"/>
      <use xlink:href="#DejaVuSans-6b" transform="translate(111.914062 0.015625)"/>
      <use xlink:href="#DejaVuSans-70" transform="translate(169.824219 0.015625)"/>
      <use xlink:href="#DejaVuSans-63" transform="translate(233.300781 0.015625)"/>
      <use xlink:href="#DejaVuSans-5d" transform="translate(288.28125 0.015625)"/>
     </g>
    </g>
   </g>
   <g id="matplotlib.axis_2">
    <g id="ytick_1">
     <g id="line2d_71">
      <defs>
       <path id="m16ffc18992" d="M 0 0 
L -3.5 0 
" style="stroke: #000000; stroke-width: 0.8"/>
      </defs>
      <g>
       <use xlink:href="#m16ffc18992" x="52.5" y="266.991703" style="stroke: #000000; stroke-width: 0.8"/>
      </g>
     </g>
     <g id="text_10">
      <!-- $\mathdefault{10^{2}}$ -->
      <g transform="translate(27.9 270.790922) scale(0.1 -0.1)">
       <use xlink:href="#DejaVuSans-31" transform="translate(0 0.765625)"/>
       <use xlink:href="#DejaVuSans-30" transform="translate(63.623047 0.765625)"/>
       <use xlink:href="#DejaVuSans-32" transform="translate(128.203125 39.046875) scale(0.7)"/>
      </g>
     </g>
    </g>
    <g id="ytick_2">
     <g id="line2d_72">
      <g>
       <use xlink:href="#m16ffc18992" x="52.5" y="230.566161" style="stroke: #000000; stroke-width: 0.8"/>
      </g>
     </g>
     <g id="text_11">
      <!-- $\mathdefault{10^{4}}$ -->
      <g transform="translate(27.9 234.36538) scale(0.1 -0.1)">
       <use xlink:href="#DejaVuSans-31" transform="translate(0 0.684375)"/>
       <use xlink:href="#DejaVuSans-30" transform="translate(63.623047 0.684375)"/>
       <use xlink:href="#DejaVuSans-34" transform="translate(128.203125 38.965625) scale(0.7)"/>
      </g>
     </g>
    </g>
    <g id="ytick_3">
     <g id="line2d_73">
      <g>
       <use xlink:href="#m16ffc18992" x="52.5" y="194.140619" style="stroke: #000000; stroke-width: 0.8"/>
      </g>
     </g>
     <g id="text_12">
      <!-- $\mathdefault{10^{6}}$ -->
      <g transform="translate(27.9 197.939838) scale(0.1 -0.1)">
       <defs>
        <path id="DejaVuSans-36" d="M 2113 2584 
Q 1688 2584 1439 2293 
Q 1191 2003 1191 1497 
Q 1191 994 1439 701 
Q 1688 409 2113 409 
Q 2538 409 2786 701 
Q 3034 994 3034 1497 
Q 3034 2003 2786 2293 
Q 2538 2584 2113 2584 
z
M 3366 4563 
L 3366 3988 
Q 3128 4100 2886 4159 
Q 2644 4219 2406 4219 
Q 1781 4219 1451 3797 
Q 1122 3375 1075 2522 
Q 1259 2794 1537 2939 
Q 1816 3084 2150 3084 
Q 2853 3084 3261 2657 
Q 3669 2231 3669 1497 
Q 3669 778 3244 343 
Q 2819 -91 2113 -91 
Q 1303 -91 875 529 
Q 447 1150 447 2328 
Q 447 3434 972 4092 
Q 1497 4750 2381 4750 
Q 2619 4750 2861 4703 
Q 3103 4656 3366 4563 
z
" transform="scale(0.015625)"/>
       </defs>
       <use xlink:href="#DejaVuSans-31" transform="translate(0 0.765625)"/>
       <use xlink:href="#DejaVuSans-30" transform="translate(63.623047 0.765625)"/>
       <use xlink:href="#DejaVuSans-36" transform="translate(128.203125 39.046875) scale(0.7)"/>
      </g>
     </g>
    </g>
    <g id="ytick_4">
     <g id="line2d_74">
      <g>
       <use xlink:href="#m16ffc18992" x="52.5" y="157.715077" style="stroke: #000000; stroke-width: 0.8"/>
      </g>
     </g>
     <g id="text_13">
      <!-- $\mathdefault{10^{8}}$ -->
      <g transform="translate(27.9 161.514296) scale(0.1 -0.1)">
       <defs>
        <path id="DejaVuSans-38" d="M 2034 2216 
Q 1584 2216 1326 1975 
Q 1069 1734 1069 1313 
Q 1069 891 1326 650 
Q 1584 409 2034 409 
Q 2484 409 2743 651 
Q 3003 894 3003 1313 
Q 3003 1734 2745 1975 
Q 2488 2216 2034 2216 
z
M 1403 2484 
Q 997 2584 770 2862 
Q 544 3141 544 3541 
Q 544 4100 942 4425 
Q 1341 4750 2034 4750 
Q 2731 4750 3128 4425 
Q 3525 4100 3525 3541 
Q 3525 3141 3298 2862 
Q 3072 2584 2669 2484 
Q 3125 2378 3379 2068 
Q 3634 1759 3634 1313 
Q 3634 634 3220 271 
Q 2806 -91 2034 -91 
Q 1263 -91 848 271 
Q 434 634 434 1313 
Q 434 1759 690 2068 
Q 947 2378 1403 2484 
z
M 1172 3481 
Q 1172 3119 1398 2916 
Q 1625 2713 2034 2713 
Q 2441 2713 2670 2916 
Q 2900 3119 2900 3481 
Q 2900 3844 2670 4047 
Q 2441 4250 2034 4250 
Q 1625 4250 1398 4047 
Q 1172 3844 1172 3481 
z
" transform="scale(0.015625)"/>
       </defs>
       <use xlink:href="#DejaVuSans-31" transform="translate(0 0.765625)"/>
       <use xlink:href="#DejaVuSans-30" transform="translate(63.623047 0.765625)"/>
       <use xlink:href="#DejaVuSans-38" transform="translate(128.203125 39.046875) scale(0.7)"/>
      </g>
     </g>
    </g>
    <g id="ytick_5">
     <g id="line2d_75">
      <g>
       <use xlink:href="#m16ffc18992" x="52.5" y="121.289535" style="stroke: #000000; stroke-width: 0.8"/>
      </g>
     </g>
     <g id="text_14">
      <!-- $\mathdefault{10^{10}}$ -->
      <g transform="translate(23.4 125.088754) scale(0.1 -0.1)">
       <use xlink:href="#DejaVuSans-31" transform="translate(0 0.765625)"/>
       <use xlink:href="#DejaVuSans-30" transform="translate(63.623047 0.765625)"/>
       <use xlink:href="#DejaVuSans-31" transform="translate(128.203125 39.046875) scale(0.7)"/>
       <use xlink:href="#DejaVuSans-30" transform="translate(172.739258 39.046875) scale(0.7)"/>
      </g>
     </g>
    </g>
    <g id="ytick_6">
     <g id="line2d_76">
      <g>
       <use xlink:href="#m16ffc18992" x="52.5" y="84.863993" style="stroke: #000000; stroke-width: 0.8"/>
      </g>
     </g>
     <g id="text_15">
      <!-- $\mathdefault{10^{12}}$ -->
      <g transform="translate(23.4 88.663212) scale(0.1 -0.1)">
       <use xlink:href="#DejaVuSans-31" transform="translate(0 0.765625)"/>
       <use xlink:href="#DejaVuSans-30" transform="translate(63.623047 0.765625)"/>
       <use xlink:href="#DejaVuSans-31" transform="translate(128.203125 39.046875) scale(0.7)"/>
       <use xlink:href="#DejaVuSans-32" transform="translate(172.739258 39.046875) scale(0.7)"/>
      </g>
     </g>
    </g>
    <g id="ytick_7">
     <g id="line2d_77">
      <g>
       <use xlink:href="#m16ffc18992" x="52.5" y="48.438451" style="stroke: #000000; stroke-width: 0.8"/>
      </g>
     </g>
     <g id="text_16">
      <!-- $\mathdefault{10^{14}}$ -->
      <g transform="translate(23.4 52.237669) scale(0.1 -0.1)">
       <use xlink:href="#DejaVuSans-31" transform="translate(0 0.684375)"/>
       <use xlink:href="#DejaVuSans-30" transform="translate(63.623047 0.684375)"/>
       <use xlink:href="#DejaVuSans-31" transform="translate(128.203125 38.965625) scale(0.7)"/>
       <use xlink:href="#DejaVuSans-34" transform="translate(172.739258 38.965625) scale(0.7)"/>
      </g>
     </g>
    </g>
    <g id="text_17">
     <!-- $n_\chi(r)$ [cm$^{-3}$] -->
     <g transform="translate(16.3 185.176) rotate(-90) scale(0.1 -0.1)">
      <defs>
       <path id="DejaVuSans-Oblique-6e" d="M 3566 2113 
L 3156 0 
L 2578 0 
L 2988 2091 
Q 3016 2238 3031 2350 
Q 3047 2463 3047 2528 
Q 3047 2791 2881 2937 
Q 2716 3084 2419 3084 
Q 1956 3084 1622 2776 
Q 1288 2469 1184 1941 
L 800 0 
L 225 0 
L 903 3500 
L 1478 3500 
L 1363 2950 
Q 1603 3253 1940 3418 
Q 2278 3584 2650 3584 
Q 3113 3584 3367 3334 
Q 3622 3084 3622 2631 
Q 3622 2519 3608 2391 
Q 3594 2263 3566 2113 
z
" transform="scale(0.015625)"/>
       <path id="DejaVuSans-Oblique-3c7" d="M 1922 -781 
L 1691 416 
L 394 -1334 
L -284 -1334 
L 1553 1141 
L 1269 2613 
Q 1194 3006 713 3006 
L 559 3006 
L 653 3500 
L 872 3494 
Q 1675 3472 1775 2950 
L 2006 1753 
L 3303 3503 
L 3981 3503 
L 2144 1028 
L 2428 -444 
Q 2503 -838 2984 -838 
L 3138 -838 
L 3044 -1331 
L 2825 -1325 
Q 2022 -1303 1922 -781 
z
" transform="scale(0.015625)"/>
       <path id="DejaVuSans-28" d="M 1984 4856 
Q 1566 4138 1362 3434 
Q 1159 2731 1159 2009 
Q 1159 1288 1364 580 
Q 1569 -128 1984 -844 
L 1484 -844 
Q 1016 -109 783 600 
Q 550 1309 550 2009 
Q 550 2706 781 3412 
Q 1013 4119 1484 4856 
L 1984 4856 
z
" transform="scale(0.015625)"/>
       <path id="DejaVuSans-29" d="M 513 4856 
L 1013 4856 
Q 1481 4119 1714 3412 
Q 1947 2706 1947 2009 
Q 1947 1309 1714 600 
Q 1481 -109 1013 -844 
L 513 -844 
Q 928 -128 1133 580 
Q 1338 1288 1338 2009 
Q 1338 2731 1133 3434 
Q 928 4138 513 4856 
z
" transform="scale(0.015625)"/>
       <path id="DejaVuSans-6d" d="M 3328 2828 
Q 3544 3216 3844 3400 
Q 4144 3584 4550 3584 
Q 5097 3584 5394 3201 
Q 5691 2819 5691 2113 
L 5691 0 
L 5113 0 
L 5113 2094 
Q 5113 2597 4934 2840 
Q 4756 3084 4391 3084 
Q 3944 3084 3684 2787 
Q 3425 2491 3425 1978 
L 3425 0 
L 2847 0 
L 2847 2094 
Q 2847 2600 2669 2842 
Q 2491 3084 2119 3084 
Q 1678 3084 1418 2786 
Q 1159 2488 1159 1978 
L 1159 0 
L 581 0 
L 581 3500 
L 1159 3500 
L 1159 2956 
Q 1356 3278 1631 3431 
Q 1906 3584 2284 3584 
Q 2666 3584 2933 3390 
Q 3200 3197 3328 2828 
z
" transform="scale(0.015625)"/>
      </defs>
      <use xlink:href="#DejaVuSans-Oblique-6e" transform="translate(0 0.765625)"/>
      <use xlink:href="#DejaVuSans-Oblique-3c7" transform="translate(63.378906 -15.640625) scale(0.7)"/>
      <use xlink:href="#DejaVuSans-28" transform="translate(107.539062 0.765625)"/>
      <use xlink:href="#DejaVuSans-Oblique-72" transform="translate(146.552734 0.765625)"/>
      <use xlink:href="#DejaVuSans-29" transform="translate(187.666016 0.765625)"/>
      <use xlink:href="#DejaVuSans-20" transform="translate(226.679688 0.765625)"/>
      <use xlink:href="#DejaVuSans-5b" transform="translate(258.466797 0.765625)"/>
      <use xlink:href="#DejaVuSans-63" transform="translate(297.480469 0.765625)"/>
      <use xlink:href="#DejaVuSans-6d" transform="translate(352.460938 0.765625)"/>
      <use xlink:href="#DejaVuSans-2212" transform="translate(450.830078 39.046875) scale(0.7)"/>
      <use xlink:href="#DejaVuSans-33" transform="translate(509.482422 39.046875) scale(0.7)"/>
      <use xlink:href="#DejaVuSans-5d" transform="translate(556.75293 0.765625)"/>
     </g>
    </g>
   </g>
   <g id="line2d_78">
    <path d="M 68.732727 34.416 
L 72.012066 36.347522 
L 75.291405 38.279064 
L 78.570744 40.210624 
L 81.850083 42.142198 
L 85.129421 44.073785 
L 88.40876 46.005383 
L 91.688099 47.936989 
L 94.967438 49.868603 
L 98.246777 51.800224 
L 101.526116 53.73185 
L 104.805455 55.663481 
L 108.084793 57.595116 
L 111.364132 59.526755 
L 114.643471 61.458396 
L 117.92281 63.390039 
L 121.202149 65.321685 
L 124.481488 67.253333 
L 127.760826 69.184982 
L 131.040165 71.116632 
L 134.319504 73.048283 
L 137.598843 74.979936 
L 140.878182 76.911589 
L 144.157521 78.843243 
L 147.43686 80.774897 
L 150.716198 82.706552 
L 153.995537 84.638207 
L 157.274876 86.569863 
L 160.554215 89.344133 
L 163.833554 92.348934 
L 167.112893 95.353735 
L 170.392231 98.358535 
L 173.67157 101.363336 
L 176.950909 104.368136 
L 180.230248 107.372937 
L 183.509587 110.377738 
L 186.788926 113.382538 
L 190.068264 116.387339 
L 193.347603 119.392139 
L 196.626942 122.39694 
L 199.906281 125.401741 
L 203.18562 128.406541 
L 206.464959 131.411342 
L 209.744298 134.416143 
L 213.023636 137.420943 
L 216.302975 140.425744 
L 219.582314 143.430544 
L 222.861653 146.435345 
L 226.140992 149.440146 
L 229.420331 152.444946 
L 232.699669 155.449747 
L 235.979008 158.454547 
L 239.258347 161.459348 
L 242.537686 164.464149 
L 245.817025 167.468949 
L 249.096364 170.47375 
L 252.375702 173.47855 
L 255.655041 176.483351 
L 258.93438 179.488152 
L 262.213719 182.492952 
L 265.493058 185.497753 
L 268.772397 188.502554 
L 272.051736 191.507354 
L 275.331074 194.512155 
L 278.610413 197.516955 
L 281.889752 199.161342 
L 285.169091 200.5003 
L 288.44843 201.848168 
L 291.727769 203.206467 
L 295.007107 204.576968 
L 298.286446 205.961729 
L 301.565785 207.363134 
L 304.845124 208.783937 
L 308.124463 210.227312 
L 311.403802 211.696902 
L 314.68314 213.19687 
L 317.962479 214.731951 
L 321.241818 216.307496 
L 324.521157 217.929512 
L 327.800496 219.60469 
L 331.079835 221.340409 
L 334.359174 223.144723 
L 337.638512 225.026308 
L 340.917851 226.994368 
L 344.19719 229.058505 
L 347.476529 231.228523 
L 350.755868 233.514188 
L 354.035207 235.924946 
L 357.314545 238.469595 
L 360.593884 241.155947 
L 363.873223 243.990495 
L 367.152562 246.978108 
L 370.431901 250.121796 
L 373.71124 253.422557 
L 376.990579 256.87932 
L 380.269917 260.489006 
L 383.549256 264.246682 
L 386.828595 268.145804 
L 390.107934 272.178518 
L 393.387273 276.335998 
" clip-path="url(#pe346135be4)" style="fill: none; stroke: #1f77b4; stroke-width: 1.5; stroke-linecap: square"/>
   </g>
   <g id="line2d_79">
    <path d="M 68.732727 112.167087 
L 72.012066 112.167205 
L 75.291405 112.167355 
L 78.570744 112.167547 
L 81.850083 112.167792 
L 85.129421 112.168105 
L 88.40876 112.168504 
L 91.688099 112.169013 
L 94.967438 112.169664 
L 98.246777 112.170494 
L 101.526116 112.171554 
L 104.805455 112.172907 
L 108.084793 112.174634 
L 111.364132 112.176838 
L 114.643471 112.179651 
L 117.92281 112.18324 
L 121.202149 112.18782 
L 124.481488 112.193663 
L 127.760826 112.201115 
L 131.040165 112.210619 
L 134.319504 112.222736 
L 137.598843 112.238177 
L 140.878182 112.257846 
L 144.157521 112.282884 
L 147.43686 112.314734 
L 150.716198 112.355209 
L 153.995537 112.406581 
L 157.274876 112.471681 
L 160.554215 112.596399 
L 163.833554 112.787367 
L 167.112893 113.05854 
L 170.392231 113.439009 
L 173.67157 113.964298 
L 176.950909 114.674524 
L 180.230248 115.610122 
L 183.509587 116.805257 
L 186.788926 118.28053 
L 190.068264 120.037836 
L 193.347603 122.05986 
L 196.626942 124.314484 
L 199.906281 126.761907 
L 203.18562 129.361541 
L 206.464959 132.076776 
L 209.744298 134.877246 
L 213.023636 137.739194 
L 216.302975 140.644785 
L 219.582314 143.581008 
L 222.861653 146.538561 
L 226.140992 149.510885 
L 229.420331 152.493396 
L 232.699669 155.482915 
L 235.979008 158.477248 
L 239.258347 161.474881 
L 242.537686 164.474775 
L 245.817025 167.476219 
L 249.096364 170.478722 
L 252.375702 173.481952 
L 255.655041 176.485678 
L 258.93438 179.489743 
L 262.213719 182.494041 
L 265.493058 185.498497 
L 268.772397 188.503063 
L 272.051736 191.507702 
L 275.331074 194.512393 
L 278.610413 197.517118 
L 281.889752 199.161474 
L 285.169091 200.500412 
L 288.44843 201.848262 
L 291.727769 203.206546 
L 295.007107 204.577035 
L 298.286446 205.961785 
L 301.565785 207.363181 
L 304.845124 208.783976 
L 308.124463 210.227344 
L 311.403802 211.696929 
L 314.68314 213.196893 
L 317.962479 214.73197 
L 321.241818 216.307511 
L 324.521157 217.929525 
L 327.800496 219.6047 
L 331.079835 221.340417 
L 334.359174 223.14473 
L 337.638512 225.026313 
L 340.917851 226.994372 
L 344.19719 229.058508 
L 347.476529 231.228525 
L 350.755868 233.514189 
L 354.035207 235.924947 
L 357.314545 238.469596 
L 360.593884 241.155948 
L 363.873223 243.990495 
L 367.152562 246.978108 
L 370.431901 250.121797 
L 373.71124 253.422557 
L 376.990579 256.87932 
L 380.269917 260.489006 
L 383.549256 264.246682 
L 386.828595 268.145804 
L 390.107934 272.178518 
L 393.387273 276.335998 
" clip-path="url(#pe346135be4)" style="fill: none; stroke: #ff7f0e; stroke-width: 1.5; stroke-linecap: square"/>
   </g>
   <g id="line2d_80">
    <path d="M 68.732727 130.379475 
L 72.012066 130.379487 
L 75.291405 130.379502 
L 78.570744 130.379521 
L 81.850083 130.379545 
L 85.129421 130.379577 
L 88.40876 130.379617 
L 91.688099 130.379668 
L 94.967438 130.379733 
L 98.246777 130.379816 
L 101.526116 130.379922 
L 104.805455 130.380057 
L 108.084793 130.38023 
L 111.364132 130.380451 
L 114.643471 130.380732 
L 117.92281 130.381092 
L 121.202149 130.381551 
L 124.481488 130.382137 
L 127.760826 130.382884 
L 131.040165 130.383839 
L 134.319504 130.385058 
L 137.598843 130.386613 
L 140.878182 130.388598 
L 144.157521 130.391132 
L 147.43686 130.394365 
L 150.716198 130.398491 
L 153.995537 130.403754 
L 157.274876 130.410469 
L 160.554215 130.423472 
L 163.833554 130.443741 
L 167.112893 130.473284 
L 170.392231 130.516281 
L 173.67157 130.578731 
L 176.950909 130.669161 
L 180.230248 130.799548 
L 183.509587 130.986402 
L 186.788926 131.251897 
L 190.068264 131.624714 
L 193.347603 132.140015 
L 196.626942 132.837731 
L 199.906281 133.758448 
L 203.18562 134.93693 
L 206.464959 136.394794 
L 209.744298 138.135147 
L 213.023636 140.141769 
L 216.302975 142.383256 
L 219.582314 144.820062 
L 222.861653 147.411485 
L 226.140992 150.120584 
L 229.420331 152.916583 
L 232.699669 155.775334 
L 235.979008 158.67867 
L 239.258347 161.613318 
L 242.537686 164.569778 
L 245.817025 167.541345 
L 249.096364 170.523336 
L 252.375702 173.512498 
L 255.655041 176.506585 
L 258.93438 179.504049 
L 262.213719 182.503829 
L 265.493058 185.505193 
L 268.772397 188.507643 
L 272.051736 191.510835 
L 275.331074 194.514536 
L 278.610413 197.518584 
L 281.889752 199.162665 
L 285.169091 200.501417 
L 288.44843 201.84911 
L 291.727769 203.20726 
L 295.007107 204.577635 
L 298.286446 205.962289 
L 301.565785 207.363603 
L 304.845124 208.784329 
L 308.124463 210.227638 
L 311.403802 211.697173 
L 314.68314 213.197095 
L 317.962479 214.732136 
L 321.241818 216.307647 
L 324.521157 217.929636 
L 327.800496 219.60479 
L 331.079835 221.340489 
L 334.359174 223.144787 
L 337.638512 225.026358 
L 340.917851 226.994408 
L 344.19719 229.058536 
L 347.476529 231.228545 
L 350.755868 233.514205 
L 354.035207 235.924958 
L 357.314545 238.469604 
L 360.593884 241.155954 
L 363.873223 243.990499 
L 367.152562 246.978111 
L 370.431901 250.121799 
L 373.71124 253.422559 
L 376.990579 256.879321 
L 380.269917 260.489007 
L 383.549256 264.246683 
L 386.828595 268.145804 
L 390.107934 272.178518 
L 393.387273 276.335998 
" clip-path="url(#pe346135be4)" style="fill: none; stroke: #2ca02c; stroke-width: 1.5; stroke-linecap: square"/>
   </g>
   <g id="line2d_81">
    <path d="M 68.732727 157.281905 
L 72.012066 157.281905 
L 75.291405 157.281906 
L 78.570744 157.281907 
L 81.850083 157.281907 
L 85.129421 157.281908 
L 88.40876 157.28191 
L 91.688099 157.281911 
L 94.967438 157.281914 
L 98.246777 157.281916 
L 101.526116 157.28192 
L 104.805455 157.281924 
L 108.084793 157.28193 
L 111.364132 157.281938 
L 114.643471 157.281947 
L 117.92281 157.281959 
L 121.202149 157.281974 
L 124.481488 157.281994 
L 127.760826 157.282019 
L 131.040165 157.28205 
L 134.319504 157.282091 
L 137.598843 157.282143 
L 140.878182 157.282209 
L 144.157521 157.282294 
L 147.43686 157.282402 
L 150.716198 157.28254 
L 153.995537 157.282716 
L 157.274876 157.28294 
L 160.554215 157.283376 
L 163.833554 157.284056 
L 167.112893 157.28505 
L 170.392231 157.286504 
L 173.67157 157.288628 
L 176.950909 157.291734 
L 180.230248 157.296273 
L 183.509587 157.302905 
L 186.788926 157.312591 
L 190.068264 157.326732 
L 193.347603 157.347362 
L 196.626942 157.37743 
L 199.906281 157.421188 
L 203.18562 157.484735 
L 206.464959 157.576738 
L 209.744298 157.709361 
L 213.023636 157.899355 
L 216.302975 158.169184 
L 219.582314 158.547842 
L 222.861653 159.070771 
L 226.140992 159.778043 
L 229.420331 160.710132 
L 232.699669 161.901346 
L 235.979008 163.372527 
L 239.258347 165.125855 
L 242.537686 167.14427 
L 245.817025 169.395821 
L 249.096364 171.840763 
L 252.375702 174.438479 
L 255.655041 177.152283 
L 258.93438 179.95171 
L 262.213719 182.812912 
L 265.493058 185.717978 
L 268.772397 188.653834 
L 272.051736 191.611133 
L 275.331074 194.58328 
L 278.610413 197.56567 
L 281.889752 199.200935 
L 285.169091 200.533741 
L 288.44843 201.876378 
L 291.727769 203.230233 
L 295.007107 204.596958 
L 298.286446 205.978512 
L 301.565785 207.377194 
L 304.845124 208.795687 
L 308.124463 210.237103 
L 311.403802 211.705034 
L 314.68314 213.203598 
L 317.962479 214.737493 
L 321.241818 216.312037 
L 324.521157 217.933211 
L 327.800496 219.607683 
L 331.079835 221.342813 
L 334.359174 223.146637 
L 337.638512 225.027816 
L 340.917851 226.995544 
L 344.19719 229.059411 
L 347.476529 231.229211 
L 350.755868 233.514704 
L 354.035207 235.925326 
L 357.314545 238.46987 
L 360.593884 241.156143 
L 363.873223 243.990632 
L 367.152562 246.978202 
L 370.431901 250.12186 
L 373.71124 253.422599 
L 376.990579 256.879347 
L 380.269917 260.489023 
L 383.549256 264.246693 
L 386.828595 268.14581 
L 390.107934 272.178522 
L 393.387273 276.336 
" clip-path="url(#pe346135be4)" style="fill: none; stroke: #d62728; stroke-width: 1.5; stroke-linecap: square"/>
   </g>
   <g id="patch_3">
    <path d="M 52.5 288.432 
L 52.5 22.32 
" style="fill: none; stroke: #000000; stroke-width: 0.8; stroke-linejoin: miter; stroke-linecap: square"/>
   </g>
   <g id="patch_4">
    <path d="M 409.62 288.432 
L 409.62 22.32 
" style="fill: none; stroke: #000000; stroke-width: 0.8; stroke-linejoin: miter; stroke-linecap: square"/>
   </g>
   <g id="patch_5">
    <path d="M 52.5 288.432 
L 409.62 288.432 
" style="fill: none; stroke: #000000; stroke-width: 0.8; stroke-linejoin: miter; stroke-linecap: square"/>
   </g>
   <g id="patch_6">
    <path d="M 52.5 22.32 
L 409.62 22.32 
" style="fill: none; stroke: #000000; stroke-width: 0.8; stroke-linejoin: miter; stroke-linecap: square"/>
   </g>
   <g id="text_18">
    <!-- LMC with spike and $m_\chi = 0.01$ MeV -->
    <g transform="translate(126.78 16.32) scale(0.12 -0.12)">
     <defs>
      <path id="DejaVuSans-4c" d="M 628 4666 
L 1259 4666 
L 1259 531 
L 3531 531 
L 3531 0 
L 628 0 
L 628 4666 
z
" transform="scale(0.015625)"/>
      <path id="DejaVuSans-4d" d="M 628 4666 
L 1569 4666 
L 2759 1491 
L 3956 4666 
L 4897 4666 
L 4897 0 
L 4281 0 
L 4281 4097 
L 3078 897 
L 2444 897 
L 1241 4097 
L 1241 0 
L 628 0 
L 628 4666 
z
" transform="scale(0.015625)"/>
      <path id="DejaVuSans-43" d="M 4122 4306 
L 4122 3641 
Q 3803 3938 3442 4084 
Q 3081 4231 2675 4231 
Q 1875 4231 1450 3742 
Q 1025 3253 1025 2328 
Q 1025 1406 1450 917 
Q 1875 428 2675 428 
Q 3081 428 3442 575 
Q 3803 722 4122 1019 
L 4122 359 
Q 3791 134 3420 21 
Q 3050 -91 2638 -91 
Q 1578 -91 968 557 
Q 359 1206 359 2328 
Q 359 3453 968 4101 
Q 1578 4750 2638 4750 
Q 3056 4750 3426 4639 
Q 3797 4528 4122 4306 
z
" transform="scale(0.015625)"/>
      <path id="DejaVuSans-77" d="M 269 3500 
L 844 3500 
L 1563 769 
L 2278 3500 
L 2956 3500 
L 3675 769 
L 4391 3500 
L 4966 3500 
L 4050 0 
L 3372 0 
L 2619 2869 
L 1863 0 
L 1184 0 
L 269 3500 
z
" transform="scale(0.015625)"/>
      <path id="DejaVuSans-69" d="M 603 3500 
L 1178 3500 
L 1178 0 
L 603 0 
L 603 3500 
z
M 603 4863 
L 1178 4863 
L 1178 4134 
L 603 4134 
L 603 4863 
z
" transform="scale(0.015625)"/>
      <path id="DejaVuSans-74" d="M 1172 4494 
L 1172 3500 
L 2356 3500 
L 2356 3053 
L 1172 3053 
L 1172 1153 
Q 1172 725 1289 603 
Q 1406 481 1766 481 
L 2356 481 
L 2356 0 
L 1766 0 
Q 1100 0 847 248 
Q 594 497 594 1153 
L 594 3053 
L 172 3053 
L 172 3500 
L 594 3500 
L 594 4494 
L 1172 4494 
z
" transform="scale(0.015625)"/>
      <path id="DejaVuSans-68" d="M 3513 2113 
L 3513 0 
L 2938 0 
L 2938 2094 
Q 2938 2591 2744 2837 
Q 2550 3084 2163 3084 
Q 1697 3084 1428 2787 
Q 1159 2491 1159 1978 
L 1159 0 
L 581 0 
L 581 4863 
L 1159 4863 
L 1159 2956 
Q 1366 3272 1645 3428 
Q 1925 3584 2291 3584 
Q 2894 3584 3203 3211 
Q 3513 2838 3513 2113 
z
" transform="scale(0.015625)"/>
      <path id="DejaVuSans-73" d="M 2834 3397 
L 2834 2853 
Q 2591 2978 2328 3040 
Q 2066 3103 1784 3103 
Q 1356 3103 1142 2972 
Q 928 2841 928 2578 
Q 928 2378 1081 2264 
Q 1234 2150 1697 2047 
L 1894 2003 
Q 2506 1872 2764 1633 
Q 3022 1394 3022 966 
Q 3022 478 2636 193 
Q 2250 -91 1575 -91 
Q 1294 -91 989 -36 
Q 684 19 347 128 
L 347 722 
Q 666 556 975 473 
Q 1284 391 1588 391 
Q 1994 391 2212 530 
Q 2431 669 2431 922 
Q 2431 1156 2273 1281 
Q 2116 1406 1581 1522 
L 1381 1569 
Q 847 1681 609 1914 
Q 372 2147 372 2553 
Q 372 3047 722 3315 
Q 1072 3584 1716 3584 
Q 2034 3584 2315 3537 
Q 2597 3491 2834 3397 
z
" transform="scale(0.015625)"/>
      <path id="DejaVuSans-65" d="M 3597 1894 
L 3597 1613 
L 953 1613 
Q 991 1019 1311 708 
Q 1631 397 2203 397 
Q 2534 397 2845 478 
Q 3156 559 3463 722 
L 3463 178 
Q 3153 47 2828 -22 
Q 2503 -91 2169 -91 
Q 1331 -91 842 396 
Q 353 884 353 1716 
Q 353 2575 817 3079 
Q 1281 3584 2069 3584 
Q 2775 3584 3186 3129 
Q 3597 2675 3597 1894 
z
M 3022 2063 
Q 3016 2534 2758 2815 
Q 2500 3097 2075 3097 
Q 1594 3097 1305 2825 
Q 1016 2553 972 2059 
L 3022 2063 
z
" transform="scale(0.015625)"/>
      <path id="DejaVuSans-61" d="M 2194 1759 
Q 1497 1759 1228 1600 
Q 959 1441 959 1056 
Q 959 750 1161 570 
Q 1363 391 1709 391 
Q 2188 391 2477 730 
Q 2766 1069 2766 1631 
L 2766 1759 
L 2194 1759 
z
M 3341 1997 
L 3341 0 
L 2766 0 
L 2766 531 
Q 2569 213 2275 61 
Q 1981 -91 1556 -91 
Q 1019 -91 701 211 
Q 384 513 384 1019 
Q 384 1609 779 1909 
Q 1175 2209 1959 2209 
L 2766 2209 
L 2766 2266 
Q 2766 2663 2505 2880 
Q 2244 3097 1772 3097 
Q 1472 3097 1187 3025 
Q 903 2953 641 2809 
L 641 3341 
Q 956 3463 1253 3523 
Q 1550 3584 1831 3584 
Q 2591 3584 2966 3190 
Q 3341 2797 3341 1997 
z
" transform="scale(0.015625)"/>
      <path id="DejaVuSans-6e" d="M 3513 2113 
L 3513 0 
L 2938 0 
L 2938 2094 
Q 2938 2591 2744 2837 
Q 2550 3084 2163 3084 
Q 1697 3084 1428 2787 
Q 1159 2491 1159 1978 
L 1159 0 
L 581 0 
L 581 3500 
L 1159 3500 
L 1159 2956 
Q 1366 3272 1645 3428 
Q 1925 3584 2291 3584 
Q 2894 3584 3203 3211 
Q 3513 2838 3513 2113 
z
" transform="scale(0.015625)"/>
      <path id="DejaVuSans-64" d="M 2906 2969 
L 2906 4863 
L 3481 4863 
L 3481 0 
L 2906 0 
L 2906 525 
Q 2725 213 2448 61 
Q 2172 -91 1784 -91 
Q 1150 -91 751 415 
Q 353 922 353 1747 
Q 353 2572 751 3078 
Q 1150 3584 1784 3584 
Q 2172 3584 2448 3432 
Q 2725 3281 2906 2969 
z
M 947 1747 
Q 947 1113 1208 752 
Q 1469 391 1925 391 
Q 2381 391 2643 752 
Q 2906 1113 2906 1747 
Q 2906 2381 2643 2742 
Q 2381 3103 1925 3103 
Q 1469 3103 1208 2742 
Q 947 2381 947 1747 
z
" transform="scale(0.015625)"/>
      <path id="DejaVuSans-Oblique-6d" d="M 5747 2113 
L 5338 0 
L 4763 0 
L 5166 2094 
Q 5191 2228 5203 2325 
Q 5216 2422 5216 2491 
Q 5216 2772 5059 2928 
Q 4903 3084 4622 3084 
Q 4203 3084 3875 2770 
Q 3547 2456 3450 1953 
L 3066 0 
L 2491 0 
L 2900 2094 
Q 2925 2209 2937 2307 
Q 2950 2406 2950 2484 
Q 2950 2769 2794 2926 
Q 2638 3084 2363 3084 
Q 1938 3084 1609 2770 
Q 1281 2456 1184 1953 
L 800 0 
L 225 0 
L 909 3500 
L 1484 3500 
L 1375 2956 
Q 1609 3263 1923 3423 
Q 2238 3584 2597 3584 
Q 2978 3584 3223 3384 
Q 3469 3184 3519 2828 
Q 3781 3197 4126 3390 
Q 4472 3584 4856 3584 
Q 5306 3584 5551 3325 
Q 5797 3066 5797 2591 
Q 5797 2488 5784 2364 
Q 5772 2241 5747 2113 
z
" transform="scale(0.015625)"/>
      <path id="DejaVuSans-3d" d="M 678 2906 
L 4684 2906 
L 4684 2381 
L 678 2381 
L 678 2906 
z
M 678 1631 
L 4684 1631 
L 4684 1100 
L 678 1100 
L 678 1631 
z
" transform="scale(0.015625)"/>
      <path id="DejaVuSans-2e" d="M 684 794 
L 1344 794 
L 1344 0 
L 684 0 
L 684 794 
z
" transform="scale(0.015625)"/>
      <path id="DejaVuSans-56" d="M 1831 0 
L 50 4666 
L 709 4666 
L 2188 738 
L 3669 4666 
L 4325 4666 
L 2547 0 
L 1831 0 
z
" transform="scale(0.015625)"/>
     </defs>
     <use xlink:href="#DejaVuSans-4c" transform="translate(0 0.015625)"/>
     <use xlink:href="#DejaVuSans-4d" transform="translate(55.712891 0.015625)"/>
     <use xlink:href="#DejaVuSans-43" transform="translate(141.992188 0.015625)"/>
     <use xlink:href="#DejaVuSans-20" transform="translate(211.816406 0.015625)"/>
     <use xlink:href="#DejaVuSans-77" transform="translate(243.603516 0.015625)"/>
     <use xlink:href="#DejaVuSans-69" transform="translate(325.390625 0.015625)"/>
     <use xlink:href="#DejaVuSans-74" transform="translate(353.173828 0.015625)"/>
     <use xlink:href="#DejaVuSans-68" transform="translate(392.382812 0.015625)"/>
     <use xlink:href="#DejaVuSans-20" transform="translate(455.761719 0.015625)"/>
     <use xlink:href="#DejaVuSans-73" transform="translate(487.548828 0.015625)"/>
     <use xlink:href="#DejaVuSans-70" transform="translate(539.648438 0.015625)"/>
     <use xlink:href="#DejaVuSans-69" transform="translate(603.125 0.015625)"/>
     <use xlink:href="#DejaVuSans-6b" transform="translate(630.908203 0.015625)"/>
     <use xlink:href="#DejaVuSans-65" transform="translate(688.818359 0.015625)"/>
     <use xlink:href="#DejaVuSans-20" transform="translate(750.341797 0.015625)"/>
     <use xlink:href="#DejaVuSans-61" transform="translate(782.128906 0.015625)"/>
     <use xlink:href="#DejaVuSans-6e" transform="translate(843.408203 0.015625)"/>
     <use xlink:href="#DejaVuSans-64" transform="translate(906.787109 0.015625)"/>
     <use xlink:href="#DejaVuSans-20" transform="translate(970.263672 0.015625)"/>
     <use xlink:href="#DejaVuSans-Oblique-6d" transform="translate(1002.050781 0.015625)"/>
     <use xlink:href="#DejaVuSans-Oblique-3c7" transform="translate(1099.462891 -16.390625) scale(0.7)"/>
     <use xlink:href="#DejaVuSans-3d" transform="translate(1163.105469 0.015625)"/>
     <use xlink:href="#DejaVuSans-30" transform="translate(1266.376953 0.015625)"/>
     <use xlink:href="#DejaVuSans-2e" transform="translate(1330 0.015625)"/>
     <use xlink:href="#DejaVuSans-30" transform="translate(1361.787109 0.015625)"/>
     <use xlink:href="#DejaVuSans-31" transform="translate(1425.410156 0.015625)"/>
     <use xlink:href="#DejaVuSans-20" transform="translate(1489.033203 0.015625)"/>
     <use xlink:href="#DejaVuSans-4d" transform="translate(1520.820312 0.015625)"/>
     <use xlink:href="#DejaVuSans-65" transform="translate(1607.099609 0.015625)"/>
     <use xlink:href="#DejaVuSans-56" transform="translate(1668.623047 0.015625)"/>
    </g>
   </g>
   <g id="legend_1">
    <g id="patch_7">
     <path d="M 316.02 89.0325 
L 402.62 89.0325 
Q 404.62 89.0325 404.62 87.0325 
L 404.62 29.32 
Q 404.62 27.32 402.62 27.32 
L 316.02 27.32 
Q 314.02 27.32 314.02 29.32 
L 314.02 87.0325 
Q 314.02 89.0325 316.02 89.0325 
z
" style="fill: #ffffff; opacity: 0.8; stroke: #cccccc; stroke-linejoin: miter"/>
    </g>
    <g id="line2d_82">
     <path d="M 318.02 35.418437 
L 328.02 35.418437 
L 338.02 35.418437 
" style="fill: none; stroke: #1f77b4; stroke-width: 1.5; stroke-linecap: square"/>
    </g>
    <g id="text_19">
     <!-- $\langle\sigma v\rangle=$0 -->
     <g transform="translate(346.02 38.918437) scale(0.1 -0.1)">
      <defs>
       <path id="DejaVuSans-27e8" d="M 572 2006 
L 1453 4856 
L 1984 4856 
L 1103 2006 
L 1984 -844 
L 1453 -844 
L 572 2006 
z
" transform="scale(0.015625)"/>
       <path id="DejaVuSans-Oblique-3c3" d="M 2219 3044 
Q 1744 3044 1422 2700 
Q 1081 2341 969 1747 
Q 844 1119 1044 756 
Q 1241 397 1706 397 
Q 2166 397 2503 759 
Q 2844 1122 2966 1747 
Q 3075 2319 2881 2700 
Q 2700 3044 2219 3044 
z
M 2309 3503 
L 4219 3500 
L 4106 2925 
L 3463 2925 
Q 3706 2438 3575 1747 
Q 3406 888 2884 400 
Q 2359 -91 1609 -91 
Q 856 -91 525 400 
Q 194 888 363 1747 
Q 528 2609 1050 3097 
Q 1484 3503 2309 3503 
z
" transform="scale(0.015625)"/>
       <path id="DejaVuSans-Oblique-76" d="M 459 3500 
L 1069 3500 
L 1581 525 
L 3256 3500 
L 3866 3500 
L 1875 0 
L 1100 0 
L 459 3500 
z
" transform="scale(0.015625)"/>
       <path id="DejaVuSans-27e9" d="M 1925 2006 
L 1044 -844 
L 513 -844 
L 1394 2006 
L 513 4856 
L 1044 4856 
L 1925 2006 
z
" transform="scale(0.015625)"/>
      </defs>
      <use xlink:href="#DejaVuSans-27e8" transform="translate(0 0.125)"/>
      <use xlink:href="#DejaVuSans-Oblique-3c3" transform="translate(39.013672 0.125)"/>
      <use xlink:href="#DejaVuSans-Oblique-76" transform="translate(102.392578 0.125)"/>
      <use xlink:href="#DejaVuSans-27e9" transform="translate(161.572266 0.125)"/>
      <use xlink:href="#DejaVuSans-3d" transform="translate(220.068359 0.125)"/>
      <use xlink:href="#DejaVuSans-30" transform="translate(323.339844 0.125)"/>
     </g>
    </g>
    <g id="line2d_83">
     <path d="M 318.02 50.096562 
L 328.02 50.096562 
L 338.02 50.096562 
" style="fill: none; stroke: #ff7f0e; stroke-width: 1.5; stroke-linecap: square"/>
    </g>
    <g id="text_20">
     <!-- $\langle\sigma v\rangle=$0.01 -->
     <g transform="translate(346.02 53.596562) scale(0.1 -0.1)">
      <use xlink:href="#DejaVuSans-27e8" transform="translate(0 0.125)"/>
      <use xlink:href="#DejaVuSans-Oblique-3c3" transform="translate(39.013672 0.125)"/>
      <use xlink:href="#DejaVuSans-Oblique-76" transform="translate(102.392578 0.125)"/>
      <use xlink:href="#DejaVuSans-27e9" transform="translate(161.572266 0.125)"/>
      <use xlink:href="#DejaVuSans-3d" transform="translate(220.068359 0.125)"/>
      <use xlink:href="#DejaVuSans-30" transform="translate(323.339844 0.125)"/>
      <use xlink:href="#DejaVuSans-2e" transform="translate(386.962891 0.125)"/>
      <use xlink:href="#DejaVuSans-30" transform="translate(418.75 0.125)"/>
      <use xlink:href="#DejaVuSans-31" transform="translate(482.373047 0.125)"/>
     </g>
    </g>
    <g id="line2d_84">
     <path d="M 318.02 64.774687 
L 328.02 64.774687 
L 338.02 64.774687 
" style="fill: none; stroke: #2ca02c; stroke-width: 1.5; stroke-linecap: square"/>
    </g>
    <g id="text_21">
     <!-- $\langle\sigma v\rangle=$0.1 -->
     <g transform="translate(346.02 68.274687) scale(0.1 -0.1)">
      <use xlink:href="#DejaVuSans-27e8" transform="translate(0 0.125)"/>
      <use xlink:href="#DejaVuSans-Oblique-3c3" transform="translate(39.013672 0.125)"/>
      <use xlink:href="#DejaVuSans-Oblique-76" transform="translate(102.392578 0.125)"/>
      <use xlink:href="#DejaVuSans-27e9" transform="translate(161.572266 0.125)"/>
      <use xlink:href="#DejaVuSans-3d" transform="translate(220.068359 0.125)"/>
      <use xlink:href="#DejaVuSans-30" transform="translate(323.339844 0.125)"/>
      <use xlink:href="#DejaVuSans-2e" transform="translate(386.962891 0.125)"/>
      <use xlink:href="#DejaVuSans-31" transform="translate(418.75 0.125)"/>
     </g>
    </g>
    <g id="line2d_85">
     <path d="M 318.02 79.452812 
L 328.02 79.452812 
L 338.02 79.452812 
" style="fill: none; stroke: #d62728; stroke-width: 1.5; stroke-linecap: square"/>
    </g>
    <g id="text_22">
     <!-- $\langle\sigma v\rangle=$3 -->
     <g transform="translate(346.02 82.952812) scale(0.1 -0.1)">
      <use xlink:href="#DejaVuSans-27e8" transform="translate(0 0.125)"/>
      <use xlink:href="#DejaVuSans-Oblique-3c3" transform="translate(39.013672 0.125)"/>
      <use xlink:href="#DejaVuSans-Oblique-76" transform="translate(102.392578 0.125)"/>
      <use xlink:href="#DejaVuSans-27e9" transform="translate(161.572266 0.125)"/>
      <use xlink:href="#DejaVuSans-3d" transform="translate(220.068359 0.125)"/>
      <use xlink:href="#DejaVuSans-33" transform="translate(323.339844 0.125)"/>
     </g>
    </g>
   </g>
  </g>
 </g>
 <defs>
  <clipPath id="pe346135be4">
   <rect x="52.5" y="22.32" width="357.12" height="266.112"/>
  </clipPath>
 </defs>
</svg>
